<svg width="194" height="160" viewBox="0 0 194 160" fill="none" xmlns="http://www.w3.org/2000/svg">
<path d="M130.004 111.846C132.402 109.444 136.293 109.444 138.692 111.846L142.631 115.79L154.296 104.104C156.696 101.702 160.586 101.702 162.984 104.104C165.382 106.508 165.382 110.404 162.984 112.806L147.379 128.436C146.848 128.968 146.245 129.382 145.6 129.678C143.248 131.056 140.175 130.736 138.158 128.714L130.004 120.546C127.605 118.144 127.605 114.246 130.004 111.844V111.846Z" fill="white"/>
<path d="M109.201 131.436H33.372C31.4132 131.436 29.5781 130.92 28.0147 130.014L74.1839 89.714L78.4949 93.47C82.1011 96.61 86.6158 98.2 91.0866 98.2C95.5573 98.2 100.094 96.61 103.7 93.47L108.009 89.714L112.482 93.62C114.377 90.732 116.635 88.106 119.193 85.806L115.843 82.882L159.622 44.626V78.006C163.767 79.528 167.587 81.722 170.957 84.45V39.402C170.957 37.936 170.816 36.488 170.546 35.086C169.825 31.452 168.218 28.128 165.971 25.382C165.498 24.784 165.003 24.248 164.466 23.712C160.486 19.706 154.901 17.208 148.799 17.208H33.372C27.2699 17.208 21.7049 19.706 17.7073 23.712C17.1722 24.248 16.677 24.784 16.2018 25.382C13.9554 28.128 12.346 31.454 11.6452 35.086C11.3576 36.488 11.2119 37.938 11.2119 39.402V120.6C11.2119 123.716 11.8708 126.71 13.0469 129.414C14.1371 131.996 15.7465 134.33 17.7033 136.29C18.1985 136.786 18.6917 137.242 19.2289 137.694C23.0627 140.874 28.0107 142.794 33.368 142.794H116.607C113.534 139.482 111.014 135.648 109.195 131.438L109.201 131.436ZM25.7244 31.74C27.7032 29.76 30.3629 28.56 33.372 28.56H148.797C151.806 28.56 154.488 29.76 156.445 31.74C156.794 32.092 157.124 32.486 157.415 32.876L96.9171 85.686C95.2478 87.15 93.1872 87.874 91.0846 87.874C88.982 87.874 86.9433 87.15 85.252 85.686L24.7759 32.856C25.0435 32.466 25.3729 32.094 25.7244 31.742V31.74ZM22.5495 120.6V44.604L66.3306 82.858L22.5715 121.072C22.5495 120.928 22.5495 120.764 22.5495 120.598V120.6Z" fill="white"/>
<path fill-rule="evenodd" clip-rule="evenodd" d="M182.786 115.204C182.786 135.594 166.283 152.124 145.926 152.124C125.569 152.124 109.065 135.594 109.065 115.204C109.065 94.814 125.569 78.284 145.926 78.284C166.283 78.284 182.786 94.814 182.786 115.204ZM121.242 115.204C121.242 128.858 132.294 139.928 145.926 139.928C159.558 139.928 170.61 128.858 170.61 115.204C170.61 101.55 159.558 90.48 145.926 90.48C132.294 90.48 121.242 101.55 121.242 115.204Z" fill="white"/>
</svg>
