<svg width="80" height="80" viewBox="0 0 80 80" fill="none" xmlns="http://www.w3.org/2000/svg">
<g clip-path="url(#clip0_238_196)">
<path d="M5.125 2.79688C2.85938 3.53125 0.921875 5.51562 0.25 7.79688C0.03125 8.5625 0 11.8438 0 40.0156C0 70.3594 0.015625 71.4062 0.296875 72.3281C1.01562 74.625 2.98438 76.5781 5.29688 77.25C6.0625 77.4688 9.5625 77.5 40.0156 77.5C72.8125 77.5 73.9062 77.4844 74.8281 77.2031C77.125 76.4844 79.0781 74.5156 79.75 72.2031C79.9688 71.4375 80 68.1562 80 40C80 11.8438 79.9688 8.5625 79.75 7.79688C79.0781 5.48438 77.125 3.51562 74.8281 2.79688C73.9062 2.51562 72.8281 2.5 39.9531 2.51562C7.48438 2.51562 5.98438 2.53125 5.125 2.79688ZM13.7188 12.9688C15.75 14.2031 14.875 17.3438 12.5 17.3438C12.0781 17.3438 11.5938 17.2188 11.2812 17.0312C9.25 15.7969 10.125 12.6562 12.5 12.6562C12.9219 12.6562 13.4062 12.7812 13.7188 12.9688ZM21.2188 12.9688C23.25 14.2031 22.375 17.3438 20 17.3438C18.6719 17.3438 17.6562 16.3281 17.6562 15C17.6562 13.6719 18.6719 12.6562 20 12.6562C20.4219 12.6562 20.9062 12.7812 21.2188 12.9688ZM28.7188 12.9688C30.75 14.2031 29.875 17.3438 27.5 17.3438C26.1719 17.3438 25.1562 16.3281 25.1562 15C25.1562 14.1562 25.5781 13.4062 26.2812 12.9688C26.5938 12.7812 27.0781 12.6562 27.5 12.6562C27.9219 12.6562 28.4062 12.7812 28.7188 12.9688ZM74.9688 49.0156C74.9219 70.2344 74.9219 70.5625 74.6094 71.0781C74.2031 71.7656 73.6406 72.1719 72.875 72.3438C72.0625 72.5469 7.9375 72.5469 7.125 72.3438C6.35938 72.1719 5.79688 71.7656 5.39062 71.0781C5.07812 70.5625 5.07812 70.2344 5.03125 49.0156L5 27.5H40H75L74.9688 49.0156Z" fill="white"/>
<path d="M14.644 58.264C13.7347 58.264 12.95 58.132 12.29 57.868C11.63 57.604 11.08 57.2227 10.64 56.724C10.2147 56.2253 9.892 55.624 9.672 54.92C9.452 54.2013 9.342 53.3873 9.342 52.478V43.678H12.862V52.852C12.862 53.3507 12.9207 53.776 13.038 54.128C13.1553 54.48 13.346 54.7513 13.61 54.942C13.874 55.1327 14.2187 55.228 14.644 55.228C15.0693 55.228 15.414 55.1327 15.678 54.942C15.9567 54.7513 16.1547 54.48 16.272 54.128C16.404 53.776 16.47 53.3507 16.47 52.852V43.678H19.858V52.478C19.858 53.3873 19.7553 54.2013 19.55 54.92C19.3447 55.624 19.0293 56.2253 18.604 56.724C18.1787 57.2227 17.636 57.604 16.976 57.868C16.3307 58.132 15.5533 58.264 14.644 58.264ZM22.2914 58V55.052H25.5914V46.626H22.2914V43.678H32.4114V46.626H29.1114V55.052H32.4114V58H22.2914ZM35.0208 61.52L42.2808 42.38H45.1848L37.9248 61.52H35.0208ZM52.8982 58.264C51.9889 58.264 51.2042 58.132 50.5442 57.868C49.8842 57.604 49.3342 57.2227 48.8942 56.724C48.4689 56.2253 48.1462 55.624 47.9262 54.92C47.7062 54.2013 47.5962 53.3873 47.5962 52.478V43.678H51.1162V52.852C51.1162 53.3507 51.1749 53.776 51.2922 54.128C51.4096 54.48 51.6002 54.7513 51.8642 54.942C52.1282 55.1327 52.4729 55.228 52.8982 55.228C53.3236 55.228 53.6682 55.1327 53.9322 54.942C54.2109 54.7513 54.4089 54.48 54.5262 54.128C54.6582 53.776 54.7242 53.3507 54.7242 52.852V43.678H58.1122V52.478C58.1122 53.3873 58.0096 54.2013 57.8042 54.92C57.5989 55.624 57.2836 56.2253 56.8582 56.724C56.4329 57.2227 55.8902 57.604 55.2302 57.868C54.5849 58.132 53.8076 58.264 52.8982 58.264ZM59.2476 58L63.4056 50.63L59.4896 43.678H63.4056L64.6816 46.208C64.843 46.5307 65.0116 46.8827 65.1876 47.264C65.3636 47.6453 65.5543 48.0707 65.7596 48.54H65.8476C66.0236 48.0707 66.1923 47.6453 66.3536 47.264C66.515 46.8827 66.669 46.5307 66.8156 46.208L67.9596 43.678H71.7216L67.8056 50.806L71.9636 58H68.0476L66.5956 55.272C66.405 54.8907 66.2216 54.5093 66.0456 54.128C65.8696 53.7467 65.679 53.336 65.4736 52.896H65.3856C65.2243 53.336 65.0556 53.7467 64.8796 54.128C64.7183 54.5093 64.5423 54.8907 64.3516 55.272L63.0096 58H59.2476Z" fill="white"/>
</g>
<defs>
<clipPath id="clip0_238_196">
<rect width="80" height="80" fill="white"/>
</clipPath>
</defs>
</svg>
