<?xml version="1.0" encoding="UTF-8"?>
<svg xmlns="http://www.w3.org/2000/svg" xmlns:xlink="http://www.w3.org/1999/xlink" viewBox="0 0 3710 3710">
  <defs>
    <style>
      .cls-1 {
        fill: url(#linear-gradient-2);
      }

      .cls-2, .cls-3 {
        fill: #fff;
      }

      .cls-4 {
        isolation: isolate;
      }

      .cls-3 {
        mix-blend-mode: soft-light;
        opacity: .74;
      }

      .cls-5 {
        fill: #f4f7fa;
      }

      .cls-6 {
        fill: url(#linear-gradient);
      }
    </style>
    <linearGradient id="linear-gradient" x1="528.28" y1="1933.4" x2="3215.59" y2="1933.4" gradientUnits="userSpaceOnUse">
      <stop offset="0" stop-color="#00a896"/>
      <stop offset="1" stop-color="#036d5e"/>
    </linearGradient>
    <linearGradient id="linear-gradient-2" x1="2080.69" y1="885.62" x2="952.55" y2="2729.89" gradientUnits="userSpaceOnUse">
      <stop offset="0" stop-color="#444b8c"/>
      <stop offset="1" stop-color="#26264f"/>
    </linearGradient>
  </defs>
  <g class="cls-4">
    <g id="Illustration">
      <g id="Big_data_visualization" data-name="Big data visualization">
        <g id="Big_data_analytics_1" data-name="Big data analytics 1">
          <path class="cls-5" d="m1274.29,532.35c-260.22,106.51-449.16,295.92-449.16,295.92-86.24,86.46-171.26,171.69-219.85,293.28-157.01,392.89,278.88,683.71,122.55,1064.57-87.76,213.81-264.7,257.24-255.92,435.78,9.64,195.97,232.11,332.68,317.69,385.26,500.52,307.55,1693.83,458.7,2255.55-340.98,284.35-404.82,318.5-988.04,73.84-1453.1-407.84-775.24-1416.75-855.89-1844.7-680.73Z"/>
        </g>
        <g>
          <g>
            <path class="cls-6" d="m528.28,1226.06v1335.11c0,44.33,35.48,79.95,79.17,79.58l2538.67-21.77c38.4-.33,69.47-34.19,69.47-75.64v-1248.33l-2687.31-68.95Z"/>
            <path class="cls-1" d="m3146.12,1134.47l-2538.67-75.55c-43.69-1.3-79.17,33.58-79.17,77.9v136.81l2687.31,65.86v-127.91c0-41.44-31.07-75.97-69.47-77.11Z"/>
            <path class="cls-2" d="m709.74,1168.54c0,19.62-15.66,35.11-34.99,34.6-19.35-.51-35.05-16.85-35.05-36.51s15.7-35.15,35.05-34.6c19.33.54,34.99,16.89,34.99,36.51Z"/>
          </g>
          <g>
            <polygon class="cls-3" points="1072.06 2463.64 873.62 2464.5 873.62 1470.81 1072.06 1474.76 1072.06 2463.64"/>
            <polygon class="cls-2" points="1072.06 2463.64 873.62 2464.5 873.62 1992.72 1072.06 1994.14 1072.06 2463.64"/>
            <polygon class="cls-3" points="1344.97 2462.46 1149.18 2463.3 1149.18 1476.29 1344.97 1480.19 1344.97 2462.46"/>
            <polygon class="cls-2" points="1344.97 2462.46 1149.18 2463.3 1149.18 2229 1344.97 2229.28 1344.97 2462.46"/>
            <polygon class="cls-3" points="1614.25 2461.29 1421.07 2462.13 1421.07 1481.71 1614.25 1485.55 1614.25 2461.29"/>
            <polygon class="cls-2" points="1614.25 2461.29 1421.07 2462.13 1421.07 2339.94 1614.25 2339.68 1614.25 2461.29"/>
            <polygon class="cls-3" points="1879.98 2460.14 1689.35 2460.96 1689.35 1487.05 1879.98 1490.84 1879.98 2460.14"/>
            <polygon class="cls-2" points="1879.98 2460.14 1689.35 2460.96 1689.35 1698.01 1879.98 1700.81 1879.98 2460.14"/>
            <polygon class="cls-3" points="2142.23 2459 1954.09 2459.82 1954.09 1492.32 2142.23 1496.06 2142.23 2459"/>
            <polygon class="cls-2" points="2142.23 2459 1954.09 2459.82 1954.09 1788.02 2142.23 1790.37 2142.23 2459"/>
            <polygon class="cls-3" points="2401.06 2457.88 2215.37 2458.68 2215.37 1497.52 2401.06 1501.21 2401.06 2457.88"/>
            <polygon class="cls-2" points="2401.06 2457.88 2215.37 2458.68 2215.37 1637.27 2401.06 1640.31 2401.06 2457.88"/>
            <polygon class="cls-3" points="2656.53 2456.77 2473.25 2457.57 2473.25 1502.65 2656.53 1506.3 2656.53 2456.77"/>
            <polygon class="cls-2" points="2656.53 2456.77 2473.25 2457.57 2473.25 1871.02 2656.53 1872.95 2656.53 2456.77"/>
            <polygon class="cls-3" points="2908.73 2455.68 2727.79 2456.47 2727.79 1507.72 2908.73 1511.32 2908.73 2455.68"/>
            <polygon class="cls-2" points="2908.73 2455.68 2727.79 2456.47 2727.79 2127.08 2908.73 2127.82 2908.73 2455.68"/>
          </g>
        </g>
      </g>
    </g>
  </g>
</svg>