<svg width="430" height="430" viewBox="0 0 430 430" fill="none" xmlns="http://www.w3.org/2000/svg">
<mask id="mask0_116_3062" style="mask-type:luminance" maskUnits="userSpaceOnUse" x="25" y="21" width="383" height="383">
<path d="M407.412 21.3925H25.4474V403.357H407.412V21.3925Z" fill="white"/>
</mask>
<g mask="url(#mask0_116_3062)">
<path d="M123.462 85.2775C112.239 101.639 125.397 128.166 108.743 140.468C92.5317 152.448 72.6141 132.814 57.3362 143.121C34.6709 158.416 38.8118 228.403 71.9476 271.889C81.915 284.965 90.2398 290.056 93.9292 304.844C101.85 336.604 74.0159 355.494 79.3135 371.202C91.2374 406.569 274.637 436.244 348.223 329.956C382.593 280.317 387.735 208.636 357.025 154.194C301.538 55.8182 148.642 48.5641 123.457 85.2732L123.462 85.2775Z" fill="#F4F7FA"/>
<path d="M218.728 334.6C213.173 317.662 207.514 291.811 214.136 263.104C221.738 230.14 238.581 223.548 253.709 188.314C275.299 138.021 250.866 101.587 273.213 86.215C284.114 78.7201 301.249 78.7115 311.815 86.2365C341.962 107.711 333.697 201.236 285.864 237.73C264.231 254.237 245.354 252.277 229.121 273.639C214.776 292.512 215.903 317.413 218.724 334.596L218.728 334.6Z" fill="url(#paint0_linear_116_3062)"/>
<path d="M215.267 291.97L214.867 291.867C216.686 284.716 219.132 277.69 222.134 270.986C229.044 255.562 236.659 247.091 246.3 236.367C252.565 229.396 259.664 221.497 267.869 210.175C283.211 188.998 287.971 181.563 292.228 169.605C300.656 145.92 299.362 124.691 297.84 114.143C295.681 99.1794 290.658 84.9378 282.918 71.8185L283.271 71.6078C291.041 84.7744 296.081 99.0676 298.244 114.083C299.77 124.67 301.069 145.976 292.615 169.742C288.345 181.752 283.572 189.204 268.204 210.416C259.987 221.755 252.879 229.663 246.605 236.642C236.99 247.34 229.396 255.79 222.512 271.154C219.515 277.836 217.081 284.84 215.267 291.97Z" fill="white"/>
<path d="M296.872 152.861V152.521C296.558 135.072 285.404 123.775 276.099 117.373C266.002 110.428 255.859 107.577 255.755 107.552L255.863 107.156C255.966 107.186 266.179 110.05 276.331 117.037C285.653 123.453 296.816 134.74 297.268 152.173C298.876 151.235 306.723 146.402 313.784 137.51C321.042 128.364 328.928 112.935 325.282 91.3405L325.686 91.2717C329.363 113.021 321.412 128.57 314.098 137.781C306.173 147.757 297.255 152.659 297.169 152.706L296.872 152.869V152.861Z" fill="white"/>
<path d="M294.137 208.894C292.353 208.894 290.667 208.804 289.11 208.662C279.315 207.767 272.297 204.59 272.224 204.555L272.065 204.482L272.108 204.314C276.602 187.183 272.702 174.563 268.642 166.99C264.239 158.782 258.701 154.572 258.645 154.529L258.89 154.202C258.946 154.245 264.545 158.498 268.995 166.78C273.084 174.395 277.01 187.067 272.551 204.25C273.639 204.719 280.235 207.436 289.158 208.253C298.123 209.07 311.35 208.073 323.407 198.69L323.661 199.017C313.59 206.856 302.711 208.894 294.137 208.894Z" fill="white"/>
<path d="M273.966 241.626C268.741 241.626 264.45 240.899 261.13 239.996C252.926 237.764 248.721 233.984 248.678 233.946L248.57 233.847L248.63 233.714C256.228 216.311 245.629 187.845 245.521 187.557L245.904 187.411C246.012 187.699 256.611 216.174 249.065 233.735C249.774 234.333 253.876 237.596 261.264 239.6C268.759 241.634 281.259 242.756 298.265 236.543L298.407 236.93C288.809 240.434 280.631 241.621 273.966 241.621V241.626Z" fill="white"/>
<path d="M201.498 308.048C199.619 296.67 198.535 278.902 207.797 263.014C223.953 235.292 253.399 244.489 281.585 214.789C304.32 190.834 297.156 172.219 322.345 156.301C326.563 153.635 348.842 138.972 365.41 147.804C374.745 152.779 378.129 162.996 378.761 164.914C388.359 193.9 358.831 239.286 320.346 260.042C298.235 271.971 291.101 268.071 252.191 281.981C229.328 290.155 212.158 300.677 201.494 308.043L201.498 308.048Z" fill="url(#paint1_linear_116_3062)"/>
<path d="M198.174 321.73L197.77 321.648C203.433 294.455 214.17 276.185 229.685 267.348C237.278 263.022 243.328 262.334 249.727 261.612C256.611 260.834 263.736 260.025 273.132 254.345C282.265 248.819 285.542 243.5 289.687 236.771C293.415 230.712 298.059 223.178 308.473 213.138C317.602 204.34 324.25 200.221 330.12 196.587C336.475 192.653 341.493 189.54 347.302 181.929C356.792 169.489 361.755 153.54 362.047 134.525H362.46C362.167 153.639 357.175 169.669 347.629 182.178C341.773 189.853 336.724 192.98 330.335 196.94C324.487 200.56 317.856 204.667 308.761 213.439C298.381 223.441 293.755 230.957 290.039 236.99C285.864 243.771 282.566 249.125 273.347 254.702C263.869 260.429 256.706 261.242 249.774 262.025C243.414 262.743 237.407 263.426 229.887 267.709C214.475 276.486 203.807 294.666 198.174 321.734V321.73Z" fill="white"/>
<path d="M330.042 198.591C329.26 198.591 328.468 198.578 327.669 198.557L327.393 198.548L327.479 198.286C327.604 197.907 339.812 160.162 325.906 144.557L326.211 144.282C330.27 148.84 334.639 158.279 332.373 177.362C331.147 187.699 328.46 196.54 327.948 198.153C348.622 198.712 364.012 190.886 373.287 184.208C383.388 176.932 388.625 169.411 388.677 169.334L389.017 169.566C388.965 169.643 383.693 177.212 373.541 184.53C364.528 191.023 349.783 198.595 330.038 198.595L330.042 198.591Z" fill="white"/>
<path d="M331.564 230.751C328.374 230.751 325.411 230.587 322.719 230.325C308.254 228.932 298.446 224.61 298.347 224.567L298.184 224.494L298.231 224.322C303.666 204.641 298.871 176.635 298.824 176.356L299.228 176.283C299.276 176.562 304.062 204.495 298.678 224.254C300.007 224.817 309.385 228.622 322.775 229.908C336.058 231.185 356.122 230.17 376.267 218.096L376.478 218.449C360.31 228.141 344.198 230.742 331.564 230.742V230.751Z" fill="white"/>
<path d="M314.425 276.662C295.522 276.662 280.923 272.667 271.837 269.219C261.492 265.293 255.871 261.199 255.816 261.16L255.644 261.031L255.781 260.864C270.724 242.623 264.901 212.484 264.841 212.179L265.245 212.097C265.306 212.403 271.128 242.541 256.237 260.95C258.413 262.459 280.416 277.01 317.323 276.215L317.331 276.623C316.351 276.645 315.379 276.653 314.42 276.653L314.425 276.662Z" fill="white"/>
<path d="M221.196 306.057C227.522 301.507 237.88 294.928 251.808 289.988C276.585 281.203 287.941 286.384 298.429 275.909C309.286 265.069 302.256 254.388 315.25 242.279C316.342 241.26 330.3 228.596 342.925 233.314C351.757 236.612 355.197 246.648 356.81 251.356C363.07 269.627 359.433 297.47 339.937 311.204C321.455 324.224 298.059 318.019 290.628 315.994C277.595 312.446 274.508 307.368 261.259 304.156C245.147 300.252 230.665 303.146 221.192 306.057H221.196Z" fill="url(#paint2_linear_116_3062)"/>
<path d="M221.196 306.057C227.522 301.507 237.88 294.928 251.808 289.988C276.585 281.203 287.941 286.384 298.429 275.909C309.286 265.069 302.256 254.388 315.25 242.279C316.342 241.26 330.3 228.596 342.925 233.314C351.757 236.612 355.197 246.648 356.81 251.356C363.07 269.627 359.433 297.47 339.937 311.204C321.455 324.224 298.059 318.019 290.628 315.994C277.595 312.446 274.508 307.368 261.259 304.156C245.147 300.252 230.665 303.146 221.192 306.057H221.196Z" fill="url(#paint3_linear_116_3062)"/>
<path d="M215.998 310.168L215.753 309.836C231.164 298.558 246.218 293.247 260.481 294.043C266.72 294.391 271.098 295.78 275.329 297.121C280.622 298.798 285.619 300.385 293.914 300.041C308.839 299.418 321.576 294.352 329.776 285.782C342.473 272.504 345.286 250.234 336.935 229.039L337.318 228.889C345.724 250.23 342.882 272.676 330.072 286.066C321.799 294.718 308.964 299.826 293.935 300.454C285.563 300.802 280.536 299.207 275.209 297.517C270.999 296.184 266.647 294.804 260.46 294.455C246.287 293.664 231.327 298.949 215.993 310.168H215.998Z" fill="white"/>
<path d="M335.903 277.449L335.925 277.135C336.884 264.42 329.225 254.775 322.633 248.923C315.478 242.572 308 239.192 307.927 239.157L308.095 238.783C308.172 238.818 315.702 242.223 322.904 248.617C329.509 254.483 337.172 264.123 336.355 276.847C339.141 275.768 360.512 266.927 361.91 249.439L362.318 249.473C360.804 268.35 336.441 277.26 336.196 277.346L335.899 277.453L335.903 277.449Z" fill="white"/>
<path d="M331.199 306.379C327.531 306.379 324.293 306.009 321.537 305.48C311.316 303.52 305.339 299.03 305.279 298.987L305.119 298.867L305.236 298.704C312.679 288.439 311.445 277.191 309.093 269.563C306.543 261.281 302.174 255.364 302.131 255.304L302.462 255.059C302.505 255.119 306.917 261.096 309.488 269.442C311.853 277.118 313.1 288.427 305.691 298.781C306.706 299.499 312.434 303.326 321.636 305.085C330.988 306.874 345.944 306.835 364.103 296.498L364.305 296.855C351.375 304.212 340.048 306.383 331.195 306.383L331.199 306.379Z" fill="white"/>
<path d="M378.288 324.332L51.4968 321.485V329.904C51.4968 332.192 52.9201 334.131 54.8508 334.48L147.258 351.06C148.354 351.258 149.468 351.31 150.573 351.215L374.736 332.308C376.736 332.141 378.288 330.193 378.288 327.84V324.327V324.332Z" fill="url(#paint4_linear_116_3062)"/>
<path d="M273.089 310.683L55.0916 326.086C51.1915 326.361 48.0181 323.433 48.0181 319.541V163.701C48.0181 159.809 51.1915 156.657 55.0916 156.657H273.089C276.301 156.657 278.902 159.508 278.902 163.026V303.902C278.902 307.42 276.305 310.451 273.089 310.679V310.683Z" fill="url(#paint5_linear_116_3062)"/>
<path d="M276.563 310.683L58.566 326.086C54.6659 326.361 51.4925 323.433 51.4925 319.541V163.701C51.4925 159.809 54.6659 156.657 58.566 156.657H276.563C279.775 156.657 282.377 159.508 282.377 163.026V303.902C282.377 307.42 279.779 310.451 276.563 310.679V310.683Z" fill="url(#paint6_linear_116_3062)"/>
<path d="M269.773 300.751L66.7317 314.132C63.5583 314.343 60.9783 311.939 60.9783 308.761V172.322C60.9783 169.145 63.5583 166.56 66.7317 166.548L269.773 165.709C272.422 165.7 274.568 168.035 274.568 170.925V295.195C274.568 298.089 272.422 300.574 269.773 300.746V300.751Z" fill="white"/>
<path d="M175.264 160.923C175.264 162.372 174.141 163.546 172.757 163.55C171.372 163.555 170.246 162.381 170.246 160.932C170.246 159.483 171.372 158.304 172.757 158.304C174.141 158.304 175.264 159.474 175.264 160.923Z" fill="white"/>
<g opacity="0.48">
<path d="M224.043 267.942C207.239 258.899 194.025 270.358 181.271 259.053C173.539 252.199 177.336 247.091 167.82 236.848C157.285 225.505 150.423 229.319 139.836 219.111C126.446 206.202 133.141 196.157 121.608 186.891C107.616 175.646 92.5274 186.052 79.2103 175.272C73.4655 170.62 70.3136 163.86 68.6667 156.67H55.6334C53.3501 156.67 51.4968 158.524 51.4968 160.803V322.345C51.4968 324.628 53.3501 326.348 55.6334 326.185L277.806 310.413C278.898 310.335 279.861 309.699 280.485 308.774C264.222 308.181 254.229 302.729 247.843 297.091C235.348 286.066 237.515 275.191 224.043 267.942Z" fill="white"/>
</g>
<path d="M271.124 309.983L51.4925 326.198L147.253 343.381C148.35 343.578 149.464 343.63 150.569 343.535L378.284 324.327L274.615 310.09C273.454 309.931 272.289 309.892 271.124 309.978V309.983Z" fill="url(#paint7_linear_116_3062)"/>
<path opacity="0.3" d="M83.5404 326.607L266.389 312.907L322.977 320.617L141.706 335.262L83.5404 326.607Z" fill="url(#paint8_linear_116_3062)"/>
<path d="M269.219 204.504L66.1555 207.6V170.688H269.219V204.504Z" fill="#D8DEE8"/>
<path d="M204.831 270.341L76.1788 275.957V214.028L204.831 211.715V270.341Z" fill="#D8DEE8"/>
<path d="M260.739 227.865L212.347 229.108V211.577L260.739 210.708V227.865Z" fill="#D8DEE8"/>
<path d="M260.739 267.898L212.347 270.01V235.313L260.739 233.937V267.894V267.898Z" fill="#D8DEE8"/>
<path d="M260.739 275.763L76.1788 284.471V299.181L260.739 289.347V275.763Z" fill="#D8DEE8"/>
<path d="M316.342 182.341L83.9145 185.261C82.5987 185.278 81.5194 184.216 81.5194 182.896V144.79C81.5194 143.482 82.5772 142.425 83.8844 142.425H316.312C317.62 142.425 318.677 143.482 318.677 144.79V179.976C318.677 181.271 317.637 182.324 316.342 182.337V182.341Z" fill="url(#paint9_linear_116_3062)"/>
<path d="M265.082 260.103L117.562 265.478V194.02L265.082 191.767V260.103Z" fill="url(#paint10_linear_116_3062)"/>
<path d="M330.132 219.941L273.794 221.712V192.025L330.132 190.774V219.941Z" fill="url(#paint11_linear_116_3062)"/>
<path d="M330.132 257.733L273.794 259.784V219.321L330.132 217.976V257.733Z" fill="url(#paint12_linear_116_3062)"/>
<path d="M336.617 265.198L124.945 273.424V290.357L336.617 281.065V265.194V265.198Z" fill="url(#paint13_linear_116_3062)"/>
<path d="M93.5379 150.401C93.7916 148.84 92.7338 147.37 91.1729 147.116C89.612 146.862 88.1414 147.92 87.892 149.481C87.6383 151.042 88.6961 152.512 90.257 152.766C91.8179 153.02 93.2885 151.962 93.5379 150.401Z" fill="url(#paint14_linear_116_3062)"/>
<path d="M102.895 150.586C103.256 149.047 102.306 147.507 100.766 147.146C99.2268 146.785 97.6874 147.735 97.3219 149.274C96.9607 150.814 97.911 152.353 99.4504 152.714C100.99 153.076 102.529 152.125 102.89 150.586H102.895Z" fill="url(#paint15_linear_116_3062)"/>
<path d="M112.342 150.401C112.596 148.84 111.538 147.374 109.977 147.12C108.416 146.866 106.945 147.924 106.696 149.485C106.442 151.046 107.5 152.517 109.061 152.77C110.622 153.024 112.092 151.962 112.342 150.405V150.401Z" fill="url(#paint16_linear_116_3062)"/>
<path d="M304.805 165.855L204.775 166.126L204.8 160.317L304.827 160.05L304.805 165.855Z" fill="white"/>
</g>
<path d="M172.628 210.339L141.388 210.924L141.375 212.777L172.619 212.166V210.339H172.628Z" fill="white"/>
<path d="M242.017 209.045L211.745 209.612V211.405L242.025 210.816L242.017 209.045Z" fill="white"/>
<path d="M242.06 215.765L221.136 216.221V218.01L242.069 217.537L242.06 215.765Z" fill="#FFD700"/>
<path d="M242.129 229.276L212.433 230.106V231.908L242.137 231.052L242.129 229.276Z" fill="#FFD700"/>
<path d="M242.155 236.031L206.525 237.141V238.951L242.163 237.811L242.155 236.031Z" fill="#FFD700"/>
<path d="M242.198 243.939L196.11 245.543V247.366L242.206 245.723L242.198 243.939Z" fill="#FFD700"/>
<path d="M207.875 209.681L177.62 210.244V212.067L207.879 211.478V209.681H207.875Z" fill="#FFD700"/>
<path d="M218.449 224.916C213.916 225.032 209.346 225.148 200.156 225.367L194.136 225.522V223.699L200.152 223.548C212.39 223.265 224.447 222.968 236.332 222.65L242.081 222.508L242.09 224.275L236.341 224.421C227.436 224.675 222.955 224.791 218.444 224.907V224.916H218.449Z" fill="#FFD700"/>
<path d="M165.352 226.283C157.35 226.49 149.313 226.687 141.289 226.877L141.302 225.019C157.29 224.658 173.342 224.258 189.024 223.832V225.651C181.211 225.87 173.303 226.081 165.356 226.288L165.352 226.283Z" fill="white"/>
<path d="M216.931 216.316L141.341 217.963L141.328 219.816L216.931 218.109V216.316Z" fill="white"/>
<path d="M191.952 245.689L141.165 247.457L141.152 249.323L191.948 247.517V245.694L191.952 245.689Z" fill="white"/>
<path d="M208.627 230.218L141.259 232.105L141.246 233.967L208.627 232.024V230.218Z" fill="white"/>
<path d="M202.491 237.265L141.216 239.175L141.203 241.036L202.487 239.08V237.265H202.491Z" fill="white"/>
<path d="M134.723 213.254C135.433 213.241 136.009 212.657 136.018 211.951C136.022 211.246 135.45 210.683 134.74 210.696C134.031 210.709 133.45 211.293 133.446 211.999C133.442 212.704 134.014 213.267 134.723 213.254Z" fill="#E63946"/>
<path d="M135.97 219.008C135.966 219.717 135.381 220.302 134.676 220.319C133.971 220.336 133.395 219.777 133.399 219.068C133.403 218.358 133.988 217.773 134.693 217.756C135.398 217.739 135.975 218.298 135.97 219.008Z" fill="#E63946"/>
<path d="M134.629 227.388C135.338 227.371 135.919 226.782 135.923 226.072C135.927 225.363 135.355 224.804 134.646 224.821C133.936 224.838 133.356 225.427 133.352 226.137C133.347 226.846 133.919 227.405 134.629 227.388Z" fill="#E63946"/>
<path d="M135.876 233.159C135.871 233.873 135.287 234.462 134.581 234.479C133.876 234.501 133.296 233.942 133.3 233.232C133.304 232.518 133.893 231.929 134.599 231.912C135.304 231.89 135.88 232.458 135.876 233.159Z" fill="#E63946"/>
<path d="M134.534 241.604C135.244 241.583 135.824 240.985 135.833 240.275C135.841 239.566 135.265 239.007 134.556 239.028C133.842 239.05 133.261 239.643 133.257 240.357C133.253 241.067 133.825 241.626 134.538 241.604H134.534Z" fill="#E63946"/>
<path d="M135.772 248.574C135.768 249.288 135.183 249.886 134.474 249.912C133.769 249.938 133.188 249.374 133.192 248.669C133.197 247.964 133.786 247.358 134.491 247.336C135.196 247.31 135.777 247.865 135.772 248.579V248.574Z" fill="#E63946"/>
<path d="M249.942 248.587C249.71 248.596 249.52 248.402 249.516 248.157L249.284 208.799C249.284 208.559 249.473 208.357 249.701 208.352C249.929 208.348 250.122 208.546 250.122 208.787L250.355 248.127C250.355 248.372 250.165 248.579 249.933 248.587H249.942Z" fill="#E63946"/>
<path d="M132.04 279.195L331.087 271.455L331.315 276.443L132.122 284.535L132.04 279.195Z" fill="#FFD700"/>
<path d="M325.278 198.608L280.773 199.129L280.106 250.78L325.476 248.871L325.278 198.613V198.608Z" fill="#62EDD9"/>
<path d="M315.607 207.57L284.355 208.098L284.342 209.161L315.607 208.61V207.57Z" fill="white"/>
<path d="M300.045 216.561C294.645 216.681 289.218 216.802 284.256 216.892L284.269 215.826C294.163 215.641 305.88 215.387 315.611 215.151V216.196C310.757 216.316 305.416 216.441 300.05 216.561H300.045Z" fill="white"/>
<path d="M315.607 211.354L284.312 211.956L284.299 213.018L315.607 212.394V211.349V211.354Z" fill="white"/>
<path d="M307.222 219.18L284.221 219.73L284.208 220.801L307.218 220.237V219.184L307.222 219.18Z" fill="white"/>
<path d="M315.616 244.898L283.916 246.149L283.903 247.241L315.616 245.969V244.898Z" fill="white"/>
<path d="M315.616 238.211C305.799 238.534 293.974 238.951 283.998 239.329L284.011 238.246C293.987 237.872 305.807 237.463 315.616 237.145V238.207V238.211Z" fill="white"/>
<path d="M315.616 241.011L283.963 242.185L283.951 243.273L315.616 242.077V241.011Z" fill="white"/>
<path d="M307.183 233.537L284.054 234.286L284.041 235.369L307.179 234.604V233.537H307.183Z" fill="white"/>
<path d="M326.168 249.551L279.384 251.537L280.085 198.415L325.957 197.899L326.172 249.546L326.168 249.551ZM280.115 250.776L325.48 248.867L325.282 198.596L280.777 199.116L280.111 250.78L280.115 250.776Z" fill="#00A896"/>
<path d="M325.613 198.251L280.424 198.767L280.347 204.848L325.639 204.168L325.613 198.251Z" fill="#00A896"/>
<path d="M313.057 230.583C312.932 230.592 312.808 230.553 312.709 230.476L309.11 227.59C308.994 227.5 308.925 227.358 308.921 227.203C308.916 227.049 308.976 226.898 309.084 226.791L312.451 223.411C312.657 223.204 312.984 223.2 313.178 223.407C313.375 223.613 313.367 223.944 313.16 224.15L310.224 227.109L313.363 229.633C313.586 229.809 313.616 230.14 313.436 230.373C313.337 230.502 313.195 230.57 313.053 230.583H313.061H313.057Z" fill="white"/>
<path d="M318.282 230.48C318.14 230.484 317.998 230.429 317.895 230.312C317.705 230.097 317.727 229.766 317.938 229.569L320.948 226.743L317.933 224.095C317.718 223.91 317.701 223.579 317.886 223.355C318.071 223.131 318.394 223.106 318.609 223.291L322.057 226.318C322.165 226.412 322.233 226.559 322.233 226.709C322.233 226.86 322.169 227.001 322.061 227.109L318.621 230.343C318.522 230.433 318.402 230.48 318.277 230.484H318.286L318.282 230.48Z" fill="white"/>
<path d="M284.776 201.743L286.019 200.5C286.139 200.38 286.143 200.195 286.023 200.083C285.903 199.972 285.718 199.967 285.606 200.088L284.363 201.33L283.146 200.118C283.026 200.002 282.841 200.002 282.725 200.122C282.605 200.242 282.6 200.427 282.721 200.539L283.938 201.752L282.691 202.999C282.57 203.119 282.566 203.308 282.686 203.416C282.746 203.476 282.82 203.502 282.897 203.498C282.979 203.498 283.052 203.467 283.112 203.407L284.359 202.16L285.576 203.373C285.636 203.433 285.709 203.459 285.787 203.455C285.868 203.455 285.941 203.424 286.002 203.364C286.122 203.244 286.126 203.059 286.006 202.947L284.789 201.735H284.776V201.743Z" fill="white"/>
<path d="M290.035 203.407C289.08 203.42 288.306 202.65 288.315 201.696C288.324 200.741 289.115 199.954 290.065 199.941C291.015 199.929 291.789 200.698 291.781 201.649C291.772 202.599 290.985 203.39 290.035 203.407ZM290.061 200.496C289.411 200.505 288.878 201.038 288.87 201.687C288.865 202.337 289.39 202.857 290.035 202.848C290.684 202.84 291.217 202.302 291.222 201.653C291.226 201.004 290.706 200.483 290.056 200.492L290.061 200.496Z" fill="white"/>
<path d="M296.713 203.313L293.905 203.351C293.742 203.351 293.608 203.222 293.613 203.059C293.613 202.896 293.746 202.758 293.909 202.758L296.717 202.719C296.881 202.719 297.014 202.848 297.01 203.012C297.01 203.175 296.876 203.308 296.713 203.313Z" fill="white"/>
<defs>
<linearGradient id="paint0_linear_116_3062" x1="232.78" y1="95.8728" x2="292.864" y2="287.055" gradientUnits="userSpaceOnUse">
<stop stop-color="#E63946"/>
<stop offset="1" stop-color="#E63946"/>
</linearGradient>
<linearGradient id="paint1_linear_116_3062" x1="366.717" y1="573.994" x2="355.657" y2="525.206" gradientUnits="userSpaceOnUse">
<stop stop-color="#E63946"/>
<stop offset="1" stop-color="#00A896"/>
</linearGradient>
<linearGradient id="paint2_linear_116_3062" x1="361.935" y1="262.988" x2="160.098" y2="338.173" gradientUnits="userSpaceOnUse">
<stop stop-color="#FF9085"/>
<stop offset="1" stop-color="#FB6FBB"/>
</linearGradient>
<linearGradient id="paint3_linear_116_3062" x1="221.196" y1="275.763" x2="359.618" y2="275.763" gradientUnits="userSpaceOnUse">
<stop stop-color="#FF6B6B"/>
<stop offset="1" stop-color="#FF6B6B"/>
</linearGradient>
<linearGradient id="paint4_linear_116_3062" x1="189.531" y1="336.896" x2="166.573" y2="346.537" gradientUnits="userSpaceOnUse">
<stop stop-color="#40447E"/>
<stop offset="1" stop-color="#3C3B6B"/>
</linearGradient>
<linearGradient id="paint5_linear_116_3062" x1="158.876" y1="235.717" x2="133.962" y2="246.183" gradientUnits="userSpaceOnUse">
<stop stop-color="#40447E"/>
<stop offset="1" stop-color="#3C3B6B"/>
</linearGradient>
<linearGradient id="paint6_linear_116_3062" x1="51.4968" y1="241.38" x2="282.377" y2="241.38" gradientUnits="userSpaceOnUse">
<stop stop-color="#40447E"/>
<stop offset="1" stop-color="#3C3B6B"/>
</linearGradient>
<linearGradient id="paint7_linear_116_3062" x1="51.4925" y1="326.761" x2="378.284" y2="326.761" gradientUnits="userSpaceOnUse">
<stop stop-color="#40447E"/>
<stop offset="1" stop-color="#3C3B6B"/>
</linearGradient>
<linearGradient id="paint8_linear_116_3062" x1="83.5404" y1="324.082" x2="322.982" y2="324.082" gradientUnits="userSpaceOnUse">
<stop stop-color="#40447E"/>
<stop offset="1" stop-color="#3C3B6B"/>
</linearGradient>
<linearGradient id="paint9_linear_116_3062" x1="251.533" y1="95.2063" x2="161.392" y2="212.94" gradientUnits="userSpaceOnUse">
<stop stop-color="#B3E5E0"/>
<stop offset="1" stop-color="#B3E5E0"/>
</linearGradient>
<linearGradient id="paint10_linear_116_3062" x1="167.575" y1="251.825" x2="253.425" y2="162.295" gradientUnits="userSpaceOnUse">
<stop stop-color="#00A896"/>
<stop offset="1" stop-color="#036D5E"/>
</linearGradient>
<linearGradient id="paint11_linear_116_3062" x1="302.978" y1="204.138" x2="215.847" y2="362.425" gradientUnits="userSpaceOnUse">
<stop stop-color="#FFC444"/>
<stop offset="1" stop-color="#F36F56"/>
</linearGradient>
<linearGradient id="paint12_linear_116_3062" x1="318.587" y1="208.326" x2="245.001" y2="342.009" gradientUnits="userSpaceOnUse">
<stop stop-color="#FFC444"/>
<stop offset="1" stop-color="#F36F56"/>
</linearGradient>
<linearGradient id="paint13_linear_116_3062" x1="188.331" y1="294.907" x2="300.351" y2="248.299" gradientUnits="userSpaceOnUse">
<stop stop-color="#00A896"/>
<stop offset="1" stop-color="#036D5E"/>
</linearGradient>
<linearGradient id="paint14_linear_116_3062" x1="91.5986" y1="147.215" x2="89.827" y2="152.659" gradientUnits="userSpaceOnUse">
<stop offset="0.49" stop-color="#EBEFF2"/>
<stop offset="1" stop-color="white"/>
</linearGradient>
<linearGradient id="paint15_linear_116_3062" x1="100.994" y1="147.206" x2="99.2225" y2="152.65" gradientUnits="userSpaceOnUse">
<stop offset="0.49" stop-color="#EBEFF2"/>
<stop offset="1" stop-color="white"/>
</linearGradient>
<linearGradient id="paint16_linear_116_3062" x1="111.262" y1="-3.46572" x2="109.487" y2="152.671" gradientUnits="userSpaceOnUse">
<stop offset="0.49" stop-color="#EBEFF2"/>
<stop offset="1" stop-color="white"/>
</linearGradient>
</defs>
</svg>
