<svg width="430" height="430" viewBox="0 0 430 430" fill="none" xmlns="http://www.w3.org/2000/svg">
<mask id="mask0_116_3062" style="mask-type:luminance" maskUnits="userSpaceOnUse" x="21" y="17" width="382" height="382">
<path d="M402.965 17H21V398.965H402.965V17Z" fill="white"/>
</mask>
<g mask="url(#mask0_116_3062)">
<path d="M123.462 85.2775C112.239 101.639 125.397 128.166 108.743 140.468C92.5317 152.448 72.6141 132.814 57.3362 143.121C34.6709 158.416 38.8118 228.403 71.9476 271.889C81.915 284.965 90.2398 290.056 93.9292 304.844C101.85 336.604 74.0159 355.494 79.3135 371.202C91.2374 406.569 274.637 436.244 348.223 329.956C382.593 280.317 387.735 208.636 357.025 154.194C301.538 55.8182 148.642 48.5641 123.457 85.2732L123.462 85.2775Z" fill="#F4F7FA"/>
<path d="M194.773 275.599C197.764 278.767 201.437 280.302 205.793 280.204L269.552 127.618L258.532 123.014L194.773 275.599Z" fill="url(#paint0_linear_116_3062)"/>
<path d="M258.532 123.013C261.276 126.653 264.939 128.213 269.552 127.617L278.833 90.924C278.925 90.4968 278.357 90.2595 278.117 90.6244L258.532 123.012V123.013Z" fill="url(#paint1_linear_116_3062)"/>
<path d="M293.245 47C293.245 47 299.875 60.582 294.984 79.7144C290.093 98.8468 276.664 108.093 271.987 105.207C267.31 102.322 261.253 91.1037 266.185 82.0005C271.119 72.8973 290.379 59.2901 293.245 47Z" fill="url(#paint2_linear_116_3062)"/>
<path d="M177.982 279.88C181.195 285.005 185.779 288.093 191.737 289.143L319.998 98.6923L306.243 89.4292L177.982 279.88Z" fill="url(#paint3_linear_116_3062)"/>
<path d="M186.628 287.594C184.705 286.728 182.976 285.573 181.441 284.131L310.592 92.3594L315.764 95.8428L186.627 287.594H186.628Z" fill="url(#paint4_linear_116_3062)"/>
<path d="M306.243 89.429C308.991 95.1313 313.555 98.2488 319.998 98.6921L342.601 51.2497C342.842 50.6927 342.133 50.2152 341.707 50.6475L306.243 89.428V89.429Z" fill="url(#paint5_linear_116_3062)"/>
<path d="M342.601 51.2507L333.815 69.6924C331.509 68.856 329.544 67.532 327.916 65.7294L341.708 50.6475C342.134 50.2152 342.843 50.6927 342.602 51.2497L342.601 51.2507Z" fill="#90E0EF"/>
<path d="M312.119 203.894C310.335 203.894 308.649 203.804 307.092 203.662C297.297 202.767 290.279 199.59 290.206 199.555L290.047 199.482L290.09 199.314C294.584 182.183 290.684 169.563 286.624 161.99C282.221 153.782 276.683 149.572 276.627 149.529L276.872 149.202C276.928 149.245 282.527 153.498 286.977 161.78C291.066 169.395 294.992 182.067 290.533 199.25C291.621 199.719 298.217 202.436 307.14 203.253C316.105 204.07 329.332 203.073 341.389 193.69L341.643 194.017C331.572 201.856 320.693 203.894 312.119 203.894Z" fill="white"/>
<path d="M291.948 236.625C286.723 236.625 282.432 235.899 279.112 234.996C270.908 232.764 266.703 228.984 266.66 228.946L266.552 228.847L266.612 228.713C274.21 211.311 263.611 182.845 263.503 182.557L263.886 182.411C263.994 182.699 274.593 211.174 267.047 228.735C267.756 229.333 271.858 232.596 279.246 234.6C286.741 236.634 299.241 237.756 316.247 231.543L316.389 231.93C306.791 235.434 298.613 236.621 291.948 236.621V236.625Z" fill="white"/>
<path d="M327.802 192.585C327.019 192.585 326.228 192.572 325.428 192.551L325.153 192.542L325.239 192.28C325.363 191.901 337.571 154.156 323.665 138.551L323.97 138.276C328.029 142.834 332.398 152.273 330.132 171.356C328.907 181.693 326.219 190.534 325.707 192.147C346.382 192.706 361.772 184.88 371.047 178.202C381.147 170.926 386.385 163.405 386.436 163.328L386.776 163.56C386.724 163.638 381.453 171.206 371.3 178.524C362.288 185.017 347.543 192.589 327.797 192.589L327.802 192.585Z" fill="white"/>
<path d="M329.324 224.745C326.133 224.745 323.17 224.581 320.479 224.319C306.013 222.926 296.205 218.604 296.106 218.561L295.943 218.488L295.99 218.316C301.425 198.635 296.631 170.629 296.584 170.35L296.988 170.277C297.035 170.556 301.821 198.489 296.437 218.248C297.766 218.811 307.144 222.616 320.535 223.902C333.817 225.179 353.881 224.164 374.027 212.09L374.237 212.443C358.069 222.135 341.957 224.736 329.324 224.736V224.745Z" fill="white"/>
<path d="M332.407 271.662C313.504 271.662 298.905 267.667 289.819 264.219C279.474 260.293 273.853 256.199 273.798 256.16L273.626 256.031L273.763 255.864C288.706 237.623 282.883 207.484 282.823 207.179L283.227 207.097C283.288 207.403 289.11 237.541 274.219 255.95C276.395 257.459 298.398 272.01 335.305 271.215L335.313 271.623C334.333 271.645 333.361 271.653 332.402 271.653L332.407 271.662Z" fill="white"/>
<path d="M396.27 319.332L69.4788 316.485V324.904C69.4788 327.192 70.9021 329.131 72.8328 329.48L165.24 346.06C166.336 346.258 167.45 346.31 168.555 346.215L392.718 327.308C394.718 327.141 396.27 325.193 396.27 322.84V319.327V319.332Z" fill="url(#paint6_linear_116_3062)"/>
<path d="M291.071 305.683L73.0735 321.086C69.1734 321.361 66 318.433 66 314.541V158.701C66 154.809 69.1734 151.657 73.0735 151.657H291.071C294.283 151.657 296.884 154.508 296.884 158.026V298.902C296.884 302.42 294.287 305.451 291.071 305.679V305.683Z" fill="url(#paint7_linear_116_3062)"/>
<path d="M294.545 305.683L76.5479 321.086C72.6478 321.361 69.4744 318.433 69.4744 314.541V158.701C69.4744 154.809 72.6478 151.657 76.5479 151.657H294.545C297.757 151.657 300.359 154.508 300.359 158.026V298.902C300.359 302.42 297.761 305.451 294.545 305.679V305.683Z" fill="url(#paint8_linear_116_3062)"/>
<path d="M287.755 295.75L84.7136 309.132C81.5402 309.343 78.9602 306.939 78.9602 303.761V167.322C78.9602 164.145 81.5402 161.56 84.7136 161.548L287.755 160.709C290.404 160.7 292.55 163.035 292.55 165.925V290.195C292.55 293.089 290.404 295.574 287.755 295.746V295.75Z" fill="white"/>
<path d="M193.246 155.923C193.246 157.372 192.123 158.546 190.739 158.55C189.354 158.555 188.228 157.381 188.228 155.932C188.228 154.483 189.354 153.304 190.739 153.304C192.123 153.304 193.246 154.474 193.246 155.923Z" fill="white"/>
<g opacity="0.48">
<path d="M242.025 262.942C225.22 253.899 212.007 265.358 199.253 254.053C191.521 247.199 195.318 242.091 185.802 231.848C175.267 220.505 168.405 224.319 157.818 214.111C144.428 201.202 151.123 191.157 139.59 181.891C125.598 170.646 110.509 181.052 97.1923 170.272C91.4475 165.62 88.2956 158.86 86.6487 151.67H73.6154C71.3321 151.67 69.4788 153.524 69.4788 155.803V317.345C69.4788 319.628 71.3321 321.348 73.6154 321.185L295.788 305.413C296.88 305.335 297.843 304.699 298.467 303.774C282.204 303.181 272.211 297.728 265.825 292.091C253.33 281.066 255.497 270.191 242.025 262.942Z" fill="white"/>
</g>
<path d="M289.106 304.983L69.4744 321.198L165.235 338.381C166.332 338.578 167.446 338.63 168.551 338.535L396.266 319.327L292.597 305.09C291.436 304.931 290.271 304.892 289.106 304.978V304.983Z" fill="url(#paint9_linear_116_3062)"/>
<path opacity="0.3" d="M101.522 321.607L284.371 307.907L340.959 315.617L159.688 330.262L101.522 321.607Z" fill="url(#paint10_linear_116_3062)"/>
<path d="M287.201 199.504L84.1375 202.6V165.688H287.201V199.504Z" fill="#D8DEE8"/>
<path d="M222.812 265.341L94.1608 270.957V209.028L222.812 206.715V265.341Z" fill="#D8DEE8"/>
<path d="M278.721 222.865L230.329 224.108V206.577L278.721 205.708V222.865Z" fill="#D8DEE8"/>
<path d="M278.721 262.898L230.329 265.01V230.313L278.721 228.937V262.894V262.898Z" fill="#D8DEE8"/>
<path d="M278.721 270.763L94.1608 279.471V294.181L278.721 284.347V270.763Z" fill="#D8DEE8"/>
<path d="M334.324 177.341L101.896 180.261C100.581 180.278 99.5013 179.216 99.5013 177.896V139.79C99.5013 138.482 100.559 137.425 101.866 137.425H334.294C335.601 137.425 336.659 138.482 336.659 139.79V174.976C336.659 176.271 335.619 177.324 334.324 177.337V177.341Z" fill="url(#paint11_linear_116_3062)"/>
<path d="M283.064 255.103L135.544 260.478V189.02L283.064 186.767V255.103Z" fill="url(#paint12_linear_116_3062)"/>
<path d="M348.114 214.941L291.776 216.712V187.025L348.114 185.774V214.941Z" fill="url(#paint13_linear_116_3062)"/>
<path d="M348.114 252.733L291.776 254.784V214.321L348.114 212.976V252.733Z" fill="url(#paint14_linear_116_3062)"/>
<path d="M354.599 260.198L142.927 268.424V285.357L354.599 276.065V260.194V260.198Z" fill="url(#paint15_linear_116_3062)"/>
<path d="M93.5379 150.401C93.7916 148.84 92.7338 147.37 91.1729 147.116C89.612 146.862 88.1414 147.92 87.892 149.481C87.6383 151.042 88.6961 152.512 90.257 152.766C91.8179 153.02 93.2885 151.962 93.5379 150.401Z" fill="url(#paint16_linear_116_3062)"/>
<path d="M120.877 145.586C121.238 144.047 120.288 142.507 118.748 142.146C117.209 141.785 115.669 142.735 115.304 144.274C114.943 145.814 115.893 147.353 117.432 147.714C118.972 148.076 120.511 147.125 120.872 145.586H120.877Z" fill="url(#paint17_linear_116_3062)"/>
<path d="M130.324 145.401C130.577 143.84 129.52 142.374 127.959 142.12C126.398 141.866 124.927 142.924 124.678 144.485C124.424 146.046 125.482 147.517 127.043 147.77C128.604 148.024 130.074 146.962 130.324 145.405V145.401Z" fill="url(#paint18_linear_116_3062)"/>
<path d="M322.787 160.855L222.757 161.126L222.782 155.317L322.809 155.05L322.787 160.855Z" fill="white"/>
</g>
<path d="M190.61 205.339L159.37 205.924L159.357 207.777L190.601 207.166V205.339H190.61Z" fill="white"/>
<path d="M259.999 204.045L229.727 204.612V206.405L260.007 205.816L259.999 204.045Z" fill="white"/>
<path d="M260.042 210.765L239.118 211.221V213.01L260.05 212.537L260.042 210.765Z" fill="#90E0EF"/>
<path d="M260.111 224.276L230.415 225.106V226.908L260.119 226.052L260.111 224.276Z" fill="#90E0EF"/>
<path d="M260.136 231.031L224.507 232.141V233.951L260.145 232.811L260.136 231.031Z" fill="#90E0EF"/>
<path d="M260.179 238.939L214.092 240.543V242.366L260.188 240.723L260.179 238.939Z" fill="#90E0EF"/>
<path d="M225.857 204.681L195.602 205.244V207.067L225.861 206.478V204.681H225.857Z" fill="#90E0EF"/>
<path d="M236.431 219.916C231.898 220.032 227.327 220.148 218.138 220.367L212.118 220.522V218.699L218.134 218.548C230.372 218.265 242.429 217.968 254.314 217.65L260.063 217.508L260.072 219.275L254.323 219.421C245.418 219.675 240.937 219.791 236.426 219.907V219.916H236.431Z" fill="#90E0EF"/>
<path d="M183.334 221.283C175.332 221.49 167.295 221.687 159.271 221.877L159.284 220.019C175.272 219.658 191.324 219.258 207.006 218.832V220.651C199.193 220.87 191.285 221.081 183.338 221.288L183.334 221.283Z" fill="white"/>
<path d="M234.913 211.316L159.323 212.963L159.31 214.816L234.913 213.109V211.316Z" fill="white"/>
<path d="M209.934 240.689L159.147 242.457L159.134 244.323L209.93 242.517V240.694L209.934 240.689Z" fill="white"/>
<path d="M226.609 225.218L159.241 227.105L159.228 228.967L226.609 227.024V225.218Z" fill="white"/>
<path d="M220.473 232.265L159.198 234.175L159.185 236.036L220.469 234.08V232.265H220.473Z" fill="white"/>
<path d="M152.705 208.254C153.415 208.241 153.991 207.657 154 206.951C154.004 206.246 153.432 205.683 152.722 205.696C152.013 205.709 151.432 206.293 151.428 206.999C151.424 207.704 151.996 208.267 152.705 208.254Z" fill="#E63946"/>
<path d="M153.952 214.008C153.948 214.717 153.363 215.302 152.658 215.319C151.953 215.336 151.377 214.777 151.381 214.068C151.385 213.358 151.97 212.774 152.675 212.756C153.38 212.739 153.957 213.298 153.952 214.008Z" fill="#E63946"/>
<path d="M152.611 222.388C153.32 222.371 153.901 221.782 153.905 221.072C153.909 220.363 153.337 219.804 152.628 219.821C151.918 219.838 151.338 220.427 151.334 221.137C151.329 221.846 151.901 222.405 152.611 222.388Z" fill="#E63946"/>
<path d="M153.858 228.159C153.853 228.873 153.269 229.462 152.563 229.479C151.858 229.501 151.278 228.942 151.282 228.232C151.286 227.518 151.875 226.929 152.581 226.912C153.286 226.89 153.862 227.458 153.858 228.159Z" fill="#E63946"/>
<path d="M152.516 236.604C153.226 236.583 153.806 235.985 153.815 235.275C153.823 234.566 153.247 234.007 152.538 234.028C151.824 234.05 151.243 234.643 151.239 235.357C151.235 236.067 151.807 236.626 152.52 236.604H152.516Z" fill="#E63946"/>
<path d="M153.754 243.574C153.75 244.288 153.165 244.886 152.456 244.912C151.751 244.938 151.17 244.374 151.174 243.669C151.179 242.964 151.768 242.358 152.473 242.336C153.178 242.31 153.759 242.865 153.754 243.579V243.574Z" fill="#E63946"/>
<path d="M267.924 243.587C267.692 243.596 267.502 243.402 267.498 243.157L267.266 203.799C267.266 203.559 267.455 203.357 267.683 203.352C267.911 203.348 268.104 203.546 268.104 203.787L268.337 243.127C268.337 243.372 268.147 243.579 267.915 243.587H267.924Z" fill="#E63946"/>
<path d="M150.022 274.195L349.069 266.455L349.297 271.443L150.104 279.535L150.022 274.195Z" fill="#90E0EF"/>
<path d="M343.26 193.608L298.755 194.129L298.088 245.78L343.458 243.871L343.26 193.613V193.608Z" fill="#62EDD9"/>
<path d="M333.589 202.57L302.337 203.098L302.324 204.161L333.589 203.61V202.57Z" fill="white"/>
<path d="M318.027 211.561C312.627 211.681 307.2 211.802 302.238 211.892L302.251 210.826C312.145 210.641 323.862 210.387 333.593 210.151V211.195C328.739 211.316 323.398 211.441 318.032 211.561H318.027Z" fill="white"/>
<path d="M333.589 206.354L302.294 206.956L302.281 208.018L333.589 207.394V206.349V206.354Z" fill="white"/>
<path d="M325.204 214.18L302.203 214.73L302.19 215.801L325.2 215.237V214.184L325.204 214.18Z" fill="white"/>
<path d="M333.598 239.898L301.898 241.149L301.885 242.241L333.598 240.969V239.898Z" fill="white"/>
<path d="M333.598 233.211C323.781 233.534 311.956 233.951 301.98 234.329L301.993 233.246C311.969 232.872 323.789 232.463 333.598 232.145V233.207V233.211Z" fill="white"/>
<path d="M333.598 236.011L301.945 237.185L301.932 238.273L333.598 237.077V236.011Z" fill="white"/>
<path d="M325.165 228.537L302.036 229.286L302.023 230.369L325.161 229.604V228.537H325.165Z" fill="white"/>
<path d="M344.15 244.551L297.366 246.537L298.067 193.415L343.939 192.899L344.154 244.546L344.15 244.551ZM298.097 245.776L343.462 243.867L343.264 193.596L298.759 194.116L298.093 245.78L298.097 245.776Z" fill="#00A896"/>
<path d="M343.595 193.251L298.406 193.767L298.329 199.848L343.621 199.168L343.595 193.251Z" fill="#00A896"/>
<path d="M331.039 225.583C330.914 225.592 330.79 225.553 330.691 225.476L327.092 222.59C326.976 222.5 326.907 222.358 326.903 222.203C326.898 222.049 326.958 221.898 327.066 221.791L330.433 218.411C330.639 218.204 330.966 218.2 331.16 218.407C331.357 218.613 331.349 218.944 331.142 219.15L328.205 222.109L331.344 224.633C331.568 224.809 331.598 225.14 331.418 225.373C331.319 225.502 331.177 225.57 331.035 225.583H331.043H331.039Z" fill="white"/>
<path d="M336.264 225.48C336.122 225.484 335.98 225.429 335.877 225.312C335.687 225.097 335.709 224.766 335.92 224.569L338.93 221.743L335.915 219.095C335.7 218.91 335.683 218.579 335.868 218.355C336.053 218.131 336.375 218.106 336.59 218.291L340.039 221.318C340.147 221.412 340.215 221.559 340.215 221.709C340.215 221.86 340.151 222.001 340.043 222.109L336.603 225.343C336.504 225.433 336.384 225.48 336.259 225.484H336.268L336.264 225.48Z" fill="white"/>
<path d="M302.758 196.743L304.001 195.5C304.121 195.38 304.125 195.195 304.005 195.083C303.885 194.972 303.7 194.967 303.588 195.088L302.345 196.33L301.128 195.118C301.008 195.002 300.823 195.002 300.707 195.122C300.587 195.242 300.582 195.427 300.703 195.539L301.92 196.752L300.673 197.999C300.552 198.119 300.548 198.308 300.668 198.416C300.728 198.476 300.802 198.502 300.879 198.498C300.961 198.498 301.034 198.467 301.094 198.407L302.341 197.16L303.558 198.373C303.618 198.433 303.691 198.459 303.769 198.455C303.85 198.455 303.923 198.424 303.984 198.364C304.104 198.244 304.108 198.059 303.988 197.947L302.771 196.735H302.758V196.743Z" fill="white"/>
<path d="M308.017 198.407C307.062 198.42 306.288 197.65 306.297 196.696C306.306 195.741 307.097 194.954 308.047 194.941C308.997 194.929 309.771 195.698 309.763 196.649C309.754 197.599 308.967 198.39 308.017 198.407ZM308.043 195.496C307.393 195.505 306.86 196.038 306.852 196.687C306.847 197.337 307.372 197.857 308.017 197.848C308.666 197.84 309.199 197.302 309.204 196.653C309.208 196.004 308.688 195.483 308.038 195.492L308.043 195.496Z" fill="white"/>
<path d="M314.695 198.313L311.887 198.351C311.724 198.351 311.59 198.222 311.595 198.059C311.595 197.896 311.728 197.758 311.891 197.758L314.699 197.719C314.863 197.719 314.996 197.848 314.992 198.012C314.992 198.175 314.858 198.308 314.695 198.313Z" fill="white"/>
<defs>
<linearGradient id="paint0_linear_116_3062" x1="238.985" y1="200.453" x2="205.422" y2="206.119" gradientUnits="userSpaceOnUse">
<stop stop-color="#40447E"/>
<stop offset="1" stop-color="#3C3B6B"/>
</linearGradient>
<linearGradient id="paint1_linear_116_3062" x1="275.109" y1="89.0618" x2="246.541" y2="182.767" gradientUnits="userSpaceOnUse">
<stop stop-color="#FFC444"/>
<stop offset="1" stop-color="#F36F56"/>
</linearGradient>
<linearGradient id="paint2_linear_116_3062" x1="298.105" y1="50.6279" x2="273.306" y2="95.7951" gradientUnits="userSpaceOnUse">
<stop stop-color="#90E0EF"/>
<stop offset="1" stop-color="#58C0D4"/>
</linearGradient>
<linearGradient id="paint3_linear_116_3062" x1="258.555" y1="189.578" x2="211.31" y2="188.176" gradientUnits="userSpaceOnUse">
<stop stop-color="#3F4279"/>
<stop offset="1" stop-color="#792D3D"/>
</linearGradient>
<linearGradient id="paint4_linear_116_3062" x1="231.387" y1="174.414" x2="251.981" y2="193.069" gradientUnits="userSpaceOnUse">
<stop stop-color="#3D3C6C"/>
<stop offset="1" stop-color="#3D3C6C"/>
</linearGradient>
<linearGradient id="paint5_linear_116_3062" x1="338.002" y1="47.7047" x2="273.649" y2="167.546" gradientUnits="userSpaceOnUse">
<stop stop-color="#FFC444"/>
<stop offset="1" stop-color="#F36F56"/>
</linearGradient>
<linearGradient id="paint6_linear_116_3062" x1="207.513" y1="331.896" x2="184.555" y2="341.537" gradientUnits="userSpaceOnUse">
<stop stop-color="#40447E"/>
<stop offset="1" stop-color="#3C3B6B"/>
</linearGradient>
<linearGradient id="paint7_linear_116_3062" x1="176.858" y1="230.717" x2="151.944" y2="241.183" gradientUnits="userSpaceOnUse">
<stop stop-color="#40447E"/>
<stop offset="1" stop-color="#3C3B6B"/>
</linearGradient>
<linearGradient id="paint8_linear_116_3062" x1="69.4787" y1="236.38" x2="300.359" y2="236.38" gradientUnits="userSpaceOnUse">
<stop stop-color="#40447E"/>
<stop offset="1" stop-color="#3C3B6B"/>
</linearGradient>
<linearGradient id="paint9_linear_116_3062" x1="69.4744" y1="321.761" x2="396.266" y2="321.761" gradientUnits="userSpaceOnUse">
<stop stop-color="#40447E"/>
<stop offset="1" stop-color="#3C3B6B"/>
</linearGradient>
<linearGradient id="paint10_linear_116_3062" x1="101.522" y1="319.082" x2="340.964" y2="319.082" gradientUnits="userSpaceOnUse">
<stop stop-color="#40447E"/>
<stop offset="1" stop-color="#3C3B6B"/>
</linearGradient>
<linearGradient id="paint11_linear_116_3062" x1="269.515" y1="90.2063" x2="179.374" y2="207.94" gradientUnits="userSpaceOnUse">
<stop stop-color="#B3E5E0"/>
<stop offset="1" stop-color="#B3E5E0"/>
</linearGradient>
<linearGradient id="paint12_linear_116_3062" x1="185.557" y1="246.825" x2="271.407" y2="157.295" gradientUnits="userSpaceOnUse">
<stop stop-color="#00A896"/>
<stop offset="1" stop-color="#036D5E"/>
</linearGradient>
<linearGradient id="paint13_linear_116_3062" x1="320.96" y1="199.138" x2="233.829" y2="357.425" gradientUnits="userSpaceOnUse">
<stop stop-color="#90E0EF"/>
<stop offset="1" stop-color="#F36F56"/>
</linearGradient>
<linearGradient id="paint14_linear_116_3062" x1="336.569" y1="203.326" x2="262.983" y2="337.009" gradientUnits="userSpaceOnUse">
<stop stop-color="#90E0EF"/>
<stop offset="1" stop-color="#F36F56"/>
</linearGradient>
<linearGradient id="paint15_linear_116_3062" x1="206.313" y1="289.907" x2="318.333" y2="243.299" gradientUnits="userSpaceOnUse">
<stop stop-color="#00A896"/>
<stop offset="1" stop-color="#036D5E"/>
</linearGradient>
<linearGradient id="paint16_linear_116_3062" x1="91.5986" y1="147.215" x2="89.827" y2="152.659" gradientUnits="userSpaceOnUse">
<stop offset="0.49" stop-color="#EBEFF2"/>
<stop offset="1" stop-color="white"/>
</linearGradient>
<linearGradient id="paint17_linear_116_3062" x1="118.976" y1="142.206" x2="117.204" y2="147.65" gradientUnits="userSpaceOnUse">
<stop offset="0.49" stop-color="#EBEFF2"/>
<stop offset="1" stop-color="white"/>
</linearGradient>
<linearGradient id="paint18_linear_116_3062" x1="129.244" y1="-8.46572" x2="127.469" y2="147.671" gradientUnits="userSpaceOnUse">
<stop offset="0.49" stop-color="#EBEFF2"/>
<stop offset="1" stop-color="white"/>
</linearGradient>
</defs>
</svg>
