<?xml version="1.0" encoding="UTF-8"?>
<svg id="Layer_1" data-name="Layer 1" xmlns="http://www.w3.org/2000/svg" xmlns:xlink="http://www.w3.org/1999/xlink" viewBox="0 0 1000 1000">
  <defs>
    <style>
      .cls-1 {
        fill: url(#linear-gradient-2);
      }

      .cls-2 {
        fill: #fff;
      }

      .cls-3 {
        fill: url(#linear-gradient-17);
      }

      .cls-4 {
        fill: url(#linear-gradient-15);
      }

      .cls-5 {
        fill: url(#linear-gradient-18);
      }

      .cls-6 {
        fill: url(#linear-gradient-19);
        isolation: isolate;
      }

      .cls-6, .cls-7 {
        opacity: .3;
      }

      .cls-8 {
        fill: url(#linear-gradient-14);
      }

      .cls-9 {
        mask: url(#mask-2);
      }

      .cls-10 {
        fill: url(#linear-gradient-20);
      }

      .cls-11 {
        fill: #00a896;
      }

      .cls-12 {
        fill: url(#linear-gradient-6);
      }

      .cls-13 {
        fill: url(#linear-gradient-11);
      }

      .cls-14 {
        fill: url(#linear-gradient-10);
      }

      .cls-15 {
        fill: gold;
      }

      .cls-16 {
        fill: url(#linear-gradient-16);
      }

      .cls-17 {
        fill: #d8dee8;
      }

      .cls-18 {
        fill: url(#linear-gradient-21);
      }

      .cls-19 {
        fill: url(#linear-gradient-25);
      }

      .cls-20 {
        fill: url(#linear-gradient-5);
      }

      .cls-21 {
        clip-path: url(#clippath);
      }

      .cls-22 {
        fill: none;
      }

      .cls-23 {
        fill: url(#linear-gradient-7);
      }

      .cls-24 {
        opacity: .48;
      }

      .cls-25 {
        fill: url(#linear-gradient-24);
      }

      .cls-26 {
        fill: #f4f7fa;
      }

      .cls-27 {
        fill: url(#linear-gradient-9);
      }

      .cls-28 {
        fill: url(#linear-gradient-22);
      }

      .cls-29 {
        mask: url(#mask-1);
      }

      .cls-30 {
        mask: url(#mask);
      }

      .cls-31 {
        fill: url(#linear-gradient-3);
      }

      .cls-32 {
        fill: #62edd9;
      }

      .cls-33 {
        fill: url(#linear-gradient);
      }

      .cls-34 {
        fill: url(#linear-gradient-27);
      }

      .cls-35 {
        fill: #e63946;
      }

      .cls-36 {
        fill: url(#linear-gradient-23);
      }

      .cls-37 {
        fill: url(#linear-gradient-4);
      }

      .cls-38 {
        fill: url(#linear-gradient-8);
      }

      .cls-39 {
        fill: url(#linear-gradient-12);
      }

      .cls-40 {
        fill: url(#linear-gradient-13);
      }

      .cls-41 {
        fill: url(#linear-gradient-26);
      }
    </style>
    <clipPath id="clippath">
      <rect class="cls-22" x="59.18" y="49.75" width="888.29" height="888.29"/>
    </clipPath>
    <linearGradient id="linear-gradient" x1="541.35" y1="779.04" x2="681.08" y2="334.43" gradientTransform="translate(0 1002) scale(1 -1)" gradientUnits="userSpaceOnUse">
      <stop offset="0" stop-color="#e38ddd"/>
      <stop offset="1" stop-color="#9571f6"/>
    </linearGradient>
    <mask id="mask" x="491.04" y="166.54" width="275.22" height="611.6" maskUnits="userSpaceOnUse">
      <g id="mask0_113_2452" data-name="mask0 113 2452">
        <path class="cls-2" d="m508.67,778.14c-12.92-39.39-26.08-99.51-10.68-166.27,17.68-76.66,56.85-91.99,92.03-173.93,50.21-116.96-6.61-201.69,45.36-237.44,25.35-17.43,65.2-17.45,89.77.05,70.11,49.94,50.89,267.44-60.35,352.31-50.31,38.39-94.21,33.83-131.96,83.51-33.36,43.89-30.74,101.8-24.18,141.76h0Z"/>
      </g>
    </mask>
    <linearGradient id="linear-gradient-2" x1="852.83" y1="-332.87" x2="827.11" y2="-219.41" gradientTransform="translate(0 1002) scale(1 -1)" gradientUnits="userSpaceOnUse">
      <stop offset="0" stop-color="#aa80f9"/>
      <stop offset="1" stop-color="#6165d7"/>
    </linearGradient>
    <mask id="mask-1" x="459.93" y="312.83" width="444.77" height="435.38" maskUnits="userSpaceOnUse">
      <g id="mask1_113_2452" data-name="mask1 113 2452">
        <path class="cls-2" d="m468.6,716.39c-4.37-26.46-6.89-67.78,14.65-104.73,37.57-64.47,106.05-43.08,171.6-112.15,52.87-55.71,36.21-99,94.79-136.02,9.81-6.2,61.62-40.3,100.15-19.76,21.71,11.57,29.58,35.33,31.05,39.79,22.32,67.41-46.35,172.96-135.85,221.23-51.42,27.74-68.01,18.67-158.5,51.02-53.17,19.01-93.1,43.48-117.9,60.61h0Z"/>
      </g>
    </mask>
    <linearGradient id="linear-gradient-3" x1="841.71" y1="390.4" x2="372.32" y2="215.55" gradientTransform="translate(0 1002) scale(1 -1)" gradientUnits="userSpaceOnUse">
      <stop offset="0" stop-color="#ff9085"/>
      <stop offset="1" stop-color="#fb6fbb"/>
    </linearGradient>
    <linearGradient id="linear-gradient-4" x1="514.41" y1="360.69" x2="836.32" y2="360.69" xlink:href="#linear-gradient-3"/>
    <mask id="mask-2" x="501.75" y="532.3" width="345.47" height="210.15" maskUnits="userSpaceOnUse">
      <g id="mask2_113_2452" data-name="mask2 113 2452">
        <path class="cls-2" d="m514.41,711.76c14.71-10.58,38.8-25.88,71.19-37.37,57.62-20.43,84.03-8.38,108.42-32.74,25.25-25.21,8.9-50.05,39.12-78.21,2.54-2.37,35-31.82,64.36-20.85,20.54,7.67,28.54,31.01,32.29,41.96,14.56,42.49,6.1,107.24-39.24,139.18-42.98,30.28-97.39,15.85-114.67,11.14-30.31-8.25-37.49-20.06-68.3-27.53-37.47-9.08-71.15-2.35-93.18,4.42h0Z"/>
      </g>
    </mask>
    <linearGradient id="linear-gradient-5" x1="631.98" y1="567.78" x2="504.81" y2="571.56" gradientTransform="translate(0 1002) scale(1 -1)" gradientUnits="userSpaceOnUse">
      <stop offset="0" stop-color="#ab316d"/>
      <stop offset="1" stop-color="#792d3d"/>
    </linearGradient>
    <linearGradient id="linear-gradient-6" x1="558.88" y1="608.61" x2="614.32" y2="558.39" xlink:href="#linear-gradient-5"/>
    <linearGradient id="linear-gradient-7" x1="845.86" y1="949.64" x2="672.64" y2="627.05" gradientTransform="translate(0 1002) scale(1 -1)" gradientUnits="userSpaceOnUse">
      <stop offset="0" stop-color="#ffc444"/>
      <stop offset="1" stop-color="#f36f56"/>
    </linearGradient>
    <linearGradient id="linear-gradient-8" x1="873.68" y1="969.29" x2="802.89" y2="858.73" xlink:href="#linear-gradient-5"/>
    <linearGradient id="linear-gradient-9" x1="579.31" y1="538.48" x2="488.96" y2="523.23" gradientTransform="translate(0 1002) scale(1 -1)" gradientUnits="userSpaceOnUse">
      <stop offset="0" stop-color="#40447e"/>
      <stop offset="1" stop-color="#3c3b6b"/>
    </linearGradient>
    <linearGradient id="linear-gradient-10" x1="676.51" y1="838.34" x2="599.61" y2="586.11" xlink:href="#linear-gradient-7"/>
    <linearGradient id="linear-gradient-11" x1="693.39" y1="856.14" x2="658.97" y2="768.08" xlink:href="#linear-gradient-5"/>
    <linearGradient id="linear-gradient-12" x1="738.45" y1="941.78" x2="671.7" y2="820.2" xlink:href="#linear-gradient-3"/>
    <linearGradient id="linear-gradient-13" x1="738.45" y1="941.78" x2="671.7" y2="820.2" xlink:href="#linear-gradient-3"/>
    <linearGradient id="linear-gradient-14" x1="746.56" y1="937.33" x2="679.81" y2="815.75" xlink:href="#linear-gradient-3"/>
    <linearGradient id="linear-gradient-15" x1="440.77" y1="218.52" x2="387.38" y2="196.1" xlink:href="#linear-gradient-9"/>
    <linearGradient id="linear-gradient-16" x1="369.48" y1="453.82" x2="311.54" y2="429.48" xlink:href="#linear-gradient-9"/>
    <linearGradient id="linear-gradient-17" x1="119.76" y1="440.65" x2="656.69" y2="440.65" xlink:href="#linear-gradient-9"/>
    <linearGradient id="linear-gradient-18" x1="119.75" y1="242.09" x2="879.73" y2="242.09" xlink:href="#linear-gradient-9"/>
    <linearGradient id="linear-gradient-19" x1="194.28" y1="248.32" x2="751.12" y2="248.32" xlink:href="#linear-gradient-9"/>
    <linearGradient id="linear-gradient-20" x1="584.96" y1="780.59" x2="375.33" y2="506.79" gradientTransform="translate(0 1002) scale(1 -1)" gradientUnits="userSpaceOnUse">
      <stop offset="0" stop-color="#b3e5e0"/>
      <stop offset="1" stop-color="#b3e5e0"/>
    </linearGradient>
    <linearGradient id="linear-gradient-21" x1="389.71" y1="416.36" x2="589.36" y2="624.57" gradientTransform="translate(0 1002) scale(1 -1)" gradientUnits="userSpaceOnUse">
      <stop offset="0" stop-color="#00a896"/>
      <stop offset="1" stop-color="#036d5e"/>
    </linearGradient>
    <linearGradient id="linear-gradient-22" x1="704.6" y1="527.26" x2="501.97" y2="159.15" xlink:href="#linear-gradient-7"/>
    <linearGradient id="linear-gradient-23" x1="740.9" y1="517.52" x2="569.77" y2="206.63" xlink:href="#linear-gradient-7"/>
    <linearGradient id="linear-gradient-24" x1="437.98" y1="316.17" x2="698.49" y2="424.56" xlink:href="#linear-gradient-21"/>
    <linearGradient id="linear-gradient-25" x1="213.02" y1="659.64" x2="208.9" y2="646.98" gradientTransform="translate(0 1002) scale(1 -1)" gradientUnits="userSpaceOnUse">
      <stop offset=".49" stop-color="#ebeff2"/>
      <stop offset="1" stop-color="#fff"/>
    </linearGradient>
    <linearGradient id="linear-gradient-26" x1="234.87" y1="659.66" x2="230.75" y2="647" xlink:href="#linear-gradient-25"/>
    <linearGradient id="linear-gradient-27" x1="258.75" y1="1010.06" x2="254.62" y2="646.95" xlink:href="#linear-gradient-25"/>
  </defs>
  <g class="cls-21">
    <g>
      <path class="cls-26" d="m287.12,198.32c-26.1,38.05,4.5,99.74-34.23,128.35-37.7,27.86-84.02-17.8-119.55,6.17-52.71,35.57-43.08,198.33,33.98,299.46,23.18,30.41,42.54,42.25,51.12,76.64,18.42,73.86-46.31,117.79-33.99,154.32,27.73,82.25,454.24,151.26,625.37-95.92,79.93-115.44,91.89-282.14,20.47-408.75-129.04-228.78-484.61-245.65-543.18-160.28h0Z"/>
      <path class="cls-33" d="m508.67,778.14c-12.92-39.39-26.08-99.51-10.68-166.27,17.68-76.66,56.85-91.99,92.03-173.93,50.21-116.96-6.61-201.69,45.36-237.44,25.35-17.43,65.2-17.45,89.77.05,70.11,49.94,50.89,267.44-60.35,352.31-50.31,38.39-94.21,33.83-131.96,83.51-33.36,43.89-30.74,101.8-24.18,141.76h0Z"/>
      <g class="cls-30">
        <g>
          <path class="cls-2" d="m500.62,679l-.93-.24c4.23-16.63,9.92-32.97,16.9-48.56,16.07-35.87,33.78-55.57,56.2-80.51,14.57-16.21,31.08-34.58,50.16-60.91,35.68-49.25,46.75-66.54,56.65-94.35,19.6-55.08,16.59-104.45,13.05-128.98-5.02-34.8-16.7-67.92-34.7-98.43l.82-.49c18.07,30.62,29.79,63.86,34.82,98.78,3.55,24.62,6.57,74.17-13.09,129.44-9.93,27.93-21.03,45.26-56.77,94.59-19.11,26.37-35.64,44.76-50.23,60.99-22.36,24.88-40.02,44.53-56.03,80.26-6.97,15.54-12.63,31.83-16.85,48.41h0Z"/>
          <path class="cls-2" d="m690.4,355.49v-.79c-.73-40.58-26.67-66.85-48.31-81.74-23.48-16.15-47.07-22.78-47.31-22.84l.25-.92c.24.07,23.99,6.73,47.6,22.98,21.68,14.92,47.64,41.17,48.69,81.71,3.74-2.18,21.99-13.42,38.41-34.1,16.88-21.27,35.22-57.15,26.74-107.37l.94-.16c8.55,50.58-9.94,86.74-26.95,108.16-18.43,23.2-39.17,34.6-39.37,34.71l-.69.38h0Z"/>
          <path class="cls-2" d="m684.04,485.8c-4.15,0-8.07-.21-11.69-.54-22.78-2.08-39.1-9.47-39.27-9.55l-.37-.17.1-.39c10.45-39.84,1.38-69.19-8.06-86.8-10.24-19.09-23.12-28.88-23.25-28.98l.57-.76c.13.1,13.15,9.99,23.5,29.25,9.51,17.71,18.64,47.18,8.27,87.14,2.53,1.09,17.87,7.41,38.62,9.31,20.85,1.9,51.61-.42,79.65-22.24l.59.76c-23.42,18.23-48.72,22.97-68.66,22.97h0Z"/>
          <path class="cls-2" d="m637.13,561.92c-12.15,0-22.13-1.69-29.85-3.79-19.08-5.19-28.86-13.98-28.96-14.07l-.25-.23.14-.31c17.67-40.47-6.98-106.67-7.23-107.34l.89-.34c.25.67,24.9,66.89,7.35,107.73,1.65,1.39,11.19,8.98,28.37,13.64,17.43,4.73,46.5,7.34,86.05-7.11l.33.9c-22.32,8.15-41.34,10.91-56.84,10.91Z"/>
        </g>
      </g>
      <path class="cls-1" d="m468.6,716.39c-4.37-26.46-6.89-67.78,14.65-104.73,37.57-64.47,106.05-43.08,171.6-112.15,52.87-55.71,36.21-99,94.79-136.02,9.81-6.2,61.62-40.3,100.15-19.76,21.71,11.57,29.58,35.33,31.05,39.79,22.32,67.41-46.35,172.96-135.85,221.23-51.42,27.74-68.01,18.67-158.5,51.02-53.17,19.01-93.1,43.48-117.9,60.61h0Z"/>
      <g class="cls-29">
        <g>
          <path class="cls-2" d="m460.87,748.21l-.94-.19c13.17-63.24,38.14-105.73,74.22-126.28,17.66-10.06,31.73-11.66,46.61-13.34,16.01-1.81,32.58-3.69,54.43-16.9,21.24-12.85,28.86-25.22,38.5-40.87,8.67-14.09,19.47-31.61,43.69-54.96,21.23-20.46,36.69-30.04,50.34-38.49,14.78-9.15,26.45-16.39,39.96-34.09,22.07-28.93,33.61-66.02,34.29-110.24h.96c-.68,44.45-12.29,81.73-34.49,110.82-13.62,17.85-25.36,25.12-40.22,34.33-13.6,8.42-29.02,17.97-50.17,38.37-24.14,23.26-34.9,40.74-43.54,54.77-9.71,15.77-17.38,28.22-38.82,41.19-22.04,13.32-38.7,15.21-54.82,17.03-14.79,1.67-28.76,3.26-46.25,13.22-35.84,20.41-60.65,62.69-73.75,125.64h0Z"/>
          <path class="cls-2" d="m767.54,461.84c-1.82,0-3.66-.03-5.52-.08l-.64-.02.2-.61c.29-.88,28.68-88.66-3.66-124.95l.71-.64c9.44,10.6,19.6,32.55,14.33,76.93-2.85,24.04-9.1,44.6-10.29,48.35,48.08,1.3,83.87-16.9,105.44-32.43,23.49-16.92,35.67-34.41,35.79-34.59l.79.54c-.12.18-12.38,17.78-35.99,34.8-20.96,15.1-55.25,32.71-101.17,32.71h0Z"/>
          <path class="cls-2" d="m771.08,536.63c-7.42,0-14.31-.38-20.57-.99-33.64-3.24-56.45-13.29-56.68-13.39l-.38-.17.11-.4c12.64-45.77,1.49-110.9,1.38-111.55l.94-.17c.11.65,11.24,65.61-1.28,111.56,3.09,1.31,24.9,10.16,56.04,13.15,30.89,2.97,77.55.61,124.4-27.47l.49.82c-37.6,22.54-75.07,28.59-104.45,28.59h0Z"/>
          <path class="cls-2" d="m731.22,643.4c-43.96,0-77.91-9.29-99.04-17.31-24.06-9.13-37.13-18.65-37.26-18.74l-.4-.3.32-.39c34.75-42.42,21.21-112.51,21.07-113.22l.94-.19c.14.71,13.68,70.8-20.95,113.61,5.06,3.51,56.23,37.35,142.06,35.5l.02.95c-2.28.05-4.54.07-6.77.07h0Z"/>
        </g>
      </g>
      <path class="cls-31" d="m514.41,711.76c14.71-10.58,38.8-25.88,71.19-37.37,57.62-20.43,84.03-8.38,108.42-32.74,25.25-25.21,8.9-50.05,39.12-78.21,2.54-2.37,35-31.82,64.36-20.85,20.54,7.67,28.54,31.01,32.29,41.96,14.56,42.49,6.1,107.24-39.24,139.18-42.98,30.28-97.39,15.85-114.67,11.14-30.31-8.25-37.49-20.06-68.3-27.53-37.47-9.08-71.15-2.35-93.18,4.42h0Z"/>
      <path class="cls-37" d="m514.41,711.76c14.71-10.58,38.8-25.88,71.19-37.37,57.62-20.43,84.03-8.38,108.42-32.74,25.25-25.21,8.9-50.05,39.12-78.21,2.54-2.37,35-31.82,64.36-20.85,20.54,7.67,28.54,31.01,32.29,41.96,14.56,42.49,6.1,107.24-39.24,139.18-42.98,30.28-97.39,15.85-114.67,11.14-30.31-8.25-37.49-20.06-68.3-27.53-37.47-9.08-71.15-2.35-93.18,4.42h0Z"/>
      <g class="cls-9">
        <g>
          <path class="cls-2" d="m502.32,721.32l-.57-.77c35.84-26.23,70.85-38.58,104.02-36.73,14.51.81,24.69,4.04,34.53,7.16,12.31,3.9,23.93,7.59,43.22,6.79,34.71-1.45,64.33-13.23,83.4-33.16,29.53-30.88,36.07-82.67,16.65-131.96l.89-.35c19.55,49.63,12.94,101.83-16.85,132.97-19.24,20.12-49.09,32-84.04,33.46-19.47.81-31.16-2.9-43.55-6.83-9.79-3.1-19.91-6.31-34.3-7.12-32.96-1.84-67.75,10.45-103.41,36.54h0Z"/>
          <path class="cls-2" d="m781.17,645.23l.05-.73c2.23-29.57-15.58-52-30.91-65.61-16.64-14.77-34.03-22.63-34.2-22.71l.39-.87c.18.08,17.69,8,34.44,22.87,15.36,13.64,33.18,36.06,31.28,65.65,6.48-2.51,56.18-23.07,59.43-63.74l.95.08c-3.52,43.9-60.18,64.62-60.75,64.82l-.69.25h0Z"/>
          <path class="cls-2" d="m770.23,712.51c-8.53,0-16.06-.86-22.47-2.09-23.77-4.56-37.67-15-37.81-15.1l-.37-.28.27-.38c17.31-23.87,14.44-50.03,8.97-67.77-5.93-19.26-16.09-33.02-16.19-33.16l.77-.57c.1.14,10.36,14.04,16.34,33.45,5.5,17.85,8.4,44.15-8.83,68.23,2.36,1.67,15.68,10.57,37.08,14.66,21.75,4.16,56.53,4.07,98.76-19.97l.47.83c-30.07,17.11-56.41,22.16-77,22.16h0Z"/>
        </g>
      </g>
      <path class="cls-20" d="m415.1,677.31c8.65,13.8,20.99,22.11,37.02,24.93L797.37,189.6l-37.02-24.93-345.25,512.65Z"/>
      <path class="cls-12" d="m438.37,698.08c-5.18-2.33-9.83-5.44-13.96-9.32L772.06,172.55l13.92,9.38-347.61,516.15h0Z"/>
      <path class="cls-23" d="m760.35,164.66c7.4,15.35,19.68,23.74,37.02,24.93l60.84-127.7c.65-1.5-1.26-2.78-2.41-1.62l-95.46,104.39h0Z"/>
      <path class="cls-38" d="m858.22,61.89l-23.65,49.64c-6.21-2.25-11.5-5.82-15.88-10.67l37.13-40.6c1.15-1.16,3.06.12,2.41,1.62h0Z"/>
      <path class="cls-27" d="m460.3,665.79c8.05,8.53,17.94,12.66,29.66,12.39l171.63-410.73-29.66-12.39-171.63,410.73Z"/>
      <path class="cls-14" d="m631.92,255.06c7.39,9.8,17.25,14,29.66,12.39l24.98-98.77c.25-1.15-1.28-1.79-1.93-.81l-52.72,87.18h0Z"/>
      <path class="cls-13" d="m686.57,168.69l-9.71,38.39c-4.7-.71-8.94-2.49-12.72-5.3l20.5-33.91c.65-.98,2.18-.34,1.93.81Z"/>
      <path class="cls-39" d="m725.36,50.45s17.85,36.56,4.68,88.06c-13.17,51.5-49.31,76.39-61.9,68.62-12.59-7.77-28.89-37.96-15.62-62.47,13.28-24.5,65.12-61.13,72.84-94.21Z"/>
      <path class="cls-40" d="m725.36,50.45s17.85,36.56,4.68,88.06c-13.17,51.5-49.31,76.39-61.9,68.62-12.59-7.77-28.89-37.96-15.62-62.47,13.28-24.5,65.12-61.13,72.84-94.21Z"/>
      <g class="cls-7">
        <path class="cls-8" d="m725.36,50.45c-.74,3.17-1.89,6.38-3.37,9.61,7.12,27.08,3,41.85-3.93,50.44-9.69,12-23,9.68-33.08,25.34-13.23,20.56.26,39.27-10.6,53.82-2.77,3.71-7.21,7.26-14.61,9.54,2.74,3.5,5.64,6.24,8.37,7.93,12.59,7.77,48.73-17.12,61.9-68.62,13.17-51.5-4.68-88.06-4.68-88.06Z"/>
      </g>
      <path class="cls-4" d="m879.74,754.26l-759.98-6.62v19.58c0,5.32,3.31,9.83,7.8,10.64l214.9,38.56c2.55.46,5.14.58,7.71.36l521.31-43.97c4.65-.39,8.26-4.92,8.26-10.39v-8.17Z"/>
      <path class="cls-16" d="m635.09,722.52l-506.97,35.82c-9.07.64-16.45-6.17-16.45-15.22v-362.42c0-9.05,7.38-16.38,16.45-16.38h506.97c7.47,0,13.52,6.63,13.52,14.81v327.62c0,8.18-6.04,15.23-13.52,15.76Z"/>
      <path class="cls-3" d="m643.17,722.52l-506.97,35.82c-9.07.64-16.45-6.17-16.45-15.22v-362.42c0-9.05,7.38-16.38,16.45-16.38h506.97c7.47,0,13.52,6.63,13.52,14.81v327.62c0,8.18-6.04,15.23-13.52,15.76Z"/>
      <path class="cls-2" d="m627.38,699.42l-472.19,31.12c-7.38.49-13.38-5.1-13.38-12.49v-317.3c0-7.39,6-13.4,13.38-13.43l472.19-1.95c6.16-.02,11.15,5.41,11.15,12.13v289c0,6.73-4.99,12.51-11.15,12.91h0Z"/>
      <path class="cls-2" d="m407.59,374.24c0,3.37-2.61,6.1-5.83,6.11-3.22.01-5.84-2.72-5.84-6.09s2.62-6.11,5.84-6.11c3.22,0,5.83,2.72,5.83,6.09Z"/>
      <g class="cls-24">
        <path class="cls-2" d="m521.03,623.12c-39.08-21.03-69.81,5.62-99.47-20.67-17.98-15.94-9.15-27.82-31.28-51.64-24.5-26.38-40.46-17.51-65.08-41.25-31.14-30.02-15.57-53.38-42.39-74.93-32.54-26.15-67.63-1.95-98.6-27.02-13.36-10.82-20.69-26.54-24.52-43.26h-30.31c-5.31,0-9.62,4.31-9.62,9.61v375.68c0,5.31,4.31,9.31,9.62,8.93l516.68-36.68c2.54-.18,4.78-1.66,6.23-3.81-37.82-1.38-61.06-14.06-75.91-27.17-29.06-25.64-24.02-50.93-55.35-67.79h0Z"/>
      </g>
      <path class="cls-5" d="m630.52,720.89l-510.77,37.71,222.7,39.96c2.55.46,5.14.58,7.71.36l529.57-44.67-241.09-33.11c-2.7-.37-5.41-.46-8.12-.26Z"/>
      <path class="cls-6" d="m194.28,759.55l425.23-31.86,131.6,17.93-421.56,34.06-135.27-20.13Z"/>
      <path class="cls-17" d="m626.09,475.59l-472.24,7.2v-85.84h472.24v78.64Z"/>
      <path class="cls-17" d="m476.35,628.7l-299.19,13.06v-144.02l299.19-5.38v136.34Z"/>
      <path class="cls-17" d="m606.37,529.92l-112.54,2.89v-40.77l112.54-2.02v39.9Z"/>
      <path class="cls-17" d="m606.37,623.02l-112.54,4.91v-80.69l112.54-3.2v78.97Z"/>
      <path class="cls-17" d="m606.37,641.31l-429.21,20.25v34.21l429.21-22.87v-31.59Z"/>
      <path class="cls-10" d="m735.68,424.05l-540.53,6.79c-3.06.04-5.57-2.43-5.57-5.5v-88.62c0-3.04,2.46-5.5,5.5-5.5h540.53c3.04,0,5.5,2.46,5.5,5.5v81.83c0,3.01-2.42,5.46-5.43,5.49Z"/>
      <path class="cls-18" d="m616.47,604.89l-343.07,12.5v-166.18l343.07-5.24v158.92Z"/>
      <path class="cls-28" d="m767.75,511.49l-131.02,4.12v-69.04l131.02-2.91v67.83Z"/>
      <path class="cls-36" d="m767.75,599.38l-131.02,4.77v-94.1l131.02-3.13v92.46Z"/>
      <path class="cls-25" d="m782.83,616.74l-492.26,19.13v39.38l492.26-21.61v-36.91Z"/>
      <path class="cls-19" d="m217.53,349.77c.59-3.63-1.87-7.05-5.5-7.64-3.63-.59-7.05,1.87-7.63,5.5-.59,3.63,1.87,7.05,5.5,7.64,3.63.59,7.05-1.87,7.63-5.5Z"/>
      <path class="cls-41" d="m239.29,350.2c.84-3.58-1.37-7.16-4.95-8-3.58-.84-7.16,1.37-8.01,4.95-.84,3.58,1.37,7.16,4.95,8,3.58.84,7.16-1.37,8-4.95Z"/>
      <path class="cls-34" d="m261.26,349.77c.59-3.63-1.87-7.04-5.5-7.63-3.63-.59-7.05,1.87-7.63,5.5-.59,3.63,1.87,7.05,5.5,7.64,3.63.59,7.05-1.88,7.63-5.5Z"/>
      <path class="cls-2" d="m708.85,385.71l-232.63.63.06-13.51,232.62-.62-.05,13.5Z"/>
    </g>
  </g>
  <g>
    <path class="cls-2" d="m401.46,489.16l-72.65,1.36-.03,4.31,72.66-1.42v-4.25Z"/>
    <path class="cls-2" d="m562.83,486.15l-70.4,1.32v4.17s70.42-1.37,70.42-1.37l-.02-4.12Z"/>
    <path class="cls-15" d="m562.93,501.78l-48.66,1.06v4.16s48.68-1.1,48.68-1.1l-.02-4.12Z"/>
    <path class="cls-15" d="m563.09,533.2l-69.06,1.93v4.19s69.08-1.99,69.08-1.99l-.02-4.13Z"/>
    <path class="cls-15" d="m563.15,548.91l-82.86,2.58v4.21s82.88-2.65,82.88-2.65l-.02-4.14Z"/>
    <path class="cls-15" d="m563.25,567.3l-107.18,3.73v4.24s107.2-3.82,107.2-3.82l-.02-4.15Z"/>
    <path class="cls-15" d="m483.43,487.63l-70.36,1.31v4.24s70.37-1.37,70.37-1.37v-4.18Z"/>
    <path class="cls-15" d="m508.02,523.06c-10.54.27-21.17.54-42.54,1.05l-14,.36v-4.24s13.99-.35,13.99-.35c28.46-.66,56.5-1.35,84.14-2.09l13.37-.33.02,4.11-13.37.34c-20.71.59-31.13.86-41.62,1.13v.02Z"/>
    <path class="cls-2" d="m384.54,526.24c-18.61.48-37.3.94-55.96,1.38l.03-4.32c37.18-.84,74.51-1.77,110.98-2.76v4.23c-18.17.51-36.56,1-55.04,1.48Z"/>
    <path class="cls-2" d="m504.49,503.06l-175.79,3.83-.03,4.31,175.82-3.97v-4.17Z"/>
    <path class="cls-2" d="m446.4,571.37l-118.11,4.11-.03,4.34,118.13-4.2v-4.24Z"/>
    <path class="cls-2" d="m485.18,535.39l-156.67,4.39-.03,4.33,156.7-4.52v-4.2Z"/>
    <path class="cls-2" d="m470.91,551.78l-142.5,4.44-.03,4.33,142.52-4.55v-4.22Z"/>
    <path class="cls-35" d="m313.31,495.94c1.65-.03,2.99-1.39,3.01-3.03.01-1.64-1.32-2.95-2.97-2.92-1.65.03-3,1.39-3.01,3.03-.01,1.64,1.32,2.95,2.97,2.92Z"/>
    <path class="cls-35" d="m316.21,509.32c-.01,1.65-1.37,3.01-3.01,3.05-1.64.04-2.98-1.26-2.97-2.91.01-1.65,1.37-3.01,3.01-3.05,1.64-.04,2.98,1.26,2.97,2.91Z"/>
    <path class="cls-35" d="m313.09,528.81c1.65-.04,3-1.41,3.01-3.06.01-1.65-1.32-2.95-2.97-2.91-1.65.04-3,1.41-3.01,3.06-.01,1.65,1.32,2.95,2.97,2.91Z"/>
    <path class="cls-35" d="m315.99,542.23c-.01,1.66-1.37,3.03-3.01,3.07-1.64.05-2.99-1.25-2.98-2.9.01-1.66,1.38-3.03,3.02-3.07,1.64-.05,2.98,1.27,2.97,2.9Z"/>
    <path class="cls-35" d="m312.87,561.87c1.65-.05,3-1.44,3.02-3.09s-1.32-2.95-2.97-2.9c-1.66.05-3.01,1.43-3.02,3.09-.01,1.65,1.32,2.95,2.98,2.9Z"/>
    <path class="cls-35" d="m315.75,578.08c-.01,1.66-1.37,3.05-3.02,3.11-1.64.06-2.99-1.25-2.98-2.89.01-1.64,1.38-3.05,3.02-3.1,1.64-.06,2.99,1.23,2.98,2.89Z"/>
    <path class="cls-35" d="m581.26,578.11c-.54.02-.98-.43-.99-1l-.54-91.53c0-.56.44-1.03.97-1.04s.98.45.98,1.01l.54,91.49c0,.57-.44,1.05-.98,1.07Z"/>
  </g>
  <polygon class="cls-15" points="307.07 649.29 769.97 631.29 770.5 642.89 307.26 661.71 307.07 649.29"/>
  <g>
    <path class="cls-32" d="m756.46,461.88l-103.5,1.21-1.55,120.12,105.51-4.44-.46-116.88Z"/>
    <path class="cls-2" d="m733.97,482.72l-72.68,1.23-.03,2.47,72.71-1.28v-2.42Z"/>
    <path class="cls-2" d="m697.78,503.63c-12.56.28-25.18.56-36.72.77l.03-2.48c23.01-.43,50.26-1.02,72.89-1.57v2.43c-11.29.28-23.71.57-36.19.85Z"/>
    <path class="cls-2" d="m733.97,491.52l-72.78,1.4-.03,2.47,72.81-1.45v-2.43Z"/>
    <path class="cls-2" d="m714.47,509.72l-53.49,1.28-.03,2.49,53.51-1.31v-2.45Z"/>
    <path class="cls-2" d="m733.99,569.53l-73.72,2.91-.03,2.54,73.75-2.96v-2.49Z"/>
    <path class="cls-2" d="m733.99,553.98c-22.83.75-50.33,1.72-73.53,2.6l.03-2.52c23.2-.87,50.69-1.82,73.5-2.56v2.47Z"/>
    <path class="cls-2" d="m733.99,560.49l-73.61,2.73-.03,2.53,73.64-2.78v-2.48Z"/>
    <path class="cls-2" d="m714.38,543.11l-53.79,1.74-.03,2.52,53.81-1.78v-2.48Z"/>
    <path class="cls-11" d="m758.53,580.35l-108.8,4.62,1.63-123.54,106.68-1.2.5,120.11Zm-107.1,2.85l105.5-4.44-.46-116.91-103.5,1.21-1.55,120.15Z"/>
    <path class="cls-11" d="m757.24,461.05l-105.09,1.2-.18,14.14,105.33-1.58-.06-13.76Z"/>
    <path class="cls-2" d="m728.04,536.24c-.29.02-.58-.07-.81-.25l-8.37-6.71c-.27-.21-.43-.54-.44-.9-.01-.36.13-.71.38-.96l7.83-7.86c.48-.48,1.24-.49,1.69-.01.46.48.44,1.25-.04,1.73l-6.83,6.88,7.3,5.87c.52.41.59,1.18.17,1.72-.23.3-.56.46-.89.49h.02Z"/>
    <path class="cls-2" d="m740.19,536c-.33.01-.66-.12-.9-.39-.44-.5-.39-1.27.1-1.73l7-6.57-7.01-6.16c-.5-.43-.54-1.2-.11-1.72.43-.52,1.18-.58,1.68-.15l8.02,7.04c.25.22.41.56.41.91,0,.35-.15.68-.4.93l-8,7.52c-.23.21-.51.32-.8.33h.02Z"/>
    <path class="cls-2" d="m662.27,469.17l2.89-2.89c.28-.28.29-.71.01-.97s-.71-.27-.97.01l-2.89,2.89-2.83-2.82c-.28-.27-.71-.27-.98.01-.28.28-.29.71-.01.97l2.83,2.82-2.9,2.9c-.28.28-.29.72-.01.97.14.14.31.2.49.19.19,0,.36-.07.5-.21l2.9-2.9,2.83,2.82c.14.14.31.2.49.19.19,0,.36-.07.5-.21.28-.28.29-.71.01-.97l-2.83-2.82h-.03Z"/>
    <path class="cls-2" d="m674.5,473.04c-2.22.03-4.02-1.76-4-3.98s1.86-4.05,4.07-4.08c2.21-.03,4.01,1.76,3.99,3.97-.02,2.21-1.85,4.05-4.06,4.09Zm.06-6.77c-1.51.02-2.75,1.26-2.77,2.77-.01,1.51,1.21,2.72,2.71,2.7,1.51-.02,2.75-1.27,2.76-2.78.01-1.51-1.2-2.72-2.71-2.7Z"/>
    <path class="cls-2" d="m690.03,472.82l-6.53.09c-.38,0-.69-.3-.68-.68,0-.38.31-.7.69-.7l6.53-.09c.38,0,.69.3.68.68,0,.38-.31.69-.69.7Z"/>
  </g>
</svg>