<?xml version="1.0" encoding="UTF-8"?>
<svg xmlns="http://www.w3.org/2000/svg" xmlns:xlink="http://www.w3.org/1999/xlink" viewBox="0 0 3710 3710">
  <defs>
    <style>
      .cls-1 {
        fill: url(#linear-gradient-32);
      }

      .cls-1, .cls-2, .cls-3, .cls-4 {
        mix-blend-mode: multiply;
        opacity: .3;
      }

      .cls-5 {
        fill: url(#linear-gradient-2);
      }

      .cls-6 {
        fill: url(#linear-gradient-51);
      }

      .cls-7, .cls-8, .cls-9 {
        fill: #fff;
      }

      .cls-8 {
        opacity: .48;
      }

      .cls-8, .cls-10, .cls-9 {
        mix-blend-mode: soft-light;
      }

      .cls-11 {
        fill: url(#linear-gradient-43);
      }

      .cls-12 {
        fill: url(#linear-gradient-15);
      }

      .cls-13 {
        fill: url(#linear-gradient-5);
      }

      .cls-13, .cls-14, .cls-15, .cls-16 {
        isolation: isolate;
      }

      .cls-13, .cls-14, .cls-16 {
        opacity: .3;
      }

      .cls-17 {
        fill: url(#linear-gradient-18);
      }

      .cls-18 {
        fill: url(#linear-gradient-40);
      }

      .cls-19 {
        fill: url(#linear-gradient-52);
      }

      .cls-20 {
        fill: url(#linear-gradient-28);
      }

      .cls-21 {
        fill: url(#linear-gradient-14);
      }

      .cls-22 {
        fill: url(#linear-gradient-36);
      }

      .cls-23 {
        fill: url(#linear-gradient-20);
      }

      .cls-14 {
        fill: url(#linear-gradient-17);
      }

      .cls-24 {
        fill: url(#linear-gradient-6);
      }

      .cls-25 {
        clip-path: url(#clippath-2);
      }

      .cls-26 {
        fill: url(#linear-gradient-53);
      }

      .cls-27 {
        fill: #faf4f1;
      }

      .cls-2 {
        fill: url(#linear-gradient-35);
      }

      .cls-28 {
        fill: url(#linear-gradient-48);
      }

      .cls-29 {
        fill: url(#linear-gradient-50);
      }

      .cls-30 {
        fill: url(#linear-gradient-39);
      }

      .cls-31 {
        clip-path: url(#clippath-1);
      }

      .cls-32 {
        fill: url(#linear-gradient-10);
      }

      .cls-16 {
        fill: url(#linear-gradient-11);
      }

      .cls-10 {
        opacity: .5;
      }

      .cls-33 {
        fill: url(#linear-gradient-49);
      }

      .cls-34 {
        fill: url(#linear-gradient-37);
      }

      .cls-35 {
        fill: url(#linear-gradient-16);
      }

      .cls-36 {
        fill: url(#linear-gradient-31);
      }

      .cls-3 {
        fill: url(#linear-gradient-26);
      }

      .cls-37 {
        fill: url(#linear-gradient-41);
      }

      .cls-38 {
        fill: url(#linear-gradient-21);
      }

      .cls-39 {
        fill: url(#linear-gradient-25);
      }

      .cls-40 {
        fill: url(#linear-gradient-54);
      }

      .cls-41 {
        fill: url(#linear-gradient-45);
      }

      .cls-42 {
        fill: #b3e5e0;
      }

      .cls-43 {
        clip-path: url(#clippath);
      }

      .cls-44 {
        fill: url(#linear-gradient-34);
      }

      .cls-45 {
        fill: none;
      }

      .cls-46 {
        fill: #eff2f6;
      }

      .cls-47 {
        fill: url(#linear-gradient-7);
      }

      .cls-48 {
        fill: url(#linear-gradient-24);
      }

      .cls-9 {
        opacity: .78;
      }

      .cls-49 {
        fill: #f4f7fa;
      }

      .cls-50 {
        fill: url(#linear-gradient-9);
      }

      .cls-51 {
        fill: url(#linear-gradient-22);
      }

      .cls-52 {
        fill: url(#linear-gradient-42);
      }

      .cls-53 {
        fill: url(#linear-gradient-3);
      }

      .cls-54 {
        fill: #ebeff2;
      }

      .cls-55 {
        fill: url(#linear-gradient);
      }

      .cls-56 {
        fill: url(#linear-gradient-27);
      }

      .cls-57 {
        fill: url(#linear-gradient-33);
      }

      .cls-58 {
        fill: url(#linear-gradient-38);
      }

      .cls-59 {
        fill: url(#linear-gradient-29);
      }

      .cls-60 {
        fill: url(#linear-gradient-30);
      }

      .cls-61 {
        fill: url(#linear-gradient-23);
      }

      .cls-62 {
        fill: url(#linear-gradient-19);
      }

      .cls-63 {
        fill: url(#linear-gradient-4);
      }

      .cls-64 {
        fill: url(#linear-gradient-8);
      }

      .cls-65 {
        fill: url(#linear-gradient-44);
      }

      .cls-66 {
        fill: url(#linear-gradient-47);
      }

      .cls-67 {
        fill: url(#linear-gradient-46);
      }

      .cls-68 {
        fill: url(#linear-gradient-12);
      }

      .cls-69 {
        fill: url(#linear-gradient-13);
      }
    </style>
    <linearGradient id="linear-gradient" x1="1024.11" y1="743.19" x2="558.63" y2="1504.15" gradientUnits="userSpaceOnUse">
      <stop offset="0" stop-color="#ffc444"/>
      <stop offset="1" stop-color="#f36f56"/>
    </linearGradient>
    <linearGradient id="linear-gradient-2" x1="602.11" y1="1003.44" x2="413.41" y2="1302.94" gradientUnits="userSpaceOnUse">
      <stop offset="0" stop-color="#ff9085"/>
      <stop offset="1" stop-color="#fb6fbb"/>
    </linearGradient>
    <linearGradient id="linear-gradient-3" x1="1022.92" y1="1043.96" x2="1056.96" y2="1695.49" xlink:href="#linear-gradient"/>
    <linearGradient id="linear-gradient-4" x1="1188.11" y1="1137.2" x2="1140.46" y2="1678.04" gradientUnits="userSpaceOnUse">
      <stop offset="0" stop-color="#aa80f9"/>
      <stop offset="1" stop-color="#6165d7"/>
    </linearGradient>
    <linearGradient id="linear-gradient-5" x1="-113.58" y1="2224.93" x2="268.19" y2="1887.66" gradientTransform="translate(3086.05 3052.64) rotate(179.51)" gradientUnits="userSpaceOnUse">
      <stop offset="0" stop-color="#d5e38a"/>
      <stop offset="1" stop-color="#f6d46e"/>
    </linearGradient>
    <linearGradient id="linear-gradient-6" x1="-258.8" y1="2431.38" x2="55.9" y2="2268.28" gradientTransform="translate(3086.05 3052.64) rotate(179.51)" gradientUnits="userSpaceOnUse">
      <stop offset="0" stop-color="#82ff96"/>
      <stop offset="1" stop-color="#b4fb6c"/>
    </linearGradient>
    <linearGradient id="linear-gradient-7" x1="-203.93" y1="2267.35" x2="161.61" y2="1944.42" xlink:href="#linear-gradient-5"/>
    <linearGradient id="linear-gradient-8" x1="-327.26" y1="2321.15" x2="20.18" y2="2141.07" xlink:href="#linear-gradient-6"/>
    <linearGradient id="linear-gradient-9" x1="-140.66" y1="2139.94" x2="303.91" y2="1747.2" gradientTransform="translate(3086.05 3052.64) rotate(179.51)" gradientUnits="userSpaceOnUse">
      <stop offset="0" stop-color="#f9df7d"/>
      <stop offset="1" stop-color="#d7a75e"/>
    </linearGradient>
    <linearGradient id="linear-gradient-10" x1="3971.09" y1="2078.29" x2="3691.98" y2="1749.12" gradientTransform="translate(-1820.77 3094.53) rotate(-.49) scale(1 -1)" gradientUnits="userSpaceOnUse">
      <stop offset="0" stop-color="#ffc444"/>
      <stop offset="1" stop-color="#f36f56"/>
    </linearGradient>
    <linearGradient id="linear-gradient-11" x1="3936.72" y1="2107.44" x2="3657.58" y2="1778.24" xlink:href="#linear-gradient-10"/>
    <linearGradient id="linear-gradient-12" x1="-1445.78" y1="2312.24" x2="-1671.08" y2="2046.53" gradientTransform="translate(235.94 3077.15) rotate(179.51)" gradientUnits="userSpaceOnUse">
      <stop offset="0" stop-color="#036d5e"/>
      <stop offset="1" stop-color="#00a896"/>
    </linearGradient>
    <linearGradient id="linear-gradient-13" x1="4011.84" y1="2679.69" x2="4272.66" y2="1237.08" gradientTransform="translate(-1820.77 3094.53) rotate(-.49) scale(1 -1)" gradientUnits="userSpaceOnUse">
      <stop offset="0" stop-color="#00a896"/>
      <stop offset="1" stop-color="#036d5e"/>
    </linearGradient>
    <linearGradient id="linear-gradient-14" x1="-2372.76" y1="2481.67" x2="-2885.87" y2="1876.53" gradientTransform="translate(217.22 3054.63) rotate(-180)" gradientUnits="userSpaceOnUse">
      <stop offset="0" stop-color="#043a31"/>
      <stop offset="1" stop-color="#036d5e"/>
    </linearGradient>
    <linearGradient id="linear-gradient-15" x1="-2336.87" y1="2186.6" x2="-2831.53" y2="2173.99" gradientTransform="translate(235.94 3077.15) rotate(179.51)" xlink:href="#linear-gradient-14"/>
    <clipPath id="clippath">
      <path class="cls-45" d="m2850.51,1340.86c-27.08.23-53.78-10.9-79.38-33.08-26.04-22.59-49.71-55.37-70.33-97.44-43.35-88.45-67.82-206.69-68.9-332.95s21.35-244.91,63.17-334.09c19.89-42.42,43-75.61,68.65-98.63,25.2-22.62,51.71-34.21,78.79-34.44,27.08-.23,53.78,10.9,79.38,33.08,26.04,22.59,49.71,55.37,70.33,97.44,43.35,88.45,67.82,206.69,68.9,332.95,1.09,126.26-21.35,244.91-63.17,334.09-19.9,42.42-43,75.61-68.65,98.63-25.2,22.62-51.71,34.21-78.79,34.44h0Z"/>
    </clipPath>
    <linearGradient id="linear-gradient-16" x1="4444.81" y1="2637.25" x2="4613" y2="1706.95" xlink:href="#linear-gradient-10"/>
    <linearGradient id="linear-gradient-17" x1="4541.79" y1="2517.4" x2="4665.88" y2="1830.99" xlink:href="#linear-gradient-10"/>
    <linearGradient id="linear-gradient-18" x1="2697.39" y1="1565.11" x2="2286.65" y2="3179.26" xlink:href="#linear-gradient"/>
    <linearGradient id="linear-gradient-19" x1="2697.39" y1="1565.11" x2="2286.65" y2="3179.26" xlink:href="#linear-gradient"/>
    <clipPath id="clippath-1">
      <path class="cls-62" d="m2104.33,2768.91c68.43-64.21,158.72-168.5,199.58-315.96,53.58-193.39-24.94-291.12-16.08-618.54,5.6-207.02,11.59-351.44,115.96-428.69,81.79-60.53,214.2-72.57,294.56-16.46,66.82,46.65,105.47,145.88,117.27,216.71,9.61,57.73,1.89,99.64,35.17,130.05,34.01,31.08,70.72,13.48,102.52,36.5,64.49,46.68,27.15,201.3,21.11,226.29-67.13,277.98-323.26,465.46-435.97,545.89-93.19,66.5-237.36,155.13-434.11,224.22Z"/>
    </clipPath>
    <linearGradient id="linear-gradient-20" x1="2907.72" y1="1964.12" x2="2615.01" y2="2749.81" gradientUnits="userSpaceOnUse">
      <stop offset="0" stop-color="#ff9085"/>
      <stop offset=".63" stop-color="#fc7ba7"/>
      <stop offset="1" stop-color="#fb6fbb"/>
    </linearGradient>
    <clipPath id="clippath-2">
      <path class="cls-23" d="m2127.74,2752.99c133.06,65.17,311.86,129.22,510.35,133.97,50.65,1.21,363.58,8.71,389.58-122.94,9.16-46.37-25.02-70.85-13.86-133.06,13.23-73.72,69.68-86.54,136.98-153.95,40.16-40.22,157.69-157.93,110.64-277.09-28.12-71.2-113.73-139.71-195.25-157.88-119.57-26.66-206.9,60.18-352.13,209.66-128.74,132.51-133.85,177.79-228.22,271.6-70.04,69.62-181.47,158.24-358.09,229.69Z"/>
    </clipPath>
    <linearGradient id="linear-gradient-21" x1="1772.39" y1="2990.58" x2="1591.67" y2="3066.48" gradientUnits="userSpaceOnUse">
      <stop offset="0" stop-color="#40447e"/>
      <stop offset="1" stop-color="#3c3b6b"/>
    </linearGradient>
    <linearGradient id="linear-gradient-22" x1="1531.08" y1="2194.08" x2="1334.95" y2="2276.46" xlink:href="#linear-gradient-21"/>
    <linearGradient id="linear-gradient-23" x1="685.73" y1="2238.67" x2="2503.31" y2="2238.67" xlink:href="#linear-gradient-21"/>
    <linearGradient id="linear-gradient-24" x1="1833.94" y1="1798.13" x2="440.94" y2="4075.38" gradientUnits="userSpaceOnUse">
      <stop offset="0" stop-color="#00a896"/>
      <stop offset="1" stop-color="#036d5e"/>
    </linearGradient>
    <linearGradient id="linear-gradient-25" x1="685.73" y1="2910.81" x2="3258.35" y2="2910.81" xlink:href="#linear-gradient-21"/>
    <linearGradient id="linear-gradient-26" x1="938.02" y1="2889.73" x2="2822.96" y2="2889.73" xlink:href="#linear-gradient-21"/>
    <linearGradient id="linear-gradient-27" x1="1794.65" y1="1230.97" x2="1226.64" y2="3197.19" gradientUnits="userSpaceOnUse">
      <stop offset="0" stop-color="#ab316d"/>
      <stop offset="1" stop-color="#792d3d"/>
    </linearGradient>
    <linearGradient id="linear-gradient-28" x1="1831.18" y1="1230.97" x2="1263.16" y2="3197.19" xlink:href="#linear-gradient"/>
    <linearGradient id="linear-gradient-29" x1="1770.8" y1="1182.76" x2="1190.21" y2="3192.52" xlink:href="#linear-gradient"/>
    <linearGradient id="linear-gradient-30" x1="1820.72" y1="1292.3" x2="1309.67" y2="3061.3" gradientUnits="userSpaceOnUse">
      <stop offset="0" stop-color="#fff"/>
      <stop offset="1" stop-color="#ebeff2"/>
    </linearGradient>
    <linearGradient id="linear-gradient-31" x1="1797.53" y1="1414.8" x2="1400.28" y2="2789.92" xlink:href="#linear-gradient"/>
    <linearGradient id="linear-gradient-32" x1="1615.31" y1="1677.02" x2="1346.74" y2="2606.7" xlink:href="#linear-gradient"/>
    <linearGradient id="linear-gradient-33" x1="1771.32" y1="1537.16" x2="1487.69" y2="2518.98" xlink:href="#linear-gradient-30"/>
    <linearGradient id="linear-gradient-34" x1="1742.08" y1="1659.44" x2="1571.95" y2="2248.36" xlink:href="#linear-gradient"/>
    <linearGradient id="linear-gradient-35" x1="1675.37" y1="1730.07" x2="1541.98" y2="2191.8" xlink:href="#linear-gradient"/>
    <linearGradient id="linear-gradient-36" x1="2102.35" y1="2378.96" x2="2297.27" y2="2378.96" gradientTransform="translate(-676.73 258.97) rotate(-24.2)" xlink:href="#linear-gradient"/>
    <linearGradient id="linear-gradient-37" x1="1443.25" y1="2375.25" x2="1643.69" y2="2375.25" gradientTransform="translate(-526.5 180.77) rotate(-22.12)" gradientUnits="userSpaceOnUse">
      <stop offset="0" stop-color="#444b8c"/>
      <stop offset="1" stop-color="#26264f"/>
    </linearGradient>
    <linearGradient id="linear-gradient-38" x1="2100.06" y1="2489.01" x2="2292.04" y2="2489.01" gradientTransform="translate(-676.73 258.97) rotate(-24.2)" xlink:href="#linear-gradient"/>
    <linearGradient id="linear-gradient-39" x1="2088" y1="2494.19" x2="2291.8" y2="2494.19" gradientTransform="translate(-676.73 258.97) rotate(-24.2)" xlink:href="#linear-gradient-27"/>
    <linearGradient id="linear-gradient-40" x1="2090.28" y1="2372.55" x2="2297.27" y2="2372.55" gradientTransform="translate(-676.73 258.97) rotate(-24.2)" xlink:href="#linear-gradient-27"/>
    <linearGradient id="linear-gradient-41" x1="1762.4" y1="2360.77" x2="1766.29" y2="2538.61" gradientTransform="translate(-676.73 258.97) rotate(-24.2)" xlink:href="#linear-gradient-27"/>
    <linearGradient id="linear-gradient-42" x1="1760.49" y1="2360.81" x2="1764.39" y2="2538.65" gradientTransform="translate(-676.73 258.97) rotate(-24.2)" xlink:href="#linear-gradient-27"/>
    <linearGradient id="linear-gradient-43" x1="1948" y1="1658.53" x2="2357.56" y2="1658.53" xlink:href="#linear-gradient-4"/>
    <linearGradient id="linear-gradient-44" x1="1964.97" y1="1672.09" x2="2357.56" y2="1672.09" xlink:href="#linear-gradient-4"/>
    <linearGradient id="linear-gradient-45" x1="2336.99" y1="1568.75" x2="2360.24" y2="1568.75" xlink:href="#linear-gradient-4"/>
    <linearGradient id="linear-gradient-46" x1="471.32" y1="2730.55" x2="1196.75" y2="2730.55" gradientTransform="matrix(1,0,0,1,0,0)" xlink:href="#linear-gradient-37"/>
    <linearGradient id="linear-gradient-47" x1="831.23" y1="4805.88" x2="1218.02" y2="4333.14" gradientTransform="translate(-3755.8 3738.61) rotate(-90)" xlink:href="#linear-gradient-37"/>
    <linearGradient id="linear-gradient-48" x1="681.73" y1="2277.17" x2="1204.45" y2="3747.62" xlink:href="#linear-gradient"/>
    <linearGradient id="linear-gradient-49" x1="764.6" y1="3150.92" x2="924.25" y2="3150.92" gradientTransform="matrix(1,0,0,1,0,0)" xlink:href="#linear-gradient-37"/>
    <linearGradient id="linear-gradient-50" x1="458.87" y1="2730.88" x2="1184.26" y2="2730.88" gradientUnits="userSpaceOnUse">
      <stop offset="0" stop-color="#26264f"/>
      <stop offset="1" stop-color="#444b8c"/>
    </linearGradient>
    <linearGradient id="linear-gradient-51" x1="471.32" y1="2730.55" x2="1196.75" y2="2730.55" gradientTransform="matrix(1,0,0,1,0,0)" xlink:href="#linear-gradient-37"/>
    <linearGradient id="linear-gradient-52" x1="831.23" y1="4805.88" x2="1218.02" y2="4333.14" gradientTransform="translate(-3755.8 3738.61) rotate(-90)" xlink:href="#linear-gradient-37"/>
    <linearGradient id="linear-gradient-53" x1="681.73" y1="2277.17" x2="1204.45" y2="3747.62" xlink:href="#linear-gradient"/>
    <linearGradient id="linear-gradient-54" x1="764.6" y1="3150.92" x2="924.25" y2="3150.92" gradientTransform="matrix(1,0,0,1,0,0)" xlink:href="#linear-gradient-37"/>
  </defs>
  <g class="cls-15">
    <g id="Illustration">
      <g>
        <path class="cls-49" d="m1074.33,555.2c-96.45,140.6,16.64,368.56-126.48,474.3-139.32,102.94-310.47-65.79-441.76,22.82-194.77,131.44-159.2,732.9,125.57,1106.6,85.64,112.38,157.2,156.11,188.89,283.21,68.05,272.92-171.12,435.27-125.6,570.25,102.48,303.93,1678.56,558.96,2310.96-354.44,295.35-426.6,339.55-1042.6,75.66-1510.46-476.84-845.42-1790.79-907.76-2007.22-592.27Z"/>
        <g>
          <g>
            <path class="cls-54" d="m372.79,876.74v559.81c0,18.59,15.05,33.64,33.58,33.63l1067.9-.64c16.02,0,28.98-13.99,28.98-31.22v-519.01l-1130.46-42.58Z"/>
            <path class="cls-55" d="m1474.27,852.21l-1067.9-45.12c-18.53-.78-33.58,13.65-33.58,32.23v57.36l1130.46,41.13v-53.18c0-17.23-12.96-31.75-28.98-32.42Z"/>
            <path class="cls-7" d="m450.75,852.39c0,8.22-6.63,14.63-14.83,14.32-8.2-.32-14.85-7.25-14.85-15.49s6.65-14.65,14.85-14.31c8.19.33,14.83,7.26,14.83,15.49Z"/>
          </g>
          <g>
            <path class="cls-5" d="m548.96,1154.22c10.12-19.02,29.06-32.32,51.29-34.45l1.55-95.07c-63.29.66-117.61,38.86-141.89,94.4l89.04,35.12Z"/>
            <path class="cls-7" d="m618.02,1120.46c29.97,5.24,53.3,30.64,56.09,61.63l92.19,5.54c-1.17-83.82-65.12-153.89-146.73-162.13l-1.55,94.96Z"/>
            <path class="cls-7" d="m673.4,1200.02c-5.44,31.55-32.57,55.23-65.35,54.78-9.68-.13-18.89-2.35-27.21-6.24l-49.56,80.62c22.89,12.79,49.05,20.14,76.76,20.34,82.68.6,149.95-62.67,157.55-144.08l-92.2-5.43Z"/>
            <path class="cls-7" d="m516.01,1319.51l49.65-80.67c-14.98-12.67-24.54-31.73-24.54-52.9,0-5.11.56-10.09,1.62-14.86l-89.11-35.04c-4.68,15.18-7.2,31.37-7.2,48.2,0,55.72,27.59,105.26,69.58,135.26Z"/>
          </g>
          <g>
            <path class="cls-7" d="m892.07,1161.08c9.67-18.6,27.78-31.61,49.03-33.7l1.48-92.95c-60.49.68-112.4,38.06-135.6,92.37l85.09,34.29Z"/>
            <path class="cls-53" d="m958.07,1128.04c28.65,5.11,50.96,29.93,53.62,60.23l88.16,5.38c-1.12-81.97-62.27-150.46-140.3-158.46l-1.48,92.84Z"/>
            <path class="cls-7" d="m1011.02,1205.82c-5.2,30.85-31.14,54.01-62.48,53.59-9.25-.13-18.05-2.29-26.01-6.09l-47.37,78.83c21.88,12.5,46.88,19.68,73.37,19.87,79.04.58,143.37-61.31,150.64-140.93l-88.16-5.28Z"/>
            <path class="cls-7" d="m860.57,1322.68l47.45-78.88c-14.31-12.39-23.46-31.01-23.46-51.7,0-5,.54-9.86,1.55-14.53l-85.16-34.21c-4.47,14.84-6.88,30.67-6.88,47.11,0,54.47,26.36,102.89,66.49,132.2Z"/>
          </g>
          <g>
            <path class="cls-7" d="m1220.15,1167.64c9.25-18.2,26.58-30.93,46.91-32.99l1.42-90.93c-57.88.7-107.53,37.29-129.72,90.42l81.4,33.5Z"/>
            <path class="cls-7" d="m1283.31,1135.3c27.42,4.99,48.77,29.26,51.32,58.9l84.38,5.23c-1.07-80.2-59.61-147.17-134.28-154.95l-1.42,90.82Z"/>
            <path class="cls-7" d="m1333.98,1211.36c-4.97,30.18-29.8,52.85-59.79,52.44-8.85-.12-17.27-2.24-24.88-5.95l-45.32,77.12c20.93,12.22,44.85,19.24,70.2,19.43,75.64.55,137.22-60.01,144.17-137.91l-84.39-5.13Z"/>
            <path class="cls-63" d="m1190.02,1325.71l45.4-77.16c-13.69-12.11-22.44-30.32-22.44-50.56,0-4.89.51-9.64,1.48-14.21l-81.46-33.42c-4.28,14.52-6.58,29.99-6.58,46.08,0,53.27,25.22,100.61,63.6,129.28Z"/>
          </g>
        </g>
        <g>
          <path class="cls-13" d="m2919.92,884.32c-19.84-.64-35.6,12.99-35.45,30.44h0c.16,17.45,16.17,32.44,36,33.5l298.06,15.97c24.3,1.3,44.12-13.57,43.96-33.24h0c-.16-19.67-20.26-36.26-44.56-37.04l-298-9.63h0Z"/>
          <path class="cls-24" d="m2906.31,706.21c-22.38.57-40.1,18.71-39.92,40.52h0c.2,21.82,18.22,39.58,40.61,39.68l345.6,1.5c28.97.13,52.68-20.36,52.46-45.76h0c-.22-25.41-24.27-45.4-53.23-44.67l-345.52,8.72h0Z"/>
          <path class="cls-47" d="m3022.74,839.73c-18.83-.42-33.8,13.04-33.65,30.04h0c.14,17,15.35,31.44,34.18,32.25l282.18,12.19c22.94.99,41.66-13.69,41.49-32.79h0c-.17-19.1-19.14-35.01-42.08-35.51l-282.13-6.19h0Z"/>
          <path class="cls-64" d="m3318.58,741.52c-.22-25.5,22.14-46.8,50.44-47.56,28.85-.77,52.84,20.02,53.07,46.45s-23.41,47.73-52.27,47.58c-28.31-.15-51.03-20.95-51.25-46.47h.01Z"/>
          <g>
            <path class="cls-50" d="m2898.59,967.38c-23.02-1.59-41.25,15.09-41.06,37.2h0c.19,22.12,18.73,41.85,41.75,44.11l356.16,34.95c29.91,2.93,54.4-15.57,54.18-41.38h0c-.23-25.81-25.07-48.42-54.97-50.47l-356.07-24.42h0Z"/>
            <path class="cls-27" d="m3256.42,1002.68c23.1,1.66,42.22,19.16,42.39,39.05.17,19.89-18.68,34.22-41.78,32.03-22.76-2.16-41.11-19.58-41.28-38.96-.17-19.37,17.91-33.76,40.67-32.12Z"/>
          </g>
          <g>
            <path class="cls-32" d="m2091.2,1484.46c11.9.66,42.22-1.58,53.89-5.69,47.35-16.67,69.42-68.55,49.05-115.65l-216.14-499.52c-19.68-45.47-90.82-66.35-136.18-47.72-45.05,18.52-65.81,69.81-46.62,114.8l210.75,494.18c14.95,35.05,49.18,57.59,85.25,59.59h0Z"/>
            <path class="cls-16" d="m1841.84,815.9c-45.05,18.52-65.81,69.81-46.62,114.8l43.54,102.11c83.76,8.17,125.12,37.35,147.57,65.21,49.13,60.95,19.55,130.11,81.33,183.36,37.11,31.98,75.48,30.9,107.97,38.96l-197.62-456.73c-19.68-45.47-90.82-66.35-136.18-47.72h0Z"/>
            <path class="cls-68" d="m1716.69,718.55c-43.74.37-78.57,74.64-77.78,165.87.78,91.24,36.88,164.89,80.62,164.51,3.27-.03,6.49-.48,9.65-1.31l123.26.63-2.86-331.88-127.63,2.49c-1.75-.22-3.51-.34-5.28-.33h0Z"/>
            <path class="cls-42" d="m1849.6,716.38l956.71-302.58-1.8,931.55-952.07-297.09c-49.31-110.83-50.25-220.95-2.86-331.88h0Z"/>
            <path class="cls-69" d="m2545.86,1073.77c43.91,16.2,106.63,11.22,199.77-44.19l58.89,315.78-952.07-297.09c-29.59-66.53-41.73-132.65-36.57-198.7,42.54-12.42,86.45-15.43,128.57-1.54,92.64,30.55,107.26,119.36,189.82,127.46,80.65,7.92,104.73-72.14,187-69.39,104.85,3.5,134.02,134.23,224.59,167.65v.02Z"/>
            <ellipse class="cls-21" cx="2846.54" cy="875.52" rx="230.96" ry="481.69" transform="translate(-7.4 24.44) rotate(-.49)"/>
            <path class="cls-12" d="m2850.51,1340.87c-27.08.23-53.78-10.9-79.38-33.08-26.04-22.59-49.71-55.37-70.33-97.44-16.53-33.73-30.31-71.78-41.1-112.96-17.51-66.83,24.21-146.45,23.54-224.58-.64-73.47-44.65-139.78-30.17-203.79,10.41-46,24.51-88.44,41.99-125.73,19.89-42.42,43-75.61,68.65-98.63,25.2-22.62,51.71-34.21,78.79-34.44,27.08-.23,53.78,10.9,79.38,33.08,26.04,22.59,49.71,55.37,70.33,97.44,43.35,88.45,67.82,206.69,68.9,332.95,1.09,126.26-21.35,244.91-63.17,334.09-19.9,42.42-43,75.61-68.65,98.63-25.2,22.62-51.71,34.21-78.79,34.44h0Z"/>
            <g class="cls-43">
              <g>
                <path class="cls-35" d="m2865.57,881.7c-1.05-122.03-82.7-219.48-180.96-217.68-96.74,1.76-173.25,99.35-172.23,217.99,1.02,118.64,79.2,216.09,175.97,217.69,98.29,1.62,178.26-95.97,177.21-218h0Z"/>
                <path class="cls-14" d="m2850.01,879.85c-.77-90.62-40.77-163.16-88.65-162.04-47.13,1.1-84.2,73.4-83.44,161.49.76,88.09,39.07,160.63,86.22,162.03,47.9,1.42,86.66-70.87,85.87-161.48h-.01Z"/>
              </g>
            </g>
          </g>
        </g>
        <g>
          <g>
            <path class="cls-17" d="m2104.33,2768.91c68.43-64.21,158.72-168.5,199.58-315.96,53.58-193.39-24.94-291.12-16.08-618.54,5.6-207.02,11.59-351.44,115.96-428.69,81.79-60.53,214.2-72.57,294.56-16.46,66.82,46.65,105.47,145.88,117.27,216.71,9.61,57.73,1.89,99.64,35.17,130.05,34.01,31.08,70.72,13.48,102.52,36.5,64.49,46.68,27.15,201.3,21.11,226.29-67.13,277.98-323.26,465.46-435.97,545.89-93.19,66.5-237.36,155.13-434.11,224.22Z"/>
            <g class="cls-31">
              <g class="cls-10">
                <path class="cls-7" d="m2026.37,2820.89l-2.5-6.57c118.77-45.14,220.96-98.94,303.72-159.93,121.97-89.89,197.9-192.98,225.67-306.42,21.76-88.87,14.04-181,3.35-308.51-8.53-101.8-23.76-173.19-37.2-236.17-17.58-82.39-31.46-147.48-21.79-241.94,9.81-95.85,41.41-191.12,93.91-283.18l6.11,3.48c-52.02,91.2-83.32,185.55-93.03,280.41-9.56,93.36,4.22,157.97,21.67,239.76,13.48,63.19,28.76,134.81,37.33,237.05,10.34,123.35,18.51,220.79-3.52,310.77-28.18,115.08-105,219.52-228.33,310.41-83.27,61.37-186.02,115.48-305.39,160.84Z"/>
                <path class="cls-7" d="m2554.22,1968.44l-3.64-1.59c-.68-.3-68.58-30.38-136.41-100.18-62.6-64.42-138.06-176.87-142.08-346.7l7.03-.16c3.96,167.56,78.37,278.45,140.09,341.97,58,59.69,115.81,89.82,130.58,96.95,55.72-184.02,154.57-299.46,227.93-364.03,80.14-70.53,148.2-97.35,148.88-97.61l2.54,6.55c-.67.26-67.78,26.75-147.02,96.55-73.1,64.4-171.78,179.89-226.76,364.44l-1.13,3.8Z"/>
                <path class="cls-7" d="m2568.82,2244.12l-1.44-2.11c-.67-.98-67.64-98.54-153.92-183.19-85.73-84.12-286.61-113.35-288.62-113.64l.98-6.96c2.04.29,205.21,29.86,292.56,115.58,79.71,78.21,143.02,167.35,153.33,182.13,210.56-65.08,435.37-557.96,437.62-562.95l6.4,2.89c-.57,1.26-57.8,127.35-140.63,259.53-111.49,177.92-213.71,281.55-303.84,308l-2.45.72Z"/>
                <path class="cls-7" d="m2363.09,2635.31l3.5-6.07c53.78-93.43,45.95-191.57-23.26-291.67-51.87-75.02-120.69-122.99-121.38-123.47l3.99-5.78c.7.48,70.44,49.07,123.05,125.1,68.47,98.94,77.79,200.14,27.14,293.14,24.91-3.62,114.36-18.38,226.13-57.36,121.23-42.29,294.26-122.55,430.19-264.77l264.17-276.39,5.08,4.85-264.17,276.39c-136.94,143.28-311.12,224.07-433.13,266.61-132.16,46.08-233.36,58.47-234.37,58.59l-6.95.83Z"/>
              </g>
            </g>
          </g>
          <g>
            <path class="cls-23" d="m2127.74,2752.99c133.06,65.17,311.86,129.22,510.35,133.97,50.65,1.21,363.58,8.71,389.58-122.94,9.16-46.37-25.02-70.85-13.86-133.06,13.23-73.72,69.68-86.54,136.98-153.95,40.16-40.22,157.69-157.93,110.64-277.09-28.12-71.2-113.73-139.71-195.25-157.88-119.57-26.66-206.9,60.18-352.13,209.66-128.74,132.51-133.85,177.79-228.22,271.6-70.04,69.62-181.47,158.24-358.09,229.69Z"/>
            <g class="cls-25">
              <g class="cls-10">
                <path class="cls-7" d="m2130.89,2751.67c-58.49,0-116.52-6.17-173.99-18.54-151.01-32.5-292.61-104.75-420.86-214.75l4.58-5.34c127.35,109.22,267.9,180.96,417.76,213.21,199.62,42.96,406.34,10.51,614.42-96.44,216.75-111.41,380.67-275.74,480.02-393.97,68.74-81.81,113.88-187.32,134.14-313.6l6.94,1.11c-20.47,127.55-66.13,234.2-135.7,317-99.76,118.73-264.4,283.76-482.19,395.7-149.71,76.95-298.8,115.6-445.12,115.6Z"/>
                <path class="cls-7" d="m2832.89,2461.8l-.73-3.07c-.15-.64-15.15-65.43-11.11-151.33,3.74-79.38,24.96-193.64,104.8-287.18l5.35,4.56c-141.4,165.66-98.95,399.7-92.86,429.24,371.11-47.91,469.52-259.46,490.87-323.3.59-1.75.98-2.84,1.16-3.22l6.3,3.11-3.15-1.56,3.18,1.5c-.15.36-.42,1.17-.83,2.39-21.74,65.01-122.03,280.84-499.85,328.45l-3.13.39Z"/>
                <path class="cls-7" d="m2925.5,2755.13c-83.95,0-205.35-23.69-349.45-121.15l-1.55-1.05v-1.88c.02-2,2.61-202.62,126.61-417.35l124.97-216.41,6.09,3.51-124.97,216.41c-116.67,202.02-125.06,391.3-125.63,412.02,88.83,59.8,225.3,128.33,373.64,117.84,89.22-6.28,141.15-38.68,141.66-39.01l3.77,5.93c-2.15,1.37-53.62,33.56-144.47,40.06-9.57.68-19.82,1.08-30.67,1.08Z"/>
              </g>
            </g>
          </g>
        </g>
        <g>
          <path class="cls-38" d="m3258.35,2891.69l-2572.62-22.41v66.29c0,17.99,11.22,33.29,26.42,36.02l727.46,130.55c8.63,1.55,17.39,1.96,26.1,1.23l1764.68-148.84c15.75-1.33,27.96-16.68,27.96-35.16v-27.67Z"/>
          <g>
            <path class="cls-51" d="m2430.19,2784.22l-1716.14,121.28c-30.71,2.17-55.68-20.89-55.68-51.51v-1226.84c0-30.62,24.97-55.45,55.68-55.45h1716.14c25.3,0,45.76,22.44,45.76,50.12v1109.04c0,27.68-20.46,51.57-45.76,53.36Z"/>
            <path class="cls-61" d="m2457.55,2784.22l-1716.14,121.28c-30.71,2.17-55.68-20.89-55.68-51.51v-1226.84c0-30.62,24.97-55.45,55.68-55.45h1716.14c25.3,0,45.76,22.44,45.76,50.12v1109.04c0,27.68-20.46,51.57-45.76,53.36Z"/>
            <path class="cls-48" d="m2404.09,2706.03l-1598.41,105.35c-24.99,1.65-45.3-17.28-45.3-42.28v-1074.1c0-25,20.31-45.35,45.3-45.45l1598.41-6.61c20.87-.09,37.75,18.3,37.75,41.07v978.31c0,22.77-16.88,42.34-37.75,43.72Z"/>
            <path class="cls-7" d="m1660.09,1605.26c0,11.4-8.83,20.67-19.74,20.7-10.92.03-19.78-9.2-19.78-20.63s8.86-20.69,19.78-20.7c10.91,0,19.74,9.23,19.74,20.63Z"/>
            <path class="cls-8" d="m2044.08,2447.74c-132.3-71.18-236.33,19.01-336.72-69.98-60.87-53.95-30.98-94.19-105.88-174.82-82.95-89.3-136.95-59.28-220.32-139.66-105.41-101.63-52.69-180.69-143.48-253.66-110.15-88.52-228.93-6.59-333.79-91.48-45.22-36.61-70.04-89.84-82.99-146.45h-102.59c-17.98,0-32.58,14.57-32.58,32.54v1271.72c0,17.97,14.6,31.51,32.58,30.23l1749.03-124.15c8.58-.61,16.19-5.62,21.08-12.89-128.03-4.67-206.69-47.59-256.97-91.96-98.36-86.8-81.3-172.4-187.37-229.47Z"/>
          </g>
          <path class="cls-39" d="m2414.73,2778.72l-1729,127.66,753.88,135.29c8.63,1.55,17.39,1.96,26.1,1.23l1792.64-151.2-816.11-112.1c-9.13-1.25-18.33-1.54-27.5-.87Z"/>
          <polygon class="cls-3" points="938.02 2909.59 2377.46 2801.73 2822.96 2862.43 1395.92 2977.73 938.02 2909.59"/>
        </g>
        <g>
          <g>
            <path class="cls-56" d="m2295.9,1835.56c0,364.1-277.93,678.36-639.89,703.24-384.96,26.46-715.46-280.83-715.46-687.93s330.5-721.86,715.46-704.09c361.96,16.7,639.89,324.69,639.89,688.78Z"/>
            <path class="cls-20" d="m2332.42,1835.56c0,364.1-277.93,678.36-639.89,703.24-384.96,26.46-715.46-280.83-715.46-687.93s330.5-721.86,715.46-704.09c361.96,16.7,639.89,324.69,639.89,688.78Z"/>
            <g class="cls-4">
              <path class="cls-59" d="m1819.9,2305.36c-130.73-148.57-7.2-339.2-144.17-524.29-127.1-171.75-305.99-110.96-443.8-292.02-29.38-38.6-50.79-80.24-66.07-123.05-116.77,126.36-188.78,296.78-188.78,484.87,0,407.1,330.5,714.39,715.46,687.93,133.27-9.16,254.81-57.32,354.98-131.86-112.13-10.28-182.65-50.48-227.61-101.58Z"/>
            </g>
            <path class="cls-60" d="m2271.49,1836.25c0,329.43-252.22,612.37-578.96,632.95-345.37,21.76-640.13-254.94-640.13-619.18s294.77-647.6,640.13-633.64c326.74,13.2,578.96,290.44,578.96,619.87Z"/>
            <path class="cls-46" d="m1692.53,2469.2c95.79-6.03,184.98-34.49,263.09-79.64-61.15-18.64-104.59-48.82-135.73-84.21-130.73-148.57-7.2-339.2-144.17-524.29-127.1-171.75-305.99-110.96-443.8-292.02-12.14-15.95-22.9-32.43-32.46-49.3-91.6,110.66-147.07,253.76-147.07,410.27,0,364.23,294.77,640.94,640.13,619.18Z"/>
            <path class="cls-36" d="m2147.66,1837.65c0,258.97-199.47,479.18-455.13,492.35-266.93,13.75-492.1-201.64-492.1-481.65s225.18-500.49,492.1-492.77c255.66,7.39,455.13,223.1,455.13,482.07Z"/>
            <path class="cls-1" d="m1675.73,1781.07c-108.43-146.52-254.39-123.85-380.61-226.34-59.44,82.11-94.69,183.68-94.69,293.62,0,280.01,225.18,495.4,492.1,481.65,44.46-2.29,87.16-10.81,127.36-24.64h0c-130.73-148.57-7.2-339.2-144.17-524.29Z"/>
            <path class="cls-57" d="m2021.15,1839.08c0,186.99-144.9,344.37-328.62,351.72-189.47,7.58-347.47-146.37-347.47-344.08s158-355.23,347.47-351.93c183.72,3.2,328.62,157.31,328.62,344.29Z"/>
            <path class="cls-46" d="m1421.9,1624.86c-47.99,60.62-76.84,137.83-76.84,221.86,0,197.71,158,351.66,347.47,344.08,23.4-.94,46.16-4.3,68.06-9.84-24.25-124.05,16.52-262.9-84.86-399.89-73.39-99.17-163.85-120.83-253.82-156.21Z"/>
            <path class="cls-44" d="m1891.87,1840.54c0,113.42-88.43,207.89-199.34,211.06-112.98,3.22-206.12-89.19-206.12-206.48s93.14-211.8,206.12-211.13c110.91.66,199.34,93.13,199.34,206.55Z"/>
            <path class="cls-2" d="m1750.03,2041.37c-2.71-84.6-9.4-172.59-74.31-260.3-34.96-47.24-73.76-76.87-114.53-98.78-45.6,38.77-74.79,97.35-74.79,162.83,0,117.28,93.14,209.7,206.12,206.48,20.04-.57,39.34-4.14,57.5-10.22Z"/>
          </g>
          <g>
            <path class="cls-22" d="m2327.05,1550.87c.49-.45-102.47,35.38-102.47,35.38l31.43-63.56c10.56-21.36,106.22-48.43,129.87-53.02l2.51,6.16-61.33,75.05Z"/>
            <path class="cls-34" d="m1893.87,1776.12l-182.59,66.73c-4.77,1.74-7.71-5.14-3.15-7.38l174.84-85.94c1.15-.56,2.53-.04,3.01,1.15l9.16,22.54c.47,1.16-.11,2.47-1.29,2.9Z"/>
            <path class="cls-58" d="m2348.48,1595.7c.66-.04-100.08,49.14-100.08,49.14l66.17,21.89c22.24,7.36,108.36-43.18,128.19-57.15l-2.51-6.16-91.77-7.72Z"/>
            <path class="cls-30" d="m2336.9,1600.58c.65-.04-99.63,48.93-99.63,48.93l65.91,21.89c22.15,7.36,46.42,3.8,65.64-9.73l73.94-52.09-105.86-9Z"/>
            <path class="cls-18" d="m2317.56,1553.02c.49-.45-104.06,38.03-104.06,38.03l31.25-63.37c10.5-21.3,30.05-36.45,52.97-40.9l88.15-17.12-68.31,83.36Z"/>
            <path class="cls-37" d="m1990.69,1769.92l-59.79,24.91c-21.01,8.75-45.57-3.06-55.02-26.32h0c-9.45-23.25-.35-49.45,20.51-58.58l59.35-25.99,34.95,85.97Z"/>
            <g class="cls-4">
              <path class="cls-52" d="m1934.88,1758.8c-23.11,1.23-44.26-4.95-62.5-13.91-.74,7.7.33,15.82,3.5,23.61h0c9.45,23.25,34.01,35.07,55.02,26.32l59.79-24.91-10.27-25.26c-13.44,7.96-27.45,13.18-45.54,14.14Z"/>
            </g>
            <path class="cls-11" d="m2357.56,1590.77l-366.87,179.15c-23.41,9.52-58.36-76.46-34.95-85.97l383.78-137.54,18.04,44.37Z"/>
            <g class="cls-4">
              <path class="cls-65" d="m2238.8,1630.76c-75.35,27.42-93.57,13.39-157.62,46.16-59.02,30.2-82.4,61.97-116.22,75.41,8,12.6,17.56,20.89,25.72,17.58l366.87-179.15-7.01-17.25c-42.65,28.68-81.11,46.1-111.74,57.24Z"/>
            </g>
            <path class="cls-41" d="m2355.87,1565.66c5.03,12.36,5.84,23.76,1.83,25.45-4.01,1.69-11.31-6.94-16.33-19.26-5.01-12.33-5.84-23.72-1.85-25.44,4-1.73,11.32,6.89,16.35,19.25Z"/>
          </g>
        </g>
        <g>
          <g>
            <path class="cls-67" d="m1196.75,3133.92c0,19.02-14.02,35.55-31.31,36.85l-658.99,49.58c-19.34,1.46-35.12-13.79-35.12-33.99v-909.22c0-20.2,15.78-36.57,35.12-36.5l658.99,2.59c17.28.07,31.31,15.6,31.31,34.61v856.07Z"/>
            <path class="cls-66" d="m487.7,2277.16v908.02c0,10.8,8.4,18.93,18.75,18.17l519.94-38.41,139.05-10.27c9.26-.68,16.76-9.5,16.76-19.7v-857.14c0-10.19-7.5-18.48-16.76-18.5l-144.06-.37-514.93-1.31c-10.35-.03-18.75,8.71-18.75,19.51Z"/>
            <path class="cls-28" d="m1172.95,3095.53c0,3.79-3.16,7.1-7.04,7.36l-659.99,45.84c-4.34.3-7.87-2.72-7.87-6.73v-865.18c0-4.01,3.53-7.27,7.87-7.26l659.99,1.05c3.88,0,7.04,3.1,7.04,6.89v818.03Z"/>
            <path class="cls-33" d="m917.46,3157.14l-145.9,10.58c-3.85.28-6.96-2.52-6.96-6.26v-9.79c0-3.73,3.12-6.98,6.96-7.25l145.9-10.3c3.75-.26,6.79,2.51,6.79,6.19v9.66c0,3.69-3.04,6.89-6.79,7.17Z"/>
          </g>
          <g>
            <path class="cls-29" d="m1184.26,3134.25c0,19.02-14.02,35.55-31.31,36.85l-658.96,49.58c-19.34,1.46-35.12-13.79-35.12-33.99v-909.19c0-20.2,15.78-36.57,35.12-36.49l658.96,2.59c17.28.07,31.31,15.6,31.31,34.61v856.05Z"/>
            <path class="cls-6" d="m1196.75,3133.92c0,19.02-14.02,35.55-31.31,36.85l-658.99,49.58c-19.34,1.46-35.12-13.79-35.12-33.99v-909.22c0-20.2,15.78-36.57,35.12-36.5l658.99,2.59c17.28.07,31.31,15.6,31.31,34.61v856.07Z"/>
            <path class="cls-19" d="m487.7,2277.16v908.02c0,10.8,8.4,18.93,18.75,18.17l519.94-38.41,139.05-10.27c9.26-.68,16.76-9.5,16.76-19.7v-857.14c0-10.19-7.5-18.48-16.76-18.5l-144.06-.37-514.93-1.31c-10.35-.03-18.75,8.71-18.75,19.51Z"/>
            <path class="cls-26" d="m1172.95,3095.53c0,3.79-3.16,7.1-7.04,7.36l-659.99,45.84c-4.34.3-7.87-2.72-7.87-6.73v-865.18c0-4.01,3.53-7.27,7.87-7.26l659.99,1.05c3.88,0,7.04,3.1,7.04,6.89v818.03Z"/>
            <path class="cls-40" d="m917.46,3157.14l-145.9,10.58c-3.85.28-6.96-2.52-6.96-6.26v-9.79c0-3.73,3.12-6.98,6.96-7.25l145.9-10.3c3.75-.26,6.79,2.51,6.79,6.19v9.66c0,3.69-3.04,6.89-6.79,7.17Z"/>
          </g>
          <g>
            <polygon class="cls-9" points="815.92 2640.17 553.98 2649.37 553.98 2327.77 815.92 2327.77 815.92 2640.17"/>
            <polygon class="cls-9" points="815.92 3074.05 553.98 3096.03 553.98 2935.23 815.92 2917.85 815.92 3074.05"/>
            <polygon class="cls-9" points="1123 2413.02 879.08 2415.44 879.08 2327.77 1123 2327.77 1123 2413.02"/>
            <polygon class="cls-9" points="1123 2625.28 879.08 2633.73 879.08 2482.86 1123 2478.58 1123 2625.28"/>
            <polygon class="cls-9" points="1123 3048.29 879.08 3068.75 879.08 2700.15 1123 2689.86 1123 3048.29"/>
            <polygon class="cls-9" points="606.89 2867.13 553.98 2870.27 553.98 2731.88 606.89 2729.55 606.89 2867.13"/>
            <polygon class="cls-9" points="677.65 2862.94 625.56 2866.03 625.56 2710.83 677.65 2708.64 677.65 2862.94"/>
            <polygon class="cls-9" points="747.32 2858.81 696.04 2861.85 696.04 2767.86 747.32 2765.35 747.32 2858.81"/>
            <polygon class="cls-9" points="815.92 2854.75 765.42 2857.74 765.42 2704.94 815.92 2702.81 815.92 2854.75"/>
          </g>
        </g>
      </g>
    </g>
  </g>
</svg>