<?xml version="1.0" encoding="UTF-8"?>
<svg xmlns="http://www.w3.org/2000/svg" xmlns:xlink="http://www.w3.org/1999/xlink" viewBox="0 0 3710 3710">
  <defs>
    <style>
      .cls-1 {
        fill: url(#linear-gradient-2);
      }

      .cls-2, .cls-3, .cls-4, .cls-5 {
        fill: #fff;
      }

      .cls-6 {
        fill: url(#linear-gradient-17);
      }

      .cls-3 {
        opacity: .5;
      }

      .cls-3, .cls-4, .cls-7, .cls-5 {
        mix-blend-mode: soft-light;
      }

      .cls-4 {
        opacity: .48;
      }

      .cls-8 {
        fill: url(#linear-gradient-36);
      }

      .cls-8, .cls-9, .cls-10, .cls-11, .cls-12, .cls-5, .cls-13, .cls-14 {
        opacity: .3;
      }

      .cls-8, .cls-9, .cls-10, .cls-12, .cls-13, .cls-14 {
        mix-blend-mode: multiply;
      }

      .cls-15 {
        fill: url(#linear-gradient-15);
      }

      .cls-16 {
        fill: url(#linear-gradient-18);
      }

      .cls-17 {
        fill: url(#linear-gradient-28);
      }

      .cls-18 {
        fill: url(#linear-gradient-14);
      }

      .cls-19 {
        fill: url(#linear-gradient-6);
      }

      .cls-20 {
        isolation: isolate;
      }

      .cls-9 {
        fill: url(#linear-gradient-20);
      }

      .cls-10 {
        fill: url(#linear-gradient-35);
      }

      .cls-21 {
        fill: url(#linear-gradient-32);
      }

      .cls-11 {
        fill: url(#linear-gradient-11);
      }

      .cls-7 {
        fill: #faf4f1;
      }

      .cls-22 {
        fill: url(#linear-gradient-16);
      }

      .cls-23 {
        fill: url(#linear-gradient-31);
      }

      .cls-12 {
        fill: url(#linear-gradient-4);
      }

      .cls-24 {
        fill: #d8dee8;
      }

      .cls-25 {
        fill: url(#linear-gradient-21);
      }

      .cls-26 {
        fill: url(#linear-gradient-25);
      }

      .cls-14 {
        fill: url(#linear-gradient-10);
      }

      .cls-27 {
        fill: url(#linear-gradient-5);
      }

      .cls-28 {
        fill: #b3e5e0;
      }

      .cls-29 {
        clip-path: url(#clippath);
      }

      .cls-30 {
        fill: url(#linear-gradient-34);
      }

      .cls-31 {
        fill: none;
      }

      .cls-32 {
        fill: url(#linear-gradient-7);
      }

      .cls-33 {
        fill: url(#linear-gradient-24);
      }

      .cls-34 {
        fill: #f4f7fa;
      }

      .cls-35 {
        fill: url(#linear-gradient-9);
      }

      .cls-36 {
        fill: url(#linear-gradient-22);
      }

      .cls-37 {
        fill: url(#linear-gradient-3);
      }

      .cls-38 {
        fill: url(#linear-gradient);
      }

      .cls-39 {
        fill: url(#linear-gradient-27);
      }

      .cls-40 {
        fill: url(#linear-gradient-33);
      }

      .cls-41 {
        fill: url(#linear-gradient-29);
      }

      .cls-42 {
        fill: url(#linear-gradient-30);
      }

      .cls-43 {
        fill: url(#linear-gradient-23);
      }

      .cls-44 {
        fill: url(#linear-gradient-19);
      }

      .cls-45 {
        fill: url(#linear-gradient-8);
      }

      .cls-46 {
        fill: url(#linear-gradient-12);
      }

      .cls-47 {
        fill: url(#linear-gradient-13);
      }

      .cls-48 {
        fill: url(#linear-gradient-26);
      }
    </style>
    <linearGradient id="linear-gradient" x1="-3462.48" y1="1072.45" x2="-3486.37" y2="2141.78" gradientTransform="translate(3605.48 395.04) rotate(-15.39) scale(.86 .93)" gradientUnits="userSpaceOnUse">
      <stop offset="0" stop-color="#f9966c"/>
      <stop offset="1" stop-color="#d75450"/>
    </linearGradient>
    <linearGradient id="linear-gradient-2" x1="-3539.13" y1="1738.28" x2="-3969.26" y2="979.59" gradientTransform="translate(3605.48 395.04) rotate(-15.39) scale(.86 .93)" gradientUnits="userSpaceOnUse">
      <stop offset="0" stop-color="#e3bd7b"/>
      <stop offset="1" stop-color="#f6825d"/>
    </linearGradient>
    <linearGradient id="linear-gradient-3" x1="255.38" y1="1480.87" x2="-49.66" y2="1840.62" gradientTransform="translate(2838.57 -54.64) rotate(-161.87) scale(1 -1)" gradientUnits="userSpaceOnUse">
      <stop offset="0" stop-color="#ffc444"/>
      <stop offset="1" stop-color="#f36f56"/>
    </linearGradient>
    <linearGradient id="linear-gradient-4" x1="217.8" y1="1449.01" x2="-87.24" y2="1808.76" xlink:href="#linear-gradient-3"/>
    <linearGradient id="linear-gradient-5" x1="-398.58" y1="1225.24" x2="-644.8" y2="1515.62" gradientTransform="translate(3461.18 149.49) rotate(18.13)" gradientUnits="userSpaceOnUse">
      <stop offset="0" stop-color="#036d5e"/>
      <stop offset="1" stop-color="#00a896"/>
    </linearGradient>
    <linearGradient id="linear-gradient-6" x1="299.9" y1="823.61" x2="584.92" y2="2400.1" gradientTransform="translate(2838.57 -54.64) rotate(-161.87) scale(1 -1)" gradientUnits="userSpaceOnUse">
      <stop offset="0" stop-color="#00a896"/>
      <stop offset="1" stop-color="#036d5e"/>
    </linearGradient>
    <linearGradient id="linear-gradient-7" x1="-1411.68" y1="1040.09" x2="-1972.43" y2="1701.41" gradientTransform="translate(2797.3 2617.55) rotate(90)" gradientUnits="userSpaceOnUse">
      <stop offset="0" stop-color="#043a31"/>
      <stop offset="1" stop-color="#036d5e"/>
    </linearGradient>
    <linearGradient id="linear-gradient-8" x1="-1372.41" y1="1362.6" x2="-1912.98" y2="1376.38" gradientTransform="translate(3461.18 149.49) rotate(18.13)" xlink:href="#linear-gradient-7"/>
    <clipPath id="clippath">
      <path class="cls-31" d="m1268.39,1408.81c-28.12-9.21-51.9-30.06-70.65-61.96-19.09-32.47-32.15-74.68-38.83-125.45-14.02-106.72,1.9-237.72,44.84-368.85,42.94-131.13,107.58-246.17,182.01-323.93,35.41-36.99,70.91-63.29,105.51-78.19,34-14.63,65.5-17.38,93.62-8.17,28.12,9.21,51.9,30.06,70.65,61.96,19.09,32.47,32.16,74.68,38.83,125.45,14.02,106.72-1.9,237.72-44.84,368.85-42.94,131.13-107.58,246.17-182.01,323.93-35.41,36.99-70.91,63.29-105.51,78.19-34,14.63-65.5,17.38-93.62,8.17Z"/>
    </clipPath>
    <linearGradient id="linear-gradient-9" x1="773.07" y1="869.98" x2="956.87" y2="1886.62" xlink:href="#linear-gradient-3"/>
    <linearGradient id="linear-gradient-10" x1="879.06" y1="1000.95" x2="1014.67" y2="1751.07" xlink:href="#linear-gradient-3"/>
    <linearGradient id="linear-gradient-11" x1="792.72" y1="1320.55" x2="1209.92" y2="1689.12" gradientTransform="translate(752.49 -737.49) rotate(18.13)" gradientUnits="userSpaceOnUse">
      <stop offset="0" stop-color="#d5e38a"/>
      <stop offset="1" stop-color="#f6d46e"/>
    </linearGradient>
    <linearGradient id="linear-gradient-12" x1="634" y1="1094.94" x2="977.91" y2="1273.18" gradientTransform="translate(752.49 -737.49) rotate(18.13)" gradientUnits="userSpaceOnUse">
      <stop offset="0" stop-color="#82ff96"/>
      <stop offset="1" stop-color="#b4fb6c"/>
    </linearGradient>
    <linearGradient id="linear-gradient-13" x1="693.98" y1="1274.19" x2="1093.45" y2="1627.09" xlink:href="#linear-gradient-11"/>
    <linearGradient id="linear-gradient-14" x1="559.19" y1="1215.42" x2="938.87" y2="1412.21" xlink:href="#linear-gradient-12"/>
    <linearGradient id="linear-gradient-15" x1="763.12" y1="1413.42" x2="1248.95" y2="1842.62" gradientTransform="translate(752.49 -737.49) rotate(18.13)" gradientUnits="userSpaceOnUse">
      <stop offset="0" stop-color="#f9df7d"/>
      <stop offset="1" stop-color="#d7a75e"/>
    </linearGradient>
    <linearGradient id="linear-gradient-16" x1="1688.88" y1="3066.61" x2="1497.5" y2="3146.99" gradientTransform="translate(3771.62) rotate(-180) scale(1 -1)" gradientUnits="userSpaceOnUse">
      <stop offset="0" stop-color="#40447e"/>
      <stop offset="1" stop-color="#3c3b6b"/>
    </linearGradient>
    <linearGradient id="linear-gradient-17" x1="1433.33" y1="2223.13" x2="1225.63" y2="2310.36" xlink:href="#linear-gradient-16"/>
    <linearGradient id="linear-gradient-18" x1="538.12" y1="2270.35" x2="2462.91" y2="2270.35" xlink:href="#linear-gradient-16"/>
    <linearGradient id="linear-gradient-19" x1="538.12" y1="2982.13" x2="3262.48" y2="2982.13" xlink:href="#linear-gradient-16"/>
    <linearGradient id="linear-gradient-20" x1="805.29" y1="2959.81" x2="2801.41" y2="2959.81" xlink:href="#linear-gradient-16"/>
    <linearGradient id="linear-gradient-21" x1="1958.53" y1="1277.89" x2="936.73" y2="2374.2" gradientTransform="translate(3771.62) rotate(-180) scale(1 -1)" xlink:href="#linear-gradient-6"/>
    <linearGradient id="linear-gradient-22" x1="695.3" y1="1752.06" x2="744.66" y2="1752.06" gradientTransform="translate(3771.62) rotate(-180) scale(1 -1)" gradientUnits="userSpaceOnUse">
      <stop offset="0" stop-color="#444b8c"/>
      <stop offset="1" stop-color="#26264f"/>
    </linearGradient>
    <linearGradient id="linear-gradient-23" x1="784.9" y1="1751.54" x2="833.81" y2="1751.54" xlink:href="#linear-gradient-22"/>
    <linearGradient id="linear-gradient-24" x1="873.68" y1="1751.03" x2="922.14" y2="1751.03" xlink:href="#linear-gradient-22"/>
    <linearGradient id="linear-gradient-25" x1="2280.57" y1="1962.15" x2="1428.93" y2="3399.29" gradientTransform="translate(3771.62) rotate(-180) scale(1 -1)" gradientUnits="userSpaceOnUse">
      <stop offset="0" stop-color="#018b7a"/>
      <stop offset="1" stop-color="#045246"/>
    </linearGradient>
    <linearGradient id="linear-gradient-26" x1="2610.99" y1="1967.84" x2="2637.53" y2="1922.73" xlink:href="#linear-gradient-25"/>
    <linearGradient id="linear-gradient-27" x1="3197.2" y1="1473.7" x2="3165.35" y2="1749.7" xlink:href="#linear-gradient-25"/>
    <linearGradient id="linear-gradient-28" x1="3211.82" y1="1723.48" x2="3275.51" y2="1256.4" xlink:href="#linear-gradient-25"/>
    <linearGradient id="linear-gradient-29" x1="2152.06" y1="2028.01" x2="1841.56" y2="2598.6" gradientTransform="translate(3771.62) rotate(-180) scale(1 -1)" gradientUnits="userSpaceOnUse">
      <stop offset="0" stop-color="#89ffb2"/>
      <stop offset="1" stop-color="#00a795"/>
    </linearGradient>
    <linearGradient id="linear-gradient-30" x1="1189.4" y1="2545.38" x2="610.6" y2="3439.17" xlink:href="#linear-gradient-29"/>
    <linearGradient id="linear-gradient-31" x1="1918.51" y1="2524.1" x2="704.36" y2="2739.07" xlink:href="#linear-gradient-29"/>
    <linearGradient id="linear-gradient-32" x1="2451.94" y1="1936.26" x2="2428.05" y2="2169.8" xlink:href="#linear-gradient-29"/>
    <linearGradient id="linear-gradient-33" x1="2766.29" y1="1978.49" x2="3265.22" y2="1344.21" xlink:href="#linear-gradient-29"/>
    <linearGradient id="linear-gradient-34" x1="2128.21" y1="2015.03" x2="1817.71" y2="2585.62" xlink:href="#linear-gradient-29"/>
    <linearGradient id="linear-gradient-35" x1="2506.93" y1="1968.35" x2="2420.03" y2="2128.04" xlink:href="#linear-gradient-29"/>
    <linearGradient id="linear-gradient-36" x1="1164.85" y1="2529.49" x2="586.05" y2="3423.28" xlink:href="#linear-gradient-29"/>
  </defs>
  <g class="cls-20">
    <g id="Illustration">
      <g>
        <circle class="cls-34" cx="1885.81" cy="1840.12" r="1456.74"/>
        <g>
          <g>
            <path class="cls-38" d="m1361.69,2836.33c39.29-25.86-55.89-258.33-141.71-412.06-70.48-126.25-153.41-233-177.36-220.67-18.33,9.44,4.64,85.18-11.99,91.22-22.27,8.09-69.13-125.83-114.67-121.33-28.06,2.77-52.31,57.76-53.22,108.31-1.64,91.19,72.99,151.58,235.32,309.97,208.03,202.97,243.4,257.87,263.62,244.56Z"/>
            <path class="cls-5" d="m1294.71,2686.1c-21.88-65.58-20-107.42-59.8-149.82-34.77-37.04-56.24-26.46-97.25-69.27-46.44-48.49-30.2-73.87-69.1-111.42-54.01-52.14-105.97-23.16-151.78-70.02-14.48-14.81-29.4-38.3-36.69-77.69-10.2,20.66-16.88,47.88-17.35,73.93-1.64,91.19,72.99,151.58,235.32,309.97,208.03,202.97,243.4,257.87,263.62,244.56,3.07-2.02,5.32-5.31,6.82-9.72-39.43-53.62-61.06-102.34-73.8-140.51Z"/>
          </g>
          <g>
            <path class="cls-1" d="m1436.86,2955.3c-83.93-187.56-179.05-321.66-250.43-409.02-160.59-196.56-238.76-202.76-273.06-200.14-45.7,3.49-104.39,29.58-113.42,73.36-16.88,81.91,147.54,189.51,129.59,220.44-9.29,16.01-54.72-10.4-73.06,10.56-25.08,28.66,23.57,119.53,36.65,141.44,101.13,169.35,435.82,167.21,543.72,163.36Z"/>
            <path class="cls-3" d="m1275.03,2811.93c-75.29-48.27-97.78-43.44-138.21-88.1-74.54-82.36-47.24-153.16-116.32-205.93-49.25-37.63-77.89-12.92-147.01-52.7-28.13-16.19-51.19-36.29-69.98-56.94-1.54,3.61-2.75,7.35-3.56,11.24-16.88,81.91,147.54,189.51,129.59,220.44-9.29,16.01-54.72-10.4-73.06,10.56-25.08,28.66,23.57,119.53,36.65,141.44,101.13,169.35,435.82,167.21,543.72,163.36-1.53-3.42-3.07-6.78-4.61-10.17-60.16-65.09-115.71-106.58-157.22-133.2Z"/>
          </g>
        </g>
        <g>
          <g>
            <path class="cls-37" d="m2011.61,1809.81c38.22,9.86,81.34-2.28,108.51-33.83l383.12-444.87c34.88-40.51,30.24-100.8-10.54-135-41.07-34.43-122.07-36.24-157.62,4.6l-390.5,448.64c-36.81,42.3-31,103.64,12.79,136.68,10.79,8.14,41.63,20.52,54.24,23.77Z"/>
            <path class="cls-12" d="m2492.69,1196.11c-41.07-34.43-122.07-36.24-157.62,4.6l-357.05,410.21c36.5,2.37,76.1,16.2,125.34-4.82,81.97-34.99,74.07-116.81,145.42-164.02,32.61-21.58,85.35-38.28,175.28-19.05l79.16-91.92c34.88-40.51,30.24-100.8-10.54-135Z"/>
            <path class="cls-27" d="m2655.26,1136.17c-1.84-.6-3.72-1.06-5.61-1.41l-132.09-44.86-112.87,344.68,128.58,40.16c3.02,1.91,6.22,3.45,9.62,4.56,45.43,14.88,107.42-49.87,138.44-144.63,31.03-94.75,19.35-183.63-26.08-198.5Z"/>
            <path class="cls-28" d="m2517.56,1089.9c12.63,131.22-24.82,245.58-112.87,344.68l-1089.89-5.86,306.6-970.74,896.15,631.92Z"/>
            <path class="cls-19" d="m1674.11,1231.52c105.39-4.82,179.06-131.3,289.41-100.23,86.59,24.38,85.16,115.73,171.77,134.19,88.66,18.9,133.29-68.75,239.89-69.89,48.47-.52,93.2,17.16,133.39,44.18-16.5,70.49-51.03,135.33-103.88,194.82l-1089.89-5.86,165.89-309.36c78.65,88.55,142.32,114.5,193.41,112.17Z"/>
            <ellipse class="cls-32" cx="1426.64" cy="925.54" rx="526.39" ry="252.39" transform="translate(103.09 1993.32) rotate(-71.87)"/>
            <path class="cls-45" d="m1268.39,1408.81c-28.12-9.21-51.9-30.06-70.65-61.96-19.09-32.47-32.15-74.68-38.83-125.45-14.02-106.72,1.9-237.72,44.84-368.85,42.94-131.13,107.58-246.17,182.01-323.93,35.41-36.99,70.91-63.29,105.51-78.19,34-14.63,65.5-17.38,93.62-8.17,28.12,9.21,51.9,30.06,70.65,61.96,19.09,32.47,32.16,74.68,38.83,125.45,5.86,44.62,6.49,93.49,2.1,144.84-6.11,71.45-73.91,125.94-98.9,202.24-26.57,81.14-9.49,177.88-49.85,241.68-24.87,39.31-51.83,74.38-80.21,104.03-35.41,36.99-70.91,63.29-105.51,78.19-34,14.63-65.5,17.38-93.62,8.17Z"/>
            <g class="cls-29">
              <path class="cls-35" d="m1404.75,925.64c-41.5,126.74,9.47,254.85,112.37,285.71,101.31,30.38,215-45.22,255.35-168.44,40.35-123.21-7.02-250.18-107.18-284.05-101.74-34.41-219.04,40.04-260.54,166.78Z"/>
              <path class="cls-14" d="m1421.55,928.86c-30.82,94.11-14.4,182.23,35.96,196.61,49.57,14.16,113.49-48.7,143.45-140.19,29.96-91.49,15.3-179.06-33.42-195.81-49.49-17.02-115.17,45.28-145.98,139.4Z"/>
            </g>
          </g>
          <g>
            <path class="cls-11" d="m1347.27,910.38l-313.54-88.65c-25.56-7.23-51.99,3.39-58.67,23.82h0c-6.69,20.43,9.03,42.48,34.77,49.17l315.7,82.07c21.01,5.46,42.65-4.85,48.59-22.97h0c5.93-18.12-5.97-37.54-26.84-43.44Z"/>
            <path class="cls-46" d="m1420.43,729.39l-356.95-123.5c-29.92-10.35-61.59,2.5-70.23,28.89h0c-8.64,26.38,9.27,55.57,39.48,65.03l360.42,112.88c23.35,7.31,48-5.22,55.43-27.88h0c7.42-22.66-5.03-47.42-28.15-55.42Z"/>
            <path class="cls-47" d="m1254.97,829.88l-295.87-86.98c-24.06-7.07-49.08,3.21-55.58,23.05h0c-6.5,19.84,8.13,41.32,32.35,47.89l297.91,80.75c19.88,5.39,40.5-4.61,46.28-22.27h0c5.78-17.66-5.35-36.63-25.1-42.43Z"/>
            <path class="cls-18" d="m979.4,629.66c-8.68,26.5-39.23,40.64-68.76,31.42-30.11-9.4-47.67-39.41-38.68-66.86,8.99-27.45,40.86-41.16,70.65-30.8,29.22,10.16,45.45,39.74,36.78,66.23Z"/>
            <g>
              <path class="cls-15" d="m1342,1003.94l-378.91-92.48c-31.82-7.77-65.18,7.56-73.96,34.36h0c-8.78,26.8,10.6,54.18,42.72,61.03l382.49,81.54c24.73,5.27,50.57-9.14,58.09-32.11h0c7.52-22.97-5.94-46.37-30.44-52.34Z"/>
              <path class="cls-7" d="m989.36,969.13c-6.59,20.12-31.47,32.19-55.89,26.9-24.79-5.37-39.67-26.53-32.91-47.19,6.77-20.66,32.47-32.55,57.08-26.63,24.25,5.83,38.31,26.8,31.72,46.92Z"/>
            </g>
          </g>
        </g>
        <g>
          <path class="cls-22" d="m509.14,2961.88l2724.36-23.73v70.21c0,19.05-11.88,35.26-27.98,38.15l-770.37,138.25c-9.14,1.64-18.41,2.08-27.64,1.3l-1868.77-157.62c-16.68-1.41-29.61-17.66-29.61-37.24v-29.31Z"/>
          <path class="cls-6" d="m1386.15,2848.08l1817.37,128.43c32.52,2.3,58.96-22.12,58.96-54.55v-1299.2c0-32.43-26.44-58.72-58.96-58.72h-1817.37c-26.79,0-48.45,23.76-48.45,53.08v1174.46c0,29.31,21.66,54.61,48.45,56.5Z"/>
          <path class="cls-16" d="m1357.17,2848.08l1817.37,128.43c32.52,2.3,58.96-22.12,58.96-54.55v-1299.2c0-32.43-26.44-58.72-58.96-58.72h-1817.37c-26.79,0-48.45,23.76-48.45,53.08v1174.46c0,29.31,21.66,54.61,48.45,56.5Z"/>
          <path class="cls-2" d="m1413.79,2765.28l1692.69,111.56c26.46,1.74,47.97-18.3,47.97-44.77v-1137.45c0-26.47-21.51-48.02-47.97-48.13l-1692.69-7.01c-22.1-.09-39.98,19.38-39.98,43.49v1036.02c0,24.11,17.88,44.84,39.98,46.29Z"/>
          <path class="cls-2" d="m2201.67,1599.58c0,12.07,9.35,21.89,20.9,21.92,11.57.04,20.95-9.74,20.95-21.84,0-12.1-9.39-21.91-20.95-21.92-11.55,0-20.9,9.77-20.9,21.84Z"/>
          <path class="cls-44" d="m1402.52,2842.25l1830.98,135.19-798.34,143.27c-9.14,1.64-18.41,2.08-27.64,1.3l-1898.38-160.12,864.25-118.71c9.67-1.33,19.41-1.64,29.13-.92Z"/>
          <polygon class="cls-9" points="2966.33 2980.84 1441.98 2866.62 970.21 2930.9 2481.43 3053 2966.33 2980.84"/>
          <g>
            <path class="cls-25" d="m1373.6,1859.4l1781.05,22.13v-201.2c0-22.56-18.29-40.85-40.85-40.85h-1699.35c-22.56,0-40.85,18.29-40.85,40.85v179.08Z"/>
            <g>
              <polygon class="cls-24" points="2038.03 2398.43 3045.01 2440.03 3045.01 1964.37 2038.03 1947.48 2038.03 2398.43"/>
              <polygon class="cls-24" points="1465.1 2374.75 1978.65 2395.97 1978.65 1946.49 1465.1 1937.87 1465.1 2374.75"/>
              <polygon class="cls-24" points="1465.1 2699.03 3045.01 2793.1 3045.01 2502.15 1465.1 2431.8 1465.1 2699.03"/>
            </g>
            <path class="cls-36" d="m3026.96,1751.91c0,12.66,11.03,23.01,24.65,23.11,13.64.1,24.71-10.12,24.71-22.81,0-12.7-11.07-23.04-24.71-23.11-13.62-.06-24.65,10.15-24.65,22.82Z"/>
            <path class="cls-43" d="m2937.81,1751.4c0,12.38,10.93,22.49,24.42,22.58,13.52.09,24.49-9.89,24.49-22.3,0-12.41-10.97-22.52-24.49-22.58-13.5-.06-24.42,9.92-24.42,22.3Z"/>
            <path class="cls-33" d="m2849.48,1750.89c0,12.32,10.83,22.39,24.2,22.48,13.39.09,24.26-9.84,24.26-22.2s-10.87-22.42-24.26-22.48c-13.37-.06-24.2,9.88-24.2,22.2Z"/>
          </g>
          <path class="cls-4" d="m1795.04,2491.75c140.1-75.38,250.26,20.14,356.58-74.11,64.46-57.14,32.81-99.74,112.12-185.13,87.84-94.57,145.03-62.78,233.31-147.89,111.62-107.62,55.8-191.35,151.95-268.62,116.64-93.74,242.44-6.98,353.47-96.87,47.89-38.77,74.17-95.14,87.89-155.09h108.64c19.04,0,34.5,15.43,34.5,34.47v1346.74c0,19.03-15.46,33.37-34.5,32.02l-1852.2-131.47c-9.09-.65-17.15-5.95-22.32-13.65,135.59-4.94,218.88-50.39,272.13-97.38,104.16-91.92,86.1-182.57,198.42-243Z"/>
        </g>
        <g>
          <path class="cls-26" d="m638.5,1821.76l202.73,331.68,618.45-6.97,274.29,530.66,708.13,24.78,367.44,566.2c6.54,10.08,17.38,16.58,29.36,17.59l47.98,4.05c21.78,3.43,68.3-3.2,61.2-24.07l-248.88-563.06-204.67-91.58-688.45-26.32-260.49-521.71-632.63-6.98-212.04-322.08-62.42,87.81Z"/>
          <polygon class="cls-48" points="1015.61 1844.06 1129.29 1791.8 1002.6 1766 1015.61 1844.06"/>
          <polygon class="cls-39" points="582.56 1733.95 523.09 1821.76 655.05 1821.76 699.65 1766 582.56 1733.95"/>
          <polygon class="cls-17" points="509.14 1429.56 564.27 1388.71 588.14 1719.54 564.27 1762.06 523.09 1821.76 509.14 1429.56"/>
          <polygon class="cls-41" points="2058.45 2546.47 1772.91 2624.49 1498.62 2093.82 1784.16 2015.8 2058.45 2546.47"/>
          <path class="cls-42" d="m3153.04,3228.15l-213.76,58.41c-22.6,6.18-46.6-2.97-59.36-22.63l-398.88-614.66,285.54-78.02,401.2,618.23c9.45,14.56,2,34.1-14.74,38.67Z"/>
          <polygon class="cls-23" points="2766.58 2571.25 2481.04 2649.27 1772.91 2624.49 2058.45 2546.47 2766.58 2571.25"/>
          <polygon class="cls-21" points="1784.16 2015.8 1498.62 2093.82 880.17 2100.8 1165.71 2022.78 1784.16 2015.8"/>
          <polygon class="cls-40" points="1129.29 1791.8 1021.05 1786.1 1165.71 2022.78 880.17 2100.8 676.75 1767.98 564.27 1762.06 564.27 1388.71 1129.29 1791.8"/>
          <g class="cls-13">
            <path class="cls-30" d="m1958.79,2527.23c-82.06-65.87-156.51-25.79-208.99-79.62-44.88-46.03,1.57-83.53-49.76-197.05-41.8-92.44-103.09-135.01-115.44-143.31-15.84-10.64-31.08-18.6-44.77-24.68l244.34-66.76,274.29,530.66-63.69,17.4c-9.44-12.12-21.24-24.82-35.96-36.64Z"/>
          </g>
          <path class="cls-10" d="m1463.18,2029.62c52.22,3.56,61.59,5.54,61.7,7.96.34,7.32-83.51,21.66-169.19,23.89-76.24,1.98-89.56-7.29-171.18-1.99-53.11,3.45-88.7,10.05-89.57,5.97-1.05-4.9,48.34-22.94,101.51-33.84,72.41-14.84,138.17-10.76,266.72-1.99Z"/>
          <path class="cls-8" d="m2914.2,2963.13c-44.17-72.04-60.46-145.46-137.34-181.13-58.88-27.32-98.93-7.27-151.27-41.8-40.75-26.88-62.83-69.63-75.36-109.83l216.35-59.12,385.3,593.72c-133.02-64.5-200.44-141.1-237.68-201.84Z"/>
        </g>
      </g>
    </g>
  </g>
</svg>