<svg width="348" height="335" viewBox="0 0 348 335" fill="none" xmlns="http://www.w3.org/2000/svg">
<path d="M179.554 357.339C272.369 357.339 347.61 282.098 347.61 189.283C347.61 96.4691 272.369 21.2283 179.554 21.2283C86.74 21.2283 11.4992 96.4691 11.4992 189.283C11.4992 282.098 86.74 357.339 179.554 357.339Z" fill="#F4F7FA"/>
<path d="M224.58 130.14C227.98 131.017 231.815 129.937 234.232 127.131L268.31 87.5604C271.412 83.9571 271 78.5944 267.372 75.5523C263.719 72.4898 256.514 72.3288 253.352 75.9615L218.618 115.867C215.344 119.63 215.86 125.086 219.755 128.025C220.715 128.749 223.458 129.85 224.58 130.139V130.14Z" fill="url(#paint0_linear_89_3)"/>
<path style="mix-blend-mode:multiply" opacity="0.3" d="M267.372 75.5523C263.718 72.4898 256.514 72.3288 253.351 75.9615L221.592 112.449C224.839 112.66 228.361 113.89 232.741 112.02C240.032 108.908 239.33 101.63 245.676 97.4311C248.577 95.5116 253.268 94.0261 261.267 95.7366L268.308 87.5604C271.411 83.9571 270.998 78.5944 267.371 75.5523H267.372Z" fill="url(#paint1_linear_89_3)"/>
<path d="M281.832 70.2206C281.668 70.1673 281.501 70.1264 281.333 70.0952L269.584 66.105L259.544 96.7638L270.981 100.336C271.25 100.506 271.534 100.643 271.837 100.742C275.878 102.065 281.392 96.3058 284.151 87.877C286.911 79.4491 285.872 71.5433 281.831 70.2206H281.832Z" fill="url(#paint2_linear_89_3)"/>
<path d="M269.584 66.105C270.707 77.7769 267.376 87.949 259.544 96.7639L162.6 96.2426L189.871 9.89648L269.583 66.105H269.584Z" fill="#B3E5E0"/>
<path d="M194.56 78.7019C203.934 78.2732 210.487 67.023 220.302 69.7866C228.005 71.9552 227.877 80.0806 235.581 81.7226C243.467 83.4038 247.437 75.6074 256.919 75.506C261.23 75.4597 265.209 77.0324 268.784 79.4358C267.316 85.7058 264.245 91.4732 259.544 96.7648L162.6 96.2435L177.355 68.7263C184.351 76.6027 190.015 78.911 194.559 78.7037L194.56 78.7019Z" fill="url(#paint3_linear_89_3)"/>
<path d="M193.881 58.4688C201.927 33.8937 198.898 10.8439 187.115 6.9858C175.332 3.12766 159.257 19.9221 151.21 44.4972C143.163 69.0723 146.192 92.122 157.976 95.9802C169.759 99.8383 185.834 83.0439 193.881 58.4688Z" fill="url(#paint4_linear_89_3)"/>
<path d="M158.472 94.4717C155.97 93.6524 153.855 91.7978 152.187 88.9604C150.489 86.0722 149.328 82.3177 148.733 77.8018C147.486 68.3091 148.902 56.6569 152.722 44.993C156.541 33.3291 162.291 23.0965 168.911 16.1798C172.061 12.8896 175.219 10.5503 178.296 9.22492C181.321 7.92359 184.123 7.67899 186.624 8.49821C189.125 9.31742 191.24 11.172 192.908 14.0095C194.606 16.8976 195.769 20.6522 196.362 25.1681C196.883 29.137 196.939 33.4839 196.549 38.0514C196.005 44.4068 189.975 49.2536 187.752 56.0404C185.388 63.2577 186.908 71.8627 183.318 77.5376C181.105 81.0342 178.707 84.1536 176.183 86.7909C173.033 90.0811 169.876 92.4205 166.798 93.7458C163.774 95.0472 160.972 95.2918 158.471 94.4725L158.472 94.4717Z" fill="url(#paint5_linear_89_3)"/>
<mask id="mask0_89_3" style="mask-type:luminance" maskUnits="userSpaceOnUse" x="148" y="8" width="49" height="87">
<path d="M158.472 94.4717C155.97 93.6524 153.855 91.7978 152.187 88.9604C150.489 86.0722 149.328 82.3177 148.733 77.8018C147.486 68.3091 148.902 56.6569 152.722 44.993C156.541 33.3291 162.291 23.0965 168.911 16.1798C172.061 12.8896 175.219 10.5503 178.296 9.22492C181.321 7.92359 184.123 7.67899 186.624 8.49821C189.125 9.31742 191.24 11.172 192.908 14.0095C194.606 16.8976 195.769 20.6522 196.362 25.1681C197.609 34.6607 196.193 46.313 192.373 57.9769C188.554 69.6407 182.804 79.8734 176.184 86.79C173.034 90.0802 169.877 92.4196 166.799 93.7449C163.775 95.0463 160.973 95.2909 158.472 94.4717Z" fill="white"/>
</mask>
<g mask="url(#mask0_89_3)">
<path d="M170.601 51.4943C166.909 62.7677 171.443 74.1629 180.596 76.9078C189.607 79.6101 199.72 72.8856 203.309 61.9253C206.898 50.9659 202.684 39.6721 193.775 36.6594C184.726 33.5987 174.292 40.2209 170.601 51.4943Z" fill="url(#paint6_linear_89_3)"/>
<path style="mix-blend-mode:multiply" opacity="0.3" d="M172.095 51.7808C169.354 60.1517 170.814 67.9899 175.294 69.269C179.703 70.5285 185.388 64.9372 188.053 56.7992C190.718 48.6613 189.414 40.8721 185.081 39.3822C180.678 37.8683 174.836 43.4098 172.096 51.7816L172.095 51.7808Z" fill="url(#paint7_linear_89_3)"/>
</g>
<path opacity="0.3" d="M165.488 50.1371L137.599 42.2518C135.325 41.6087 132.974 42.5533 132.38 44.3706C131.785 46.1878 133.183 48.1491 135.473 48.7442L163.554 56.0442C165.423 56.5299 167.348 55.6128 167.876 54.001C168.404 52.3893 167.345 50.6619 165.489 50.1371H165.488Z" fill="url(#paint8_linear_89_3)"/>
<path d="M171.995 34.0381L140.245 23.0529C137.584 22.1323 134.767 23.2753 133.998 25.6227C133.23 27.9691 134.823 30.5655 137.51 31.407L169.569 41.4475C171.646 42.0977 173.838 40.9832 174.499 38.9676C175.159 36.9521 174.052 34.7497 171.995 34.0381Z" fill="url(#paint9_linear_89_3)"/>
<path d="M157.278 42.9765L130.961 35.2398C128.82 34.6109 126.595 35.5253 126.017 37.29C125.439 39.0548 126.74 40.9654 128.894 41.5498L155.393 48.7324C157.161 49.2118 158.995 48.3223 159.51 46.7515C160.024 45.1807 159.034 43.4933 157.277 42.9774L157.278 42.9765Z" fill="url(#paint10_linear_89_3)"/>
<path d="M132.766 25.1673C131.994 27.5245 129.277 28.7822 126.65 27.9621C123.972 27.126 122.41 24.4566 123.21 22.015C124.009 19.5733 126.844 18.3538 129.494 19.2753C132.093 20.1791 133.537 22.8102 132.765 25.1664L132.766 25.1673Z" fill="url(#paint11_linear_89_3)"/>
<path d="M165.019 58.4591L131.315 50.2331C128.485 49.542 125.518 50.9055 124.737 53.2894C123.956 55.6732 125.68 58.1086 128.537 58.7179L162.559 65.9708C164.758 66.4396 167.057 65.1578 167.726 63.1146C168.395 61.0715 167.197 58.9901 165.018 58.4591H165.019Z" fill="url(#paint12_linear_89_3)"/>
<g style="mix-blend-mode:soft-light">
<path d="M133.652 55.3627C133.066 57.1523 130.853 58.2259 128.681 57.7554C126.476 57.2777 125.152 55.3956 125.753 53.5579C126.356 51.7202 128.642 50.6626 130.831 51.1892C132.988 51.7077 134.238 53.573 133.652 55.3627Z" fill="#FAF4F1"/>
</g>
<path d="M0.736354 278.694L315.029 275.957V284.056C315.029 286.254 313.659 288.124 311.801 288.457L222.928 304.406C221.874 304.596 220.804 304.646 219.74 304.556L4.15112 286.373C2.22685 286.21 0.735199 284.335 0.735199 282.077V278.695L0.736354 278.694Z" fill="url(#paint13_linear_89_3)"/>
<path d="M101.912 265.566L311.571 280.382C315.322 280.647 318.372 277.83 318.372 274.089V124.208C318.372 120.467 315.322 117.434 311.571 117.434H101.912C98.8211 117.434 96.3223 120.175 96.3223 123.557V259.048C96.3223 262.429 98.8211 265.348 101.912 265.566Z" fill="url(#paint14_linear_89_3)"/>
<path d="M98.5684 265.566L308.227 280.382C311.979 280.647 315.029 277.83 315.029 274.089V124.208C315.029 120.467 311.979 117.434 308.227 117.434H98.5684C95.4778 117.434 92.979 120.175 92.979 123.557V259.048C92.979 262.429 95.4778 265.348 98.5684 265.566Z" fill="url(#paint15_linear_89_3)"/>
<path d="M105.1 256.014L300.376 268.884C303.428 269.084 305.91 266.773 305.91 263.719V132.498C305.91 129.444 303.428 126.958 300.376 126.946L105.1 126.137C102.551 126.127 100.488 128.373 100.488 131.154V250.673C100.488 253.455 102.551 255.846 105.1 256.014Z" fill="white"/>
<path d="M195.993 121.534C195.993 122.926 197.072 124.059 198.404 124.063C199.739 124.067 200.821 122.939 200.821 121.543C200.821 120.147 199.738 119.016 198.404 119.014C197.072 119.014 195.993 120.142 195.993 121.534Z" fill="white"/>
<path d="M103.8 264.893L315.029 280.489L222.929 297.017C221.875 297.206 220.806 297.257 219.741 297.167L0.736359 278.695L100.44 265C101.555 264.847 102.679 264.811 103.8 264.894V264.893Z" fill="url(#paint16_linear_89_3)"/>
<path style="mix-blend-mode:multiply" opacity="0.3" d="M284.207 280.881L108.352 267.705L53.9272 275.12L228.267 289.206L284.207 280.881Z" fill="url(#paint17_linear_89_3)"/>
<path d="M100.464 151.508L305.933 154.061V130.85C305.933 128.247 303.823 126.137 301.22 126.137H105.176C102.574 126.137 100.464 128.247 100.464 130.85V151.509V151.508Z" fill="url(#paint18_linear_89_3)"/>
<path d="M177.115 213.692L293.284 218.491V163.617L177.115 161.669V213.692Z" fill="#D8DEE8"/>
<path d="M111.02 210.96L170.265 213.408V161.555L111.02 160.56V210.96Z" fill="#D8DEE8"/>
<path d="M111.02 248.371L293.284 259.223V225.658L111.02 217.542V248.371Z" fill="#D8DEE8"/>
<path d="M291.202 139.107C291.202 140.568 292.474 141.762 294.046 141.773C295.619 141.785 296.896 140.606 296.896 139.142C296.896 137.677 295.619 136.484 294.046 136.476C292.474 136.469 291.202 137.647 291.202 139.108V139.107Z" fill="url(#paint19_linear_89_3)"/>
<path d="M280.917 139.048C280.917 140.477 282.178 141.643 283.734 141.653C285.294 141.664 286.56 140.512 286.56 139.081C286.56 137.649 285.294 136.483 283.734 136.476C282.177 136.469 280.917 137.62 280.917 139.048Z" fill="url(#paint20_linear_89_3)"/>
<path d="M270.727 138.99C270.727 140.411 271.976 141.573 273.519 141.583C275.064 141.593 276.318 140.448 276.318 139.022C276.318 137.596 275.064 136.435 273.519 136.428C271.976 136.422 270.727 137.568 270.727 138.99Z" fill="url(#paint21_linear_89_3)"/>
<g style="mix-blend-mode:soft-light" opacity="0.48">
<path d="M149.083 224.458C165.245 215.762 177.954 226.781 190.219 215.908C197.656 209.317 194.004 204.402 203.154 194.551C213.287 183.641 219.885 187.309 230.069 177.49C242.946 165.075 236.507 155.415 247.599 146.501C261.055 135.687 275.568 145.696 288.377 135.326C293.901 130.853 296.933 124.35 298.516 117.434H311.049C313.246 117.434 315.029 119.214 315.029 121.41V276.776C315.029 278.971 313.246 280.625 311.049 280.47L97.3721 265.303C96.3234 265.228 95.3936 264.616 94.7971 263.728C110.439 263.158 120.048 257.915 126.191 252.494C138.207 241.89 136.124 231.432 149.082 224.46L149.083 224.458Z" fill="white"/>
</g>
<path d="M15.6598 147.165L39.0475 185.429L110.394 184.625L142.037 245.844L223.73 248.703L266.119 314.022C266.874 315.185 268.124 315.935 269.507 316.051L275.042 316.518C277.554 316.914 282.921 316.149 282.102 313.741L253.39 248.785L229.779 238.22L150.356 235.183L120.305 174.997L47.3226 174.192L22.8608 137.035L15.6598 147.165Z" fill="url(#paint22_linear_89_3)"/>
<path d="M59.1647 149.738L72.2793 143.709L57.6638 140.733L59.1647 149.738Z" fill="url(#paint23_linear_89_3)"/>
<path d="M9.20637 137.035L2.34569 147.165H17.5691L22.7143 140.733L9.20637 137.035Z" fill="url(#paint24_linear_89_3)"/>
<path d="M0.736359 101.92L7.09637 97.207L9.85011 135.373L7.09637 140.278L2.34569 147.165L0.736359 101.92Z" fill="url(#paint25_linear_89_3)"/>
<path d="M179.471 230.771L146.53 239.771L114.887 178.551L147.828 169.551L179.471 230.771Z" fill="url(#paint26_linear_89_3)"/>
<path d="M305.747 309.412L281.087 316.15C278.48 316.863 275.711 315.808 274.239 313.54L228.222 242.63L261.163 233.629L307.447 304.951C308.538 306.631 307.678 308.885 305.747 309.412Z" fill="url(#paint27_linear_89_3)"/>
<path d="M261.163 233.629L228.222 242.63L146.53 239.771L179.471 230.771L261.163 233.629Z" fill="url(#paint28_linear_89_3)"/>
<path d="M147.828 169.551L114.887 178.551L43.5398 179.356L76.4808 170.356L147.828 169.551Z" fill="url(#paint29_linear_89_3)"/>
<path d="M72.2793 143.709L59.7923 143.051L76.4808 170.356L43.5398 179.357L20.0725 140.961L7.09637 140.278V97.207L72.2793 143.709Z" fill="url(#paint30_linear_89_3)"/>
<g style="mix-blend-mode:multiply" opacity="0.3">
<path d="M167.974 228.551C158.507 220.952 149.918 225.576 143.864 219.366C138.686 214.056 144.045 209.73 138.123 196.633C133.301 185.969 126.23 181.058 124.806 180.101C122.978 178.873 121.22 177.955 119.641 177.253L147.829 169.552L179.472 230.771L172.124 232.778C171.035 231.38 169.674 229.915 167.976 228.551H167.974Z" fill="url(#paint31_linear_89_3)"/>
</g>
<path style="mix-blend-mode:multiply" opacity="0.3" d="M110.798 171.145C116.822 171.556 117.903 171.784 117.916 172.063C117.955 172.908 108.282 174.562 98.3976 174.819C89.6023 175.048 88.0657 173.978 78.6497 174.59C72.5227 174.988 68.4169 175.749 68.3165 175.278C68.1954 174.713 73.8932 172.632 80.0271 171.375C88.3806 169.663 95.9669 170.133 110.797 171.145H110.798Z" fill="url(#paint32_linear_89_3)"/>
<path style="mix-blend-mode:multiply" opacity="0.3" d="M278.193 278.838C273.098 270.527 271.219 262.057 262.349 257.942C255.557 254.791 250.936 257.104 244.898 253.12C240.197 250.019 237.65 245.087 236.204 240.45L261.163 233.629L305.613 302.123C290.267 294.682 282.49 285.845 278.193 278.838Z" fill="url(#paint33_linear_89_3)"/>
<defs>
<linearGradient id="paint0_linear_89_3" x1="235.561" y1="82.4131" x2="251.389" y2="121.267" gradientUnits="userSpaceOnUse">
<stop stop-color="#ED564F"/>
<stop offset="1" stop-color="#F36F56"/>
</linearGradient>
<linearGradient id="paint1_linear_89_3" x1="239.619" y1="80.76" x2="255.448" y2="119.614" gradientUnits="userSpaceOnUse">
<stop stop-color="#E63946"/>
<stop offset="1" stop-color="#F36F56"/>
</linearGradient>
<linearGradient id="paint2_linear_89_3" x1="285.912" y1="74.9974" x2="257.061" y2="92.729" gradientUnits="userSpaceOnUse">
<stop stop-color="#036D5E"/>
<stop offset="1" stop-color="#00A896"/>
</linearGradient>
<linearGradient id="paint3_linear_89_3" x1="249.989" y1="25.6208" x2="182.261" y2="150.997" gradientUnits="userSpaceOnUse">
<stop stop-color="#00A896"/>
<stop offset="1" stop-color="#036D5E"/>
</linearGradient>
<linearGradient id="paint4_linear_89_3" x1="205.392" y1="31.2981" x2="139.686" y2="71.6806" gradientUnits="userSpaceOnUse">
<stop stop-color="#043A31"/>
<stop offset="1" stop-color="#036D5E"/>
</linearGradient>
<linearGradient id="paint5_linear_89_3" x1="199.789" y1="59.6546" x2="153.712" y2="45.8573" gradientUnits="userSpaceOnUse">
<stop stop-color="#043A31"/>
<stop offset="1" stop-color="#036D5E"/>
</linearGradient>
<linearGradient id="paint6_linear_89_3" x1="208.708" y1="16.4439" x2="165.031" y2="97.2959" gradientUnits="userSpaceOnUse">
<stop stop-color="#E63946"/>
<stop offset="1" stop-color="#F36F56"/>
</linearGradient>
<linearGradient id="paint7_linear_89_3" x1="196.123" y1="24.5815" x2="163.897" y2="84.2378" gradientUnits="userSpaceOnUse">
<stop stop-color="#FFC444"/>
<stop offset="1" stop-color="#F36F56"/>
</linearGradient>
<linearGradient id="paint8_linear_89_3" x1="143.043" y1="37.1321" x2="168.108" y2="79.8359" gradientUnits="userSpaceOnUse">
<stop stop-color="#D5E38A"/>
<stop offset="1" stop-color="#F6D46E"/>
</linearGradient>
<linearGradient id="paint9_linear_89_3" x1="135.87" y1="13.6674" x2="160.008" y2="38.2534" gradientUnits="userSpaceOnUse">
<stop stop-color="#82FF96"/>
<stop offset="1" stop-color="#B4FB6C"/>
</linearGradient>
<linearGradient id="paint10_linear_89_3" x1="135.979" y1="30.48" x2="159.98" y2="71.3684" gradientUnits="userSpaceOnUse">
<stop stop-color="#D5E38A"/>
<stop offset="1" stop-color="#F6D46E"/>
</linearGradient>
<linearGradient id="paint11_linear_89_3" x1="126.212" y1="21.7813" x2="152.86" y2="48.9255" gradientUnits="userSpaceOnUse">
<stop stop-color="#82FF96"/>
<stop offset="1" stop-color="#B4FB6C"/>
</linearGradient>
<linearGradient id="paint12_linear_89_3" x1="137.97" y1="44.1633" x2="167.159" y2="93.8918" gradientUnits="userSpaceOnUse">
<stop stop-color="#F9DF7D"/>
<stop offset="1" stop-color="#D7A75E"/>
</linearGradient>
<linearGradient id="paint13_linear_89_3" x1="182.273" y1="290.776" x2="204.351" y2="300.049" gradientUnits="userSpaceOnUse">
<stop stop-color="#40447E"/>
<stop offset="1" stop-color="#3C3B6B"/>
</linearGradient>
<linearGradient id="paint14_linear_89_3" x1="211.754" y1="193.469" x2="235.715" y2="203.532" gradientUnits="userSpaceOnUse">
<stop stop-color="#40447E"/>
<stop offset="1" stop-color="#3C3B6B"/>
</linearGradient>
<linearGradient id="paint15_linear_89_3" x1="315.029" y1="198.916" x2="92.9779" y2="198.916" gradientUnits="userSpaceOnUse">
<stop stop-color="#40447E"/>
<stop offset="1" stop-color="#3C3B6B"/>
</linearGradient>
<linearGradient id="paint16_linear_89_3" x1="315.029" y1="281.03" x2="0.736359" y2="281.03" gradientUnits="userSpaceOnUse">
<stop stop-color="#40447E"/>
<stop offset="1" stop-color="#3C3B6B"/>
</linearGradient>
<linearGradient id="paint17_linear_89_3" x1="284.207" y1="278.455" x2="53.9272" y2="278.455" gradientUnits="userSpaceOnUse">
<stop stop-color="#40447E"/>
<stop offset="1" stop-color="#3C3B6B"/>
</linearGradient>
<linearGradient id="paint18_linear_89_3" x1="151.165" y1="84.4225" x2="269.044" y2="210.897" gradientUnits="userSpaceOnUse">
<stop stop-color="#00A896"/>
<stop offset="1" stop-color="#036D5E"/>
</linearGradient>
<linearGradient id="paint19_linear_89_3" x1="296.896" y1="139.125" x2="291.202" y2="139.125" gradientUnits="userSpaceOnUse">
<stop stop-color="#444B8C"/>
<stop offset="1" stop-color="#26264F"/>
</linearGradient>
<linearGradient id="paint20_linear_89_3" x1="286.56" y1="139.065" x2="280.917" y2="139.065" gradientUnits="userSpaceOnUse">
<stop stop-color="#444B8C"/>
<stop offset="1" stop-color="#26264F"/>
</linearGradient>
<linearGradient id="paint21_linear_89_3" x1="276.318" y1="139.006" x2="270.727" y2="139.006" gradientUnits="userSpaceOnUse">
<stop stop-color="#444B8C"/>
<stop offset="1" stop-color="#26264F"/>
</linearGradient>
<linearGradient id="paint22_linear_89_3" x1="114.013" y1="163.361" x2="212.262" y2="329.155" gradientUnits="userSpaceOnUse">
<stop stop-color="#018B7A"/>
<stop offset="1" stop-color="#045246"/>
</linearGradient>
<linearGradient id="paint23_linear_89_3" x1="75.8948" y1="164.018" x2="72.833" y2="158.814" gradientUnits="userSpaceOnUse">
<stop stop-color="#018B7A"/>
<stop offset="1" stop-color="#045246"/>
</linearGradient>
<linearGradient id="paint24_linear_89_3" x1="8.26732" y1="107.012" x2="11.9417" y2="138.852" gradientUnits="userSpaceOnUse">
<stop stop-color="#018B7A"/>
<stop offset="1" stop-color="#045246"/>
</linearGradient>
<linearGradient id="paint25_linear_89_3" x1="6.58069" y1="135.827" x2="-0.766834" y2="81.9432" gradientUnits="userSpaceOnUse">
<stop stop-color="#018B7A"/>
<stop offset="1" stop-color="#045246"/>
</linearGradient>
<linearGradient id="paint26_linear_89_3" x1="128.839" y1="170.959" x2="164.659" y2="236.785" gradientUnits="userSpaceOnUse">
<stop stop-color="#89FFB2"/>
<stop offset="1" stop-color="#00A795"/>
</linearGradient>
<linearGradient id="paint27_linear_89_3" x1="239.895" y1="230.645" x2="306.668" y2="333.756" gradientUnits="userSpaceOnUse">
<stop stop-color="#89FFB2"/>
<stop offset="1" stop-color="#00A795"/>
</linearGradient>
<linearGradient id="paint28_linear_89_3" x1="155.782" y1="228.19" x2="295.851" y2="252.99" gradientUnits="userSpaceOnUse">
<stop stop-color="#89FFB2"/>
<stop offset="1" stop-color="#00A795"/>
</linearGradient>
<linearGradient id="paint29_linear_89_3" x1="94.2434" y1="160.374" x2="96.9994" y2="187.317" gradientUnits="userSpaceOnUse">
<stop stop-color="#89FFB2"/>
<stop offset="1" stop-color="#00A795"/>
</linearGradient>
<linearGradient id="paint30_linear_89_3" x1="57.9788" y1="165.246" x2="0.420253" y2="92.0733" gradientUnits="userSpaceOnUse">
<stop stop-color="#89FFB2"/>
<stop offset="1" stop-color="#00A795"/>
</linearGradient>
<linearGradient id="paint31_linear_89_3" x1="131.59" y1="169.462" x2="167.411" y2="235.287" gradientUnits="userSpaceOnUse">
<stop stop-color="#89FFB2"/>
<stop offset="1" stop-color="#00A795"/>
</linearGradient>
<linearGradient id="paint32_linear_89_3" x1="87.8995" y1="164.077" x2="97.9246" y2="182.499" gradientUnits="userSpaceOnUse">
<stop stop-color="#89FFB2"/>
<stop offset="1" stop-color="#00A795"/>
</linearGradient>
<linearGradient id="paint33_linear_89_3" x1="242.727" y1="228.812" x2="309.5" y2="331.923" gradientUnits="userSpaceOnUse">
<stop stop-color="#89FFB2"/>
<stop offset="1" stop-color="#00A795"/>
</linearGradient>
</defs>
</svg>
