<svg width="428" height="428" viewBox="0 0 428 428" fill="none" xmlns="http://www.w3.org/2000/svg">
<g clip-path="url(#clip0_89_2)">
<path d="M237.554 450.339C330.369 450.339 405.61 375.098 405.61 282.283C405.61 189.469 330.369 114.228 237.554 114.228C144.74 114.228 69.4992 189.469 69.4992 282.283C69.4992 375.098 144.74 450.339 237.554 450.339Z" fill="#F4F7FA"/>
<path d="M282.58 223.14C285.98 224.017 289.815 222.937 292.232 220.131L326.31 180.56C329.412 176.957 329 171.594 325.372 168.552C321.719 165.49 314.514 165.329 311.352 168.961L276.618 208.867C273.344 212.63 273.86 218.086 277.755 221.025C278.715 221.749 281.458 222.85 282.58 223.139V223.14Z" fill="url(#paint0_linear_89_2)"/>
<path style="mix-blend-mode:multiply" opacity="0.3" d="M325.372 168.552C321.718 165.49 314.514 165.329 311.351 168.961L279.592 205.449C282.839 205.66 286.361 206.89 290.741 205.02C298.032 201.908 297.33 194.63 303.676 190.431C306.577 188.512 311.268 187.026 319.267 188.737L326.308 180.56C329.411 176.957 328.998 171.594 325.371 168.552H325.372Z" fill="url(#paint1_linear_89_2)"/>
<path d="M339.832 163.221C339.668 163.167 339.501 163.126 339.333 163.095L327.584 159.105L317.544 189.764L328.981 193.336C329.25 193.506 329.534 193.643 329.837 193.742C333.878 195.065 339.392 189.306 342.151 180.877C344.911 172.449 343.872 164.543 339.831 163.221H339.832Z" fill="url(#paint2_linear_89_2)"/>
<path d="M327.584 159.105C328.707 170.777 325.376 180.949 317.544 189.764L220.6 189.243L247.871 102.896L327.583 159.105H327.584Z" fill="#B3E5E0"/>
<path d="M252.56 171.702C261.934 171.273 268.487 160.023 278.302 162.787C286.005 164.955 285.877 173.081 293.581 174.723C301.467 176.404 305.437 168.607 314.919 168.506C319.23 168.46 323.209 170.032 326.784 172.436C325.316 178.706 322.245 184.473 317.544 189.765L220.6 189.244L235.355 161.726C242.351 169.603 248.015 171.911 252.559 171.704L252.56 171.702Z" fill="url(#paint3_linear_89_2)"/>
<path d="M251.881 151.469C259.927 126.894 256.898 103.844 245.115 99.9858C233.332 96.1277 217.257 112.922 209.21 137.497C201.163 162.072 204.192 185.122 215.976 188.98C227.759 192.838 243.834 176.044 251.881 151.469Z" fill="url(#paint4_linear_89_2)"/>
<path d="M216.472 187.472C213.97 186.652 211.855 184.798 210.187 181.96C208.489 179.072 207.328 175.318 206.733 170.802C205.486 161.309 206.902 149.657 210.722 137.993C214.541 126.329 220.291 116.096 226.911 109.18C230.061 105.89 233.219 103.55 236.296 102.225C239.321 100.924 242.123 100.679 244.624 101.498C247.125 102.317 249.24 104.172 250.908 107.009C252.606 109.898 253.769 113.652 254.362 118.168C254.883 122.137 254.939 126.484 254.549 131.051C254.005 137.407 247.975 142.254 245.752 149.04C243.388 156.258 244.908 164.863 241.318 170.538C239.105 174.034 236.707 177.154 234.183 179.791C231.033 183.081 227.876 185.42 224.798 186.746C221.774 188.047 218.972 188.292 216.471 187.473L216.472 187.472Z" fill="url(#paint5_linear_89_2)"/>
<mask id="mask0_89_2" style="mask-type:luminance" maskUnits="userSpaceOnUse" x="206" y="101" width="49" height="87">
<path d="M216.472 187.472C213.97 186.652 211.855 184.798 210.187 181.96C208.489 179.072 207.328 175.318 206.733 170.802C205.486 161.309 206.902 149.657 210.722 137.993C214.541 126.329 220.291 116.096 226.911 109.18C230.061 105.89 233.219 103.55 236.296 102.225C239.321 100.924 242.123 100.679 244.624 101.498C247.125 102.317 249.24 104.172 250.908 107.009C252.606 109.898 253.769 113.652 254.362 118.168C255.609 127.661 254.193 139.313 250.373 150.977C246.554 162.641 240.804 172.873 234.184 179.79C231.034 183.08 227.877 185.42 224.799 186.745C221.775 188.046 218.973 188.291 216.472 187.472Z" fill="white"/>
</mask>
<g mask="url(#mask0_89_2)">
<path d="M228.601 144.494C224.909 155.768 229.443 167.163 238.596 169.908C247.607 172.61 257.72 165.886 261.309 154.925C264.898 143.966 260.684 132.672 251.775 129.659C242.726 126.599 232.292 133.221 228.601 144.494Z" fill="url(#paint6_linear_89_2)"/>
<path style="mix-blend-mode:multiply" opacity="0.3" d="M230.095 144.781C227.354 153.152 228.814 160.99 233.294 162.269C237.703 163.528 243.388 157.937 246.053 149.799C248.718 141.661 247.414 133.872 243.081 132.382C238.678 130.868 232.836 136.41 230.096 144.782L230.095 144.781Z" fill="url(#paint7_linear_89_2)"/>
</g>
<path opacity="0.3" d="M223.488 143.137L195.599 135.252C193.325 134.609 190.974 135.553 190.38 137.371C189.785 139.188 191.183 141.149 193.473 141.744L221.554 149.044C223.423 149.53 225.348 148.613 225.876 147.001C226.404 145.389 225.345 143.662 223.489 143.137H223.488Z" fill="url(#paint8_linear_89_2)"/>
<path d="M229.995 127.038L198.245 116.053C195.584 115.132 192.767 116.275 191.998 118.623C191.23 120.969 192.823 123.566 195.51 124.407L227.569 134.448C229.646 135.098 231.838 133.983 232.499 131.968C233.159 129.952 232.052 127.75 229.995 127.038Z" fill="url(#paint9_linear_89_2)"/>
<path d="M215.278 135.977L188.961 128.24C186.82 127.611 184.595 128.525 184.017 130.29C183.439 132.055 184.74 133.965 186.894 134.55L213.393 141.732C215.161 142.212 216.995 141.322 217.51 139.752C218.024 138.181 217.034 136.493 215.277 135.977L215.278 135.977Z" fill="url(#paint10_linear_89_2)"/>
<path d="M190.766 118.167C189.994 120.524 187.277 121.782 184.65 120.962C181.972 120.126 180.41 117.457 181.21 115.015C182.009 112.573 184.844 111.354 187.494 112.275C190.093 113.179 191.537 115.81 190.765 118.166L190.766 118.167Z" fill="url(#paint11_linear_89_2)"/>
<path d="M223.019 151.459L189.315 143.233C186.485 142.542 183.518 143.906 182.737 146.289C181.956 148.673 183.68 151.109 186.537 151.718L220.559 158.971C222.758 159.44 225.057 158.158 225.726 156.115C226.395 154.071 225.197 151.99 223.018 151.459H223.019Z" fill="url(#paint12_linear_89_2)"/>
<g style="mix-blend-mode:soft-light">
<path d="M191.652 148.363C191.066 150.152 188.853 151.226 186.681 150.755C184.476 150.278 183.152 148.396 183.753 146.558C184.356 144.72 186.642 143.663 188.831 144.189C190.988 144.708 192.238 146.573 191.652 148.363Z" fill="#FAF4F1"/>
</g>
<path d="M58.7364 371.694L373.029 368.957V377.056C373.029 379.254 371.659 381.124 369.801 381.457L280.928 397.406C279.874 397.596 278.804 397.646 277.74 397.556L62.1511 379.373C60.2269 379.21 58.7352 377.335 58.7352 375.077V371.695L58.7364 371.694Z" fill="url(#paint13_linear_89_2)"/>
<path d="M159.912 358.566L369.571 373.382C373.322 373.647 376.372 370.83 376.372 367.089V217.208C376.372 213.467 373.322 210.434 369.571 210.434H159.912C156.821 210.434 154.322 213.175 154.322 216.557V352.048C154.322 355.429 156.821 358.348 159.912 358.566Z" fill="url(#paint14_linear_89_2)"/>
<path d="M156.568 358.566L366.227 373.382C369.979 373.647 373.029 370.83 373.029 367.089V217.208C373.029 213.467 369.979 210.434 366.227 210.434H156.568C153.478 210.434 150.979 213.175 150.979 216.557V352.048C150.979 355.429 153.478 358.348 156.568 358.566Z" fill="url(#paint15_linear_89_2)"/>
<path d="M163.1 349.014L358.376 361.884C361.428 362.084 363.91 359.773 363.91 356.719V225.498C363.91 222.444 361.428 219.958 358.376 219.946L163.1 219.137C160.551 219.127 158.488 221.373 158.488 224.154V343.673C158.488 346.455 160.551 348.846 163.1 349.014Z" fill="white"/>
<path d="M253.993 214.534C253.993 215.926 255.072 217.059 256.404 217.063C257.739 217.067 258.821 215.939 258.821 214.543C258.821 213.147 257.738 212.016 256.404 212.014C255.072 212.014 253.993 213.142 253.993 214.534Z" fill="white"/>
<path d="M161.8 357.893L373.029 373.489L280.929 390.017C279.875 390.206 278.806 390.257 277.741 390.167L58.7364 371.695L158.44 358C159.555 357.847 160.679 357.811 161.8 357.894V357.893Z" fill="url(#paint16_linear_89_2)"/>
<path style="mix-blend-mode:multiply" opacity="0.3" d="M342.207 373.881L166.352 360.705L111.927 368.12L286.267 382.206L342.207 373.881Z" fill="url(#paint17_linear_89_2)"/>
<path d="M158.464 244.508L363.933 247.061V223.85C363.933 221.247 361.823 219.137 359.22 219.137H163.176C160.574 219.137 158.464 221.247 158.464 223.85V244.509V244.508Z" fill="url(#paint18_linear_89_2)"/>
<path d="M235.115 306.692L351.284 311.491V256.617L235.115 254.669V306.692Z" fill="#D8DEE8"/>
<path d="M169.02 303.96L228.265 306.408V254.555L169.02 253.56V303.96Z" fill="#D8DEE8"/>
<path d="M169.02 341.371L351.284 352.223V318.658L169.02 310.542V341.371Z" fill="#D8DEE8"/>
<path d="M349.202 232.107C349.202 233.568 350.474 234.762 352.046 234.773C353.619 234.785 354.896 233.606 354.896 232.142C354.896 230.677 353.619 229.484 352.046 229.476C350.474 229.469 349.202 230.647 349.202 232.108V232.107Z" fill="url(#paint19_linear_89_2)"/>
<path d="M338.917 232.048C338.917 233.477 340.178 234.643 341.734 234.653C343.294 234.664 344.56 233.512 344.56 232.081C344.56 230.649 343.294 229.483 341.734 229.476C340.177 229.469 338.917 230.62 338.917 232.048Z" fill="url(#paint20_linear_89_2)"/>
<path d="M328.727 231.99C328.727 233.411 329.976 234.573 331.519 234.583C333.064 234.593 334.318 233.448 334.318 232.022C334.318 230.596 333.064 229.435 331.519 229.428C329.976 229.422 328.727 230.568 328.727 231.99Z" fill="url(#paint21_linear_89_2)"/>
<g style="mix-blend-mode:soft-light" opacity="0.48">
<path d="M207.083 317.458C223.245 308.762 235.954 319.781 248.219 308.908C255.656 302.317 252.004 297.402 261.154 287.551C271.287 276.641 277.885 280.309 288.069 270.49C300.946 258.075 294.507 248.415 305.599 239.501C319.055 228.687 333.568 238.696 346.377 228.326C351.901 223.853 354.933 217.35 356.516 210.434H369.049C371.246 210.434 373.029 212.214 373.029 214.41V369.776C373.029 371.971 371.246 373.625 369.049 373.47L155.372 358.303C154.323 358.228 153.394 357.616 152.797 356.728C168.439 356.158 178.048 350.915 184.191 345.494C196.207 334.89 194.124 324.432 207.082 317.46L207.083 317.458Z" fill="white"/>
</g>
<path d="M73.6598 240.165L97.0475 278.429L168.394 277.625L200.037 338.844L281.73 341.703L324.119 407.022C324.874 408.185 326.124 408.935 327.507 409.051L333.042 409.518C335.554 409.914 340.921 409.149 340.102 406.741L311.39 341.785L287.779 331.22L208.356 328.183L178.305 267.997L105.323 267.192L80.8608 230.035L73.6598 240.165Z" fill="url(#paint22_linear_89_2)"/>
<path d="M117.165 242.738L130.279 236.709L115.664 233.733L117.165 242.738Z" fill="url(#paint23_linear_89_2)"/>
<path d="M67.2064 230.035L60.3457 240.165H75.5691L80.7143 233.733L67.2064 230.035Z" fill="url(#paint24_linear_89_2)"/>
<path d="M58.7364 194.92L65.0964 190.207L67.8501 228.373L65.0964 233.278L60.3457 240.165L58.7364 194.92Z" fill="url(#paint25_linear_89_2)"/>
<path d="M237.471 323.771L204.53 332.771L172.887 271.551L205.828 262.551L237.471 323.771Z" fill="url(#paint26_linear_89_2)"/>
<path d="M363.747 402.412L339.087 409.15C336.48 409.863 333.711 408.808 332.239 406.54L286.222 335.63L319.163 326.629L365.447 397.951C366.538 399.631 365.678 401.885 363.747 402.412Z" fill="url(#paint27_linear_89_2)"/>
<path d="M319.163 326.629L286.222 335.63L204.53 332.771L237.471 323.771L319.163 326.629Z" fill="url(#paint28_linear_89_2)"/>
<path d="M205.828 262.551L172.887 271.551L101.54 272.356L134.481 263.356L205.828 262.551Z" fill="url(#paint29_linear_89_2)"/>
<path d="M130.279 236.709L117.792 236.051L134.481 263.356L101.54 272.357L78.0725 233.961L65.0964 233.278V190.207L130.279 236.709Z" fill="url(#paint30_linear_89_2)"/>
<g style="mix-blend-mode:multiply" opacity="0.3">
<path d="M225.974 321.551C216.507 313.952 207.918 318.576 201.864 312.366C196.686 307.056 202.045 302.73 196.123 289.633C191.301 278.969 184.23 274.058 182.806 273.101C180.978 271.873 179.22 270.955 177.641 270.253L205.829 262.552L237.472 323.771L230.124 325.778C229.035 324.38 227.674 322.915 225.976 321.551H225.974Z" fill="url(#paint31_linear_89_2)"/>
</g>
<path style="mix-blend-mode:multiply" opacity="0.3" d="M168.798 264.145C174.822 264.556 175.903 264.784 175.916 265.063C175.955 265.908 166.282 267.562 156.398 267.819C147.602 268.048 146.066 266.978 136.65 267.59C130.523 267.988 126.417 268.749 126.317 268.278C126.195 267.713 131.893 265.632 138.027 264.375C146.381 262.663 153.967 263.133 168.797 264.145H168.798Z" fill="url(#paint32_linear_89_2)"/>
<path style="mix-blend-mode:multiply" opacity="0.3" d="M336.193 371.838C331.098 363.527 329.219 355.057 320.349 350.942C313.557 347.791 308.936 350.104 302.898 346.12C298.197 343.019 295.65 338.087 294.204 333.45L319.163 326.629L363.613 395.123C348.267 387.682 340.49 378.845 336.193 371.838Z" fill="url(#paint33_linear_89_2)"/>
</g>
<defs>
<linearGradient id="paint0_linear_89_2" x1="293.561" y1="175.413" x2="309.389" y2="214.267" gradientUnits="userSpaceOnUse">
<stop stop-color="#045246"/>
<stop offset="1" stop-color="#029080"/>
</linearGradient>
<linearGradient id="paint1_linear_89_2" x1="297.619" y1="173.76" x2="313.448" y2="212.614" gradientUnits="userSpaceOnUse">
<stop stop-color="#045448"/>
<stop offset="1" stop-color="#029382"/>
</linearGradient>
<linearGradient id="paint2_linear_89_2" x1="343.912" y1="167.997" x2="315.061" y2="185.729" gradientUnits="userSpaceOnUse">
<stop stop-color="#036D5E"/>
<stop offset="1" stop-color="#00A896"/>
</linearGradient>
<linearGradient id="paint3_linear_89_2" x1="307.989" y1="118.621" x2="240.261" y2="243.997" gradientUnits="userSpaceOnUse">
<stop stop-color="#00A896"/>
<stop offset="1" stop-color="#036D5E"/>
</linearGradient>
<linearGradient id="paint4_linear_89_2" x1="263.392" y1="124.298" x2="197.686" y2="164.681" gradientUnits="userSpaceOnUse">
<stop stop-color="#043A31"/>
<stop offset="1" stop-color="#036D5E"/>
</linearGradient>
<linearGradient id="paint5_linear_89_2" x1="257.789" y1="152.655" x2="211.712" y2="138.857" gradientUnits="userSpaceOnUse">
<stop stop-color="#043A31"/>
<stop offset="1" stop-color="#036D5E"/>
</linearGradient>
<linearGradient id="paint6_linear_89_2" x1="266.708" y1="109.444" x2="223.031" y2="190.296" gradientUnits="userSpaceOnUse">
<stop stop-color="#E63946"/>
<stop offset="1" stop-color="#F36F56"/>
</linearGradient>
<linearGradient id="paint7_linear_89_2" x1="254.123" y1="117.582" x2="221.897" y2="177.238" gradientUnits="userSpaceOnUse">
<stop stop-color="#FFC444"/>
<stop offset="1" stop-color="#F36F56"/>
</linearGradient>
<linearGradient id="paint8_linear_89_2" x1="201.043" y1="130.132" x2="226.108" y2="172.836" gradientUnits="userSpaceOnUse">
<stop stop-color="#D5E38A"/>
<stop offset="1" stop-color="#F6D46E"/>
</linearGradient>
<linearGradient id="paint9_linear_89_2" x1="193.87" y1="106.667" x2="218.008" y2="131.253" gradientUnits="userSpaceOnUse">
<stop stop-color="#028D7C"/>
<stop offset="1" stop-color="#6AF5A0"/>
</linearGradient>
<linearGradient id="paint10_linear_89_2" x1="193.979" y1="123.48" x2="217.98" y2="164.368" gradientUnits="userSpaceOnUse">
<stop stop-color="#71F0AD"/>
<stop offset="1" stop-color="#028D7D"/>
</linearGradient>
<linearGradient id="paint11_linear_89_2" x1="184.212" y1="114.781" x2="210.86" y2="141.926" gradientUnits="userSpaceOnUse">
<stop stop-color="#B3E5E0"/>
<stop offset="1" stop-color="#B3E5E0"/>
</linearGradient>
<linearGradient id="paint12_linear_89_2" x1="195.97" y1="137.163" x2="225.159" y2="186.892" gradientUnits="userSpaceOnUse">
<stop stop-color="#7EF8B0"/>
<stop offset="1" stop-color="#D7A75E"/>
</linearGradient>
<linearGradient id="paint13_linear_89_2" x1="240.273" y1="383.776" x2="262.351" y2="393.049" gradientUnits="userSpaceOnUse">
<stop stop-color="#40447E"/>
<stop offset="1" stop-color="#3C3B6B"/>
</linearGradient>
<linearGradient id="paint14_linear_89_2" x1="269.754" y1="286.469" x2="293.715" y2="296.532" gradientUnits="userSpaceOnUse">
<stop stop-color="#40447E"/>
<stop offset="1" stop-color="#3C3B6B"/>
</linearGradient>
<linearGradient id="paint15_linear_89_2" x1="373.029" y1="291.916" x2="150.978" y2="291.916" gradientUnits="userSpaceOnUse">
<stop stop-color="#40447E"/>
<stop offset="1" stop-color="#3C3B6B"/>
</linearGradient>
<linearGradient id="paint16_linear_89_2" x1="373.029" y1="374.03" x2="58.7364" y2="374.03" gradientUnits="userSpaceOnUse">
<stop stop-color="#40447E"/>
<stop offset="1" stop-color="#3C3B6B"/>
</linearGradient>
<linearGradient id="paint17_linear_89_2" x1="342.207" y1="371.455" x2="111.927" y2="371.455" gradientUnits="userSpaceOnUse">
<stop stop-color="#40447E"/>
<stop offset="1" stop-color="#3C3B6B"/>
</linearGradient>
<linearGradient id="paint18_linear_89_2" x1="209.165" y1="177.423" x2="327.044" y2="303.897" gradientUnits="userSpaceOnUse">
<stop stop-color="#00A896"/>
<stop offset="1" stop-color="#036D5E"/>
</linearGradient>
<linearGradient id="paint19_linear_89_2" x1="354.896" y1="232.125" x2="349.202" y2="232.125" gradientUnits="userSpaceOnUse">
<stop stop-color="#444B8C"/>
<stop offset="1" stop-color="#26264F"/>
</linearGradient>
<linearGradient id="paint20_linear_89_2" x1="344.56" y1="232.065" x2="338.917" y2="232.065" gradientUnits="userSpaceOnUse">
<stop stop-color="#444B8C"/>
<stop offset="1" stop-color="#26264F"/>
</linearGradient>
<linearGradient id="paint21_linear_89_2" x1="334.318" y1="232.006" x2="328.727" y2="232.006" gradientUnits="userSpaceOnUse">
<stop stop-color="#444B8C"/>
<stop offset="1" stop-color="#26264F"/>
</linearGradient>
<linearGradient id="paint22_linear_89_2" x1="172.013" y1="256.361" x2="270.262" y2="422.155" gradientUnits="userSpaceOnUse">
<stop stop-color="#018B7A"/>
<stop offset="1" stop-color="#045246"/>
</linearGradient>
<linearGradient id="paint23_linear_89_2" x1="133.895" y1="257.018" x2="130.833" y2="251.814" gradientUnits="userSpaceOnUse">
<stop stop-color="#018B7A"/>
<stop offset="1" stop-color="#045246"/>
</linearGradient>
<linearGradient id="paint24_linear_89_2" x1="66.2673" y1="200.012" x2="69.9417" y2="231.852" gradientUnits="userSpaceOnUse">
<stop stop-color="#018B7A"/>
<stop offset="1" stop-color="#045246"/>
</linearGradient>
<linearGradient id="paint25_linear_89_2" x1="64.5807" y1="228.827" x2="57.2332" y2="174.943" gradientUnits="userSpaceOnUse">
<stop stop-color="#018B7A"/>
<stop offset="1" stop-color="#045246"/>
</linearGradient>
<linearGradient id="paint26_linear_89_2" x1="186.839" y1="263.959" x2="222.659" y2="329.785" gradientUnits="userSpaceOnUse">
<stop stop-color="#89FFB2"/>
<stop offset="1" stop-color="#00A795"/>
</linearGradient>
<linearGradient id="paint27_linear_89_2" x1="297.895" y1="323.645" x2="364.668" y2="426.756" gradientUnits="userSpaceOnUse">
<stop stop-color="#89FFB2"/>
<stop offset="1" stop-color="#00A795"/>
</linearGradient>
<linearGradient id="paint28_linear_89_2" x1="213.782" y1="321.19" x2="353.851" y2="345.99" gradientUnits="userSpaceOnUse">
<stop stop-color="#89FFB2"/>
<stop offset="1" stop-color="#00A795"/>
</linearGradient>
<linearGradient id="paint29_linear_89_2" x1="152.243" y1="253.374" x2="154.999" y2="280.317" gradientUnits="userSpaceOnUse">
<stop stop-color="#89FFB2"/>
<stop offset="1" stop-color="#00A795"/>
</linearGradient>
<linearGradient id="paint30_linear_89_2" x1="115.979" y1="258.246" x2="58.4203" y2="185.073" gradientUnits="userSpaceOnUse">
<stop stop-color="#89FFB2"/>
<stop offset="1" stop-color="#00A795"/>
</linearGradient>
<linearGradient id="paint31_linear_89_2" x1="189.59" y1="262.462" x2="225.411" y2="328.287" gradientUnits="userSpaceOnUse">
<stop stop-color="#89FFB2"/>
<stop offset="1" stop-color="#00A795"/>
</linearGradient>
<linearGradient id="paint32_linear_89_2" x1="145.9" y1="257.077" x2="155.925" y2="275.499" gradientUnits="userSpaceOnUse">
<stop stop-color="#89FFB2"/>
<stop offset="1" stop-color="#00A795"/>
</linearGradient>
<linearGradient id="paint33_linear_89_2" x1="300.727" y1="321.812" x2="367.5" y2="424.923" gradientUnits="userSpaceOnUse">
<stop stop-color="#89FFB2"/>
<stop offset="1" stop-color="#00A795"/>
</linearGradient>
<clipPath id="clip0_89_2">
<rect width="428" height="428" fill="white"/>
</clipPath>
</defs>
</svg>
