<?xml version="1.0" encoding="UTF-8"?>
<svg xmlns="http://www.w3.org/2000/svg" xmlns:xlink="http://www.w3.org/1999/xlink" viewBox="0 0 3710 3710">
  <defs>
    <style>
      .cls-1 {
        fill: url(#linear-gradient-2);
      }

      .cls-2, .cls-3 {
        fill: #fff;
      }

      .cls-4 {
        fill: #97a6b7;
      }

      .cls-5 {
        fill: url(#linear-gradient-6);
      }

      .cls-6 {
        isolation: isolate;
      }

      .cls-7 {
        mix-blend-mode: multiply;
        opacity: .3;
      }

      .cls-7, .cls-8 {
        fill: #d8dee8;
      }

      .cls-9 {
        fill: url(#linear-gradient-5);
      }

      .cls-10 {
        fill: url(#linear-gradient-7);
      }

      .cls-11 {
        fill: #f4f7fa;
      }

      .cls-12 {
        fill: url(#linear-gradient-3);
      }

      .cls-13 {
        fill: url(#linear-gradient);
      }

      .cls-14 {
        fill: url(#linear-gradient-4);
      }

      .cls-3 {
        mix-blend-mode: soft-light;
        opacity: .6;
      }

      .cls-15 {
        fill: url(#linear-gradient-8);
      }
    </style>
    <linearGradient id="linear-gradient" x1="1881.82" y1="3284.84" x2="1942.27" y2="2700.48" gradientUnits="userSpaceOnUse">
      <stop offset="0" stop-color="#444b8c"/>
      <stop offset="1" stop-color="#26264f"/>
    </linearGradient>
    <linearGradient id="linear-gradient-2" x1="1462.31" y1="1654.38" x2="824.22" y2="1728.26" gradientUnits="userSpaceOnUse">
      <stop offset="0" stop-color="#444b8c"/>
      <stop offset=".39" stop-color="#383c74"/>
      <stop offset="1" stop-color="#26264f"/>
    </linearGradient>
    <linearGradient id="linear-gradient-3" x1="503.01" y1="1689.32" x2="3099.73" y2="1689.32" xlink:href="#linear-gradient"/>
    <linearGradient id="linear-gradient-4" x1="2520.32" y1="534.67" x2="-1189.29" y2="5974.62" gradientUnits="userSpaceOnUse">
      <stop offset="0" stop-color="#00a896"/>
      <stop offset="1" stop-color="#036d5e"/>
    </linearGradient>
    <linearGradient id="linear-gradient-5" x1="1700.34" y1="551.3" x2="2421.4" y2="2339.12" gradientUnits="userSpaceOnUse">
      <stop offset="0" stop-color="#ffc444"/>
      <stop offset="1" stop-color="#f36f56"/>
    </linearGradient>
    <linearGradient id="linear-gradient-6" x1="1631.52" y1="1108.87" x2="2230.61" y2="1108.87" xlink:href="#linear-gradient-5"/>
    <linearGradient id="linear-gradient-7" x1="1669.76" y1="1255.28" x2="2192.36" y2="1255.28" xlink:href="#linear-gradient-5"/>
    <linearGradient id="linear-gradient-8" x1="1704.96" y1="1034.91" x2="3080.15" y2="470.73" xlink:href="#linear-gradient-5"/>
  </defs>
  <g class="cls-6">
    <g id="Illustration">
      <g id="Drop_shipper_receives_order" data-name="Drop shipper receives order">
        <path class="cls-11" d="m578.15,655.6c-21.42,148.35,449.3,328.17,417.61,401.17-24.19,55.7-275.26-78.75-425.39,21.81-187.55,125.63-153.3,700.48,120.91,1057.65,82.46,107.41,151.37,149.2,181.89,270.68,65.53,260.84-164.78,416.01-120.95,545.02,104.08,306.37,1630.46,483.77,2225.28-338.76,250.74-346.73,255.4-760.22,255.28-860.35-.19-166.4-.64-567.57-279.5-871.01-205.2-223.28-456.22-279.48-777.41-346.67-737.99-154.39-1570.19-70.15-1597.72,120.47Z"/>
        <g>
          <g>
            <path class="cls-4" d="m2185.08,2758.99c-38.94-12.92-68.04-45.96-76.25-86.58l-56.67-280.49-484.8,17.22-59.66,292.21c-8.36,40.92,25.09,81.98,63.62,97.05l202.83,79.36c37.72,14.76,78.28,20.64,118.58,17.19l428.65-36.67c12.53-1.07,22.58-10.92,24.04-23.56,1.46-12.64,10.24-26.83-1.71-30.79l-158.62-44.94Z"/>
            <path class="cls-13" d="m2189.88,2741.93c-38.9-12.75-67.97-45.38-76.17-85.49l-56.62-276.97-472.98,17.02-59.6,288.54c-8.35,40.41,13.74,80.93,52.22,95.81l202.62,78.36c37.69,14.57,78.2,20.38,118.46,16.98l428.22-36.21c12.52-1.06,22.56-10.78,24.02-23.26,1.46-12.48-6.07-24.26-18.01-28.17l-142.16-46.61Z"/>
          </g>
          <g>
            <g>
              <path class="cls-1" d="m576.75,2578.35c-52.57,3.13-95.58-30.97-95.58-76.04V877.8c0-45.07,43.01-79.88,95.58-77.6l2431.28,105.35c38.6,1.67,69.85,34.21,69.85,72.55v1381.63c0,38.33-31.25,71.38-69.85,73.69l-2431.28,144.94Z"/>
              <path class="cls-12" d="m598.6,2578.35c-52.57,3.13-95.58-30.97-95.58-76.04V877.8c0-45.07,43.01-79.88,95.58-77.6l2431.28,105.35c38.6,1.67,69.85,34.21,69.85,72.55v1381.63c0,38.33-31.25,71.38-69.85,73.69l-2431.28,144.94Z"/>
              <path class="cls-7" d="m3029.88,938.06l-2431.28-100.02c-28.11-1.16-50.96,17.41-50.96,41.48v1620.33c0,24.07,22.85,42.27,50.96,40.65l2431.28-139.61c20.69-1.19,37.42-18.82,37.42-39.39V976.84c0-20.57-16.73-37.93-37.42-38.78Z"/>
              <path class="cls-14" d="m598.6,2402.5c-10.94.54-19.85-6.64-19.85-16V880.73c0-9.36,8.91-16.63,19.85-16.19l2431.28,96.29c8.07.32,14.63,7.11,14.63,15.14v1291.07c0,8.03-6.56,14.88-14.63,15.28l-2431.28,120.19Z"/>
            </g>
            <path class="cls-3" d="m2776.06,2332.85c-204.54-126.53-61.68-486.27-291.38-667.02-231.59-182.23-557.46,41.27-719.68-147.45-120.79-140.52,20.55-310.19-94.79-442.34-180.87-207.24-643.88,77.78-856.6-126.38-30.2-28.99-60.68-72.97-78.03-143.52l-136.99-5.94c-52.57-2.28-95.58,32.53-95.58,77.6v1624.5c0,45.07,43.01,79.18,95.58,76.04l2431.28-144.94c38.6-2.3,69.85-35.35,69.85-73.69v-24.56c-161.44,54.78-260.13,37-323.67-2.3Z"/>
          </g>
          <g>
            <path class="cls-2" d="m2650.28,2218.86V555.42l-1495.46-74.79v1821.85c0,38.23-27.7,70.83-65.43,77h0l1480.54-74.79c45.21-2.98,80.36-40.52,80.36-85.83Z"/>
            <g>
              <g>
                <path class="cls-9" d="m2264.98,786.18c5.28.2,9.57,4.55,9.57,9.71v631.23c0,5.15-4.29,9.35-9.57,9.36l-672.57.97c-5.71,0-10.37-4.35-10.37-9.72v-657.43c0-5.37,4.65-9.56,10.37-9.35l672.57,25.24h0Zm0-35.8l-672.57-26.68c-27.68-1.1-50.16,19.09-50.16,45.12v658.94c0,26.02,22.49,47.02,50.16,46.93l672.57-2.41c25.49-.09,46.09-20.32,46.09-45.19v-629.85c0-24.87-20.6-45.84-46.09-46.85h0Z"/>
                <g>
                  <path class="cls-5" d="m2213.36,1149.33l-565.48-11.76c-9.19-.19-16.52-7.4-16.37-16.11l.66-37.64c.15-8.73,7.75-15.63,16.96-15.39l566.64,14.46c8.5.22,15.13,7.18,14.82,15.56l-1.33,36.09c-.31,8.35-7.42,14.97-15.91,14.8Z"/>
                  <path class="cls-10" d="m1669.76,1152.04l45.01,184.46c2.82,11.58,13.64,19.75,26.21,19.82l373.82,2.21c11.92.07,22.55-7.74,25.83-18.94l51.73-177.18-522.6-10.37Zm135.82,175.36c-.17,7.24-6.48,13.06-14.09,13l-13.16-.09c-7.64-.05-13.71-5.98-13.55-13.23l3.13-142.09c.16-7.33,6.52-13.15,14.2-13.01l13.22.25c7.66.14,13.72,6.18,13.55,13.49l-3.31,141.69Zm73.12.58c-.19,7.2-6.44,12.99-13.98,12.94l-13.02-.09c-7.56-.05-13.56-5.95-13.38-13.17l3.45-141.37c.18-7.29,6.49-13.09,14.09-12.95l13.09.24c7.58.14,13.57,6.15,13.38,13.42l-3.62,140.97Zm72.38.57c-.2,7.16-6.41,12.93-13.87,12.87l-12.89-.09c-7.48-.05-13.4-5.92-13.21-13.1l3.76-140.65c.19-7.25,6.46-13.02,13.98-12.88l12.96.24c7.5.14,13.41,6.12,13.21,13.35l-3.94,140.25Zm71.66.57c-.22,7.13-6.38,12.86-13.77,12.81l-12.76-.09c-7.41-.05-13.26-5.89-13.05-13.03l4.07-139.94c.21-7.22,6.43-12.95,13.87-12.82l12.83.24c7.43.14,13.27,6.09,13.05,13.28l-4.24,139.55Zm70.95.56c-.23,7.09-6.35,12.8-13.66,12.75l-12.64-.09c-7.34-.05-13.11-5.86-12.89-12.97l4.37-139.24c.23-7.18,6.39-12.89,13.77-12.75l12.7.24c7.35.14,13.12,6.05,12.89,13.21l-4.54,138.85Z"/>
                  <path class="cls-15" d="m1925.74,834.83c-57.58,3.51-99.56,53.61-93.58,111.88s57.62,102.36,115.17,98.49c57.35-3.86,98.88-53.93,92.93-111.84s-57.14-102.03-114.52-98.53Zm60.62,59.07l-36.92,95.17c-1.69,4.36-5.63,7.36-10.29,7.83-.15.02-.3.03-.45.04-4.51.3-8.95-1.82-11.69-5.59l-45.99-63.4c-4.31-5.94-3.15-14.08,2.59-18.17,5.73-4.09,13.87-2.6,18.18,3.34l31.9,44.01,28.58-73.58c2.57-6.6,10.04-9.63,16.7-6.77,6.66,2.86,9.97,10.53,7.41,17.13Z"/>
                </g>
              </g>
              <polygon class="cls-8" points="2485.14 1738.21 1347.57 1757.69 1347.57 1667.99 2485.14 1654.31 2485.14 1738.21"/>
              <polygon class="cls-8" points="2485.14 1864.47 1347.57 1892.67 1347.57 1802.97 2485.14 1780.57 2485.14 1864.47"/>
              <polygon class="cls-8" points="2485.14 1990.73 1347.57 2027.65 1347.57 1937.96 2485.14 1906.83 2485.14 1990.73"/>
            </g>
            <path class="cls-8" d="m2650.28,891.73c-1.86,0-3.36-1.5-3.36-3.36v-329.76l-1488.74-74.45v339.42c0,1.86-1.5,3.36-3.36,3.36s-3.36-1.5-3.36-3.36v-346.48l3.53.18,1498.65,74.95v336.15c0,1.86-1.5,3.36-3.36,3.36Z"/>
          </g>
        </g>
      </g>
    </g>
  </g>
</svg>