<svg width="430" height="430" viewBox="0 0 430 430" fill="none" xmlns="http://www.w3.org/2000/svg">
<path d="M375.265 207.535C380.732 235.429 391.811 291.963 365.297 329.783C317.917 397.365 155.542 394.464 84.3936 307.046C79.4248 300.94 37.752 248.046 50.4445 180.779C66.8007 94.0959 164.408 31.3808 241.873 48.3756C290.879 59.1268 322.25 99.672 334.98 116.145C340.398 123.155 365.206 156.202 375.265 207.535Z" fill="#F4F7FA"/>
<path d="M116.897 204.901C116.99 204.973 117.084 205.044 117.178 205.115C122.717 209.308 129.511 212.913 137.901 215.327C139.57 215.681 141.238 216.037 142.907 216.392C145.269 212.808 146.873 208.977 142.215 206.198C134.982 201.886 138.263 188.077 141.635 183.75C145.808 178.394 155.272 165.725 144.194 158.881C134.971 153.183 127.856 151.391 130.408 138.312C132.96 125.232 127.948 115.406 116.052 113.222C103.535 110.924 97.5706 91.9852 86.0997 94.9245C66.1111 100.045 74.8664 132.496 94.1677 146.125C113.469 159.754 99.2628 164.364 96.0233 174.778C91.6004 188.995 111.866 190.831 115.585 197.792C116.845 200.149 117.13 202.597 116.899 204.9L116.897 204.901Z" fill="url(#paint0_linear_117_3372)"/>
<g style="mix-blend-mode:soft-light" opacity="0.5">
<path d="M128.016 211.56L128.615 211.587C130.579 167.79 111.277 123.255 78.2426 95.3616L77.8555 95.8194C110.751 123.596 129.971 167.945 128.016 211.56Z" fill="#FCFDFE"/>
<path d="M127.041 187.59L127.623 187.735C131.778 171.015 149.332 161.539 149.509 161.445L149.229 160.915C149.049 161.01 131.262 170.607 127.042 187.59H127.041Z" fill="#FCFDFE"/>
<path d="M128.157 203.493L128.738 203.344C124.396 186.424 94.1213 176.658 93.8153 176.562L93.6346 177.133C93.9371 177.228 123.899 186.895 128.157 203.493Z" fill="#FCFDFE"/>
<path d="M115.374 146.235L115.966 146.136C113.68 132.469 126.45 115.487 126.579 115.317L126.101 114.954C125.97 115.125 113.045 132.316 115.373 146.235H115.374Z" fill="#FCFDFE"/>
<path d="M101.691 121.986L102.119 121.566C91.058 110.298 69.7377 109.706 69.5233 109.701L69.5105 110.3C69.7226 110.305 90.803 110.893 101.691 121.986Z" fill="#FCFDFE"/>
</g>
<mask id="mask0_117_3372" style="mask-type:luminance" maskUnits="userSpaceOnUse" x="79" y="55" width="90" height="179">
<path d="M152.826 233.472L123.09 233.371C123.09 233.371 117.544 218.098 124.868 207.357C139.81 185.444 119.575 173.886 111.824 167.778C100.134 158.566 93.8513 145.349 111.105 139.663C128.357 133.977 111.13 107.21 90.1076 95.0532C69.536 83.157 78.8129 39.7223 125.703 61.3834C153.705 74.3194 149.211 104.04 150.51 119.589C151.81 135.137 174.922 136.501 166.947 155.463C160.134 171.659 147.252 183.443 157.014 194.627C166.775 205.811 167.746 218.317 152.827 233.473L152.826 233.472Z" fill="white"/>
</mask>
<g mask="url(#mask0_117_3372)">
<path d="M158.752 231.343L129.076 233.243C129.076 233.243 122.515 218.379 129.1 207.169C142.534 184.3 121.566 174.13 113.422 168.557C101.139 160.153 95.2278 148.655 108.802 140.082C124.161 130.382 108.654 108.174 86.86 97.4589C65.5345 86.9738 71.8677 43.0134 120.109 61.4702C148.918 72.4926 146.434 102.449 148.777 117.874C151.12 133.3 174.271 133.106 167.59 152.561C161.882 169.179 149.823 181.803 160.315 192.305C170.807 202.807 172.617 215.219 158.752 231.344L158.752 231.343Z" fill="url(#paint1_linear_117_3372)"/>
<g style="mix-blend-mode:soft-light" opacity="0.5">
<path d="M139.947 236.187L139.33 236.072C139.402 235.69 146.412 197.399 141.916 157.344C137.775 120.443 122.734 74.4492 74.6056 64.8965L74.7273 64.281C96.1519 68.5335 112.914 80.2339 124.546 99.0589C133.839 114.097 139.893 133.687 142.541 157.286C147.045 197.433 140.018 235.805 139.947 236.187Z" fill="#BEB8F2"/>
<path d="M129.068 107.136L128.446 107.056C131.098 86.3316 123.299 56.8528 123.22 56.5573L123.826 56.395C123.905 56.6917 131.736 86.2899 129.068 107.136Z" fill="#BEB8F2"/>
<path d="M120.974 94.8052C99.8863 81.5679 80.1214 87.8174 79.9244 87.8823L79.7285 87.2866C79.929 87.2205 99.9616 80.8737 121.307 94.2744L120.974 94.8064V94.8052Z" fill="#BEB8F2"/>
<path d="M143.429 183.69C136.51 154.07 96.2817 146.674 95.883 146.635L95.9039 146.008C96.298 146.009 137.06 153.663 144.04 183.546L143.429 183.689V183.69Z" fill="#BEB8F2"/>
<path d="M143.665 171.151L143.051 171.021C147.068 152.031 167.725 139.026 167.934 138.896L168.266 139.429C168.059 139.557 147.627 152.425 143.666 171.151H143.665Z" fill="#BEB8F2"/>
<path d="M140.301 230.022C139.435 218.499 123.018 209.322 122.852 209.231L123.155 208.681C123.843 209.06 140.034 218.112 140.925 229.975L140.299 230.022H140.301Z" fill="#BEB8F2"/>
<path d="M142.083 220.977L141.464 220.869C143.032 211.868 156.68 201.882 161.164 198.601C161.798 198.137 162.345 197.736 162.429 197.646L162.896 198.064C162.78 198.194 162.417 198.461 161.535 199.106C157.101 202.35 143.607 212.225 142.083 220.976V220.977Z" fill="#BEB8F2"/>
</g>
</g>
<path d="M287.897 216.544C291.17 223.612 288.051 230.682 285.058 235.441C284.344 235.445 283.929 235.643 283.208 235.818C276.697 237.402 273.645 236.596 267.027 237.075C265.602 237.178 261.37 236.116 259.67 235.562L256.518 234.475C256.518 234.475 250.923 217.283 259.714 212.534C268.507 207.785 265.14 190.674 264.402 181.343C262.403 156.024 289.763 158.326 289.794 125.584C289.803 116.877 286.906 100.266 294.249 93.3308C302.613 85.4286 308.719 93.1802 314.097 86.5725C322.503 76.2444 336.144 72.5402 344.275 83.1685C352.3 93.6588 342.549 114.541 318.309 131.324C302.283 145.334 302.033 149.529 303.294 159.743C304.177 166.898 311.002 185.535 301.291 192.978C291.579 200.421 284.157 208.463 287.899 216.543L287.897 216.544Z" fill="url(#paint2_linear_117_3372)"/>
<g style="mix-blend-mode:soft-light" opacity="0.5">
<path d="M270.471 237.341L269.988 237.281C270.347 234.402 270.745 231.503 271.169 228.665C274.317 207.648 279.313 187.686 286.02 169.333C291.702 153.782 298.688 139.166 306.784 125.889C313.294 115.213 320.555 105.342 328.364 96.5506C333.853 90.3707 339.555 84.783 345.311 79.9441C346.313 79.1003 347.387 78.2948 348.424 77.5147C349.807 76.4762 351.236 75.4018 352.511 74.2312L352.84 74.5905C351.548 75.7773 350.108 76.8587 348.717 77.9053C347.685 78.6807 346.617 79.4839 345.625 80.3184C339.888 85.1411 334.203 90.7126 328.729 96.8752C320.939 105.646 313.696 115.493 307.2 126.144C299.12 139.393 292.148 153.979 286.477 169.501C279.783 187.823 274.794 207.754 271.651 228.738C271.227 231.573 270.829 234.467 270.471 237.343V237.341Z" fill="#FEEBEA"/>
<path d="M298.019 142.7L297.579 142.493C306.456 123.573 298.661 88.617 298.581 88.267L299.056 88.1592C299.136 88.5115 306.969 123.629 298.02 142.701L298.019 142.7Z" fill="#FEEBEA"/>
<path d="M277.826 197.805L277.364 197.651C281.892 184.086 307.285 173.616 307.542 173.511L307.725 173.962C307.471 174.065 282.283 184.452 277.825 197.804L277.826 197.805Z" fill="#FEEBEA"/>
<path d="M275.922 205.723L275.44 205.652C276.783 196.415 273.68 183.099 266.702 168.159C266.468 167.658 266.355 167.377 266.364 167.316L266.847 167.38L266.606 167.348L266.841 167.287C266.858 167.34 266.991 167.623 267.145 167.953C274.163 182.978 277.28 196.392 275.923 205.722L275.922 205.723Z" fill="#FEEBEA"/>
<path d="M271.2 232.097L270.759 231.892C275.089 222.566 289.887 218.886 290.036 218.85L290.15 219.323C290.003 219.359 275.431 222.985 271.2 232.097Z" fill="#FEEBEA"/>
<path d="M269.735 237.38C267.9 229.294 263.684 221.472 256.846 213.464L257.216 213.148C264.108 221.217 268.358 229.108 270.21 237.272L269.735 237.38Z" fill="#FEEBEA"/>
<path d="M324.214 102.128L323.785 101.897C329.307 91.6525 332.734 79.6101 333.86 75.6532C334.132 74.6947 334.229 74.3586 334.284 74.2473L334.722 74.4606C334.681 74.5463 334.526 75.0934 334.329 75.7877C333.199 79.7573 329.762 91.8379 324.215 102.129L324.214 102.128Z" fill="#FEEBEA"/>
<path d="M312.772 117.456L312.43 117.11C320.207 109.454 342.032 109.699 342.958 109.713L342.95 110.199C342.725 110.196 320.404 109.943 312.772 117.456Z" fill="#FEEBEA"/>
</g>
<mask id="mask1_117_3372" style="mask-type:luminance" maskUnits="userSpaceOnUse" x="244" y="121" width="124" height="166">
<path d="M249.277 277.777L277.651 286.67C277.651 286.67 287.555 273.788 283.821 261.337C276.203 235.931 298.986 231.033 308.221 227.554C322.149 222.307 332.134 211.608 317.407 200.972C302.681 190.337 327.194 170.031 350.909 164.798C374.115 159.677 378.403 115.471 327.159 121.942C296.556 125.806 291.854 155.494 285.915 169.922C279.976 184.35 257.532 178.663 259.402 199.148C261 216.646 269.715 231.772 257.03 239.482C244.344 247.192 239.637 258.82 249.277 277.776V277.777Z" fill="white"/>
</mask>
<g mask="url(#mask1_117_3372)">
<path d="M249.277 277.777L277.651 286.67C277.651 286.67 287.555 273.788 283.821 261.337C276.203 235.931 298.986 231.033 308.221 227.554C322.149 222.307 330.621 212.542 319.471 200.99C306.855 187.919 327.194 170.03 350.909 164.798C374.115 159.677 378.403 115.471 327.159 121.942C296.556 125.806 291.854 155.494 285.915 169.922C279.976 184.35 257.532 178.663 259.402 199.148C261 216.646 269.715 231.772 257.03 239.482C244.344 247.192 239.637 258.82 249.277 277.776V277.777Z" fill="url(#paint3_linear_117_3372)"/>
<g style="mix-blend-mode:soft-light" opacity="0.5">
<path d="M260.733 284.259L261.357 284.336C261.404 283.95 266.299 245.331 282.693 208.51C297.798 174.587 326.039 135.294 374.804 140.739L374.873 140.115C353.166 137.691 333.651 143.778 316.871 158.204C303.466 169.728 291.773 186.573 282.115 208.266C265.684 245.172 260.782 283.873 260.733 284.259Z" fill="#F2C4A7"/>
<path d="M310.119 164.536L310.737 164.648C314.475 144.092 330.822 118.351 330.986 118.093L330.458 117.754C330.292 118.013 313.88 143.859 310.12 164.536H310.119Z" fill="#F2C4A7"/>
<path d="M321.562 155.23C345.666 148.988 362.615 160.921 362.783 161.042L363.151 160.533C362.98 160.41 345.803 148.303 321.405 154.623L321.562 155.23Z" fill="#F2C4A7"/>
<path d="M273.285 233.167C288.835 207.024 329.417 212.138 329.809 212.22L329.979 211.616C329.603 211.498 288.435 206.471 272.746 232.846L273.285 233.167Z" fill="#F2C4A7"/>
<path d="M276.852 221.142L277.476 221.203C279.389 201.888 263.629 183.245 263.469 183.06L262.993 183.468C263.151 183.652 278.737 202.095 276.852 221.142Z" fill="#F2C4A7"/>
<path d="M262.259 278.276C266.569 267.554 284.99 263.77 285.177 263.733L285.054 263.117C284.283 263.27 266.113 267.005 261.678 278.042L262.261 278.276H262.259Z" fill="#F2C4A7"/>
<path d="M263.296 269.115L263.918 269.2C265.144 260.147 255.155 246.501 251.872 242.017C251.409 241.383 251.008 240.836 250.955 240.725L250.383 240.982C250.455 241.141 250.719 241.505 251.365 242.387C254.61 246.82 264.487 260.311 263.294 269.114L263.296 269.115Z" fill="#F2C4A7"/>
</g>
</g>
<path d="M276.135 284.964C276.029 285.013 275.923 285.062 275.817 285.112C269.506 288.018 262.096 290.078 253.384 290.634C251.677 290.622 249.971 290.61 248.266 290.599C246.73 286.591 245.985 282.504 251.132 280.792C259.123 278.133 258.884 263.943 256.521 258.993C253.594 252.867 247.075 238.46 259.364 234.155C269.595 230.572 276.929 230.35 277.246 217.027C277.563 203.704 284.57 195.184 296.656 195.607C309.375 196.052 319.269 178.836 329.84 184.171C348.262 193.465 332.74 223.278 310.962 232.443C289.184 241.608 302.067 249.164 302.995 260.029C304.26 274.865 284.073 272.304 278.946 278.304C277.209 280.336 276.405 282.665 276.136 284.964H276.135Z" fill="url(#paint4_linear_117_3372)"/>
<g style="mix-blend-mode:soft-light" opacity="0.5">
<path d="M263.845 289.078L263.254 288.976C270.744 245.78 299.162 206.431 337.417 186.285L337.696 186.816C299.602 206.877 271.303 246.063 263.845 289.079V289.078Z" fill="#FCFDFE"/>
<path d="M269.946 265.878L269.347 265.894C268.88 248.671 253.772 235.646 253.62 235.516L254.008 235.059C254.162 235.19 269.473 248.383 269.947 265.878H269.946Z" fill="#FCFDFE"/>
<path d="M265.44 281.17L264.904 280.9C272.779 265.309 304.446 262.273 304.764 262.245L304.819 262.842C304.504 262.871 273.165 265.875 265.44 281.17Z" fill="#FCFDFE"/>
<path d="M290.224 227.994L289.668 227.77C294.836 214.913 286.013 195.584 285.922 195.39L286.466 195.138C286.556 195.334 295.488 214.899 290.224 227.994Z" fill="#FCFDFE"/>
<path d="M308.798 207.25L308.47 206.749C321.692 198.12 342.643 202.121 342.854 202.162L342.738 202.751C342.53 202.709 321.815 198.756 308.798 207.25Z" fill="#FCFDFE"/>
</g>
<path d="M288.572 55.7576V347.041C288.572 351.397 284.85 352.335 280.63 352.473L135.995 359.953L133.804 360.025C129.308 360.172 125.623 356.605 125.623 352.097V50.7019C125.623 46.1944 129.307 42.6281 133.804 42.7741L136.778 42.8715L281.943 54.1616C286.163 54.2995 288.573 51.4008 288.573 55.7564L288.572 55.7576Z" fill="url(#paint5_linear_117_3372)"/>
<path d="M293.078 55.7576V347.043C293.078 351.398 289.631 355.076 285.411 355.214L138.309 360.026C133.813 360.173 130.128 356.606 130.128 352.098V50.7019C130.128 46.1944 133.812 42.6281 138.309 42.7741L285.411 47.5864C289.631 47.7243 293.078 51.4008 293.078 55.7576Z" fill="url(#paint6_linear_117_3372)"/>
<path d="M288.317 71.7707V341.611C288.317 345.678 285.096 349.107 281.153 349.231L142.831 353.576C138.645 353.707 135.216 350.379 135.216 346.18V67.5472C135.216 63.3481 138.645 60.0124 142.831 60.1341L281.153 64.1675C285.096 64.2823 288.317 67.7037 288.317 71.7707Z" fill="url(#paint7_linear_117_3372)"/>
<path d="M215.726 54.2473C215.726 55.7819 214.503 56.9896 212.994 56.9432C211.483 56.898 210.258 55.615 210.258 54.0781C210.258 52.5412 211.483 51.3347 212.994 51.3822C214.503 51.4297 215.726 52.7128 215.726 54.2473Z" fill="#DE8BDF"/>
<path style="mix-blend-mode:multiply" opacity="0.3" d="M293.078 55.5918C293.078 51.2686 289.648 47.7255 285.329 47.5852L205.11 44.9612C234.866 76.4937 241.556 102.949 242.319 121.028C244.5 172.633 200.043 195.116 208.309 251.551C210.575 267.022 215.586 276.739 217.544 303.465C219.213 326.251 217.469 345.109 215.73 357.495L285.411 355.215C289.631 355.077 293.078 351.401 293.078 347.044V55.5918Z" fill="url(#paint8_linear_117_3372)"/>
<path style="mix-blend-mode:multiply" opacity="0.3" d="M174.304 200.971C175.15 176.114 166.633 165.723 164.375 163.176C162.781 161.379 161.304 160.105 150.282 151.006C142.094 144.245 135.268 138.641 130.424 134.67C130.326 204.306 130.227 273.94 130.129 343.576C133.429 316.848 139.772 296.69 144.597 283.819C158.106 247.788 173.219 232.865 174.304 200.97V200.971Z" fill="url(#paint9_linear_117_3372)"/>
<path d="M201.301 225.944L170.876 212.715V205.389L201.301 192.22V200.848L180.079 208.961L201.301 217.377V225.944ZM204.116 231.757L215.105 185.862H221.493L210.383 231.757H204.116ZM224.339 225.975V217.407L245.591 209.052L224.339 200.787V192.28L254.794 205.449V212.715L224.339 225.975Z" fill="white"/>
<defs>
<linearGradient id="paint0_linear_117_3372" x1="100.539" y1="104.46" x2="136.975" y2="219.487" gradientUnits="userSpaceOnUse">
<stop stop-color="#90DFEF"/>
<stop offset="1" stop-color="#79C7D7"/>
</linearGradient>
<linearGradient id="paint1_linear_117_3372" x1="95.1862" y1="62.0196" x2="165.027" y2="226.133" gradientUnits="userSpaceOnUse">
<stop stop-color="#91E0F0"/>
<stop offset="1" stop-color="#60ADBC"/>
</linearGradient>
<linearGradient id="paint2_linear_117_3372" x1="330.986" y1="73.3415" x2="244.743" y2="261.925" gradientUnits="userSpaceOnUse">
<stop stop-color="#8FDEEE"/>
<stop offset="1" stop-color="#8CDBEB"/>
</linearGradient>
<linearGradient id="paint3_linear_117_3372" x1="351.289" y1="128.332" x2="244.484" y2="271.181" gradientUnits="userSpaceOnUse">
<stop stop-color="#6EBCCB"/>
<stop offset="1" stop-color="#2D5E67"/>
</linearGradient>
<linearGradient id="paint4_linear_117_3372" x1="313.698" y1="190.418" x2="253.412" y2="294.939" gradientUnits="userSpaceOnUse">
<stop stop-color="#90E0EF"/>
<stop offset="1" stop-color="#2B92A6"/>
</linearGradient>
<linearGradient id="paint5_linear_117_3372" x1="322.566" y1="303.413" x2="183.178" y2="184.51" gradientUnits="userSpaceOnUse">
<stop stop-color="#444B8C"/>
<stop offset="1" stop-color="#26264F"/>
</linearGradient>
<linearGradient id="paint6_linear_117_3372" x1="206.169" y1="344.974" x2="225.276" y2="-168.67" gradientUnits="userSpaceOnUse">
<stop stop-color="#444B8C"/>
<stop offset="1" stop-color="#26264F"/>
</linearGradient>
<linearGradient id="paint7_linear_117_3372" x1="135.216" y1="206.856" x2="288.317" y2="206.856" gradientUnits="userSpaceOnUse">
<stop stop-color="#00A896"/>
<stop offset="1" stop-color="#036D5E"/>
</linearGradient>
<linearGradient id="paint8_linear_117_3372" x1="205.109" y1="201.226" x2="293.078" y2="201.226" gradientUnits="userSpaceOnUse">
<stop stop-color="#FF9085"/>
<stop offset="1" stop-color="#FB6FBB"/>
</linearGradient>
<linearGradient id="paint9_linear_117_3372" x1="129.105" y1="239.08" x2="203.983" y2="241.865" gradientUnits="userSpaceOnUse">
<stop stop-color="#FF9085"/>
<stop offset="1" stop-color="#FB6FBB"/>
</linearGradient>
</defs>
</svg>
