<svg width="430" height="430" viewBox="0 0 430 430" fill="none" xmlns="http://www.w3.org/2000/svg">
<path d="M54.7352 207.535C49.268 235.429 38.1889 291.963 64.7028 329.783C112.083 397.365 274.458 394.464 345.606 307.046C350.575 300.94 392.248 248.046 379.555 180.779C363.199 94.0959 265.592 31.3808 188.127 48.3756C139.121 59.1268 107.75 99.672 95.0196 116.145C89.6023 123.155 64.7944 156.202 54.7352 207.535Z" fill="#F4F7FA"/>
<path d="M313.103 204.901C313.01 204.973 312.916 205.044 312.822 205.115C307.283 209.308 300.489 212.913 292.099 215.327C290.43 215.681 288.762 216.037 287.093 216.392C284.731 212.808 283.127 208.977 287.785 206.198C295.018 201.886 291.737 188.077 288.365 183.75C284.192 178.394 274.728 165.725 285.806 158.881C295.029 153.183 302.144 151.391 299.592 138.312C297.04 125.232 302.052 115.406 313.948 113.222C326.465 110.924 332.429 91.9852 343.9 94.9245C363.889 100.045 355.134 132.496 335.832 146.125C316.531 159.754 330.737 164.364 333.977 174.778C338.4 188.995 318.134 190.831 314.415 197.792C313.155 200.149 312.87 202.597 313.101 204.9L313.103 204.901Z" fill="url(#paint0_linear_117_3372)"/>
<g style="mix-blend-mode:soft-light" opacity="0.5">
<path d="M301.984 211.56L301.385 211.587C299.421 167.79 318.723 123.255 351.757 95.3616L352.145 95.8194C319.249 123.596 300.029 167.945 301.984 211.56Z" fill="#FCFDFE"/>
<path d="M302.959 187.59L302.377 187.735C298.222 171.015 280.668 161.539 280.491 161.445L280.771 160.915C280.951 161.01 298.738 170.607 302.958 187.59H302.959Z" fill="#FCFDFE"/>
<path d="M301.843 203.493L301.262 203.344C305.604 186.424 335.879 176.658 336.185 176.562L336.365 177.133C336.063 177.228 306.101 186.895 301.843 203.493Z" fill="#FCFDFE"/>
<path d="M314.626 146.235L314.034 146.136C316.32 132.469 303.55 115.487 303.421 115.317L303.899 114.954C304.03 115.125 316.955 132.316 314.627 146.235H314.626Z" fill="#FCFDFE"/>
<path d="M328.309 121.986L327.881 121.566C338.942 110.298 360.262 109.706 360.477 109.701L360.489 110.3C360.277 110.305 339.197 110.893 328.309 121.986Z" fill="#FCFDFE"/>
</g>
<mask id="mask0_117_3372" style="mask-type:luminance" maskUnits="userSpaceOnUse" x="261" y="55" width="90" height="179">
<path d="M277.174 233.472L306.91 233.371C306.91 233.371 312.456 218.098 305.132 207.357C290.19 185.444 310.425 173.886 318.176 167.778C329.866 158.566 336.149 145.349 318.895 139.663C301.643 133.977 318.87 107.21 339.892 95.0532C360.464 83.157 351.187 39.7223 304.297 61.3834C276.295 74.3194 280.789 104.04 279.49 119.589C278.19 135.137 255.078 136.501 263.053 155.463C269.866 171.659 282.748 183.443 272.986 194.627C263.225 205.811 262.254 218.317 277.173 233.473L277.174 233.472Z" fill="white"/>
</mask>
<g mask="url(#mask0_117_3372)">
<path d="M277.174 233.472L306.91 233.371C306.91 233.371 312.456 218.098 305.132 207.357C290.19 185.444 310.425 173.886 318.176 167.778C329.866 158.566 334.99 146.696 320.869 139.056C304.892 130.412 318.87 107.21 339.894 95.0532C360.465 83.157 351.188 39.7223 304.299 61.3834C276.296 74.3194 280.79 104.04 279.491 119.589C278.191 135.137 255.079 136.501 263.055 155.463C269.867 171.659 282.749 183.443 272.987 194.627C263.226 205.811 262.255 218.317 277.174 233.473V233.472Z" fill="url(#paint1_linear_117_3372)"/>
<g style="mix-blend-mode:soft-light" opacity="0.5">
<path d="M290.053 236.187L290.67 236.072C290.598 235.69 283.588 197.399 288.084 157.344C292.225 120.443 307.266 74.4492 355.394 64.8965L355.273 64.281C333.848 68.5335 317.086 80.2339 305.454 99.0588C296.161 114.097 290.107 133.687 287.459 157.286C282.955 197.433 289.982 235.805 290.053 236.187Z" fill="#BEB8F2"/>
<path d="M300.932 107.136L301.554 107.056C298.902 86.3316 306.701 56.8528 306.78 56.5573L306.174 56.395C306.095 56.6917 298.264 86.2899 300.932 107.136Z" fill="#BEB8F2"/>
<path d="M309.026 94.8052C330.114 81.5679 349.879 87.8174 350.076 87.8823L350.272 87.2866C350.071 87.2205 330.038 80.8737 308.693 94.2744L309.026 94.8064V94.8052Z" fill="#BEB8F2"/>
<path d="M286.571 183.69C293.49 154.07 333.718 146.674 334.117 146.635L334.096 146.008C333.702 146.009 292.94 153.663 285.96 183.546L286.571 183.689V183.69Z" fill="#BEB8F2"/>
<path d="M286.335 171.151L286.949 171.021C282.932 152.031 262.275 139.026 262.066 138.896L261.734 139.429C261.941 139.557 282.373 152.425 286.334 171.151H286.335Z" fill="#BEB8F2"/>
<path d="M289.699 230.022C290.565 218.499 306.982 209.322 307.148 209.231L306.845 208.681C306.157 209.06 289.966 218.112 289.075 229.975L289.701 230.022H289.699Z" fill="#BEB8F2"/>
<path d="M287.917 220.977L288.536 220.869C286.968 211.868 273.32 201.882 268.836 198.601C268.202 198.137 267.655 197.736 267.571 197.646L267.104 198.064C267.22 198.194 267.583 198.461 268.465 199.106C272.899 202.35 286.393 212.225 287.917 220.976V220.977Z" fill="#BEB8F2"/>
</g>
</g>
<path d="M142.103 216.544C138.83 223.612 141.949 230.682 144.942 235.441C145.656 235.445 146.071 235.643 146.792 235.818C153.303 237.402 156.355 236.596 162.973 237.075C164.398 237.178 168.63 236.116 170.33 235.562L173.482 234.475C173.482 234.475 179.077 217.283 170.286 212.534C161.493 207.785 164.86 190.674 165.598 181.343C167.597 156.024 140.237 158.326 140.205 125.584C140.197 116.877 143.094 100.266 135.751 93.3308C127.387 85.4286 121.281 93.1802 115.903 86.5725C107.497 76.2444 93.8559 72.5402 85.7253 83.1685C77.7002 93.6588 87.4511 114.541 111.691 131.324C127.717 145.334 127.967 149.529 126.706 159.743C125.823 166.898 118.998 185.535 128.709 192.978C138.421 200.421 145.843 208.463 142.101 216.543L142.103 216.544Z" fill="url(#paint2_linear_117_3372)"/>
<g style="mix-blend-mode:soft-light" opacity="0.5">
<path d="M159.529 237.341L160.012 237.281C159.653 234.402 159.255 231.503 158.831 228.665C155.683 207.648 150.687 187.686 143.98 169.333C138.298 153.782 131.312 139.166 123.216 125.889C116.706 115.213 109.445 105.342 101.636 96.5506C96.1473 90.3707 90.4449 84.783 84.6891 79.9441C83.6866 79.1003 82.6133 78.2948 81.576 77.5147C80.1932 76.4762 78.7642 75.4018 77.4892 74.2312L77.1601 74.5905C78.4524 75.7773 79.8919 76.8587 81.2827 77.9053C82.3154 78.6807 83.3829 79.4839 84.375 80.3184C90.1122 85.1411 95.7973 90.7126 101.271 96.8752C109.061 105.646 116.304 115.493 122.8 126.144C130.88 139.393 137.852 153.979 143.523 169.501C150.217 187.823 155.206 207.754 158.349 228.738C158.773 231.573 159.171 234.467 159.529 237.343V237.341Z" fill="#FEEBEA"/>
<path d="M131.981 142.7L132.421 142.493C123.544 123.573 131.339 88.617 131.419 88.267L130.944 88.1592C130.864 88.5115 123.031 123.629 131.98 142.701L131.981 142.7Z" fill="#FEEBEA"/>
<path d="M152.174 197.805L152.636 197.651C148.108 184.086 122.715 173.616 122.458 173.511L122.275 173.962C122.529 174.065 147.717 184.452 152.175 197.804L152.174 197.805Z" fill="#FEEBEA"/>
<path d="M154.078 205.723L154.56 205.652C153.217 196.415 156.319 183.099 163.298 168.159C163.532 167.658 163.645 167.377 163.636 167.316L163.153 167.38L163.394 167.348L163.159 167.287C163.142 167.34 163.009 167.623 162.855 167.953C155.837 182.978 152.72 196.392 154.077 205.722L154.078 205.723Z" fill="#FEEBEA"/>
<path d="M158.8 232.097L159.241 231.892C154.911 222.566 140.113 218.886 139.964 218.85L139.85 219.323C139.997 219.359 154.569 222.985 158.8 232.097Z" fill="#FEEBEA"/>
<path d="M160.265 237.38C162.1 229.294 166.316 221.472 173.154 213.464L172.783 213.148C165.892 221.217 161.642 229.108 159.79 237.272L160.265 237.38Z" fill="#FEEBEA"/>
<path d="M105.786 102.128L106.215 101.897C100.693 91.6525 97.2658 79.6101 96.1403 75.6532C95.868 74.6947 95.7706 74.3586 95.7161 74.2473L95.278 74.4606C95.3186 74.5463 95.4739 75.0934 95.6709 75.7877C96.801 79.7573 100.238 91.8379 105.785 102.129L105.786 102.128Z" fill="#FEEBEA"/>
<path d="M117.228 117.456L117.57 117.11C109.793 109.454 87.968 109.699 87.042 109.713L87.0501 110.199C87.2749 110.196 109.596 109.943 117.228 117.456Z" fill="#FEEBEA"/>
</g>
<mask id="mask1_117_3372" style="mask-type:luminance" maskUnits="userSpaceOnUse" x="62" y="121" width="124" height="166">
<path d="M180.723 277.777L152.349 286.67C152.349 286.67 142.445 273.788 146.179 261.337C153.797 235.931 131.014 231.033 121.779 227.554C107.851 222.307 97.8661 211.608 112.593 200.972C127.319 190.337 102.806 170.031 79.091 164.798C55.8849 159.677 51.5965 115.471 102.841 121.942C133.444 125.806 138.146 155.494 144.085 169.922C150.024 184.35 172.468 178.663 170.598 199.148C169 216.646 160.285 231.772 172.97 239.482C185.656 247.192 190.362 258.82 180.723 277.776V277.777Z" fill="white"/>
</mask>
<g mask="url(#mask1_117_3372)">
<path d="M180.723 277.777L152.349 286.67C152.349 286.67 142.445 273.788 146.179 261.337C153.797 235.931 131.014 231.033 121.779 227.554C107.851 222.307 99.3787 212.542 110.529 200.99C123.145 187.919 102.806 170.03 79.091 164.798C55.8849 159.677 51.5965 115.471 102.841 121.942C133.444 125.806 138.146 155.494 144.085 169.922C150.024 184.35 172.468 178.663 170.598 199.148C169 216.646 160.285 231.772 172.97 239.482C185.656 247.192 190.362 258.82 180.723 277.776V277.777Z" fill="url(#paint3_linear_117_3372)"/>
<g style="mix-blend-mode:soft-light" opacity="0.5">
<path d="M169.267 284.259L168.643 284.336C168.596 283.95 163.701 245.331 147.307 208.51C132.202 174.587 103.961 135.294 55.1965 140.739L55.1269 140.115C76.8344 137.691 96.349 143.778 113.129 158.204C126.534 169.728 138.227 186.573 147.885 208.266C164.316 245.172 169.218 283.873 169.267 284.259Z" fill="#F2C4A7"/>
<path d="M119.881 164.536L119.263 164.648C115.525 144.092 99.1782 118.351 99.0136 118.093L99.5421 117.754C99.7078 118.013 116.12 143.859 119.88 164.536H119.881Z" fill="#F2C4A7"/>
<path d="M108.438 155.23C84.3345 148.988 67.3848 160.921 67.2168 161.042L66.8493 160.533C67.0197 160.41 84.1965 148.303 108.595 154.623L108.438 155.23Z" fill="#F2C4A7"/>
<path d="M156.715 233.167C141.165 207.024 100.583 212.138 100.191 212.22L100.021 211.616C100.397 211.498 141.565 206.471 157.254 232.846L156.715 233.167Z" fill="#F2C4A7"/>
<path d="M153.148 221.142L152.524 221.203C150.611 201.888 166.371 183.245 166.531 183.06L167.007 183.468C166.849 183.652 151.263 202.095 153.148 221.142Z" fill="#F2C4A7"/>
<path d="M167.741 278.276C163.431 267.554 145.01 263.77 144.823 263.733L144.946 263.117C145.717 263.27 163.887 267.005 168.322 278.042L167.739 278.276H167.741Z" fill="#F2C4A7"/>
<path d="M166.704 269.115L166.082 269.2C164.856 260.147 174.845 246.501 178.128 242.017C178.591 241.383 178.992 240.836 179.045 240.725L179.617 240.982C179.545 241.141 179.281 241.505 178.635 242.387C175.39 246.82 165.513 260.311 166.706 269.114L166.704 269.115Z" fill="#F2C4A7"/>
</g>
</g>
<path d="M153.865 284.964C153.971 285.013 154.077 285.062 154.183 285.112C160.494 288.018 167.904 290.078 176.616 290.634C178.323 290.622 180.029 290.61 181.734 290.599C183.27 286.591 184.015 282.504 178.868 280.792C170.877 278.133 171.116 263.943 173.479 258.993C176.405 252.867 182.925 238.46 170.636 234.155C160.405 230.572 153.071 230.35 152.754 217.027C152.437 203.704 145.43 195.184 133.344 195.607C120.625 196.052 110.731 178.836 100.16 184.171C81.7383 193.465 97.26 223.278 119.038 232.443C140.816 241.608 127.933 249.164 127.005 260.029C125.74 274.865 145.926 272.304 151.054 278.304C152.791 280.336 153.595 282.665 153.864 284.964H153.865Z" fill="url(#paint4_linear_117_3372)"/>
<mask id="mask2_117_3372" style="mask-type:luminance" maskUnits="userSpaceOnUse" x="91" y="183" width="92" height="111">
<path d="M153.029 293.135L180.695 293.763C182.395 289.884 184.617 282.705 178.87 280.793C170.878 278.135 171.117 263.945 173.48 258.994C176.407 252.868 182.926 238.461 170.637 234.156C160.406 230.573 153.072 230.351 152.755 217.028C152.438 203.705 145.432 195.185 133.345 195.608C120.626 196.053 110.733 178.837 100.161 184.172C81.7394 193.466 97.2611 223.279 119.039 232.445C140.817 241.609 127.934 249.165 127.006 260.031C125.741 274.866 145.928 272.305 151.055 278.305C155.076 283.008 154.11 289.301 153.029 293.136V293.135Z" fill="white"/>
</mask>
<g mask="url(#mask2_117_3372)">
<g style="mix-blend-mode:soft-light" opacity="0.5">
<path d="M166.155 289.078L166.746 288.976C159.256 245.78 130.838 206.431 92.5833 186.285L92.304 186.816C130.398 206.878 158.697 246.063 166.155 289.079V289.078Z" fill="#FCFDFE"/>
<path d="M160.054 265.878L160.653 265.894C161.12 248.671 176.228 235.646 176.38 235.516L175.992 235.059C175.838 235.19 160.527 248.384 160.053 265.878H160.054Z" fill="#FCFDFE"/>
<path d="M164.56 281.17L165.096 280.9C157.221 265.309 125.554 262.273 125.235 262.246L125.181 262.843C125.496 262.871 156.835 265.876 164.56 281.17Z" fill="#FCFDFE"/>
<path d="M139.775 227.994L140.332 227.77C135.164 214.913 143.987 195.584 144.078 195.391L143.534 195.138C143.444 195.334 134.512 214.899 139.775 227.994Z" fill="#FCFDFE"/>
<path d="M121.202 207.251L121.53 206.749C108.308 198.12 87.3572 202.121 87.1463 202.163L87.2622 202.751C87.4696 202.71 108.185 198.756 121.202 207.251Z" fill="#FCFDFE"/>
</g>
</g>
<path d="M141.428 55.7576V347.041C141.428 351.397 145.15 352.335 149.37 352.473L294.005 359.953L296.196 360.025C300.692 360.172 304.377 356.605 304.377 352.097V50.7019C304.377 46.1944 300.693 42.6281 296.196 42.7741L293.222 42.8715L148.057 54.1616C143.837 54.2995 141.427 51.4008 141.427 55.7564L141.428 55.7576Z" fill="url(#paint5_linear_117_3372)"/>
<path d="M136.922 55.7576V347.043C136.922 351.398 140.369 355.076 144.589 355.214L291.691 360.026C296.187 360.173 299.872 356.606 299.872 352.098V50.7019C299.872 46.1944 296.188 42.6281 291.691 42.7741L144.589 47.5864C140.369 47.7243 136.922 51.4008 136.922 55.7576Z" fill="url(#paint6_linear_117_3372)"/>
<path d="M141.683 71.7707V341.611C141.683 345.678 144.904 349.107 148.847 349.231L287.169 353.576C291.355 353.707 294.784 350.379 294.784 346.18V67.5472C294.784 63.3481 291.355 60.0124 287.169 60.1341L148.847 64.1675C144.904 64.2823 141.683 67.7037 141.683 71.7707Z" fill="url(#paint7_linear_117_3372)"/>
<path d="M214.274 54.2473C214.274 55.7819 215.497 56.9896 217.006 56.9432C218.517 56.898 219.742 55.615 219.742 54.0781C219.742 52.5412 218.517 51.3347 217.006 51.3822C215.497 51.4297 214.274 52.7128 214.274 54.2473Z" fill="#DE8BDF"/>
<path style="mix-blend-mode:multiply" opacity="0.3" d="M136.922 55.5918C136.922 51.2686 140.352 47.7255 144.671 47.5852L224.89 44.9612C195.134 76.4937 188.444 102.949 187.681 121.028C185.5 172.633 229.957 195.116 221.691 251.551C219.425 267.022 214.414 276.739 212.456 303.465C210.787 326.251 212.531 345.109 214.27 357.495L144.589 355.215C140.369 355.077 136.922 351.401 136.922 347.044V55.5918Z" fill="url(#paint8_linear_117_3372)"/>
<path style="mix-blend-mode:multiply" opacity="0.3" d="M255.696 200.971C254.85 176.114 263.367 165.723 265.625 163.176C267.219 161.379 268.696 160.105 279.718 151.006C287.906 144.245 294.732 138.641 299.576 134.67C299.674 204.306 299.773 273.94 299.871 343.576C296.571 316.848 290.228 296.69 285.403 283.819C271.894 247.788 256.781 232.865 255.696 200.97V200.971Z" fill="url(#paint9_linear_117_3372)"/>
<path d="M176.468 211.171V205.16C176.701 204.918 176.978 204.744 177.294 204.635C177.379 204.606 177.44 204.558 177.489 204.488C177.568 204.375 177.687 204.331 177.807 204.277C178.531 203.953 179.262 203.649 179.925 203.201C180.182 203.028 180.473 202.901 180.75 202.758C181.091 202.583 181.454 202.452 181.766 202.218C181.883 202.13 182.036 202.116 182.17 202.054C182.669 201.82 183.114 201.489 183.632 201.293C184.015 201.149 184.359 200.933 184.654 200.644C184.709 200.591 184.774 200.532 184.847 200.546C185.126 200.596 185.276 200.392 185.476 200.267C185.804 200.063 186.173 199.93 186.52 199.761C186.936 199.558 187.359 199.368 187.774 199.163C188.146 198.98 188.466 198.706 188.878 198.587C189.232 198.484 189.535 198.279 189.61 197.867C189.63 197.827 189.659 197.799 189.705 197.793C189.783 197.799 189.841 197.849 189.909 197.878C190.097 197.958 190.259 197.961 190.398 197.77C190.513 197.612 190.657 197.48 190.883 197.5C190.966 197.507 191.041 197.449 191.111 197.406C191.606 197.107 192.156 196.913 192.654 196.629C193.07 196.392 193.481 196.145 193.905 195.919C194.209 195.756 194.545 195.634 194.821 195.438C195.042 195.282 195.383 195.328 195.505 195.021C195.521 194.981 195.582 194.973 195.626 194.957C196.15 194.76 196.658 194.532 197.129 194.227C197.144 194.216 197.161 194.205 197.179 194.204C197.536 194.176 197.67 193.919 197.773 193.628C197.8 193.613 197.828 193.606 197.858 193.607C198.099 193.723 198.281 193.65 198.516 193.516C198.993 193.247 199.464 192.958 199.998 192.79C200.438 192.651 200.783 192.313 201.203 192.119C202.107 191.699 202.945 191.152 203.851 190.737C204.031 190.655 204.249 190.535 204.43 190.663C204.613 190.791 204.512 191.02 204.497 191.21C204.456 191.7 204.477 192.192 204.481 192.683C204.488 194.008 204.394 195.33 204.418 196.655C204.426 197.059 204.553 197.455 204.46 197.867C204.403 198.121 204.321 198.314 204.056 198.407C203.797 198.5 203.573 198.674 203.307 198.756C203.165 198.8 203.104 198.938 203.055 199.072C202.838 199.262 202.584 199.381 202.306 199.451C201.973 199.303 201.628 199.478 201.471 199.877C201.45 199.893 201.425 199.903 201.399 199.905C201.203 199.816 201.02 199.869 200.845 199.964C200.571 200.114 200.279 200.227 200.014 200.395C199.9 200.467 199.812 200.555 199.769 200.684C199.755 200.707 199.736 200.723 199.712 200.735C199.512 200.688 199.357 200.709 199.168 200.853C199.025 200.962 198.778 200.957 198.59 201.065C198.429 201.159 198.312 201.269 198.253 201.443C198.129 201.576 197.972 201.646 197.8 201.692C197.657 201.671 197.52 201.662 197.467 201.842C197.338 201.966 197.186 202.044 197.011 202.08C196.799 201.976 196.664 202.12 196.482 202.195C196.239 202.296 196.072 202.444 195.91 202.627C195.87 202.666 195.824 202.694 195.768 202.7C195.302 202.474 194.999 202.878 194.624 203.001C194.557 203.023 194.501 203.089 194.427 203.1C194.222 203.13 194.182 203.267 194.195 203.443C194.132 203.601 193.976 203.637 193.845 203.695C193.586 203.81 193.361 204.008 193.062 204.029C192.691 203.911 192.411 204.148 192.116 204.292C191.943 204.376 191.765 204.499 191.738 204.731C191.631 204.855 191.494 204.92 191.333 204.94C190.884 204.723 190.553 205.042 190.211 205.219C189.939 205.359 189.695 205.527 189.385 205.61C189.081 205.69 188.787 205.859 188.523 206.04C188.185 206.273 187.788 206.383 187.446 206.603C187.336 206.675 187.264 206.755 187.237 206.879C187.212 206.931 187.172 206.968 187.125 207.002C187.043 207.056 186.961 207.114 186.853 207.097C186.592 207.007 186.352 207.115 186.136 207.222C185.761 207.406 185.395 207.601 184.997 207.733C184.917 207.76 184.85 207.811 184.782 207.858C184.578 208.001 184.57 208.142 184.763 208.299C184.953 208.452 185.189 208.523 185.409 208.617C186.002 208.871 186.603 209.109 187.201 209.353C187.552 209.497 187.858 209.752 188.222 209.898C188.976 210.201 189.652 210.669 190.404 210.976C190.888 211.174 191.384 211.357 191.847 211.587C192.224 211.772 192.652 211.853 192.988 212.155C193.217 212.36 193.524 212.543 193.879 212.366C194.214 212.383 194.475 212.592 194.768 212.713C195.124 212.861 195.462 213.053 195.809 213.224C197.143 213.863 198.477 214.503 199.813 215.139C201.307 215.858 202.794 216.59 204.307 217.268C204.627 217.412 204.761 217.623 204.752 217.954C204.743 218.278 204.779 218.604 204.722 218.926C204.695 219.017 204.702 219.11 204.702 219.203C204.702 221.174 204.702 223.146 204.702 225.118C204.702 225.22 204.695 225.322 204.728 225.421C204.74 225.471 204.747 225.522 204.746 225.573C204.741 225.698 204.703 225.795 204.558 225.807C204.167 225.708 203.84 225.473 203.494 225.284C202.407 224.688 201.284 224.162 200.199 223.563C199.106 222.959 197.965 222.448 196.872 221.843C196.119 221.463 195.364 221.09 194.62 220.694C193.123 219.898 191.6 219.152 190.111 218.342C188.296 217.354 186.442 216.442 184.622 215.464C183.382 214.797 182.1 214.211 180.862 213.539C179.796 212.96 178.71 212.42 177.622 211.881C177.218 211.681 176.811 211.474 176.467 211.173L176.468 211.171Z" fill="white"/>
<path d="M176.468 204.715C176.677 204.698 176.847 204.579 177.02 204.482C178.063 203.893 179.165 203.418 180.194 202.805C180.437 202.581 180.737 202.453 181.024 202.308C182.721 201.452 184.39 200.546 186.068 199.657C187.212 199.135 188.281 198.47 189.398 197.898C189.477 197.857 189.56 197.798 189.656 197.866C189.651 198.212 189.37 198.514 188.901 198.665C188.463 198.805 188.115 199.116 187.711 199.3C187.494 199.398 187.31 199.602 187.044 199.596C187.007 199.596 186.964 199.591 186.935 199.608C186.52 199.864 186.089 200.081 185.624 200.233C185.52 200.268 185.435 200.379 185.354 200.467C185.236 200.595 185.12 200.694 184.929 200.602C184.875 200.575 184.791 200.589 184.748 200.643C184.4 201.085 183.86 201.231 183.409 201.513C183.262 201.604 183.062 201.581 182.926 201.701C182.691 201.91 182.417 202.085 182.13 202.162C181.867 202.231 181.662 202.396 181.445 202.512C181.155 202.667 180.807 202.723 180.565 202.967C180.552 202.98 180.542 203.002 180.527 203.007C179.936 203.17 179.521 203.685 178.917 203.821C178.741 203.862 178.615 203.991 178.463 204.071C178.225 204.197 177.992 204.316 177.729 204.377C177.641 204.396 177.58 204.448 177.54 204.526C177.516 204.575 177.514 204.648 177.452 204.658C177.071 204.723 176.811 205.024 176.467 205.158V204.713L176.468 204.715Z" fill="white"/>
<path d="M197.82 193.634C198.42 193.306 199.02 192.976 199.62 192.648C199.657 192.557 199.73 192.503 199.816 192.463C201.329 191.749 202.779 190.913 204.27 190.155C204.396 190.09 204.555 189.919 204.687 190.166C204.697 190.212 204.701 190.258 204.701 190.305C204.701 192.945 204.71 195.584 204.697 198.224C204.685 198.367 204.603 198.466 204.476 198.514C204.046 198.676 203.645 198.902 203.218 199.069C203.152 199.095 203.084 199.134 203.011 199.082C202.968 198.787 203.205 198.644 203.396 198.623C203.697 198.588 203.855 198.288 204.167 198.29C204.24 198.29 204.39 198.085 204.374 198C204.321 197.724 204.529 197.463 204.393 197.194C204.34 197.091 204.347 196.978 204.347 196.867C204.347 196.125 204.31 195.381 204.357 194.642C204.425 193.542 204.382 192.442 204.405 191.343C204.409 191.188 204.444 191.033 204.457 190.877C204.474 190.708 204.42 190.651 204.233 190.692C203.995 190.743 203.783 190.851 203.567 190.947C203.133 191.142 202.733 191.405 202.309 191.623C202.025 191.769 201.721 191.893 201.458 192.057C201.175 192.235 200.854 192.348 200.587 192.576C200.415 192.725 200.134 192.818 199.887 192.91C199.617 193.011 199.296 193.075 199.081 193.29C198.987 193.384 198.888 193.427 198.779 193.464C198.647 193.509 198.532 193.558 198.434 193.672C198.225 193.911 198.019 193.754 197.82 193.634Z" fill="white"/>
<path d="M187.647 209.347C188.546 209.809 189.448 210.267 190.379 210.664C191.169 211.115 192.022 211.435 192.827 211.858C193.177 212.042 193.531 212.216 193.885 212.395C193.819 212.539 193.68 212.529 193.572 212.501C193.282 212.426 192.985 212.348 192.805 212.071C192.781 212.035 192.77 211.984 192.708 211.988C192.387 212.005 192.168 211.783 191.904 211.663C191.706 211.574 191.497 211.495 191.293 211.412C190.735 211.182 190.192 210.925 189.645 210.671C189.016 210.38 188.445 209.956 187.762 209.787C187.685 209.768 187.631 209.723 187.574 209.675C187.246 209.397 186.858 209.255 186.445 209.157C186.314 209.126 186.197 209.041 186.071 208.987C185.678 208.815 185.277 208.66 184.893 208.47C184.73 208.39 184.537 208.302 184.535 208.055C184.531 207.785 184.784 207.734 184.922 207.691C185.51 207.506 186.015 207.141 186.604 206.966C186.736 206.926 186.788 207.019 186.875 207.054C186.757 207.286 186.546 207.348 186.309 207.364C186.126 207.449 185.943 207.534 185.761 207.618C185.591 207.844 185.296 207.87 185.076 208.039C185.41 208.337 185.892 208.358 186.203 208.676C186.479 208.81 186.744 208.967 187.041 209.052C187.288 209.059 187.481 209.175 187.648 209.347H187.647Z" fill="white"/>
<path d="M196.942 194.07L197.78 193.65C197.771 194.008 197.615 194.209 197.274 194.249C197.09 194.27 197.021 194.444 196.847 194.502C196.627 194.576 196.378 194.656 196.186 194.813C196.08 194.899 195.953 194.922 195.833 194.97C195.684 195.03 195.467 195.005 195.478 195.263C195.478 195.28 195.432 195.32 195.423 195.315C195.137 195.189 195.02 195.564 194.767 195.535C194.686 195.526 194.624 195.553 194.601 195.643C194.586 195.7 194.543 195.737 194.485 195.752C193.949 195.89 193.508 196.227 193.031 196.48C192.717 196.647 192.414 196.821 192.086 196.966C191.741 197.119 191.401 197.312 191.074 197.518C190.884 197.639 190.622 197.567 190.452 197.786C190.206 198.101 190.031 198.096 189.713 197.829C190.529 197.396 191.338 196.948 192.173 196.55C192.509 196.388 192.832 196.202 193.162 196.026C193.283 195.827 193.495 195.767 193.69 195.681C194.369 195.304 195.091 195.007 195.752 194.593C196.059 194.408 196.388 194.267 196.706 194.103C196.78 194.065 196.857 194.033 196.942 194.07Z" fill="white"/>
<path d="M190.156 205.446C189.355 205.825 188.56 206.217 187.783 206.642C187.601 206.742 187.423 206.863 187.206 206.88C187.15 206.717 187.22 206.629 187.368 206.557C187.635 206.426 187.944 206.334 188.168 206.174C188.513 205.93 188.92 205.816 189.249 205.561C189.278 205.539 189.323 205.507 189.347 205.516C189.611 205.614 189.744 205.291 189.984 205.319C190 205.321 190.028 205.31 190.032 205.298C190.13 205.039 190.409 205.07 190.592 204.948C190.821 204.795 191.065 204.688 191.329 204.884C191.031 205.034 190.733 205.183 190.436 205.333C190.36 205.414 190.278 205.479 190.157 205.447L190.156 205.446Z" fill="white"/>
<path d="M195.793 202.662C195.324 202.902 194.855 203.142 194.387 203.381C194.3 203.352 194.249 203.454 194.166 203.441C194.074 203.165 194.122 203.148 194.376 203.033C194.606 202.929 194.857 202.859 195.06 202.688C195.287 202.495 195.543 202.525 195.794 202.661L195.793 202.662Z" fill="white"/>
<path d="M201.403 199.876C201.179 200.006 200.954 200.137 200.729 200.267C200.395 200.415 200.062 200.563 199.729 200.71C199.693 200.369 200 200.302 200.198 200.212C200.431 200.105 200.633 199.94 200.88 199.865C201.053 199.813 201.233 199.67 201.403 199.876Z" fill="white"/>
<path d="M199.732 200.71C199.238 200.966 198.757 201.249 198.225 201.427C198.222 201.237 198.316 201.116 198.488 201.049C198.695 200.969 198.854 200.746 199.118 200.837C199.129 200.841 199.158 200.827 199.163 200.816C199.303 200.513 199.514 200.596 199.731 200.71H199.732Z" fill="white"/>
<path d="M204.671 218.849C204.675 218.978 204.684 219.108 204.684 219.236C204.681 221.316 204.677 223.396 204.673 225.475C204.608 225.406 204.624 225.319 204.624 225.238C204.626 223.189 204.628 221.139 204.631 219.09C204.631 219.009 204.612 218.922 204.671 218.849Z" fill="white"/>
<path d="M193.051 203.996C192.623 204.264 192.169 204.483 191.714 204.702C191.656 204.334 192.007 204.302 192.194 204.159C192.36 204.031 192.597 204 192.8 203.917C192.912 203.872 192.996 203.878 193.05 203.996H193.051Z" fill="white"/>
<path d="M197.016 202.05C196.653 202.258 196.294 202.476 195.889 202.596C196.023 202.395 196.131 202.158 196.432 202.174C196.48 202.177 196.498 202.152 196.516 202.12C196.651 201.868 196.826 201.909 197.016 202.052V202.05Z" fill="white"/>
<path d="M202.289 199.432C202.011 199.573 201.731 199.716 201.453 199.857C201.463 199.583 201.903 199.245 202.166 199.308C202.237 199.324 202.288 199.351 202.289 199.432Z" fill="white"/>
<path d="M197.785 201.656C197.679 201.725 197.579 201.801 197.447 201.814C197.456 201.54 197.611 201.577 197.785 201.656Z" fill="white"/>
<path d="M255.812 204.346C256.056 204.525 256.345 204.621 256.605 204.771C256.602 206.673 256.601 208.575 256.599 210.478C256.599 210.578 256.593 210.68 256.589 210.781C256.216 211.139 255.793 211.405 255.306 211.601C254.955 211.742 254.559 211.875 254.371 212.268C254.356 212.281 254.339 212.286 254.32 212.283C254.193 212.327 253.965 212.206 253.982 212.487C253.753 212.628 253.518 212.756 253.262 212.843C253.104 212.843 252.954 212.883 252.799 212.915C252.557 212.966 252.43 213.099 252.397 213.337C252.351 213.396 252.288 213.42 252.215 213.424C251.848 213.345 251.101 213.637 250.891 213.948C250.849 214.009 250.824 214.093 250.734 214.081C250.529 214.057 250.496 214.211 250.444 214.348C250.397 214.401 250.335 214.428 250.266 214.437C250.209 214.44 250.157 214.421 250.101 214.413C249.759 214.365 249.616 214.469 249.495 214.851C249.445 214.903 249.384 214.927 249.312 214.923C249.138 214.839 248.992 214.877 248.824 214.977C248.465 215.193 248.079 215.357 247.704 215.546C247.498 215.65 247.251 215.727 247.234 216.022C247.209 216.076 247.167 216.102 247.111 216.109C246.943 216.1 246.726 215.997 246.73 216.312C246.575 216.48 246.389 216.582 246.159 216.596C245.9 216.364 245.658 216.576 245.546 216.92C245.473 217.009 245.378 217.055 245.263 217.06C245.077 217.01 244.924 217.023 244.89 217.26C244.858 217.31 244.811 217.328 244.753 217.317C244.621 217.245 244.495 217.295 244.357 217.314C244.053 217.354 243.899 217.669 243.584 217.688C243.476 217.695 243.528 217.865 243.492 217.956C243.428 218.061 243.326 218.091 243.211 218.091C243.052 218.027 242.94 218.1 242.875 218.31C242.665 218.487 242.425 218.604 242.161 218.673C242.019 218.63 241.918 218.67 241.87 218.818C241.794 218.901 241.702 218.949 241.587 218.952C241.152 218.883 241.125 218.898 241.035 219.254C240.99 219.312 240.932 219.338 240.859 219.327C240.473 219.19 240.263 219.304 240.167 219.702C240.05 219.86 239.884 219.93 239.697 219.955C239.436 219.828 239.206 219.978 238.993 220.074C238.711 220.202 238.432 220.342 238.163 220.499C238.04 220.569 238.036 220.692 237.988 220.798C237.958 220.846 237.914 220.875 237.86 220.887C237.577 220.836 237.392 220.94 237.306 221.2C237.256 221.251 237.195 221.277 237.126 221.289C236.956 221.286 236.789 221.239 236.616 221.318C236.427 221.405 236.298 221.523 236.268 221.734C236.225 221.812 236.156 221.854 236.076 221.885C236.036 221.896 235.996 221.898 235.955 221.889C235.516 221.754 234.993 222.027 234.859 222.462C234.839 222.479 234.816 222.49 234.789 222.493C234.417 222.465 234.394 222.478 234.312 222.748C234.234 222.89 234.088 222.937 233.961 223.009C233.886 223.043 233.811 223.076 233.726 223.046C233.59 222.928 233.446 222.923 233.302 223.029C233.133 223.153 232.915 223.179 232.751 223.325C232.646 223.418 232.581 223.507 232.576 223.644C232.537 223.707 232.48 223.736 232.409 223.737C231.968 223.622 231.889 223.666 231.865 224.043C231.821 224.138 231.745 224.175 231.643 224.167C231.543 224.086 231.532 224.165 231.52 224.238C231.423 224.355 231.301 224.409 231.15 224.405C230.939 224.333 230.776 224.408 230.582 224.512C230.169 224.736 229.737 224.927 229.314 225.134C229.205 225.187 229.103 225.248 228.996 225.304C228.794 225.411 228.674 225.354 228.65 225.124C228.612 224.774 228.65 224.422 228.65 224.07C228.65 223.875 228.608 223.725 228.422 223.64C228.362 223.547 228.364 223.448 228.393 223.348C228.449 223.269 228.553 223.192 228.402 223.105C228.369 223.025 228.371 222.945 228.409 222.868C228.687 222.603 228.687 222.303 228.409 222.06C228.369 221.979 228.369 221.898 228.408 221.815C228.655 221.596 228.653 221.566 228.4 221.318C228.359 221.194 228.353 221.073 228.422 220.958C228.586 220.873 228.659 220.744 228.643 220.554C228.601 220.065 228.65 219.576 228.645 219.087C228.644 218.886 228.608 218.723 228.418 218.626C228.327 218.357 228.368 218.082 228.384 217.81C228.667 217.651 228.915 217.431 229.217 217.304C229.348 217.25 229.415 217.184 229.418 217.047C229.443 216.99 229.49 216.968 229.547 216.96C229.823 217.069 230.058 217.018 230.321 216.865C230.627 216.687 230.991 216.615 231.301 216.426C231.449 216.335 231.534 216.226 231.525 216.05C231.609 215.915 231.727 215.85 231.888 215.873C232.05 216.015 232.217 216.009 232.394 215.895C232.632 215.742 232.905 215.639 233.097 215.417C233.154 215.353 233.228 215.32 233.316 215.315C233.564 215.303 233.795 215.254 233.912 214.996C233.928 214.961 233.965 214.921 233.994 214.929C234.35 215.033 234.53 214.706 234.803 214.61C234.926 214.567 234.936 214.471 234.971 214.379C234.999 214.326 235.044 214.299 235.102 214.289C235.32 214.365 235.518 214.322 235.734 214.235C236.127 214.078 236.523 213.936 236.882 213.703C237.071 213.58 237.289 213.503 237.49 213.398C237.663 213.308 237.722 213.225 237.719 213.056C237.758 212.99 237.814 212.96 237.891 212.971C238.192 213.12 238.481 212.988 238.589 212.651C238.737 212.475 238.932 212.388 239.154 212.354C239.263 212.416 239.312 212.363 239.335 212.259C239.378 212.203 239.435 212.176 239.503 212.171C239.53 212.171 239.562 212.166 239.583 212.18C239.768 212.302 239.857 212.238 239.872 212.031C239.991 211.888 240.139 211.805 240.329 211.802C240.463 211.907 240.516 211.841 240.536 211.704C240.625 211.576 240.744 211.502 240.901 211.486C240.956 211.528 240.924 211.608 240.982 211.658C240.955 211.597 240.924 211.545 240.95 211.485C241.011 211.4 241.087 211.352 241.195 211.377C241.477 211.607 241.725 211.435 241.953 211.289C242.095 211.199 242.235 211.123 242.389 211.061C242.627 210.964 242.867 210.88 243.078 210.713C243.23 210.591 243.423 210.51 243.627 210.461C244.009 210.369 244.305 210.117 244.597 209.869C244.641 209.831 244.679 209.788 244.737 209.801C245.043 209.865 245.172 209.672 245.273 209.437C245.374 209.312 245.506 209.246 245.664 209.232C245.9 209.277 246.106 209.261 246.184 208.98C246.206 208.965 246.23 208.956 246.256 208.95C246.578 209.072 246.854 208.906 247.12 208.781C247.42 208.638 247.747 208.555 248.028 208.369C248.094 208.326 248.171 208.346 248.244 208.338C248.462 208.314 248.531 208.187 248.428 207.99C248.33 207.805 248.2 207.667 247.969 207.633C247.694 207.594 247.43 207.505 247.2 207.338C247.109 207.272 247.004 207.236 246.891 207.225C246.767 207.214 246.659 207.165 246.575 207.069C246.455 206.93 246.295 206.86 246.125 206.812C246.018 206.78 245.911 206.754 245.828 206.671C245.666 206.509 245.491 206.498 245.306 206.635C245.168 206.682 245.057 206.606 244.941 206.553C244.492 206.347 244.084 206.057 243.616 205.883C241.873 205.006 240.077 204.235 238.363 203.296C237.86 203.022 237.344 202.768 236.813 202.548C236.353 202.33 235.892 202.113 235.429 201.902C234.788 201.61 234.182 201.249 233.555 200.931C232.722 200.507 231.909 200.042 231.034 199.703C230.206 199.325 229.401 198.902 228.578 198.516C228.474 198.468 228.386 198.406 228.372 198.28C228.353 195.853 228.368 193.427 228.364 191.001C228.364 190.834 228.372 190.668 228.353 190.503C228.345 190.467 228.35 190.513 228.346 190.476C228.333 190.343 228.242 190.189 228.372 190.083C228.511 189.971 228.659 190.076 228.786 190.142C229.953 190.75 231.119 191.359 232.282 191.973C232.468 192.107 232.675 192.2 232.88 192.298C235.22 193.492 237.536 194.733 239.873 195.935C239.963 195.982 240.049 196.038 240.137 196.088C240.357 196.216 240.588 196.32 240.816 196.431C241.575 196.873 242.375 197.236 243.149 197.65C243.849 198.024 244.559 198.381 245.258 198.76C245.463 198.879 245.678 198.979 245.892 199.083C245.992 199.132 246.076 199.198 246.141 199.291C246.912 199.689 247.683 200.087 248.453 200.488C250.279 201.442 252.104 202.393 253.926 203.354C254.554 203.686 255.166 204.047 255.814 204.341L255.812 204.346Z" fill="white"/>
<path d="M254.371 212.269C254.307 212.141 254.254 212.012 254.478 212.006C254.618 212.003 254.579 211.827 254.677 211.806C254.912 211.756 255.085 211.581 255.306 211.51C255.498 211.449 255.658 211.288 255.88 211.32C255.939 211.07 256.232 211.081 256.353 210.897C256.407 210.814 256.487 210.773 256.589 210.782C256.661 211.036 256.558 211.198 256.321 211.288C256.264 211.41 256.137 211.41 256.032 211.446C255.945 211.452 255.875 211.492 255.816 211.553C255.705 211.67 255.592 211.783 255.412 211.777H255.39L255.375 211.792C255.304 211.887 255.221 211.958 255.091 211.936C255.005 211.946 254.933 211.989 254.866 212.04C254.805 212.201 254.649 212.185 254.523 212.223C254.473 212.239 254.422 212.254 254.372 212.27L254.371 212.269Z" fill="white"/>
<path d="M252.87 213.083C252.703 213.164 252.536 213.246 252.369 213.328C252.372 212.918 252.832 212.67 253.262 212.845C253.132 212.924 253.001 213.004 252.871 213.083H252.87Z" fill="white"/>
<path d="M253.98 212.49C253.924 212.399 253.89 212.302 253.979 212.218C254.116 212.091 254.197 212.304 254.319 212.284C254.206 212.353 254.093 212.421 253.98 212.488V212.49Z" fill="white"/>
<path d="M204.622 190.087C204.757 190.314 204.62 190.568 204.688 190.801C204.784 190.908 204.77 191.043 204.769 191.17C204.754 193.092 204.781 195.014 204.772 196.935C204.772 197.085 204.748 197.23 204.69 197.368C204.637 197.683 204.754 198.009 204.628 198.319C204.626 195.575 204.624 192.831 204.622 190.087Z" fill="white"/>
<path d="M246.232 208.995C246.75 208.676 247.335 208.496 247.863 208.2C247.949 208.151 248.057 208.132 248.138 208.002C247.431 207.731 246.796 207.33 246.103 207.045C245.797 206.977 245.506 206.879 245.294 206.627C245.435 206.44 245.684 206.39 245.814 206.564C245.912 206.696 246.035 206.713 246.161 206.756C246.344 206.821 246.529 206.878 246.644 207.055C246.687 207.12 246.759 207.162 246.832 207.157C247.023 207.143 247.168 207.234 247.313 207.334C247.536 207.491 247.798 207.539 248.058 207.588C248.261 207.626 248.579 207.966 248.564 208.164C248.554 208.296 248.455 208.433 248.346 208.41C248.123 208.362 247.978 208.506 247.805 208.57C247.418 208.712 247.034 208.871 246.669 209.061C246.48 209.16 246.38 208.985 246.23 208.995H246.232Z" fill="white"/>
<path d="M231.168 224.362C230.468 224.803 229.719 225.153 228.983 225.529C228.918 225.562 228.855 225.603 228.787 225.629C228.665 225.675 228.561 225.856 228.427 225.757C228.31 225.67 228.4 225.499 228.395 225.365C228.439 224.889 228.401 224.412 228.416 223.935C228.419 223.837 228.386 223.734 228.446 223.64C228.648 223.618 228.729 223.702 228.723 223.909C228.712 224.313 228.719 224.718 228.719 225.122C228.719 225.348 228.821 225.338 228.98 225.244C229.435 224.975 229.912 224.748 230.397 224.539C230.453 224.515 230.517 224.519 230.563 224.459C230.733 224.239 230.94 224.228 231.168 224.364V224.362Z" fill="white"/>
<path d="M243.132 210.448C243.855 210.117 244.578 209.784 245.302 209.453C245.273 209.747 245.059 209.923 244.78 209.878C244.737 209.871 244.698 209.838 244.654 209.882C244.303 210.236 243.946 210.445 243.499 210.562C243.357 210.599 243.211 210.684 243.12 210.765C242.86 210.999 242.536 211.058 242.236 211.187C242.047 211.268 241.903 211.435 241.704 211.517C241.556 211.579 241.414 211.559 241.268 211.553C241.181 211.55 241.186 211.468 241.181 211.405C241.663 211.172 242.145 210.939 242.627 210.706C242.768 210.568 242.931 210.475 243.13 210.45L243.132 210.448Z" fill="white"/>
<path d="M231.891 215.901C232.483 215.598 233.075 215.296 233.667 214.992C233.926 214.765 234.231 214.635 234.564 214.567C234.709 214.505 234.855 214.444 235 214.382C235.018 214.55 235.026 214.708 234.777 214.68C234.707 214.672 234.657 214.718 234.621 214.779C234.503 214.983 234.321 215.042 234.1 214.995C234.034 214.982 233.978 214.951 233.949 215.049C233.861 215.349 233.593 215.356 233.353 215.39C233.283 215.399 233.207 215.367 233.157 215.441C232.956 215.735 232.615 215.83 232.331 216.004C232.185 216.094 231.977 216.178 231.888 215.899L231.891 215.901Z" fill="white"/>
<path d="M235.107 214.338C235.983 213.916 236.859 213.496 237.736 213.074C237.832 213.361 237.824 213.377 237.539 213.438C237.521 213.441 237.492 213.431 237.486 213.439C237.292 213.73 236.916 213.695 236.668 213.898C236.318 214.184 235.842 214.198 235.465 214.437C235.332 214.521 235.238 214.335 235.107 214.338Z" fill="white"/>
<path d="M228.447 218.629C228.65 218.606 228.725 218.695 228.723 218.9C228.714 219.506 228.71 220.113 228.725 220.718C228.731 220.942 228.637 220.992 228.447 220.967C228.373 220.574 228.419 220.178 228.419 219.785C228.419 219.4 228.373 219.013 228.448 218.63L228.447 218.629Z" fill="white"/>
<path d="M229.679 216.909C230.321 216.663 230.919 216.319 231.549 216.046C231.721 216.391 231.39 216.444 231.223 216.553C230.866 216.785 230.42 216.835 230.063 217.086C229.883 217.213 229.715 217.066 229.546 217.011C229.59 216.978 229.634 216.943 229.679 216.909Z" fill="white"/>
<path d="M249.313 214.913C248.627 215.32 247.914 215.675 247.196 216.02C247.174 215.811 247.412 215.585 247.675 215.464C248.076 215.279 248.497 215.128 248.863 214.871C249.027 214.758 249.18 214.72 249.313 214.913Z" fill="white"/>
<path d="M252.206 213.408C251.63 213.751 251.018 214.026 250.421 214.329C250.406 214.131 250.432 213.969 250.696 214.015C250.739 214.022 250.773 214.039 250.807 213.979C251.063 213.53 251.548 213.463 251.972 213.3C252.063 213.265 252.148 213.326 252.206 213.406V213.408Z" fill="white"/>
<path d="M239.694 219.913C239.136 220.246 238.557 220.54 237.957 220.792C237.93 220.591 238.019 220.498 238.2 220.395C238.419 220.27 238.65 220.158 238.873 220.057C239.117 219.946 239.376 219.685 239.694 219.913Z" fill="white"/>
<path d="M228.441 198.37C228.339 198.307 228.391 198.205 228.39 198.123C228.381 197.557 228.38 196.99 228.376 196.423C228.349 196.183 228.349 195.942 228.376 195.702C228.383 193.939 228.39 192.175 228.397 190.412C228.478 190.509 228.449 190.624 228.449 190.732C228.449 193.279 228.446 195.825 228.442 198.371L228.441 198.37Z" fill="white"/>
<path d="M228.447 218.629C228.447 219.408 228.447 220.187 228.447 220.967C228.447 221.097 228.447 221.226 228.447 221.356C228.547 221.505 228.547 221.653 228.447 221.801C228.447 221.894 228.447 221.987 228.447 222.079C228.571 222.339 228.571 222.599 228.447 222.858C228.447 222.951 228.447 223.044 228.447 223.136C228.488 223.192 228.488 223.248 228.447 223.303C228.447 223.415 228.447 223.526 228.447 223.637C228.446 224.116 228.447 224.593 228.441 225.072C228.441 225.171 228.47 225.276 228.396 225.364C228.393 224.727 228.387 224.089 228.387 223.451C228.387 221.565 228.387 219.678 228.389 217.792C228.389 217.715 228.354 217.624 228.437 217.562C228.493 217.617 228.49 217.676 228.449 217.739C228.449 218.036 228.449 218.332 228.449 218.629H228.447Z" fill="white"/>
<path d="M244.746 217.297C244.339 217.55 243.892 217.73 243.465 217.944C243.386 217.655 243.425 217.602 243.732 217.57C243.778 217.565 243.855 217.566 243.861 217.548C243.947 217.272 244.217 217.308 244.412 217.223C244.525 217.173 244.676 217.092 244.746 217.297Z" fill="white"/>
<path d="M233.498 223.174C233.185 223.323 232.871 223.473 232.558 223.623C232.498 223.509 232.49 223.447 232.622 223.336C232.837 223.153 233.104 223.084 233.33 222.934C233.455 222.85 233.649 222.778 233.729 223.028C233.713 223.172 233.613 223.184 233.498 223.174Z" fill="white"/>
<path d="M235.954 221.86C235.66 222.082 235.289 222.164 235 222.393C234.964 222.46 234.923 222.512 234.84 222.454C234.832 222.418 234.812 222.381 234.817 222.347C234.859 221.991 235.648 221.655 235.955 221.86H235.954Z" fill="white"/>
<path d="M228.448 217.739C228.444 217.68 228.44 217.621 228.435 217.561C228.542 217.397 228.755 217.41 228.886 217.286C229.09 217.259 229.246 217.112 229.437 217.055C229.525 217.223 229.515 217.318 229.29 217.357C229.105 217.39 228.925 217.493 228.806 217.643C228.699 217.779 228.59 217.789 228.448 217.739Z" fill="white"/>
<path d="M237.134 221.248C236.85 221.441 236.538 221.58 236.232 221.728C236.243 221.415 236.586 221.146 236.921 221.193C236.994 221.203 237.063 221.23 237.135 221.248H237.134Z" fill="white"/>
<path d="M250.263 214.403C250.017 214.575 249.744 214.7 249.475 214.828C249.479 214.401 249.808 214.222 250.263 214.403Z" fill="white"/>
<path d="M240.851 219.299C240.625 219.458 240.383 219.584 240.129 219.692C240.056 219.402 240.262 219.304 240.467 219.22C240.603 219.166 240.752 219.131 240.851 219.299Z" fill="white"/>
<path d="M237.9 213.004C238.127 212.862 238.373 212.76 238.619 212.658C238.621 212.872 238.469 213.036 238.183 213.146C238.028 213.205 237.965 213.11 237.9 213.004Z" fill="white"/>
<path d="M228.446 222.858C228.446 222.599 228.446 222.339 228.446 222.079C228.585 222.067 228.679 222.098 228.666 222.27C228.657 222.396 228.668 222.522 228.668 222.65C228.668 222.797 228.597 222.87 228.446 222.858Z" fill="white"/>
<path d="M246.136 216.568C245.932 216.675 245.728 216.78 245.524 216.887C245.513 216.612 245.702 216.494 245.916 216.417C246.012 216.384 246.115 216.441 246.137 216.568H246.136Z" fill="white"/>
<path d="M232.396 223.694C232.209 223.807 232.024 223.919 231.837 224.031C231.75 223.9 231.78 223.773 231.888 223.685C232.05 223.55 232.229 223.579 232.396 223.694Z" fill="white"/>
<path d="M237.862 220.861C237.671 220.966 237.481 221.07 237.289 221.174C237.293 220.736 237.439 220.655 237.862 220.861Z" fill="white"/>
<path d="M241.578 218.908C241.391 219.014 241.203 219.119 241.017 219.225C240.975 218.871 241.164 218.765 241.578 218.908Z" fill="white"/>
<path d="M234.618 222.588C234.506 222.638 234.395 222.687 234.284 222.737C234.287 222.659 234.194 222.58 234.316 222.502C234.475 222.4 234.621 222.367 234.786 222.472C234.786 222.59 234.712 222.603 234.618 222.589V222.588Z" fill="white"/>
<path d="M228.446 221.801C228.446 221.653 228.446 221.505 228.446 221.356C228.636 221.327 228.666 221.429 228.668 221.593C228.671 221.763 228.604 221.821 228.446 221.801Z" fill="white"/>
<path d="M245.686 209.265C245.844 209.159 246.013 209.075 246.193 209.009C246.128 209.367 246.043 209.411 245.686 209.265Z" fill="white"/>
<path d="M243.192 218.085C243.154 218.118 243.115 218.151 243.076 218.184C243.002 218.215 242.928 218.246 242.854 218.278C242.879 218.162 242.777 217.996 242.985 217.949C243.106 217.921 243.175 217.961 243.193 218.085H243.192Z" fill="white"/>
<path d="M247.084 216.07C246.954 216.146 246.825 216.222 246.695 216.298C246.665 215.986 246.727 215.949 247.084 216.07Z" fill="white"/>
<path d="M239.517 212.229C239.643 212.166 239.77 212.104 239.897 212.042C239.904 212.279 239.777 212.342 239.517 212.229Z" fill="white"/>
<path d="M245.131 217.116C245.018 217.111 244.966 217.235 244.859 217.243C244.875 216.939 244.934 216.904 245.251 217.016C245.211 217.049 245.172 217.083 245.131 217.116Z" fill="white"/>
<path d="M240.343 211.821C240.418 211.784 240.492 211.747 240.565 211.71C240.552 211.8 240.627 211.929 240.516 211.973C240.426 212.009 240.355 211.926 240.343 211.821Z" fill="white"/>
<path d="M240.905 211.521C240.924 211.521 240.943 211.521 240.961 211.521C240.972 211.545 240.977 211.574 240.995 211.591C241.041 211.638 241.155 211.608 241.144 211.713C241.14 211.763 241.084 211.782 241.038 211.776C240.937 211.764 240.907 211.692 240.905 211.602C240.905 211.575 240.905 211.547 240.905 211.521Z" fill="white"/>
<path d="M242.134 218.63C242.056 218.712 241.95 218.741 241.851 218.784C241.854 218.564 241.963 218.539 242.134 218.63Z" fill="white"/>
<path d="M228.446 223.303C228.446 223.248 228.446 223.192 228.446 223.137C228.514 223.154 228.635 223.092 228.635 223.21C228.635 223.306 228.525 223.302 228.446 223.303Z" fill="white"/>
<path d="M231.614 224.139C231.594 224.189 231.546 224.19 231.505 224.2C231.491 224.132 231.386 224.047 231.5 224.001C231.583 223.967 231.604 224.067 231.614 224.139Z" fill="white"/>
<path d="M239.179 212.388C239.22 212.328 239.286 212.318 239.349 212.298C239.326 212.363 239.414 212.452 239.338 212.492C239.264 212.53 239.211 212.457 239.18 212.388H239.179Z" fill="white"/>
<path d="M212.567 210.836C212.849 209.604 213.14 208.374 213.41 207.138C213.605 206.254 213.782 205.366 214.015 204.49C214.088 204.216 214.131 203.935 214.188 203.658C214.11 203.479 214.193 203.311 214.232 203.144C214.403 202.406 214.616 201.677 214.73 200.925C215.048 199.594 215.358 198.261 215.639 196.921C215.869 195.961 216.103 195.001 216.293 194.03C216.433 193.618 216.507 193.192 216.588 192.766C216.627 192.599 216.667 192.433 216.685 192.261C216.696 192.176 216.726 192.098 216.756 192.019C216.797 191.928 216.792 191.831 216.802 191.735C216.812 191.662 216.835 191.593 216.861 191.526C217.079 190.645 217.284 189.762 217.487 188.878C217.514 188.762 217.519 188.636 217.63 188.557C217.674 188.535 217.719 188.535 217.764 188.553C218.031 188.811 217.892 189.111 217.825 189.384C217.776 189.583 217.711 189.774 217.718 189.98C217.719 190.026 217.731 190.083 217.707 190.117C217.455 190.496 217.522 190.978 217.296 191.364C217.268 191.413 217.231 191.466 217.238 191.518C217.303 192.014 217.027 192.45 216.996 192.929C216.988 193.061 216.953 193.184 216.881 193.296C216.836 193.367 216.772 193.446 216.788 193.524C216.902 194.077 216.625 194.572 216.517 195.082C216.43 195.491 216.314 195.913 216.173 196.318C216.101 196.522 216.063 196.73 216.124 196.946C216.137 196.99 216.154 197.048 216.132 197.083C215.937 197.407 215.978 197.798 215.83 198.134C215.8 198.201 215.742 198.262 215.737 198.334C215.702 198.871 215.469 199.368 215.44 199.905C215.431 200.075 215.413 200.236 215.305 200.377C215.26 200.436 215.226 200.506 215.226 200.582C215.221 201.398 214.78 202.126 214.75 202.937C214.509 203.238 214.599 203.615 214.511 203.941C214.387 204.4 214.42 204.904 214.153 205.324C214.112 205.387 214.118 205.467 214.121 205.542C214.134 205.768 214.113 205.987 213.99 206.186C213.975 206.209 213.959 206.237 213.96 206.262C213.98 206.815 213.769 207.327 213.635 207.845C213.525 208.27 213.486 208.713 213.326 209.124C213.261 209.291 213.23 209.463 213.22 209.638C213.209 209.826 213.2 210.009 213.056 210.153C213.037 210.173 213.016 210.203 213.022 210.227C213.15 210.752 212.69 211.187 212.794 211.708C212.811 211.79 212.776 211.873 212.747 211.952C212.539 212.534 212.443 213.141 212.309 213.739C212.21 214.182 212.194 214.673 211.936 215.081C211.916 215.112 211.893 215.148 211.895 215.183C211.915 215.589 211.721 215.956 211.679 216.341C211.633 216.758 211.446 217.136 211.423 217.557C211.409 217.805 211.24 217.898 210.977 217.901C211.259 216.64 211.539 215.379 211.821 214.118C211.857 213.957 211.888 213.793 211.922 213.632C212.137 212.699 212.352 211.766 212.567 210.833V210.836Z" fill="white"/>
<path d="M210.978 217.905C211.275 217.816 211.407 217.636 211.385 217.311C211.375 217.157 211.397 216.977 211.51 216.838C211.522 216.824 211.543 216.807 211.541 216.793C211.49 216.305 211.854 215.891 211.793 215.405C211.777 215.275 211.788 215.137 211.863 215.064C212.046 214.883 212.003 214.665 212.036 214.453C212.065 214.27 212.078 214.081 212.216 213.913C212.374 213.719 212.192 213.448 212.301 213.22C212.488 212.827 212.417 212.355 212.67 211.977C212.709 211.919 212.745 211.823 212.724 211.767C212.575 211.376 212.853 211.074 212.929 210.731C212.953 210.62 212.972 210.524 212.937 210.408C212.896 210.276 212.884 210.132 213.046 210.046C213.17 209.981 213.132 209.855 213.141 209.747C213.165 209.485 213.161 209.227 213.323 208.985C213.447 208.802 213.284 208.528 213.413 208.339C213.668 207.967 213.483 207.476 213.788 207.109C213.933 206.936 213.828 206.663 213.842 206.439C213.858 206.195 214.046 206.038 214.051 205.795C214.054 205.636 213.956 205.458 214.068 205.312C214.368 204.92 214.208 204.397 214.458 203.987C214.518 203.887 214.503 203.697 214.449 203.582C214.368 203.405 214.387 203.292 214.536 203.179C214.777 203.001 214.678 202.714 214.732 202.48C214.76 202.362 214.805 202.247 214.825 202.138C214.91 201.679 215.13 201.252 215.141 200.778C215.146 200.591 215.133 200.412 215.297 200.268C215.393 200.182 215.359 200.043 215.367 199.923C215.386 199.652 215.364 199.369 215.555 199.138C215.581 199.106 215.588 199.049 215.586 199.005C215.569 198.638 215.611 198.287 215.836 197.976C215.898 197.89 215.865 197.777 215.867 197.676C215.87 197.53 215.85 197.386 215.999 197.277C216.063 197.231 216.109 197.113 216.074 197.023C215.927 196.639 216.11 196.301 216.211 195.951C216.231 195.882 216.256 195.808 216.254 195.737C216.246 195.555 216.256 195.417 216.413 195.259C216.575 195.095 216.457 194.798 216.533 194.57C216.551 194.519 216.525 194.43 216.554 194.41C216.828 194.229 216.699 193.967 216.701 193.734C216.703 193.549 216.704 193.381 216.844 193.22C217.002 193.036 216.875 192.758 216.984 192.554C217.172 192.207 217.071 191.809 217.18 191.467C217.283 191.147 217.447 190.855 217.405 190.503C217.399 190.452 217.449 190.425 217.491 190.404C217.563 190.368 217.621 190.299 217.618 190.232C217.601 189.738 217.82 189.285 217.85 188.801C217.855 188.727 217.791 188.648 217.76 188.572C217.641 188.494 217.723 188.439 217.778 188.376C217.986 188.144 218.06 187.874 218.069 187.56C218.081 187.162 218.227 186.788 218.377 186.423C218.519 186.08 218.519 185.761 218.288 185.458C218.275 185.397 218.292 185.347 218.347 185.315C218.572 185.325 218.674 185.197 218.718 184.995C218.739 184.897 218.756 184.797 218.805 184.705C218.863 184.596 218.841 184.511 218.725 184.457C218.608 184.404 218.578 184.302 218.569 184.187C218.569 184.146 218.586 184.112 218.616 184.083C218.837 183.972 218.879 183.831 218.743 183.66C218.74 183.632 218.747 183.607 218.761 183.582C219.031 183.348 219.164 183.037 219.247 182.703C219.303 182.473 219.439 182.333 219.671 182.35C219.895 182.368 220.027 182.248 220.165 182.113C221.069 182.095 221.972 182.049 222.874 182.138C223.149 182.165 223.428 182.143 223.705 182.143C224.154 182.501 224.679 182.344 225.169 182.328C225.61 182.313 225.793 182.421 225.828 182.891C225.823 182.947 225.82 183.004 225.815 183.059C225.773 183.108 225.687 183.142 225.763 183.226L225.759 183.339C225.497 183.82 225.128 184.279 225.444 184.879C225.444 184.921 225.436 184.96 225.42 184.997C225.412 185.014 225.402 185.031 225.388 185.041C225.163 185.201 225.119 185.396 225.257 185.628C225.262 185.67 225.254 185.708 225.23 185.741C224.862 185.97 224.814 186.183 225.033 186.615C225.034 186.658 225.02 186.697 225.001 186.734L224.983 186.729C224.679 186.956 224.564 187.237 224.661 187.623C224.7 187.78 224.532 187.932 224.498 188.111C224.436 188.444 224.433 188.797 224.283 189.108C224.204 189.272 224.348 189.387 224.331 189.529L224.314 189.627C224.169 189.775 223.942 189.853 223.95 190.125C223.955 190.296 223.962 190.453 224.102 190.571C224.08 190.664 224.059 190.757 224.037 190.849C223.883 190.962 223.795 191.104 223.752 191.298C223.661 191.698 223.488 192.079 223.406 192.474C223.344 192.78 223.229 193.14 223.454 193.453C223.508 193.57 223.473 193.677 223.417 193.782C223.029 193.909 223.151 194.288 223.047 194.554C223.018 194.628 223.143 194.676 223.176 194.753C223.187 194.841 223.167 194.919 223.107 194.985C222.742 195.059 222.839 195.378 222.799 195.607C222.768 195.783 222.807 195.966 222.702 196.137C222.638 196.239 222.702 196.35 222.772 196.442C222.785 196.466 222.789 196.491 222.785 196.519C222.512 196.662 222.432 196.869 222.426 197.189C222.421 197.406 222.389 197.668 222.243 197.89C222.083 198.136 222.133 198.439 222.158 198.724C221.991 198.918 221.968 199.172 221.933 199.402C221.897 199.637 221.828 199.871 221.835 200.113C221.836 200.169 221.835 200.228 221.812 200.278C221.538 200.866 221.437 201.505 221.252 202.119C221.07 202.252 221.129 202.438 221.145 202.615C221.143 202.641 221.138 202.668 221.131 202.695C221.095 202.908 221.127 203.133 220.971 203.323C220.902 203.409 220.989 203.537 220.967 203.646C220.864 204.178 220.778 204.723 220.609 205.229C220.45 205.705 220.407 206.203 220.225 206.667C220.141 206.879 220.131 207.083 220.323 207.252C220.337 207.279 220.339 207.306 220.33 207.334C219.931 207.581 219.994 208.025 219.897 208.394C219.844 208.599 219.819 208.812 219.73 209.007C219.605 209.281 219.644 209.586 219.564 209.87C219.536 209.97 219.594 210.067 219.662 210.149C219.671 210.178 219.667 210.206 219.651 210.232C219.443 210.327 219.37 210.488 219.385 210.715C219.397 210.904 219.397 211.095 219.407 211.285C219.4 211.314 219.386 211.339 219.366 211.36C219.191 211.466 219.098 211.611 219.148 211.824C219.154 211.851 219.167 211.885 219.153 211.907C218.833 212.389 218.908 212.975 218.734 213.496C218.671 213.687 218.632 213.886 218.656 214.096C218.688 214.382 218.483 214.599 218.382 214.838C218.235 215.189 218.212 215.549 218.169 215.911C218.146 216.113 218.154 216.313 218.048 216.501C217.963 216.654 218 216.806 218.11 216.939C218.146 217.029 218.113 217.108 218.067 217.184C217.741 217.441 217.748 217.822 217.71 218.179C217.685 218.404 217.543 218.583 217.512 218.803C217.493 218.93 217.447 219.053 217.486 219.183C217.519 219.292 217.47 219.371 217.413 219.462C217.289 219.663 217.176 219.86 217.22 220.129C217.252 220.33 217.149 220.541 217.094 220.745C217.035 220.964 217.023 221.181 217.112 221.396C217.114 221.423 217.107 221.45 217.093 221.473C217.065 221.498 217.105 221.473 217.074 221.492C216.842 221.63 216.976 221.935 216.772 222.111C216.566 222.289 216.679 222.535 216.803 222.742C216.816 222.8 216.81 222.857 216.787 222.913C216.457 223.174 216.407 223.542 216.405 223.926C216.405 224.023 216.385 224.108 216.327 224.184C216.288 224.236 216.244 224.288 216.238 224.355C216.165 225.063 215.913 225.735 215.814 226.44C215.777 226.703 215.773 226.989 215.614 227.231C215.498 227.407 215.705 227.536 215.709 227.697C215.649 228.338 215.428 228.947 215.322 229.579C215.253 229.81 215.209 230.048 215.163 230.284C214.888 231.493 214.616 232.703 214.337 233.911C214.291 234.109 214.248 234.308 214.219 234.51C214.203 234.624 214.176 234.73 214.044 234.766C213.683 234.8 213.322 234.78 212.96 234.781C211.08 234.787 209.199 234.774 207.319 234.788C207.287 234.795 207.253 234.796 207.219 234.789C206.967 234.608 207.136 234.433 207.226 234.257C207.443 233.32 207.663 232.383 207.877 231.446C207.988 230.956 208.086 230.464 208.191 229.974C208.391 229.101 208.592 228.229 208.792 227.356C208.747 227.055 208.847 226.786 208.973 226.522L209.073 226.133C209.043 225.932 209.084 225.748 209.19 225.576C209.398 224.765 209.595 223.951 209.746 223.127C209.922 222.581 210.037 222.021 210.133 221.457C210.344 220.818 210.413 220.147 210.579 219.497C210.716 218.964 210.846 218.428 210.979 217.894L210.978 217.905Z" fill="white"/>
<path d="M225.825 182.897C225.788 182.762 225.636 182.691 225.638 182.518C225.638 182.434 225.507 182.344 225.377 182.392C224.957 182.548 224.525 182.336 224.098 182.444C223.938 182.485 223.762 182.411 223.768 182.179C224.51 182.128 225.252 182.134 225.993 182.176C226.134 182.263 225.993 182.354 225.982 182.431C225.956 182.591 225.881 182.743 225.827 182.898L225.825 182.897Z" fill="white"/>
<path d="M225.992 182.176C225.25 182.176 224.509 182.179 223.767 182.179C222.543 182.179 221.319 182.179 220.094 182.179C219.765 182.313 219.434 182.298 219.103 182.191C219.074 182.04 219.2 182.058 219.277 182.047C219.431 182.023 219.589 182.03 219.745 182.038C219.903 182.031 220.059 182.027 220.203 182.109C221.076 182.109 221.948 182.109 222.821 182.109C223.763 182.113 224.707 182.113 225.649 182.121C225.763 182.121 225.89 182.079 225.991 182.174L225.992 182.176Z" fill="white"/>
<path d="M225.701 183.674C225.595 184.085 225.488 184.497 225.383 184.909C225.369 184.858 225.372 184.783 225.339 184.759C225.157 184.628 225.193 184.454 225.246 184.289C225.328 184.033 225.472 183.798 225.501 183.521C225.516 183.382 225.677 183.413 225.757 183.346C225.738 183.455 225.72 183.565 225.701 183.674Z" fill="white"/>
<path d="M225.762 183.233C225.7 183.228 225.611 183.243 225.618 183.152C225.627 183.027 225.741 183.08 225.814 183.066C225.836 183.135 225.776 183.177 225.762 183.233Z" fill="white"/>
<path d="M223.66 192.639C223.578 192.874 223.536 193.119 223.499 193.364C223.519 193.426 223.527 193.48 223.434 193.475C223.381 193.469 223.291 193.479 223.291 193.422C223.296 193.063 223.196 192.693 223.382 192.349C223.4 192.318 223.427 192.285 223.428 192.253C223.442 191.839 223.696 191.487 223.728 191.074C223.739 190.918 223.879 190.855 224.036 190.857C223.992 191.312 223.809 191.734 223.739 192.182C223.715 192.335 223.644 192.479 223.66 192.639Z" fill="white"/>
<path d="M224.33 189.537C224.175 189.39 224.122 189.256 224.243 189.032C224.385 188.771 224.339 188.447 224.426 188.157C224.473 188.003 224.44 187.827 224.591 187.711C224.654 187.662 224.597 187.617 224.579 187.567C224.523 187.405 224.536 187.247 224.594 187.083C224.662 186.889 224.795 186.788 224.98 186.738C224.75 187.669 224.614 188.621 224.33 189.538V189.537Z" fill="white"/>
<path d="M224.101 190.579C223.954 190.587 223.872 190.527 223.878 190.371C223.883 190.251 223.884 190.132 223.891 190.013C223.905 189.747 224.101 189.681 224.313 189.635C224.239 189.949 224.212 190.273 224.101 190.579Z" fill="white"/>
<path d="M217.651 188.577C217.714 188.266 217.777 187.955 217.842 187.646C217.863 187.549 217.895 187.452 217.863 187.353C217.807 187.17 217.898 187.003 217.921 186.829C218.002 186.454 218.111 186.088 218.193 185.714C218.214 185.618 218.227 185.513 218.331 185.46C218.557 185.67 218.61 186.179 218.463 186.447C218.278 186.787 218.151 187.166 218.139 187.542C218.126 187.932 218.046 188.249 217.743 188.5C217.734 188.508 217.753 188.551 217.758 188.578H217.652L217.651 188.577Z" fill="white"/>
<path d="M221.108 203.825C220.992 204.32 220.876 204.814 220.762 205.309C220.61 205.964 220.459 206.62 220.308 207.275C220.106 207.202 220.019 207.025 220.111 206.767C220.256 206.369 220.347 205.962 220.388 205.54C220.394 205.481 220.434 205.409 220.481 205.375C220.573 205.308 220.578 205.24 220.549 205.14C220.533 205.083 220.54 205.005 220.568 204.952C220.74 204.613 220.763 204.24 220.821 203.874C220.835 203.79 220.86 203.713 220.931 203.659C220.931 203.316 221.122 203.004 221.098 202.657C221.143 202.605 221.159 202.547 221.124 202.485C221.049 202.348 221.106 202.246 221.209 202.157C221.263 201.749 221.338 201.345 221.53 200.976C221.559 200.921 221.564 200.878 221.552 200.822C221.521 200.66 221.54 200.521 221.684 200.405C221.762 200.343 221.763 200.227 221.766 200.122C221.784 199.71 221.871 199.308 221.968 198.909C221.992 198.807 222.02 198.709 222.154 198.706C222.187 198.672 222.221 198.674 222.253 198.706C221.973 199.957 221.691 201.209 221.411 202.459C221.309 202.915 221.208 203.37 221.107 203.826L221.108 203.825Z" fill="white"/>
<path d="M219.37 211.338C219.3 211.86 219.152 212.366 219.037 212.878C218.741 214.198 218.443 215.517 218.144 216.836C218.135 216.879 218.111 216.919 218.092 216.96C217.908 216.859 217.847 216.69 217.975 216.486C218.084 216.314 218.071 216.139 218.096 215.959C218.147 215.572 218.117 215.176 218.34 214.81C218.571 214.431 218.544 213.962 218.661 213.542C218.765 213.171 218.689 212.76 218.924 212.425C218.967 212.363 218.933 212.324 218.902 212.276C218.86 212.209 218.853 212.079 218.885 212.07C219.164 211.992 219.016 211.757 219.068 211.601C219.119 211.448 219.181 211.325 219.37 211.336V211.338Z" fill="white"/>
<path d="M216.742 222.915C216.44 224.247 216.137 225.58 215.832 226.912C215.772 227.175 215.762 227.45 215.642 227.7C215.519 227.484 215.396 227.296 215.637 227.044C215.717 226.96 215.709 226.708 215.736 226.536C215.806 226.076 215.924 225.625 215.976 225.163C215.979 225.135 215.967 225.092 215.981 225.081C216.324 224.828 215.994 224.365 216.307 224.066C216.413 223.965 216.365 223.64 216.395 223.417C216.43 223.161 216.529 223.015 216.743 222.914L216.742 222.915Z" fill="white"/>
<path d="M217.376 220.244C217.298 220.582 217.222 220.92 217.143 221.258C217.13 221.31 217.105 221.36 217.086 221.411C216.89 221.226 216.958 220.993 217.019 220.796C217.079 220.605 217.04 220.387 217.177 220.218C217.186 220.206 217.189 220.179 217.182 220.166C217.019 219.833 217.235 219.612 217.413 219.38C217.446 219.337 217.448 219.301 217.434 219.254C217.335 218.912 217.471 218.616 217.631 218.331C217.665 218.271 217.668 218.236 217.629 218.187C217.573 218.118 217.592 218.045 217.638 217.983C217.714 217.88 217.716 217.773 217.705 217.65C217.685 217.414 217.869 217.303 218.026 217.181C217.988 217.591 217.861 217.982 217.787 218.384C217.772 218.464 217.765 218.547 217.755 218.628C217.79 219.005 217.638 219.349 217.563 219.706C217.523 219.89 217.53 220.096 217.378 220.244H217.376Z" fill="white"/>
<path d="M220.305 207.332L220.318 207.442C220.154 207.855 220.066 208.287 219.992 208.723C220.037 209.083 219.973 209.419 219.769 209.724C219.727 209.873 219.683 210.021 219.64 210.169C219.359 210.053 219.514 209.838 219.517 209.654C219.524 209.186 219.796 208.784 219.826 208.317C219.84 208.107 219.92 207.895 219.955 207.681C219.985 207.499 220.114 207.375 220.304 207.332H220.305Z" fill="white"/>
<path d="M218.77 183.622C218.875 183.14 218.943 182.648 219.103 182.179C219.433 182.179 219.764 182.179 220.094 182.179C220.104 182.311 220.082 182.426 219.919 182.436C219.375 182.468 219.315 182.524 219.204 183.051C219.15 183.305 219.002 183.499 218.77 183.622Z" fill="white"/>
<path d="M222.253 198.705C222.22 198.705 222.186 198.705 222.154 198.705C222.019 198.492 222.035 197.996 222.208 197.807C222.281 197.727 222.254 197.647 222.28 197.577C222.378 197.308 222.319 197.02 222.406 196.754C222.463 196.579 222.616 196.572 222.755 196.537C222.588 197.26 222.42 197.983 222.253 198.707V198.705Z" fill="white"/>
<path d="M223.1 194.976C223.027 195.485 222.925 195.989 222.763 196.478C222.579 196.372 222.531 196.184 222.662 196.014C222.709 195.954 222.755 195.921 222.728 195.83C222.658 195.592 222.775 195.363 222.778 195.125C222.781 194.92 222.975 194.989 223.102 194.974L223.1 194.976Z" fill="white"/>
<path d="M209.969 234.778C209.131 234.775 208.293 234.772 207.454 234.769C207.381 234.769 207.308 234.763 207.234 234.76C207.372 234.684 207.524 234.713 207.67 234.713C209.81 234.713 211.948 234.715 214.088 234.716C213.887 234.837 213.671 234.74 213.462 234.766C213.354 234.78 213.245 234.774 213.136 234.777C213.077 234.803 213.016 234.822 212.95 234.821C211.956 234.809 210.962 234.861 209.969 234.777V234.778Z" fill="white"/>
<path d="M218.366 185.347C218.391 185.01 218.544 184.696 218.539 184.353C218.625 184.323 218.603 184.246 218.612 184.183C218.661 184.279 218.651 184.411 218.821 184.423C218.931 184.429 218.959 184.57 218.915 184.643C218.812 184.811 218.8 185.003 218.734 185.179C218.664 185.368 218.558 185.442 218.366 185.349V185.347Z" fill="white"/>
<path d="M217.078 221.466C216.974 221.902 216.87 222.337 216.764 222.773C216.524 222.484 216.522 222.243 216.785 221.986C216.875 221.897 216.866 221.807 216.864 221.711C216.86 221.559 216.901 221.456 217.077 221.466H217.078Z" fill="white"/>
<path d="M223.374 193.807C223.3 194.123 223.224 194.438 223.15 194.753C222.938 194.697 222.87 194.575 223.015 194.397C223.09 194.305 223.036 194.223 223.043 194.139C223.059 193.928 223.127 193.781 223.375 193.807H223.374Z" fill="white"/>
<path d="M219.636 210.225C219.554 210.597 219.516 210.979 219.37 211.336C219.275 211.049 219.317 210.752 219.32 210.459C219.322 210.265 219.483 210.24 219.636 210.225Z" fill="white"/>
<path d="M225.202 185.738C225.15 186.041 225.109 186.347 224.994 186.635C224.692 186.292 224.801 185.821 225.202 185.738Z" fill="white"/>
<path d="M225.369 185.015C225.333 185.213 225.297 185.412 225.261 185.611C225.245 185.615 225.23 185.622 225.216 185.633C224.883 185.335 224.921 185.178 225.368 185.015H225.369Z" fill="white"/>
<path d="M218.643 184.122C218.683 183.974 218.725 183.827 218.766 183.678C218.899 183.7 218.985 183.776 218.975 183.914C218.962 184.126 218.745 184.038 218.643 184.122Z" fill="white"/>
<path d="M221.095 202.656C221.157 203.01 221.047 203.335 220.928 203.658C220.872 203.478 220.837 203.315 220.998 203.15C221.123 203.022 220.966 202.804 221.095 202.656Z" fill="white"/>
<path d="M221.207 202.156C221.186 202.273 221.077 202.376 221.181 202.513C221.23 202.575 221.154 202.625 221.095 202.658C221.079 202.578 221.057 202.498 221.047 202.418C221.029 202.29 221.037 202.173 221.207 202.157V202.156Z" fill="white"/>
<defs>
<linearGradient id="paint0_linear_117_3372" x1="329.461" y1="104.46" x2="293.025" y2="219.487" gradientUnits="userSpaceOnUse">
<stop stop-color="#FF6B6B"/>
<stop offset="1" stop-color="#E63946"/>
</linearGradient>
<linearGradient id="paint1_linear_117_3372" x1="329.202" y1="60.2545" x2="270.562" y2="228.696" gradientUnits="userSpaceOnUse">
<stop stop-color="#FFD700"/>
<stop offset="1" stop-color="#FFD700"/>
</linearGradient>
<linearGradient id="paint2_linear_117_3372" x1="99.0141" y1="73.3415" x2="185.257" y2="261.925" gradientUnits="userSpaceOnUse">
<stop stop-color="#FF6B6B"/>
<stop offset="1" stop-color="#E63946"/>
</linearGradient>
<linearGradient id="paint3_linear_117_3372" x1="78.7114" y1="128.332" x2="185.516" y2="271.181" gradientUnits="userSpaceOnUse">
<stop stop-color="#E3D17D"/>
<stop offset="1" stop-color="#F6AC60"/>
</linearGradient>
<linearGradient id="paint4_linear_117_3372" x1="116.302" y1="190.418" x2="176.588" y2="294.939" gradientUnits="userSpaceOnUse">
<stop stop-color="#FFC444"/>
<stop offset="1" stop-color="#F36F56"/>
</linearGradient>
<linearGradient id="paint5_linear_117_3372" x1="107.434" y1="303.413" x2="246.822" y2="184.51" gradientUnits="userSpaceOnUse">
<stop stop-color="#444B8C"/>
<stop offset="1" stop-color="#26264F"/>
</linearGradient>
<linearGradient id="paint6_linear_117_3372" x1="223.831" y1="344.974" x2="204.724" y2="-168.67" gradientUnits="userSpaceOnUse">
<stop stop-color="#444B8C"/>
<stop offset="1" stop-color="#26264F"/>
</linearGradient>
<linearGradient id="paint7_linear_117_3372" x1="294.784" y1="206.856" x2="141.683" y2="206.856" gradientUnits="userSpaceOnUse">
<stop stop-color="#00A896"/>
<stop offset="1" stop-color="#036D5E"/>
</linearGradient>
<linearGradient id="paint8_linear_117_3372" x1="224.891" y1="201.226" x2="136.922" y2="201.226" gradientUnits="userSpaceOnUse">
<stop stop-color="#FF9085"/>
<stop offset="1" stop-color="#FB6FBB"/>
</linearGradient>
<linearGradient id="paint9_linear_117_3372" x1="300.895" y1="239.08" x2="226.017" y2="241.865" gradientUnits="userSpaceOnUse">
<stop stop-color="#FF9085"/>
<stop offset="1" stop-color="#FB6FBB"/>
</linearGradient>
</defs>
</svg>
