<?xml version="1.0" encoding="UTF-8"?>
<svg id="Layer_1" data-name="Layer 1" xmlns="http://www.w3.org/2000/svg" xmlns:xlink="http://www.w3.org/1999/xlink" viewBox="0 0 3710 3710">
  <defs>
    <style>
      .cls-1 {
        fill: url(#linear-gradient-2);
      }

      .cls-2 {
        fill: url(#Degradado_sin_nombre_152-3);
        filter: url(#drop-shadow-4);
      }

      .cls-3 {
        fill: #fff;
      }

      .cls-4 {
        fill: #ffc700;
      }

      .cls-5 {
        filter: url(#drop-shadow-3);
      }

      .cls-6 {
        fill: #ebebf2;
      }

      .cls-7 {
        fill: #3d3d89;
      }

      .cls-8 {
        fill: url(#Degradado_sin_nombre_152-2);
        filter: url(#drop-shadow-2);
      }

      .cls-9 {
        fill: #de8bdf;
      }

      .cls-10 {
        fill: #f4f7fa;
      }

      .cls-11 {
        fill: url(#linear-gradient-3);
      }

      .cls-12 {
        fill: url(#linear-gradient);
      }

      .cls-13 {
        fill: #e63946;
      }

      .cls-14 {
        fill: #143;
        opacity: .16;
      }

      .cls-15 {
        fill: url(#Degradado_sin_nombre_152);
        filter: url(#drop-shadow-1);
      }
    </style>
    <linearGradient id="linear-gradient" x1="5428.98" y1="1067.68" x2="4226.35" y2="2093.57" gradientTransform="translate(6417.18 3710) rotate(-180)" gradientUnits="userSpaceOnUse">
      <stop offset="0" stop-color="#444b8c"/>
      <stop offset="1" stop-color="#26264f"/>
    </linearGradient>
    <linearGradient id="linear-gradient-2" x1="1443.41" y1="-2103.73" x2="5875.08" y2="-2268.58" gradientTransform="translate(4096.21 4444.32) rotate(-90)" gradientUnits="userSpaceOnUse">
      <stop offset="0" stop-color="#444b8c"/>
      <stop offset="1" stop-color="#26264f"/>
    </linearGradient>
    <linearGradient id="linear-gradient-3" x1="3812.53" y1="1900.76" x2="5133.47" y2="1900.76" gradientTransform="translate(6417.18 3710) rotate(-180)" gradientUnits="userSpaceOnUse">
      <stop offset="0" stop-color="#00a896"/>
      <stop offset="1" stop-color="#036d5e"/>
    </linearGradient>
    <linearGradient id="Degradado_sin_nombre_152" data-name="Degradado sin nombre 152" x1="946.12" y1="2190.13" x2="1624.43" y2="2868.45" gradientUnits="userSpaceOnUse">
      <stop offset="0" stop-color="#35c9e2" stop-opacity=".5"/>
      <stop offset="1" stop-color="#35e6bb"/>
    </linearGradient>
    <filter id="drop-shadow-1" filterUnits="userSpaceOnUse">
      <feOffset dx="0" dy="8.89"/>
      <feGaussianBlur result="blur" stdDeviation="5.33"/>
      <feFlood flood-color="#1e85ff" flood-opacity=".4"/>
      <feComposite in2="blur" operator="in"/>
      <feComposite in="SourceGraphic"/>
    </filter>
    <linearGradient id="Degradado_sin_nombre_152-2" data-name="Degradado sin nombre 152" x1="2407.85" y1="1168.37" x2="3017.52" y2="1778.04" xlink:href="#Degradado_sin_nombre_152"/>
    <filter id="drop-shadow-2" filterUnits="userSpaceOnUse">
      <feOffset dx="0" dy="8.89"/>
      <feGaussianBlur result="blur-2" stdDeviation="5.33"/>
      <feFlood flood-color="#1e85ff" flood-opacity=".4"/>
      <feComposite in2="blur-2" operator="in"/>
      <feComposite in="SourceGraphic"/>
    </filter>
    <filter id="drop-shadow-3" filterUnits="userSpaceOnUse">
      <feOffset dx="0" dy="3.75"/>
      <feGaussianBlur result="blur-3" stdDeviation="3.75"/>
      <feFlood flood-color="#1e85ff" flood-opacity=".4"/>
      <feComposite in2="blur-3" operator="in"/>
      <feComposite in="SourceGraphic"/>
    </filter>
    <linearGradient id="Degradado_sin_nombre_152-3" data-name="Degradado sin nombre 152" x1="867.44" y1="712.2" x2="1513.6" y2="1358.36" xlink:href="#Degradado_sin_nombre_152"/>
    <filter id="drop-shadow-4" filterUnits="userSpaceOnUse">
      <feOffset dx="0" dy="8.89"/>
      <feGaussianBlur result="blur-4" stdDeviation="5.33"/>
      <feFlood flood-color="#1e85ff" flood-opacity=".4"/>
      <feComposite in2="blur-4" operator="in"/>
      <feComposite in="SourceGraphic"/>
    </filter>
  </defs>
  <g id="Illustration">
    <g>
      <path class="cls-10" d="m533.53,1815.1c-47.17,240.67-142.76,728.44,86,1054.75,408.79,583.09,1809.75,558.06,2423.61-196.18,42.87-52.68,402.42-509.04,292.91-1089.42-141.12-747.89-983.27-1288.99-1651.63-1142.36-422.82,92.76-693.48,442.58-803.32,584.71-46.74,60.48-260.78,345.61-347.57,788.5h0Z"/>
      <g>
        <g>
          <g>
            <path class="cls-12" d="m1281.51,505.58v2513.17c0,37.58,32.11,45.67,68.52,46.86l1247.9,64.54,18.9.62c38.79,1.27,70.59-29.51,70.59-68.4V461.96c0-38.89-31.79-69.66-70.59-68.4l-25.66.84-1252.47,97.41c-36.41,1.19-57.2-23.82-57.2,13.76h.01Z"/>
            <path class="cls-1" d="m1242.63,505.58v2513.18c0,37.58,29.74,69.31,66.15,70.5l1269.18,41.52c38.79,1.27,70.59-29.51,70.59-68.4V461.96c0-38.89-31.79-69.66-70.59-68.4l-1269.18,41.52c-36.41,1.19-66.15,32.91-66.15,70.5h0Z"/>
            <path class="cls-11" d="m1283.71,643.74v2328.16c0,35.09,27.79,64.67,61.81,65.74l1193.43,37.49c36.11,1.13,65.7-27.58,65.7-63.81V607.3c0-36.23-29.59-65.01-65.7-63.96l-1193.43,34.8c-34.02.99-61.81,30.51-61.81,65.6h0Z"/>
          </g>
          <path class="cls-9" d="m1910.02,492.55c0,13.24,10.55,23.66,23.57,23.26,13.03-.39,23.6-11.46,23.6-24.72s-10.57-23.67-23.6-23.26c-13.02.41-23.57,11.48-23.57,24.72Z"/>
        </g>
        <path class="cls-14" d="m1242.63,504.15c0-37.3,29.59-67.87,66.86-69.08l692.12-22.64c-256.73,272.06-314.45,500.31-321.04,656.3-18.81,445.24,364.76,639.22,293.44,1126.14-19.55,133.48-62.79,217.32-79.68,447.91-14.4,196.59.65,359.3,15.65,466.16l-601.2-19.67c-36.41-1.19-66.15-32.91-66.15-70.5V504.15Z"/>
      </g>
    </g>
    <g>
      <path class="cls-3" d="m1583.83,1846.47v-51.86c2.01-2.09,4.4-3.59,7.13-4.53.73-.25,1.26-.66,1.68-1.27.68-.97,1.71-1.35,2.74-1.82,6.25-2.79,12.56-5.42,18.28-9.28,2.21-1.49,4.72-2.59,7.11-3.82,2.95-1.51,6.08-2.64,8.77-4.66,1.01-.76,2.33-.88,3.49-1.42,4.3-2.02,8.14-4.87,12.61-6.56,3.3-1.25,6.27-3.11,8.82-5.6.47-.46,1.03-.97,1.66-.85,2.41.43,3.7-1.33,5.43-2.41,2.83-1.76,6.01-2.9,9.01-4.36,3.59-1.75,7.24-3.39,10.82-5.16,3.21-1.58,5.97-3.94,9.52-4.97,3.06-.89,5.67-2.66,6.32-6.21.17-.35.42-.59.82-.64.67.05,1.17.48,1.76.73,1.62.69,3.02.72,4.22-.93.99-1.36,2.23-2.5,4.18-2.33.72.06,1.36-.44,1.97-.81,4.27-2.58,9.01-4.25,13.31-6.7,3.59-2.05,7.14-4.18,10.79-6.13,2.63-1.41,5.53-2.46,7.91-4.15,1.9-1.35,4.85-.95,5.9-3.6.14-.34.66-.41,1.04-.55,4.52-1.7,8.91-3.67,12.97-6.3.13-.09.28-.19.43-.2,3.08-.24,4.24-2.46,5.13-4.97.23-.13.47-.19.73-.18,2.08,1,3.65.37,5.68-.78,4.11-2.32,8.18-4.82,12.78-6.27,3.8-1.2,6.78-4.11,10.4-5.79,7.8-3.62,15.03-8.34,22.85-11.92,1.55-.71,3.43-1.74,4.99-.64,1.58,1.11.71,3.08.58,4.72-.35,4.23-.17,8.47-.14,12.71.06,11.43-.75,22.84-.54,34.27.07,3.49,1.16,6.9.36,10.46-.49,2.19-1.2,3.85-3.48,4.66-2.24.8-4.17,2.3-6.47,3.01-1.22.38-1.75,1.57-2.17,2.72-1.87,1.64-4.06,2.67-6.46,3.27-2.88-1.27-5.85.24-7.21,3.68-.18.14-.39.22-.62.24-1.69-.77-3.27-.31-4.78.51-2.36,1.29-4.88,2.27-7.17,3.72-.98.62-1.74,1.38-2.11,2.49-.12.2-.29.34-.49.44-1.73-.4-3.07-.22-4.7,1.02-1.23.94-3.36.9-4.98,1.83-1.39.81-2.4,1.76-2.91,3.26-1.07,1.15-2.43,1.75-3.91,2.15-1.23-.18-2.42-.26-2.87,1.29-1.12,1.07-2.43,1.75-3.94,2.06-1.83-.9-2.99.34-4.56.99-2.1.87-3.54,2.15-4.94,3.73-.34.33-.74.57-1.22.63-4.02-1.95-6.64,1.53-9.87,2.59-.58.19-1.06.76-1.7.86-1.77.26-2.12,1.44-2,2.96-.55,1.36-1.89,1.67-3.02,2.17-2.24.99-4.18,2.7-6.76,2.88-3.2-1.02-5.62,1.03-8.16,2.27-1.49.73-3.03,1.79-3.26,3.79-.93,1.07-2.11,1.63-3.5,1.8-3.87-1.87-6.73.88-9.68,2.41-2.34,1.21-4.45,2.66-7.12,3.37-2.63.69-5.16,2.15-7.44,3.71-2.92,2.01-6.34,2.96-9.29,4.86-.95.62-1.57,1.31-1.81,2.38-.21.45-.56.77-.96,1.06-.71.47-1.42.97-2.35.82-2.25-.77-4.32.16-6.19,1.08-3.23,1.59-6.39,3.27-9.82,4.41-.69.23-1.27.67-1.86,1.08-1.76,1.23-1.83,2.45-.16,3.8,1.64,1.32,3.67,1.94,5.57,2.75,5.12,2.19,10.3,4.24,15.46,6.35,3.03,1.24,5.67,3.44,8.81,4.7,6.51,2.61,12.34,6.65,18.83,9.3,4.17,1.71,8.45,3.29,12.45,5.27,3.25,1.6,6.94,2.3,9.84,4.9,1.98,1.77,4.63,3.35,7.69,1.82,2.89.15,5.14,1.95,7.67,3,3.07,1.27,5.99,2.93,8.98,4.41,11.51,5.51,23.02,11.03,34.55,16.52,12.89,6.2,25.72,12.52,38.77,18.37,2.76,1.24,3.92,3.06,3.84,5.92-.08,2.79.23,5.6-.26,8.38-.23.79-.17,1.59-.17,2.39v51.04c0,.88-.06,1.76.22,2.61.11.43.17.87.16,1.31-.04,1.08-.37,1.92-1.62,2.02-3.38-.85-6.2-2.88-9.18-4.51-9.38-5.14-19.07-9.68-28.43-14.85-9.43-5.21-19.28-9.62-28.71-14.84-6.49-3.28-13.01-6.5-19.43-9.91-12.91-6.87-26.05-13.31-38.9-20.3-15.66-8.52-31.66-16.39-47.36-24.83-10.7-5.75-21.76-10.81-32.44-16.61-9.2-4.99-18.57-9.65-27.95-14.3-3.49-1.73-7-3.51-9.97-6.11v-.02Z"/>
      <path class="cls-3" d="m1583.83,1790.77c1.8-.15,3.27-1.17,4.76-2.01,9-5.08,18.51-9.18,27.39-14.47,2.09-1.93,4.68-3.04,7.16-4.29,14.64-7.38,29.04-15.2,43.52-22.87,9.87-4.5,19.09-10.24,28.73-15.18.68-.35,1.4-.86,2.22-.27-.04,2.98-2.46,5.59-6.51,6.89-3.78,1.21-6.78,3.89-10.27,5.48-1.87.85-3.46,2.61-5.75,2.55-.32,0-.69-.04-.94.11-3.58,2.21-7.3,4.08-11.31,5.39-.9.3-1.63,1.26-2.33,2.02-1.02,1.1-2.02,1.96-3.67,1.16-.47-.23-1.19-.11-1.56.36-3,3.81-7.66,5.07-11.55,7.5-1.27.79-3,.59-4.17,1.63-2.03,1.8-4.39,3.31-6.87,3.97-2.27.6-4.04,2.02-5.91,3.02-2.5,1.34-5.5,1.82-7.59,3.93-.11.11-.2.3-.33.34-5.1,1.41-8.68,5.85-13.89,7.03-1.52.35-2.61,1.46-3.92,2.15-2.05,1.09-4.06,2.12-6.33,2.64-.76.17-1.29.62-1.63,1.29-.21.42-.23,1.05-.76,1.14-3.29.56-5.53,3.16-8.5,4.31v-3.84.02Z"/>
      <path class="cls-3" d="m1768.05,1695.16c5.18-2.83,10.36-5.67,15.53-8.5.32-.79.95-1.25,1.69-1.6,13.06-6.16,25.57-13.37,38.43-19.91,1.09-.56,2.46-2.04,3.6.09.09.4.12.8.12,1.2,0,22.78.08,45.55-.03,68.33-.11,1.23-.81,2.08-1.91,2.5-3.71,1.4-7.17,3.35-10.85,4.79-.57.22-1.16.56-1.79.11-.37-2.55,1.67-3.78,3.32-3.96,2.6-.3,3.96-2.89,6.65-2.87.63,0,1.93-1.77,1.79-2.51-.46-2.38,1.34-4.63.16-6.95-.45-.89-.39-1.86-.39-2.82,0-6.4-.32-12.82.08-19.2.59-9.49.22-18.98.42-28.46.03-1.34.33-2.68.45-4.02.14-1.46-.32-1.95-1.94-1.6-2.05.44-3.88,1.37-5.74,2.2-3.75,1.68-7.2,3.95-10.86,5.83-2.45,1.26-5.07,2.33-7.34,3.75-2.44,1.53-5.21,2.51-7.51,4.48-1.49,1.28-3.91,2.08-6.04,2.88-2.33.87-5.1,1.42-6.96,3.28-.81.81-1.66,1.18-2.6,1.5-1.14.39-2.13.81-2.98,1.79-1.8,2.06-3.58.71-5.3-.33h0Z"/>
      <path class="cls-3" d="m1680.28,1830.74c7.76,3.98,15.54,7.93,23.57,11.36,6.82,3.89,14.18,6.65,21.12,10.3,3.02,1.59,6.08,3.09,9.13,4.63-.57,1.25-1.77,1.16-2.7.92-2.5-.65-5.06-1.32-6.62-3.71-.2-.31-.3-.75-.83-.72-2.77.15-4.66-1.77-6.94-2.8-1.71-.77-3.51-1.45-5.27-2.17-4.82-1.98-9.5-4.2-14.22-6.39-5.43-2.51-10.35-6.17-16.25-7.63-.66-.16-1.13-.55-1.62-.96-2.83-2.4-6.18-3.63-9.74-4.47-1.13-.27-2.14-1-3.23-1.47-3.39-1.48-6.85-2.82-10.16-4.46-1.41-.69-3.07-1.45-3.09-3.58-.03-2.33,2.15-2.77,3.34-3.14,5.07-1.6,9.43-4.75,14.51-6.26,1.14-.34,1.59.46,2.34.76-1.02,2-2.84,2.54-4.88,2.68-1.58.73-3.16,1.46-4.73,2.19-1.47,1.95-4.01,2.17-5.91,3.63,2.88,2.57,7.04,2.75,9.72,5.5,2.38,1.15,4.67,2.51,7.23,3.24,2.13.06,3.8,1.06,5.24,2.55h-.01Z"/>
      <path class="cls-3" d="m1760.48,1698.93l7.23-3.63c-.08,3.09-1.43,4.83-4.37,5.17-1.59.18-2.18,1.68-3.68,2.18-1.9.64-4.05,1.33-5.71,2.69-.91.74-2.01.94-3.04,1.35-1.29.52-3.16.3-3.06,2.53,0,.15-.4.49-.48.45-2.47-1.09-3.48,2.15-5.66,1.9-.7-.08-1.23.15-1.43.93-.13.49-.5.81-1,.94-4.63,1.19-8.43,4.1-12.55,6.28-2.71,1.44-5.32,2.94-8.15,4.19-2.98,1.32-5.91,2.99-8.73,4.77-1.64,1.04-3.9.42-5.37,2.31-2.12,2.72-3.63,2.67-6.37.37,7.04-3.74,14.02-7.6,21.22-11.04,2.9-1.39,5.69-3,8.53-4.52,1.05-1.71,2.88-2.23,4.56-2.97,5.86-3.26,12.09-5.82,17.79-9.39,2.65-1.6,5.49-2.81,8.23-4.23.64-.33,1.3-.6,2.04-.28h0Z"/>
      <path class="cls-3" d="m1701.93,1797.08c-6.91,3.27-13.77,6.65-20.48,10.32-1.57.86-3.1,1.9-4.97,2.05-.49-1.41.12-2.17,1.39-2.79,2.31-1.13,4.97-1.92,6.91-3.3,2.97-2.11,6.48-3.09,9.32-5.29.25-.19.64-.47.85-.39,2.28.85,3.42-1.94,5.49-1.7.14.02.38-.08.42-.18.84-2.23,3.25-1.97,4.83-3.02,1.98-1.32,4.08-2.24,6.36-.55-2.57,1.29-5.14,2.58-7.71,3.87-.65.7-1.36,1.26-2.4.99h-.01Z"/>
      <path class="cls-3" d="m1750.56,1773.06c-4.04,2.07-8.09,4.14-12.13,6.2-.75-.25-1.19.63-1.9.52-.8-2.38-.38-2.53,1.81-3.52,1.98-.9,4.15-1.5,5.9-2.98,1.96-1.66,4.17-1.4,6.33-.23h-.01Z"/>
      <path class="cls-3" d="m1798.97,1749.02c-1.94,1.12-3.88,2.25-5.82,3.37-2.88,1.28-5.75,2.56-8.63,3.83-.31-2.95,2.34-3.52,4.05-4.3,2.01-.92,3.75-2.35,5.88-2.99,1.5-.45,3.05-1.69,4.52.09h0Z"/>
      <path class="cls-3" d="m1784.55,1756.22c-4.26,2.21-8.41,4.65-13,6.18-.03-1.64.78-2.68,2.27-3.26,1.78-.69,3.15-2.61,5.43-1.83.1.04.35-.08.39-.18,1.21-2.61,3.03-1.9,4.9-.91h0Z"/>
      <path class="cls-3" d="m1827.16,1912.72c.04,1.11.11,2.23.11,3.34-.02,17.94-.06,35.89-.09,53.83-.56-.6-.42-1.35-.42-2.05.01-17.68.03-35.36.06-53.04,0-.7-.17-1.45.34-2.08h0Z"/>
      <path class="cls-3" d="m1726.91,1784.57c-3.7,2.31-7.61,4.2-11.54,6.09-.5-3.18,2.53-3.45,4.14-4.69,1.43-1.1,3.48-1.37,5.23-2.08.97-.39,1.69-.34,2.16.68h.01Z"/>
      <path class="cls-3" d="m1761.12,1767.78c-3.14,1.79-6.23,3.67-9.73,4.71,1.16-1.74,2.09-3.78,4.69-3.64.41.02.57-.19.72-.47,1.17-2.17,2.68-1.82,4.32-.59h0Z"/>
      <path class="cls-3" d="m1806.61,1745.19c-2.4,1.22-4.81,2.45-7.21,3.67.08-2.37,3.88-5.28,6.15-4.74.61.14,1.05.37,1.06,1.07h0Z"/>
      <path class="cls-3" d="m1767.75,1764.38c-.91.59-1.78,1.25-2.92,1.36.08-2.36,1.42-2.04,2.92-1.36Z"/>
      <path class="cls-3" d="m2268.4,1787.59c2.11,1.54,4.6,2.37,6.84,3.66-.02,16.41-.03,32.82-.05,49.24,0,.87-.05,1.75-.08,2.62-3.22,3.09-6.87,5.38-11.07,7.07-3.03,1.22-6.45,2.37-8.07,5.76-.13.11-.28.15-.44.13-1.1.38-3.06-.67-2.92,1.76-1.97,1.21-4,2.32-6.21,3.07-1.36,0-2.66.34-3.99.62-2.09.44-3.19,1.59-3.47,3.64-.4.51-.94.72-1.57.75-3.17-.68-9.61,1.84-11.43,4.52-.36.53-.57,1.25-1.35,1.15-1.77-.21-2.05,1.12-2.5,2.3-.41.46-.94.69-1.54.77-.49.03-.94-.14-1.42-.21-2.95-.41-4.19.49-5.23,3.78-.43.45-.96.66-1.58.62-1.5-.72-2.76-.39-4.21.47-3.1,1.86-6.43,3.28-9.66,4.91-1.78.9-3.91,1.56-4.06,4.11-.21.46-.58.69-1.06.75-1.45-.08-3.32-.97-3.29,1.75-1.33,1.45-2.94,2.33-4.92,2.45-2.24-2-4.33-.17-5.29,2.79-.63.77-1.45,1.17-2.44,1.21-1.61-.43-2.93-.32-3.22,1.73-.28.43-.68.58-1.18.49-1.14-.62-2.23-.19-3.42-.03-2.62.35-3.95,3.07-6.67,3.23-.93.06-.48,1.53-.79,2.31-.56.91-1.44,1.17-2.43,1.17-1.37-.55-2.34.08-2.9,1.89-1.81,1.52-3.88,2.53-6.16,3.13-1.22-.37-2.09-.03-2.51,1.25-.65.72-1.45,1.13-2.44,1.16-3.75-.6-3.99-.47-4.76,2.6-.39.5-.89.73-1.52.63-3.33-1.18-5.14-.2-5.97,3.24-1.01,1.36-2.44,1.96-4.06,2.18-2.25-1.1-4.23.2-6.07,1.03-2.43,1.1-4.84,2.31-7.16,3.66-1.06.61-1.1,1.67-1.51,2.58-.26.42-.64.67-1.11.77-2.44-.44-4.03.46-4.78,2.7-.43.44-.95.67-1.55.77-1.47-.03-2.91-.43-4.4.25-1.63.75-2.74,1.77-3,3.59-.37.67-.97,1.03-1.66,1.3-.34.1-.69.11-1.04.04-3.79-1.17-8.3,1.19-9.46,4.94-.17.15-.37.24-.6.27-3.21-.24-3.41-.13-4.12,2.2-.67,1.22-1.93,1.63-3.03,2.25-.64.29-1.29.58-2.02.32-1.18-1.02-2.42-1.06-3.66-.15-1.46,1.07-3.34,1.3-4.76,2.56-.9.8-1.46,1.57-1.51,2.75-.33.54-.82.79-1.44.8-3.8-.99-4.48-.61-4.69,2.64-.38.82-1.04,1.14-1.92,1.07-.86-.7-.95-.02-1.06.61-.83,1.01-1.89,1.48-3.19,1.44-1.82-.62-3.23.03-4.9.93-3.56,1.93-7.29,3.58-10.94,5.36-.94.46-1.82.99-2.74,1.47-1.75.92-2.78.43-2.99-1.55-.33-3.02,0-6.06,0-9.1,0-1.68-.36-2.97-1.97-3.71-.51-.8-.5-1.65-.25-2.52.49-.68,1.38-1.34.08-2.09-.28-.69-.27-1.38.06-2.05,2.4-2.28,2.4-4.87,0-6.97-.34-.7-.34-1.4-.01-2.11,2.13-1.89,2.12-2.15-.07-4.29-.35-1.07-.4-2.11.19-3.11,1.42-.73,2.05-1.84,1.91-3.48-.36-4.22.06-8.44.02-12.66-.01-1.73-.32-3.14-1.96-3.98-.79-2.32-.43-4.69-.29-7.04,2.44-1.37,4.58-3.27,7.18-4.36,1.13-.47,1.71-1.04,1.74-2.22.21-.49.62-.68,1.11-.75,2.38.94,4.41.5,6.68-.82,2.64-1.54,5.78-2.16,8.45-3.79,1.28-.78,2.01-1.72,1.94-3.24.72-1.17,1.74-1.73,3.13-1.53,1.4,1.23,2.84,1.17,4.36.19,2.06-1.32,4.41-2.21,6.07-4.12.49-.56,1.13-.84,1.89-.88,2.14-.11,4.13-.53,5.14-2.76.14-.3.46-.64.71-.57,3.07.89,4.62-1.93,6.98-2.76,1.06-.37,1.15-1.2,1.45-1.99.24-.46.63-.69,1.13-.78,1.88.66,3.59.29,5.45-.46,3.39-1.36,6.81-2.58,9.91-4.59,1.63-1.06,3.51-1.73,5.24-2.63,1.49-.78,2-1.5,1.98-2.95.33-.57.82-.83,1.48-.74,2.6,1.29,5.09.15,6.02-2.76,1.28-1.52,2.96-2.27,4.88-2.56.94.53,1.36.08,1.56-.82.37-.48.86-.72,1.45-.76.23,0,.51-.04.69.08,1.6,1.05,2.36.5,2.49-1.29,1.03-1.23,2.31-1.95,3.95-1.97,1.15.9,1.61.33,1.78-.85.77-1.1,1.8-1.74,3.15-1.88.48.36.2,1.05.7,1.48-.23-.52-.5-.97-.28-1.49.53-.73,1.19-1.15,2.12-.93,2.43,1.98,4.57.5,6.54-.76,1.22-.78,2.43-1.43,3.76-1.97,2.05-.83,4.12-1.56,5.94-3,1.32-1.05,2.98-1.75,4.74-2.17,3.3-.8,5.85-2.97,8.37-5.11.38-.33.71-.7,1.21-.59,2.64.55,3.75-1.11,4.62-3.14.87-1.08,2.01-1.65,3.38-1.77,2.03.39,3.81.25,4.48-2.17.19-.13.4-.21.62-.26,2.78,1.05,5.16-.38,7.46-1.46,2.59-1.23,5.41-1.95,7.83-3.55.57-.37,1.24-.2,1.87-.27,1.88-.21,2.47-1.3,1.58-3-.84-1.6-1.96-2.79-3.96-3.08-2.37-.34-4.65-1.11-6.63-2.55-.79-.57-1.69-.88-2.67-.97-1.07-.1-2-.52-2.72-1.35-1.04-1.2-2.42-1.8-3.89-2.22-.92-.27-1.84-.5-2.56-1.21-1.4-1.4-2.91-1.5-4.5-.31-1.19.4-2.15-.25-3.15-.71-3.88-1.78-7.4-4.28-11.43-5.78-15.04-7.57-30.54-14.22-45.33-22.32-4.34-2.37-8.79-4.56-13.37-6.46-3.97-1.88-7.95-3.75-11.94-5.57-5.53-2.52-10.76-5.63-16.17-8.38-7.19-3.66-14.2-7.67-21.75-10.59-7.14-3.26-14.09-6.91-21.19-10.24-.9-.42-1.66-.95-1.78-2.04-.16-20.94-.03-41.87-.07-62.8,0-1.44.07-2.88-.09-4.3-.07-.31-.03.09-.06-.23-.11-1.15-.9-2.48.22-3.39,1.2-.97,2.48-.06,3.57.51,10.07,5.24,20.13,10.5,30.17,15.79,1.6,1.16,3.39,1.96,5.16,2.81,20.19,10.3,40.17,21.01,60.33,31.38.78.4,1.52.89,2.28,1.32,1.9,1.1,3.89,2,5.86,2.96,6.55,3.81,13.45,6.94,20.13,10.51,6.04,3.23,12.16,6.31,18.19,9.58,1.77,1.03,3.63,1.89,5.47,2.79.87.42,1.59.99,2.15,1.79,6.65,3.44,13.31,6.87,19.95,10.33,15.75,8.23,31.5,16.44,47.22,24.73,5.42,2.86,10.7,5.98,16.29,8.51l-.02.05Z"/>
      <path class="cls-3" d="m2255.97,1855.95c-.55-1.11-1.01-2.22.92-2.27,1.21-.03.87-1.55,1.72-1.73,2.03-.43,3.52-1.94,5.43-2.55,1.65-.53,3.03-1.92,4.95-1.64.51-2.16,3.04-2.06,4.08-3.65.47-.72,1.16-1.07,2.04-.99.62,2.19-.27,3.59-2.32,4.36-.49,1.06-1.58,1.06-2.49,1.37-.75.05-1.35.39-1.86.92-.96,1.01-1.94,1.98-3.49,1.93h-.19l-.13.13c-.61.82-1.33,1.43-2.45,1.24-.74.09-1.36.46-1.94.9-.53,1.39-1.87,1.25-2.96,1.58-.43.14-.87.27-1.3.41h-.01Z"/>
      <path class="cls-3" d="m2243.02,1862.97c-1.44.7-2.88,1.41-4.32,2.11.02-3.53,3.99-5.67,7.7-4.16-1.12.68-2.25,1.37-3.37,2.05h0Z"/>
      <path class="cls-3" d="m2252.6,1857.85c-.49-.78-.78-1.62-.01-2.34,1.18-1.1,1.88.74,2.93.57-.97.59-1.95,1.18-2.92,1.76h0Z"/>
      <path class="cls-3" d="m1826.74,1664.56c1.16,1.96-.02,4.15.57,6.16.83.93.71,2.09.7,3.19-.13,16.58.1,33.16.02,49.74,0,1.29-.2,2.54-.7,3.73-.46,2.72.55,5.53-.54,8.21-.02-23.68-.03-47.35-.05-71.03h0Z"/>
      <path class="cls-3" d="m2185.75,1827.7c4.47-2.75,9.51-4.31,14.07-6.86.74-.42,1.67-.59,2.37-1.71-6.1-2.34-11.58-5.8-17.56-8.26-2.64-.58-5.15-1.43-6.98-3.6,1.22-1.62,3.37-2.05,4.49-.55.85,1.14,1.91,1.29,2.99,1.66,1.58.56,3.18,1.05,4.17,2.58.37.56.99.92,1.62.88,1.65-.12,2.9.66,4.15,1.53,1.93,1.35,4.19,1.77,6.43,2.19,1.75.33,4.5,3.26,4.37,4.97-.09,1.14-.94,2.32-1.88,2.12-1.93-.41-3.18.83-4.67,1.38-3.34,1.23-6.65,2.6-9.8,4.24-1.63.85-2.5-.66-3.79-.57h.02Z"/>
      <path class="cls-3" d="m2055.78,1960.28c-6.04,3.81-12.51,6.83-18.86,10.07-.56.29-1.1.64-1.69.86-1.05.4-1.95,1.96-3.1,1.11-1.01-.75-.24-2.23-.28-3.38.38-4.11.05-8.23.18-12.34.03-.85-.26-1.74.26-2.55,1.74-.19,2.44.54,2.39,2.32-.09,3.49-.03,6.98-.03,10.47,0,1.95.88,1.86,2.25,1.05,3.92-2.32,8.04-4.28,12.22-6.08.49-.21,1.04-.17,1.44-.69,1.46-1.9,3.25-1.99,5.22-.82v-.02Z"/>
      <path class="cls-3" d="m2159,1840.24c6.24-2.86,12.48-5.73,18.72-8.59-.25,2.54-2.09,4.06-4.5,3.67-.37-.06-.71-.35-1.09.03-3.03,3.06-6.11,4.86-9.96,5.87-1.23.32-2.49,1.05-3.27,1.75-2.25,2.02-5.04,2.53-7.63,3.64-1.63.7-2.87,2.14-4.59,2.85-1.28.53-2.5.36-3.76.31-.75-.03-.71-.73-.75-1.28,4.16-2.01,8.31-4.02,12.47-6.03,1.22-1.19,2.63-1.99,4.34-2.21h.02Z"/>
      <path class="cls-3" d="m2062.01,1887.28c5.11-2.61,10.22-5.22,15.33-7.84,2.23-1.96,4.86-3.08,7.74-3.67,1.25-.53,2.51-1.06,3.76-1.59.15,1.45.22,2.81-1.93,2.57-.6-.07-1.03.33-1.34.85-1.02,1.76-2.59,2.27-4.5,1.87-.57-.12-1.05-.38-1.3.46-.76,2.59-3.07,2.65-5.14,2.94-.61.08-1.26-.19-1.69.44-1.74,2.54-4.68,3.36-7.13,4.86-1.26.78-3.05,1.5-3.82-.9h.02Z"/>
      <path class="cls-3" d="m2089.76,1873.8c7.56-3.64,15.12-7.27,22.68-10.91.83,2.48.76,2.62-1.7,3.14-.15.03-.4-.06-.45.01-1.68,2.51-4.92,2.21-7.06,3.96-3.02,2.47-7.13,2.59-10.38,4.65-1.15.73-1.96-.88-3.09-.85Z"/>
      <path class="cls-3" d="m2032.3,1910.82c1.75-.2,2.4.57,2.38,2.34-.08,5.23-.11,10.46.02,15.68.05,1.94-.76,2.37-2.4,2.15-.64-3.39-.24-6.81-.24-10.2s-.4-6.66.25-9.96h-.01Z"/>
      <path class="cls-3" d="m2042.93,1895.98c5.54-2.12,10.7-5.09,16.13-7.45,1.49,2.98-1.37,3.44-2.81,4.38-3.08,2-6.93,2.43-10.01,4.6-1.55,1.09-3-.18-4.46-.65.38-.29.76-.59,1.15-.88Z"/>
      <path class="cls-3" d="m2212.33,1878.76c-5.92,3.51-12.07,6.57-18.27,9.55-.19-1.8,1.87-3.75,4.14-4.8,3.46-1.59,7.09-2.9,10.25-5.11,1.41-.98,2.73-1.31,3.88.36h0Z"/>
      <path class="cls-3" d="m2237.29,1865.77c-4.97,2.96-10.25,5.34-15.4,7.95-.13-1.71.09-3.11,2.37-2.71.37.06.67.21.96-.31,2.21-3.87,6.39-4.45,10.05-5.86.79-.3,1.52.23,2.02.92h0Z"/>
      <path class="cls-3" d="m2129.34,1921.9c-4.82,2.87-9.81,5.41-14.99,7.58-.23-1.73.54-2.53,2.1-3.42,1.89-1.08,3.88-2.05,5.8-2.92,2.11-.96,4.34-3.21,7.09-1.24h0Z"/>
      <path class="cls-3" d="m2032.25,1736.03c-.88-.55-.43-1.43-.44-2.13-.08-4.89-.09-9.78-.12-14.67-.24-2.07-.24-4.15,0-6.22.06-15.21.12-30.43.18-45.64.7.83.45,1.83.45,2.76,0,21.97-.03,43.94-.06,65.91h-.01Z"/>
      <path class="cls-3" d="m2032.3,1910.82v23.53c.86,1.28.86,2.56,0,3.84v2.4c1.07,2.24,1.07,4.48,0,6.72v2.4c.35.48.35.96,0,1.44v2.88c-.01,4.13,0,8.25-.05,12.38,0,.85.25,1.76-.39,2.52-.03-5.5-.08-11-.08-16.51,0-16.27,0-32.55.02-48.82,0-.67-.3-1.45.41-1.99.49.48.46.99.11,1.53v7.68h-.02Z"/>
      <path class="cls-3" d="m2172.93,1899.33c-3.52,2.18-7.37,3.73-11.06,5.58-.68-2.49-.34-2.95,2.31-3.23.39-.04,1.06-.03,1.11-.19.74-2.38,3.07-2.07,4.75-2.8.98-.43,2.28-1.13,2.89.64Z"/>
      <path class="cls-3" d="m2075.88,1950.03c-2.7,1.29-5.41,2.58-8.11,3.88-.52-.99-.59-1.52.55-2.48,1.86-1.58,4.16-2.17,6.11-3.47,1.08-.72,2.75-1.34,3.44.81-.14,1.25-1,1.35-1.99,1.26h0Z"/>
      <path class="cls-3" d="m2097.07,1938.7c-2.54,1.91-5.74,2.62-8.23,4.6-.31.57-.67,1.02-1.38.52-.07-.31-.24-.63-.2-.92.36-3.07,7.17-5.97,9.82-4.2h-.01Z"/>
      <path class="cls-3" d="m2032.31,1903.14c-.04-.51-.07-1.02-.11-1.53.92-1.42,2.76-1.31,3.89-2.38,1.76-.23,3.1-1.5,4.75-1.99.76,1.45.67,2.27-1.27,2.61-1.59.28-3.15,1.17-4.17,2.46-.93,1.18-1.87,1.26-3.09.83h0Z"/>
      <path class="cls-3" d="m2107.25,1933.42c-2.45,1.66-5.14,2.86-7.78,4.14.09-2.7,3.05-5.02,5.94-4.62.63.09,1.23.32,1.85.48h0Z"/>
      <path class="cls-3" d="m2220.53,1874.36c-2.13,1.48-4.48,2.56-6.8,3.67.03-3.69,2.87-5.23,6.8-3.67Z"/>
      <path class="cls-3" d="m2139.32,1916.6c-1.95,1.37-4.04,2.46-6.23,3.39-.63-2.5,1.15-3.35,2.92-4.07,1.17-.47,2.46-.77,3.31.68h0Z"/>
      <path class="cls-3" d="m2113.86,1862.29c1.96-1.23,4.08-2.11,6.2-2.99.02,1.85-1.29,3.26-3.76,4.21-1.34.51-1.88-.31-2.44-1.22Z"/>
      <path class="cls-3" d="m2032.29,1947.31v-6.72c1.2-.11,2.01.16,1.9,1.64-.08,1.09.02,2.18.02,3.28,0,1.27-.62,1.9-1.92,1.8h0Z"/>
      <path class="cls-3" d="m2184.92,1893.04c-1.76.92-3.52,1.83-5.28,2.75-.1-2.37,1.53-3.39,3.38-4.05.83-.29,1.72.2,1.91,1.3h0Z"/>
      <path class="cls-3" d="m2066.37,1954.52c-1.61.97-3.21,1.94-4.82,2.91-.75-1.13-.49-2.23.44-2.99,1.4-1.16,2.94-.91,4.38.08Z"/>
      <path class="cls-3" d="m2113.53,1930.08c-1.65.9-3.29,1.8-4.94,2.7.03-3.78,1.29-4.48,4.94-2.7Z"/>
      <path class="cls-3" d="m2145.59,1913.23c-1.61.91-3.23,1.82-4.84,2.73-.36-3.05,1.27-3.97,4.84-2.73Z"/>
      <path class="cls-3" d="m2085.54,1944.98c-.96.43-1.92.85-2.88,1.28.03-.67-.78-1.35.28-2.02,1.37-.88,2.63-1.17,4.05-.26,0,1.02-.64,1.13-1.45,1.01h0Z"/>
      <path class="cls-3" d="m2032.29,1938.19v-3.84c1.64-.25,1.9.63,1.92,2.04.02,1.47-.56,1.97-1.92,1.8h0Z"/>
      <path class="cls-3" d="m2181.04,1830.03c1.36-.92,2.82-1.64,4.37-2.21-.56,3.09-1.29,3.47-4.37,2.21Z"/>
      <path class="cls-3" d="m2159.52,1906.13c-.33.28-.67.57-1,.85-.64.27-1.28.54-1.92.81.22-1-.66-2.43,1.13-2.84,1.05-.24,1.64.11,1.8,1.18h-.01Z"/>
      <path class="cls-3" d="m2193.1,1888.74c-1.12.66-2.24,1.31-3.36,1.97-.26-2.69.28-3.01,3.36-1.97Z"/>
      <path class="cls-3" d="m2127.81,1855.6c1.09-.54,2.18-1.08,3.28-1.61.06,2.05-1.03,2.58-3.28,1.61Z"/>
      <path class="cls-3" d="m2176.25,1897.77c-.98-.05-1.43,1.02-2.35,1.09.14-2.62.65-2.92,3.38-1.96-.34.29-.68.58-1.03.87h0Z"/>
      <path class="cls-3" d="m2134.94,1852.08c.64-.32,1.28-.64,1.91-.96-.11.78.54,1.89-.42,2.27-.78.31-1.39-.4-1.49-1.31Z"/>
      <path class="cls-3" d="m2139.79,1849.49h.48c.09.21.14.46.29.61.4.4,1.38.14,1.29,1.05-.04.43-.52.59-.92.54-.87-.1-1.13-.72-1.14-1.5v-.7h0Z"/>
      <path class="cls-3" d="m2150.39,1910.83c-.67.71-1.59.96-2.44,1.33.02-1.9.96-2.12,2.44-1.33Z"/>
      <path class="cls-3" d="m2032.29,1951.15v-1.44c.59.15,1.63-.38,1.63.63,0,.83-.95.8-1.63.81h0Z"/>
      <path class="cls-3" d="m2059.62,1958.36c-.17.43-.58.44-.94.53-.12-.59-1.02-1.32-.04-1.72.72-.29.9.57.98,1.19Z"/>
      <path class="cls-3" d="m2124.89,1856.97c.36-.51.93-.6,1.47-.77-.2.56.56,1.33-.09,1.67-.64.33-1.1-.3-1.37-.9h0Z"/>
      <path class="cls-3" d="m1895.29,1843.58c2.43-10.63,4.94-21.24,7.27-31.9,1.68-7.63,3.21-15.29,5.22-22.85.63-2.36,1-4.79,1.49-7.18-.67-1.54.05-2.99.38-4.43,1.48-6.37,3.32-12.66,4.3-19.15,2.74-11.48,5.42-22.98,7.84-34.54,1.99-8.29,4.01-16.57,5.65-24.95,1.2-3.55,1.84-7.23,2.54-10.9.34-1.44.68-2.88.84-4.36.09-.73.35-1.41.61-2.09.35-.78.31-1.62.4-2.45.08-.63.28-1.22.51-1.8,1.88-7.6,3.65-15.22,5.4-22.85.23-1,.27-2.09,1.23-2.77.38-.19.77-.19,1.16-.03,2.3,2.22,1.1,4.81.52,7.17-.42,1.71-.98,3.36-.92,5.14.01.4.11.89-.09,1.18-2.18,3.27-1.6,7.43-3.55,10.76-.24.42-.56.88-.5,1.33.56,4.28-1.82,8.04-2.09,12.17-.07,1.14-.37,2.2-.99,3.17-.39.61-.94,1.29-.8,1.97.98,4.77-1.41,9.04-2.34,13.44-.75,3.53-1.75,7.17-2.97,10.66-.62,1.76-.95,3.56-.42,5.42.11.38.26.88.07,1.18-1.69,2.8-1.33,6.17-2.61,9.07-.26.58-.76,1.11-.8,1.73-.3,4.63-2.31,8.92-2.56,13.55-.08,1.47-.24,2.86-1.17,4.07-.39.51-.68,1.12-.68,1.77-.04,7.04-3.85,13.32-4.11,20.32-2.08,2.6-1.3,5.85-2.06,8.66-1.07,3.96-.78,8.31-3.09,11.94-.35.54-.3,1.23-.27,1.88.11,1.95-.07,3.84-1.13,5.55-.13.2-.27.44-.26.66.17,4.77-1.65,9.19-2.81,13.66-.95,3.66-1.28,7.49-2.66,11.03-.56,1.44-.83,2.93-.92,4.44-.09,1.62-.17,3.2-1.41,4.44-.17.17-.35.43-.3.64,1.11,4.53-2.86,8.28-1.96,12.78.14.7-.16,1.42-.41,2.1-1.79,5.02-2.62,10.26-3.78,15.42-.85,3.82-.99,8.06-3.22,11.58-.17.27-.37.58-.35.88.17,3.5-1.5,6.67-1.86,9.99-.4,3.6-2.01,6.86-2.21,10.49-.12,2.14-1.58,2.94-3.85,2.97,2.43-10.88,4.85-21.76,7.28-32.64.31-1.39.58-2.8.87-4.19,1.86-8.05,3.71-16.1,5.57-24.15v.02Z"/>
      <path class="cls-3" d="m1881.58,1904.57c2.56-.76,3.7-2.32,3.51-5.12-.09-1.33.1-2.88,1.08-4.08.1-.12.28-.27.27-.39-.44-4.21,2.7-7.78,2.17-11.98-.14-1.12-.04-2.31.6-2.94,1.58-1.56,1.21-3.44,1.5-5.27.25-1.58.36-3.21,1.55-4.66,1.36-1.67-.21-4.01.73-5.98,1.62-3.39,1-7.46,3.19-10.72.33-.5.64-1.33.46-1.81-1.28-3.38,1.12-5.98,1.77-8.94.21-.96.37-1.79.07-2.79-.35-1.14-.46-2.38.94-3.12,1.07-.56.74-1.65.82-2.58.21-2.26.17-4.49,1.57-6.58,1.07-1.58-.34-3.94.78-5.57,2.2-3.21.6-7.45,3.23-10.61,1.25-1.5.35-3.85.47-5.78.14-2.11,1.76-3.46,1.8-5.56.03-1.37-.82-2.91.15-4.17,2.59-3.38,1.21-7.89,3.36-11.43.52-.86.39-2.5-.07-3.49-.7-1.53-.54-2.51.75-3.48,2.08-1.54,1.22-4.01,1.69-6.03.24-1.02.63-2.01.8-2.95.73-3.96,2.63-7.65,2.73-11.74.04-1.61-.07-3.15,1.34-4.4.83-.74.54-1.94.61-2.97.16-2.34-.03-4.78,1.62-6.78.22-.27.28-.76.27-1.14-.15-3.17.21-6.2,2.15-8.88.54-.74.25-1.72.27-2.59.03-1.26-.15-2.5,1.14-3.44.55-.4.95-1.42.65-2.19-1.27-3.32.31-6.23,1.18-9.25.17-.6.39-1.24.37-1.85-.07-1.57.02-2.76,1.37-4.12,1.4-1.42.38-3.98,1.04-5.95.15-.44-.07-1.21.18-1.38,2.36-1.56,1.25-3.82,1.27-5.83.01-1.6.02-3.05,1.23-4.44,1.36-1.58.27-3.98,1.21-5.74,1.62-3,.75-6.43,1.69-9.38.89-2.76,2.3-5.28,1.94-8.32-.05-.44.38-.67.74-.85.62-.31,1.12-.91,1.1-1.49-.15-4.26,1.74-8.17,2-12.34.04-.64-.51-1.32-.78-1.98-1.02-.67-.32-1.15.16-1.69,1.79-2,2.43-4.33,2.51-7.04.1-3.43,1.36-6.66,2.66-9.81,1.22-2.96,1.22-5.71-.77-8.33-.11-.52.03-.95.51-1.23,1.94.09,2.82-1.02,3.2-2.76.18-.85.33-1.71.75-2.5.5-.94.31-1.68-.69-2.14-1.01-.46-1.27-1.34-1.35-2.33,0-.36.15-.65.41-.9,1.91-.96,2.27-2.18,1.09-3.65-.02-.24.04-.46.16-.67,2.33-2.02,3.48-4.7,4.19-7.59.49-1.98,1.66-3.19,3.66-3.04,1.93.15,3.07-.88,4.26-2.05,7.8-.15,15.59-.55,23.38.22,2.37.23,4.78.04,7.17.04,3.87,3.09,8.4,1.74,12.63,1.6,3.8-.13,5.38.8,5.68,4.86-.04.48-.07.97-.11,1.45-.36.42-1.1.71-.45,1.44l-.03.97c-2.26,4.15-5.45,8.11-2.72,13.29,0,.36-.07.7-.21,1.02-.07.14-.15.29-.27.38-1.95,1.37-2.32,3.06-1.13,5.06.04.36-.03.69-.24.98-3.17,1.97-3.59,3.81-1.7,7.54.01.37-.11.7-.27,1.02l-.16-.04c-2.62,1.96-3.61,4.38-2.78,7.71.34,1.36-1.11,2.67-1.4,4.21-.54,2.88-.56,5.92-1.86,8.61-.68,1.41.56,2.4.42,3.63l-.15.84c-1.25,1.28-3.21,1.95-3.14,4.3.04,1.48.1,2.83,1.31,3.85-.19.8-.37,1.6-.56,2.4-1.33.97-2.09,2.2-2.46,3.87-.78,3.45-2.28,6.74-2.98,10.15-.54,2.64-1.53,5.74.41,8.44.47,1.01.16,1.94-.32,2.84-3.35,1.1-2.29,4.37-3.19,6.66-.25.64.83,1.06,1.11,1.72.1.76-.08,1.43-.59,2-3.15.64-2.32,3.39-2.66,5.37-.27,1.52.07,3.1-.84,4.57-.55.88,0,1.84.61,2.63.11.21.14.43.11.67-2.36,1.23-3.05,3.02-3.1,5.78-.04,1.87-.32,4.13-1.58,6.05-1.38,2.12-.95,4.73-.73,7.19-1.44,1.68-1.64,3.87-1.94,5.85-.31,2.03-.91,4.05-.85,6.14.01.48,0,.99-.2,1.42-2.36,5.07-3.23,10.59-4.83,15.88-1.57,1.15-1.06,2.76-.92,4.28-.02.23-.06.46-.12.69-.31,1.84-.04,3.78-1.38,5.42-.6.74.15,1.85-.04,2.79-.89,4.59-1.63,9.29-3.09,13.66-1.37,4.1-1.74,8.4-3.31,12.4-.72,1.83-.81,3.59.85,5.05.12.23.13.47.06.71-3.45,2.13-2.9,5.96-3.74,9.14-.46,1.77-.67,3.61-1.44,5.29-1.08,2.37-.74,5-1.43,7.45-.24.86.26,1.7.84,2.41.08.25.05.49-.09.71-1.8.82-2.43,2.21-2.3,4.17.11,1.63.11,3.28.19,4.92-.06.25-.18.46-.35.64-1.51.92-2.31,2.17-1.88,4.01.05.23.16.52.04.71-2.76,4.16-2.11,9.22-3.61,13.71-.55,1.65-.88,3.37-.68,5.18.28,2.47-1.49,4.34-2.36,6.4-1.27,3.03-1.47,6.14-1.84,9.26-.2,1.74-.13,3.47-1.04,5.09-.74,1.32-.42,2.63.53,3.78.31.78.03,1.46-.37,2.11-2.81,2.22-2.75,5.51-3.08,8.59-.21,1.94-1.44,3.48-1.71,5.38-.16,1.1-.56,2.16-.22,3.28.28.94-.14,1.62-.63,2.41-1.07,1.73-2.05,3.43-1.67,5.75.28,1.74-.61,3.56-1.08,5.32-.51,1.89-.62,3.76.15,5.61.02.24-.04.47-.16.67-.24.21.1,0-.17.16-2,1.19-.84,3.82-2.6,5.34-1.78,1.54-.8,3.66.27,5.45.11.5.06.99-.14,1.47-2.85,2.25-3.28,5.43-3.3,8.74,0,.84-.17,1.57-.67,2.23-.34.45-.72.9-.77,1.47-.63,6.11-2.8,11.91-3.66,17.99-.32,2.27-.35,4.74-1.72,6.83-1,1.52.78,2.63.82,4.02-.52,5.53-2.43,10.78-3.34,16.24-.6,1.99-.98,4.04-1.37,6.08-2.38,10.43-4.72,20.87-7.13,31.29-.4,1.71-.77,3.43-1.02,5.17-.14.98-.37,1.9-1.51,2.21-3.11.29-6.23.12-9.35.13-16.22.05-32.45-.06-48.67.06-.28.06-.57.07-.86.01-2.18-1.56-.72-3.07.06-4.59,1.87-8.09,3.77-16.17,5.61-24.26.96-4.22,1.81-8.47,2.71-12.7,1.73-7.53,3.46-15.05,5.19-22.58-.39-2.6.47-4.92,1.56-7.2l.86-3.36c-.26-1.73.1-3.32,1.01-4.8,1.8-7,3.5-14.02,4.8-21.13,1.52-4.71,2.51-9.54,3.34-14.41,1.82-5.51,2.41-11.3,3.85-16.91,1.18-4.6,2.3-9.22,3.45-13.83v.09Z"/>
      <path class="cls-3" d="m2009.68,1602.53c-.32-1.17-1.63-1.78-1.62-3.27,0-.73-1.13-1.5-2.25-1.09-3.62,1.35-7.35-.48-11.03.45-1.38.35-2.9-.29-2.85-2.29,6.4-.44,12.8-.39,19.2-.02,1.21.75,0,1.53-.1,2.2-.22,1.38-.87,2.69-1.34,4.03h-.01Z"/>
      <path class="cls-3" d="m2011.12,1596.31c-6.4,0-12.8.02-19.2.02h-31.69c-2.84,1.16-5.69,1.03-8.55.11-.25-1.31.84-1.15,1.5-1.25,1.33-.2,2.69-.14,4.04-.07,1.36-.06,2.71-.1,3.95.61h22.59c8.13.03,16.27.03,24.4.1.98,0,2.08-.36,2.95.46v.02Z"/>
      <path class="cls-3" d="m2008.61,1609.23c-.92,3.55-1.84,7.1-2.75,10.66-.12-.44-.09-1.09-.38-1.3-1.57-1.13-1.26-2.63-.8-4.05.71-2.21,1.95-4.24,2.2-6.63.13-1.2,1.52-.93,2.21-1.51-.16.94-.32,1.89-.48,2.83h0Z"/>
      <path class="cls-3" d="m2009.13,1605.43c-.53-.05-1.3.08-1.24-.7.08-1.08,1.06-.62,1.69-.74.19.59-.33.95-.45,1.44Z"/>
      <path class="cls-3" d="m1991,1686.58c-.71,2.03-1.07,4.14-1.39,6.26.17.53.24,1-.56.95-.46-.05-1.24.04-1.24-.45.05-3.1-.82-6.29.79-9.26.15-.27.39-.55.4-.83.12-3.57,2.31-6.61,2.58-10.17.1-1.35,1.31-1.89,2.66-1.87-.38,3.92-1.96,7.56-2.56,11.43-.21,1.32-.82,2.56-.68,3.94h0Z"/>
      <path class="cls-3" d="m1996.78,1659.82c-1.34-1.27-1.8-2.43-.75-4.36,1.22-2.25.83-5.05,1.58-7.55.4-1.33.12-2.85,1.42-3.85.54-.42.05-.81-.1-1.24-.49-1.4-.37-2.76.13-4.18.58-1.67,1.73-2.54,3.33-2.97-1.99,8.03-3.16,16.24-5.61,24.16h0Z"/>
      <path class="cls-3" d="m1994.8,1668.81c-1.27.07-1.97-.45-1.92-1.8.04-1.03.05-2.06.11-3.09.12-2.29,1.81-2.86,3.64-3.26-.64,2.71-.87,5.51-1.83,8.15Z"/>
      <path class="cls-3" d="m1939.15,1651.53c.55-2.68,1.09-5.36,1.65-8.03.18-.84.46-1.67.18-2.53-.48-1.58.3-3.02.5-4.52.7-3.23,1.64-6.39,2.35-9.62.18-.83.29-1.73,1.19-2.19,1.95,1.81,2.41,6.2,1.14,8.52-1.6,2.93-2.69,6.2-2.8,9.44-.11,3.37-.8,6.1-3.41,8.27-.08.07.08.44.13.67h-.93Z"/>
      <path class="cls-3" d="m1968.98,1783.09c-1,4.27-2,8.54-2.99,12.81-1.31,5.65-2.61,11.31-3.91,16.96-1.75-.63-2.5-2.16-1.7-4.38,1.25-3.44,2.03-6.95,2.39-10.59.05-.51.39-1.13.8-1.42.79-.58.84-1.17.59-2.03-.14-.49-.08-1.17.16-1.62,1.48-2.93,1.68-6.15,2.18-9.3.12-.73.34-1.39.95-1.86,0-2.96,1.65-5.65,1.44-8.64.39-.45.53-.95.23-1.49-.65-1.18-.16-2.06.73-2.83.47-3.52,1.11-7,2.77-10.19.25-.47.29-.84.19-1.33-.27-1.39-.1-2.59,1.14-3.59.67-.54.68-1.54.71-2.45.15-3.55.9-7.02,1.74-10.46.21-.88.45-1.73,1.6-1.75.29-.3.58-.28.86,0-2.42,10.79-4.85,21.59-7.27,32.38-.88,3.93-1.75,7.86-2.62,11.79h.01Z"/>
      <path class="cls-3" d="m1953.98,1847.91c-.6,4.51-1.88,8.87-2.87,13.29-2.55,11.39-5.12,22.77-7.7,34.15-.08.37-.29.72-.45,1.07-1.59-.87-2.12-2.33-1.01-4.09.94-1.48.83-2.99,1.04-4.55.44-3.34.18-6.75,2.11-9.91,1.99-3.27,1.76-7.32,2.77-10.94.89-3.2.24-6.75,2.27-9.64.37-.53.07-.87-.19-1.28-.37-.58-.43-1.7-.15-1.78,2.41-.67,1.13-2.7,1.58-4.05.44-1.32.97-2.38,2.6-2.28h0Z"/>
      <path class="cls-3" d="m1931.31,1947.8c-2.61,11.49-5.22,22.99-7.85,34.48-.52,2.27-.61,4.65-1.64,6.8-1.06-1.86-2.12-3.48-.04-5.66.69-.72.62-2.9.85-4.38.6-3.97,1.62-7.86,2.07-11.85.03-.24-.08-.61.04-.7,2.96-2.19.12-6.18,2.82-8.76.91-.87.5-3.68.76-5.6.3-2.21,1.15-3.47,3-4.34h0Z"/>
      <path class="cls-3" d="m1936.78,1924.75c-.67,2.92-1.33,5.84-2.01,8.75-.11.45-.33.88-.49,1.32-1.69-1.59-1.11-3.6-.58-5.3.52-1.65.18-3.53,1.36-4.99.08-.1.11-.34.05-.45-1.41-2.87.45-4.78,1.99-6.78.28-.37.3-.68.18-1.09-.85-2.95.32-5.5,1.7-7.96.29-.52.32-.82-.02-1.24-.48-.6-.32-1.23.08-1.76.66-.89.67-1.82.58-2.88-.17-2.03,1.41-2.99,2.77-4.04-.33,3.53-1.43,6.91-2.06,10.38-.13.69-.19,1.4-.28,2.1.3,3.25-1.01,6.22-1.66,9.3-.34,1.59-.28,3.37-1.59,4.64h-.02Z"/>
      <path class="cls-3" d="m1962.05,1813.35l.11.95c-1.41,3.56-2.17,7.29-2.81,11.05.39,3.11-.16,6.01-1.92,8.64-.37,1.28-.75,2.56-1.12,3.84-2.42-1-1.08-2.86-1.06-4.45.06-4.03,2.41-7.5,2.67-11.53.12-1.81.81-3.64,1.11-5.49.26-1.57,1.37-2.64,3.01-3.01h.01Z"/>
      <path class="cls-3" d="m1948.81,1608.78c.9-4.16,1.49-8.4,2.87-12.45h8.55c.09,1.14-.1,2.13-1.51,2.22-4.69.28-5.21.76-6.17,5.31-.46,2.19-1.74,3.86-3.74,4.92h0Z"/>
      <path class="cls-3" d="m1978.86,1738.92h-.86c-1.16-1.84-1.02-6.12.47-7.75.63-.69.4-1.38.62-1.99.85-2.32.34-4.8,1.09-7.1.49-1.51,1.81-1.57,3.01-1.87-1.44,6.24-2.89,12.48-4.33,18.72h0Z"/>
      <path class="cls-3" d="m1986.17,1706.74c-.63,4.4-1.51,8.74-2.91,12.96-1.59-.91-2-2.53-.87-4,.4-.52.8-.8.57-1.59-.61-2.05.4-4.03.43-6.08.02-1.77,1.7-1.17,2.79-1.3h-.01Z"/>
      <path class="cls-3" d="m1872.87,2050.15c-7.23-.02-14.46-.05-21.7-.08-.63,0-1.26-.05-1.89-.07,1.19-.66,2.5-.41,3.76-.41,18.46,0,36.91.02,55.37.03-1.73,1.04-3.6.2-5.4.43-.93.12-1.87.07-2.81.09-.51.23-1.04.39-1.61.38-8.57-.1-17.15.35-25.72-.38h0Z"/>
      <path class="cls-3" d="m1945.32,1623.67c.22-2.91,1.54-5.62,1.49-8.58.75-.26.56-.92.63-1.47.43.83.34,1.97,1.81,2.07.95.06,1.19,1.27.81,1.9-.89,1.45-.99,3.11-1.56,4.63-.61,1.63-1.52,2.27-3.18,1.46h0Z"/>
      <path class="cls-3" d="m1934.21,1935.3c-.9,3.76-1.8,7.51-2.71,11.27-2.07-2.49-2.09-4.57.18-6.79.78-.76.7-1.54.68-2.37-.03-1.31.32-2.2,1.84-2.11h0Z"/>
      <path class="cls-3" d="m1988.53,1696.66c-.64,2.72-1.29,5.44-1.93,8.16-1.83-.48-2.42-1.54-1.17-3.07.65-.8.18-1.5.24-2.23.14-1.82.73-3.09,2.87-2.86h0Z"/>
      <path class="cls-3" d="m1956.28,1838.31c-.71,3.21-1.04,6.51-2.3,9.59-.82-2.48-.45-5.04-.43-7.57.02-1.67,1.41-1.89,2.73-2.02h0Z"/>
      <path class="cls-3" d="m2004.3,1627.04c-.45,2.61-.8,5.25-1.79,7.74-2.61-2.96-1.67-7.02,1.79-7.74Z"/>
      <path class="cls-3" d="m2005.74,1620.8c-.31,1.71-.62,3.43-.93,5.14-.14.04-.27.1-.39.19-2.87-2.57-2.54-3.92,1.31-5.33h.01Z"/>
      <path class="cls-3" d="m1947.71,1613.1c.35-1.28.71-2.55,1.06-3.83,1.15.19,1.89.84,1.81,2.03-.12,1.83-1.99,1.07-2.87,1.8h0Z"/>
      <path class="cls-3" d="m1968.87,1773.01c.53,3.05-.42,5.85-1.44,8.64-.49-1.55-.79-2.96.6-4.38,1.08-1.11-.28-2.99.84-4.26Z"/>
      <path class="cls-3" d="m1969.83,1768.69c-.18,1.01-1.12,1.9-.22,3.08.42.54-.23.97-.74,1.25-.14-.69-.33-1.38-.42-2.07-.15-1.1-.08-2.11,1.38-2.25h0Z"/>
    </g>
  </g>
  <g>
    <path class="cls-15" d="m1677.7,2812.13l-802.08-33.2c-3.31-.14-5.99-3.05-5.99-6.51v-503.12c0-3.46,2.68-6.26,5.99-6.26h802.08c3.75,0,6.8,2.99,6.8,6.67v536.03c0,3.69-3.04,6.55-6.8,6.39Z"/>
    <polygon class="cls-7" points="1640.58 2767.49 908.57 2739.58 908.57 2303.74 1640.58 2306.13 1640.58 2767.49"/>
    <g>
      <polygon class="cls-4" points="1055.94 2373.4 982.72 2372.76 982.72 2362.56 1055.94 2363.14 1055.94 2373.4"/>
      <polygon class="cls-4" points="1232.38 2374.94 1079.3 2373.6 1079.3 2363.33 1232.38 2364.54 1232.38 2374.94"/>
      <polygon class="cls-3" points="1087.28 2415.3 1013.7 2414.42 1013.7 2404.19 1087.28 2405.02 1087.28 2415.3"/>
      <polygon class="cls-13" points="1560.46 2420.99 1110.75 2415.59 1110.75 2405.28 1560.46 2410.32 1560.46 2420.99"/>
      <polygon class="cls-3" points="1087.28 2453.94 1013.7 2452.83 1013.7 2442.61 1087.28 2443.66 1087.28 2453.94"/>
      <polygon class="cls-13" points="1560.46 2461.07 1110.75 2454.3 1110.75 2443.99 1560.46 2450.4 1560.46 2461.07"/>
      <polygon class="cls-3" points="1087.28 2492.58 1013.7 2491.25 1013.7 2481.02 1087.28 2482.29 1087.28 2492.58"/>
      <polygon class="cls-13" points="1560.46 2501.15 1110.75 2493.01 1110.75 2482.7 1560.46 2490.48 1560.46 2501.15"/>
      <polygon class="cls-3" points="1087.28 2531.22 1013.7 2529.66 1013.7 2519.44 1087.28 2520.93 1087.28 2531.22"/>
      <polygon class="cls-4" points="1055.94 2571.34 982.72 2569.55 982.72 2559.35 1055.94 2561.08 1055.94 2571.34"/>
      <polygon class="cls-4" points="1232.38 2575.64 1079.3 2571.91 1079.3 2561.63 1232.38 2565.24 1232.38 2575.64"/>
      <polygon class="cls-3" points="1397.14 2622.31 1110.75 2614.38 1110.75 2604.08 1397.14 2611.77 1397.14 2622.31"/>
      <polygon class="cls-3" points="1397.14 2661.89 1110.75 2653.09 1110.75 2642.79 1397.14 2651.35 1397.14 2661.89"/>
      <polygon class="cls-13" points="1087.28 2652.37 1062.76 2651.62 1062.76 2641.35 1087.28 2642.09 1087.28 2652.37"/>
      <polygon class="cls-13" points="1087.28 2691.01 1013.7 2688.53 1013.7 2678.3 1087.28 2680.72 1087.28 2691.01"/>
      <polygon class="cls-3" points="1397.14 2701.47 1110.75 2691.8 1110.75 2681.5 1397.14 2690.94 1397.14 2701.47"/>
      <polygon class="cls-3" points="1563.83 2626.92 1418.24 2622.89 1418.24 2612.34 1563.83 2616.25 1563.83 2626.92"/>
      <polygon class="cls-3" points="1563.83 2667.01 1418.24 2662.54 1418.24 2651.98 1563.83 2656.34 1563.83 2667.01"/>
      <polygon class="cls-3" points="1563.83 2707.1 1418.24 2702.19 1418.24 2691.63 1563.83 2696.43 1563.83 2707.1"/>
      <polygon class="cls-13" points="1560.46 2541.23 1110.75 2531.72 1110.75 2521.41 1560.46 2530.56 1560.46 2541.23"/>
    </g>
  </g>
  <g>
    <path class="cls-8" d="m3006.55,1785.18h-598.77c-4.74,0-8.59-3.96-8.59-8.83l-.39-595.09c0-4.88,3.84-8.98,8.58-9.14l599.16-21.35c5.08-.18,9.21,3.77,9.21,8.83v616.45c0,5.05-4.12,9.14-9.2,9.14Z"/>
    <g class="cls-5">
      <path class="cls-3" d="m2856.01,1354.69c-12.92.31-25.14,3.52-36.08,8.95-14.96-53.31-63.8-91.26-121.43-89.57-56.33,1.65-103.63,40.68-118.99,92.77-9.05-3.27-18.84-4.95-29.06-4.7-45.21,1.1-81.66,39.3-81.64,85.33l472.6-9.24c0-47.28-38.34-84.69-85.41-83.54Z"/>
      <polygon class="cls-3" points="2615.51 1586.06 2702 1672.94 2789.3 1584.08 2730.37 1584.75 2730.34 1480.92 2673.64 1481.9 2673.67 1585.4 2615.51 1586.06"/>
    </g>
  </g>
  <g>
    <path class="cls-2" d="m1495.92,1372.26l-626.19.41c-4.7,0-8.5-4.07-8.5-9.09v-641.07c0-5.03,3.81-9.28,8.5-9.5l626.19-29.79c5.13-.24,9.29,3.82,9.29,9.07v670.45c0,5.26-4.16,9.52-9.29,9.52Z"/>
    <polygon class="cls-7" points="1426.07 1291.3 934.34 1294.35 934.34 788.22 1426.07 767.55 1426.07 1291.3"/>
    <g>
      <polygon class="cls-3" points="1059.56 903.97 1015.18 905.46 1015.18 883.91 1059.56 882.36 1059.56 903.97"/>
      <polygon class="cls-13" points="1314.91 895.4 1082.87 903.19 1082.87 881.54 1314.91 873.4 1314.91 895.4"/>
      <polygon class="cls-3" points="1084.26 975.78 1015.18 977.74 1015.18 956.2 1084.26 954.13 1084.26 975.78"/>
      <polygon class="cls-13" points="1340.5 968.49 1107.65 975.11 1107.65 953.43 1340.5 946.45 1340.5 968.49"/>
      <polygon class="cls-3" points="1059.56 1112.82 1015.18 1113.66 1015.18 1092.12 1059.56 1091.21 1059.56 1112.82"/>
      <polygon class="cls-13" points="1314.91 1108 1082.87 1112.38 1082.87 1090.74 1314.91 1086 1314.91 1108"/>
      <polygon class="cls-3" points="1084.26 1184.99 1015.18 1185.95 1015.18 1164.4 1084.26 1163.34 1084.26 1184.99"/>
      <polygon class="cls-13" points="1340.5 1181.46 1107.65 1184.67 1107.65 1162.99 1340.5 1159.42 1340.5 1181.46"/>
      <polygon class="cls-3" points="1043.14 1049.37 974.46 1050.98 974.46 1029.49 1043.14 1027.79 1043.14 1049.37"/>
      <polygon class="cls-13" points="1383.36 1041.43 1066.4 1048.83 1066.4 1027.21 1383.36 1019.32 1383.36 1041.43"/>
    </g>
  </g>
  <g>
    <path class="cls-6" d="m2362.49,846.53c-.02-10.31-.99-20.34-2.8-29.99l45.4-30.8-42.78-79.72-45.04,30.71c-13.63-12.95-29.74-22.73-47.43-28.47l-.03-57.25-83.77,3.79-.06,57.04c-7.8,3.21-15.29,7.16-22.37,11.81-.84.55-1.67,1.14-2.5,1.71-.83.57-1.68,1.13-2.5,1.72-6.92,4.95-13.48,10.63-19.61,16.97l-44.05-26.63-41.65,82.05,43.94,26.83c-1.68,9.03-2.62,18.12-2.8,27.15-.03,1.09,0,2.19-.01,3.28,0,1.06-.02,2.11,0,3.17.13,9.03,1.02,18.06,2.65,26.99l-44.19,30.13,41.29,79.65,44.41-30.12c13.79,13.38,29.87,23.16,47.11,28.98l-.06,57.91,84.42-2.31-.03-58.3c8.45-3.41,16.74-7.8,24.76-13.21,8.22-5.55,15.75-11.9,22.56-18.9l45.65,27.88,42.49-83.45-45.78-27.67c1.85-10.02,2.82-20.37,2.8-30.93Zm-79.43,69.23c-.36.39-.73.77-1.1,1.16-1.46,1.52-2.96,2.96-4.5,4.34-.72.65-1.46,1.28-2.2,1.91-1.26,1.06-2.55,2.08-3.85,3.06-1.04.78-2.1,1.53-3.18,2.26-1.07.73-2.16,1.43-3.26,2.1-1.38.84-2.78,1.64-4.2,2.4-.83.44-1.67.87-2.51,1.28-1.81.88-3.64,1.7-5.51,2.43-.47.19-.94.37-1.42.55-7.46,2.76-15.36,4.4-23.55,4.67-44.72,1.45-80.76-37.79-80.67-87.54.02-12.17,2.23-23.83,6.16-34.56.19-.5.38-1,.57-1.5.73-1.89,1.53-3.73,2.36-5.55.53-1.15,1.08-2.3,1.65-3.43.57-1.13,1.17-2.24,1.79-3.35.97-1.74,1.98-3.45,3.06-5.12.28-.45.58-.89.87-1.33,6.25-9.32,14.15-17.53,23.59-23.98,38.61-26.39,88.15-13.64,110.64,28.67,4.12,7.75,7.01,15.95,8.8,24.35.11.53.21,1.06.32,1.6.42,2.13.75,4.26,1.02,6.41.12,1,.23,2,.33,3,.17,1.73.28,3.45.36,5.18.06,1.37.09,2.74.09,4.12,0,1.39-.02,2.77-.08,4.15-.07,1.73-.18,3.45-.34,5.18-.09,1.02-.2,2.04-.32,3.05-.27,2.16-.59,4.31-1,6.46-.1.55-.21,1.1-.32,1.65-1.77,8.53-4.65,16.97-8.75,25.04-4.11,8.07-9.14,15.19-14.84,21.34Z"/>
    <path class="cls-6" d="m2281.29,2567.41c-5.23-14.8-11.65-28.72-19.06-41.66l48.62-66.88-100.39-92.5-48.09,66.36c-25.67-11.68-53.2-17.58-80.96-16.93l-28.42-81.52-115.73,47.21,27.99,81.31c-9.39,8.47-17.96,17.85-25.63,28.04-.92,1.21-1.78,2.46-2.68,3.69-.89,1.23-1.8,2.44-2.66,3.7-7.3,10.52-13.73,21.91-19.22,34.04l-74.97-16.08-18.39,138.23,75.04,16.6c2.08,13.82,5.23,27.35,9.43,40.44.5,1.59,1.07,3.15,1.6,4.73.52,1.52,1.01,3.05,1.56,4.56,4.64,12.94,10.35,25.51,17.07,37.57l-47.53,65.57,97.82,94.68,47.89-65.88c26.21,12.49,53.88,18.61,81.23,18.42l28.97,84.16,118.8-45.69-29.51-84.65c10.27-9.18,19.83-19.7,28.48-31.56,8.86-12.15,16.33-25.13,22.46-38.67l78.95,17.47,17.89-141.94-78.87-16.92c-2.44-15.35-6.29-30.72-11.66-45.9Zm-77.56,139.5c-.32.75-.65,1.48-.98,2.22-1.3,2.92-2.71,5.75-4.19,8.53-.7,1.3-1.42,2.58-2.15,3.85-1.25,2.17-2.56,4.28-3.92,6.34-1.09,1.65-2.21,3.26-3.36,4.85-1.15,1.59-2.34,3.14-3.56,4.66-1.53,1.9-3.11,3.77-4.75,5.57-.95,1.06-1.92,2.09-2.91,3.11-2.12,2.17-4.3,4.27-6.58,6.27-.57.51-1.15,1.01-1.73,1.51-9.18,7.73-19.55,14.06-31.01,18.54-62.59,24.48-133.11-14.17-157.66-85.91-5.99-17.52-8.66-35.39-8.42-52.76.02-.81.03-1.63.06-2.44.09-3.07.31-6.12.58-9.15.18-1.92.38-3.84.64-5.74.25-1.91.55-3.81.86-5.7.52-2.98,1.08-5.95,1.78-8.88.18-.78.37-1.56.57-2.34,4.2-16.49,11.26-32.2,21.37-46.16,41.3-57.06,117.42-63.59,170.27-14.22,9.69,9.05,17.89,19.38,24.63,30.53.42.71.84,1.42,1.25,2.13,1.65,2.85,3.2,5.75,4.66,8.7.68,1.37,1.33,2.75,1.97,4.15,1.1,2.4,2.13,4.82,3.11,7.27.77,1.94,1.5,3.9,2.19,5.88.7,1.99,1.36,3.99,1.98,6.01.77,2.52,1.48,5.06,2.12,7.63.38,1.51.74,3.03,1.08,4.55.71,3.24,1.33,6.5,1.83,9.8.13.84.26,1.69.38,2.53,1.78,13.17,1.95,26.76.2,40.45-1.75,13.69-5.3,26.49-10.28,38.22Z"/>
  </g>
</svg>