<svg width="430" height="430" viewBox="0 0 430 430" fill="none" xmlns="http://www.w3.org/2000/svg">
<path d="M184.169 67.1206C184.169 67.1206 69.2335 72.116 62.7128 173.199C56.1921 274.282 26.0318 370.458 99.3938 376.199C172.757 381.94 344.752 393.092 369.207 332.871C393.661 272.65 405.888 45.915 184.169 67.1195V67.1206Z" fill="#F4F7FA"/>
<path d="M152.707 183.656C151.295 181.752 149.902 176.362 150.118 174.808C151.555 164.464 152.988 144.92 161.377 137.742C162.81 136.516 169.904 141.364 171.966 141.016C177.24 143.008 178.945 144.027 184.888 143.459C202.436 141.782 203.762 105.794 230.503 120.429C250.091 131.15 257.287 149.206 279.525 124.608C301.764 100.011 363.381 77.0939 370.989 118.261C375.355 141.888 340.976 146.741 333.184 168.564C325.78 189.302 308.289 194.541 285.236 187.661C262.183 180.781 263.392 195.15 254.117 212.532C242.977 233.412 216.087 211.238 204.546 199.942C195.252 190.844 165.45 173.952 152.704 183.655L152.707 183.656Z" fill="url(#paint0_linear_230_11)"/>
<path d="M155.268 157.146L155.442 156.673C228.378 183.363 309.244 163.888 371.76 104.578L372.108 104.944C342.479 133.053 307.368 152.933 270.57 162.433C231.884 172.422 192.013 170.594 155.269 157.147L155.268 157.146Z" fill="#FCFDFE"/>
<path d="M250.485 221.742C241.254 202.61 217.967 178.166 198.574 167.255L198.821 166.816C218.29 177.771 241.67 202.312 250.939 221.523L250.485 221.742Z" fill="#FCFDFE"/>
<path d="M169.646 162.221L169.682 161.718C181.22 162.527 192.725 157.471 203.874 146.692C212.05 138.789 219.849 128.048 227.054 114.769L227.497 115.01C220.267 128.335 212.437 139.116 204.225 147.055C192.967 157.939 181.333 163.042 169.645 162.222L169.646 162.221Z" fill="#FCFDFE"/>
<path d="M275.74 160.88L275.749 160.376C297.577 160.782 316.217 174.185 328.011 185.355L327.665 185.722C315.936 174.611 297.407 161.284 275.741 160.88H275.74Z" fill="#FCFDFE"/>
<path d="M321.976 141.91L321.654 141.523C340.558 125.789 346.338 100.628 348.101 87.0303L348.601 87.0952C346.828 100.766 341.013 126.066 321.977 141.911L321.976 141.91Z" fill="#FCFDFE"/>
<mask id="mask0_230_11" style="mask-type:luminance" maskUnits="userSpaceOnUse" x="81" y="64" width="229" height="261">
<path d="M116.296 324.218C104.433 316.727 92.712 308.95 81.1425 300.891C80.8539 300.986 88.9208 271.558 108.437 262.899C146.769 246.36 140.465 213.471 142.092 196.362C143.44 171.815 158.846 148.081 179.872 163.125C200.597 177.241 224.596 132.332 236.557 94.8411C240.951 75.9617 266.737 62.1206 285.266 64.5592C304.368 66.628 316.215 84.9755 305.951 121.94C295.891 165.548 255.833 176.78 236.049 192.109C216.603 207.146 234.362 234.16 206.595 242.813C182.871 250.923 156.707 252.715 155.796 275.707C155.195 298.572 146.282 313.531 116.297 324.217L116.296 324.218Z" fill="white"/>
</mask>
<g mask="url(#mask0_230_11)">
<path d="M116.296 324.218C104.433 316.727 92.712 308.95 81.1425 300.891C80.8539 300.986 88.9208 271.558 108.437 262.899C146.769 246.36 140.465 213.471 142.092 196.361C143.513 171.865 157.742 150.963 179.265 160.101C203.343 169.772 225.033 132.44 236.557 94.8421C240.951 75.9627 266.737 62.1215 285.266 64.5601C304.368 66.629 316.215 84.9764 305.951 121.941C295.891 165.549 255.833 176.781 236.049 192.11C216.603 207.147 234.362 234.161 206.595 242.814C182.871 250.924 156.707 252.716 155.796 275.708C155.195 298.573 146.282 313.532 116.297 324.218H116.296Z" fill="url(#paint1_linear_230_11)"/>
<path d="M97.9624 318.043C98.0679 317.797 135.921 265.125 181.89 217.888C188.828 210.027 196.055 202.193 203.042 194.617C241.96 152.429 278.721 112.58 284.646 52.7764L285.478 52.8587C279.524 112.942 242.673 152.89 203.657 195.184C196.671 202.756 189.448 210.586 182.503 218.456C136.285 265.949 98.914 318.06 98.7181 318.4L97.9636 318.043H97.9624Z" fill="#F2BFD4"/>
<path d="M238.831 155.399L238.49 154.636C259.598 145.191 286.567 130.421 301.055 122.486C312.78 116.064 312.812 116.081 313.173 116.317L312.947 116.668L312.979 117.077C312.44 117.203 307.593 119.857 301.456 123.219C286.957 131.159 259.97 145.94 238.831 155.399Z" fill="#F2BFD4"/>
<path d="M252.476 135.576C257.509 116.361 255.376 101.29 252.7 92.0305C249.785 81.9446 245.464 75.986 244.805 75.5398L244.986 75.2709L244.896 74.7528C245.143 74.7099 245.337 74.8606 245.607 75.155C249.48 79.3657 262.134 101.998 253.284 135.787L252.475 135.576H252.476Z" fill="#F2BFD4"/>
<path d="M153.799 249.711L153.08 249.284C173.243 215.319 163.72 171.068 158.689 153.619C158.419 152.681 158.332 152.378 158.317 152.232L159.148 152.141L158.733 152.186L159.148 152.139C159.163 152.242 159.316 152.773 159.493 153.387C163.121 165.971 165.324 178.485 166.04 190.58C167.416 213.817 163.298 233.711 153.801 249.709L153.799 249.711Z" fill="#F2BFD4"/>
<path d="M167.298 234.642L166.826 233.952C192.897 216.142 225.675 228.547 226.168 228.835C226.171 228.835 226.172 228.838 226.173 228.839L226.299 229.322L225.872 229.582L225.91 229.169L225.716 229.533C225.416 229.39 193.108 217.01 167.297 234.642H167.298Z" fill="#F2BFD4"/>
<path d="M104.284 309.499C107.777 302.342 110.671 288.779 104.63 264.817C104.402 263.911 104.326 263.396 104.403 263.273L105.111 263.719L104.758 263.496L105.173 263.491C105.183 263.589 105.304 264.064 105.442 264.614C111.545 288.822 108.59 302.584 105.036 309.868L104.285 309.501L104.284 309.499Z" fill="#F2BFD4"/>
<path d="M114.331 297.576L113.692 297.038C123.207 285.725 145.528 284.26 157.986 284.393C158.381 284.398 158.635 284.401 158.729 284.396L158.777 285.23C158.676 285.236 158.402 285.234 157.977 285.23C145.666 285.098 123.626 286.527 114.33 297.577L114.331 297.576Z" fill="#F2BFD4"/>
</g>
<path d="M65.6498 344.252C59.2485 344.626 54.0166 340.151 54.0166 334.276V122.516C54.0166 116.641 59.2485 112.05 65.6498 112.283L367.781 123.247C372.676 123.424 376.642 127.722 376.642 132.826V316.823C376.642 321.929 372.676 326.313 367.781 326.6L65.6498 344.252Z" fill="url(#paint2_linear_230_11)"/>
<path d="M262.627 367.689C257.797 366.009 254.188 361.709 253.17 356.424L246.142 319.926L186.017 322.166L178.618 360.188C177.582 365.513 181.73 370.856 186.508 372.817L211.662 383.143C216.341 385.063 221.37 385.828 226.368 385.38L279.529 380.608C281.083 380.469 282.329 379.187 282.51 377.542C282.691 375.898 283.779 374.051 282.298 373.536L262.626 367.688L262.627 367.689Z" fill="url(#paint3_linear_230_11)"/>
<path d="M263.221 365.47C258.398 363.81 254.792 359.565 253.774 354.346L246.753 318.307L188.094 320.52L180.702 358.065C179.667 363.323 182.406 368.596 187.179 370.533L212.309 380.728C216.983 382.625 222.006 383.38 227.001 382.938L280.109 378.226C281.66 378.088 282.906 376.823 283.087 375.199C283.268 373.575 282.334 372.043 280.854 371.534L263.223 365.47H263.221Z" fill="url(#paint4_linear_230_11)"/>
<path d="M68.042 344.252C61.6418 344.626 56.4088 340.151 56.4088 334.276V122.516C56.4088 116.641 61.6407 112.05 68.042 112.283L370.173 123.247C375.068 123.424 379.034 127.722 379.034 132.826V316.823C379.034 321.929 375.068 326.313 370.173 326.6L68.042 344.252Z" fill="url(#paint5_linear_230_11)"/>
<path d="M370.173 127.574L68.042 117.22C64.6194 117.103 61.8377 119.552 61.8377 122.69V333.982C61.8377 337.121 64.6194 339.509 68.042 339.315L370.173 322.272C372.796 322.123 374.918 319.784 374.918 317.046V132.695C374.918 129.956 372.796 127.665 370.173 127.574Z" fill="url(#paint6_linear_230_11)"/>
<path d="M68.042 321.311C66.7091 321.376 65.6243 320.436 65.6243 319.215V122.811C65.6243 121.59 66.7091 120.632 68.042 120.676L370.173 130.604C371.197 130.638 372.028 131.535 372.028 132.602V304.46C372.028 305.528 371.196 306.438 370.173 306.488L68.042 321.31V321.311Z" fill="white"/>
<path d="M359.883 295.899L81.2943 308.134V150.028L359.883 155.877V295.899Z" fill="url(#paint7_linear_230_11)"/>
<path d="M359.883 151.093L81.2943 144.627V131.125L359.883 139.135V151.093Z" fill="#B3E5E0"/>
<path d="M338.725 144.564C338.725 145.418 338.053 146.092 337.223 146.071C336.392 146.051 335.719 145.34 335.719 144.485C335.719 143.629 336.392 142.955 337.223 142.977C338.053 142.999 338.725 143.709 338.725 144.564Z" fill="white"/>
<path d="M344.89 144.725C344.89 145.576 344.221 146.25 343.396 146.229C342.57 146.208 341.9 145.5 341.9 144.647C341.9 143.794 342.57 143.12 343.396 143.144C344.221 143.166 344.89 143.874 344.89 144.726V144.725Z" fill="white"/>
<path d="M351.021 144.883C351.021 145.733 350.356 146.404 349.535 146.383C348.714 146.362 348.048 145.656 348.048 144.806C348.048 143.955 348.715 143.284 349.535 143.306C350.356 143.328 351.021 144.034 351.021 144.883Z" fill="white"/>
<g opacity="0.68">
<path d="M303.499 270.666L87.3711 277.452V154.136L303.499 158.319V270.666Z" fill="white"/>
</g>
<path opacity="0.68" d="M356.908 190.979L307.28 190.745V158.392L356.908 159.352V190.979Z" fill="white"/>
<path d="M356.908 196.773L307.28 196.672V194.25L356.908 194.404V196.773Z" fill="white"/>
<path d="M338.442 200.861L307.28 200.856V198.434L338.442 198.472V200.861Z" fill="white"/>
<path opacity="0.68" d="M356.908 237.375L307.28 238.207V205.853L356.908 205.748V237.375Z" fill="white"/>
<path d="M356.908 243.169L307.28 244.133V241.711L356.908 240.8V243.169Z" fill="white"/>
<path d="M338.442 247.653L307.28 248.319V245.896L338.442 245.265V247.653Z" fill="white"/>
<path opacity="0.68" d="M356.908 283.771L307.28 285.668V253.315L356.908 252.144V283.771Z" fill="white"/>
<path d="M356.908 289.565L307.28 291.596V289.173L356.908 287.196V289.565Z" fill="white"/>
<path d="M338.442 294.446L307.28 295.78V293.358L338.442 292.057V294.446Z" fill="white"/>
<path d="M236.938 285.793L87.3711 291.345V283.239L236.938 278.186V285.793Z" fill="white"/>
<path d="M303.499 283.324L282.16 284.115V276.658L303.499 275.938V283.324Z" fill="white"/>
<path d="M278.864 284.238L257.044 285.047V277.506L278.864 276.769V284.238Z" fill="white"/>
<path d="M155.798 298.327L87.3711 301.143V297.089L155.798 294.388V298.327Z" fill="white"/>
<path d="M75.323 365.012L73.9125 363.534C71.6628 361.177 71.8424 357.468 74.3146 355.255L171.226 268.521L180.071 278.581L83.8268 365.259C81.372 367.469 77.5657 367.363 75.323 365.013V365.012Z" fill="url(#paint8_linear_230_11)"/>
<path d="M268.726 184.914C244.282 154.827 200.937 149.969 171.964 175.111C142.459 200.714 140.079 246.657 166.561 276.638C192.421 305.917 235.57 308.165 263.042 282.687C290.038 257.649 292.613 214.317 268.726 184.915V184.914ZM174.988 269.072C152.933 243.93 154.947 205.532 179.546 184.067C203.775 162.926 240.164 166.827 260.784 192.044C281.009 216.777 278.858 253.335 256.027 274.401C232.859 295.78 196.607 293.718 174.988 269.072Z" fill="url(#paint9_linear_230_11)"/>
<path style="mix-blend-mode:multiply" opacity="0.3" d="M171.226 268.519L158.869 279.579C160.011 284.626 159.311 288.146 158.122 290.644C153.648 300.041 140.894 297.972 130.631 311.319C125.481 318.017 127.818 319.673 122.596 325.102C113.964 334.076 106.516 330.647 98.9243 338.693C91.2457 346.83 94.0912 355.399 88.6101 357.586C86.2654 358.523 82.5495 358.223 76.3406 353.44L74.3135 355.254C71.8413 357.467 71.6616 361.176 73.9113 363.533L75.3218 365.011C77.5646 367.36 81.3708 367.467 83.8256 365.256L180.07 278.578L171.225 268.518L171.226 268.519Z" fill="url(#paint10_linear_230_11)"/>
<path d="M272.269 186.823C247.825 156.736 204.481 151.878 175.507 177.02C146.002 202.623 143.622 248.565 170.104 278.547C195.964 307.825 239.114 310.074 266.585 284.596C293.581 259.558 296.156 216.226 272.269 186.824V186.823ZM178.53 270.981C156.475 245.839 158.489 207.441 183.088 185.976C207.317 164.835 243.706 168.736 264.326 193.953C284.551 218.686 282.4 255.244 259.569 276.31C236.401 297.689 200.149 295.627 178.53 270.981Z" fill="url(#paint11_linear_230_11)"/>
<path d="M269.464 189.34C246.368 160.978 205.484 156.465 178.194 180.193C150.432 204.331 148.181 247.598 173.088 275.866C197.445 303.509 238.155 305.699 264.109 281.672C289.639 258.037 292.064 217.093 269.465 189.34H269.464ZM178.53 270.981C156.475 245.839 158.489 207.441 183.088 185.975C207.317 164.835 243.706 168.736 264.326 193.953C284.551 218.686 282.4 255.244 259.569 276.31C236.401 297.689 200.149 295.627 178.53 270.981Z" fill="url(#paint12_linear_230_11)"/>
<path d="M183.776 137.935C187.633 139.893 192.478 138.094 194.596 133.918C196.716 129.742 195.307 124.77 191.451 122.812C191.251 122.71 191.047 122.625 190.842 122.544C191.559 120.233 192.098 117.905 192.46 115.575C192.682 115.575 192.903 115.57 193.129 115.551C197.529 115.158 201.02 111.114 200.927 106.518C200.834 101.923 197.191 98.5163 192.792 98.9092C192.562 98.9301 192.336 98.966 192.111 99.0066C191.651 96.7291 191.022 94.5049 190.227 92.3515C190.43 92.2332 190.63 92.1104 190.827 91.9725C194.591 89.3345 195.794 84.1293 193.513 80.3462C191.232 76.5631 186.333 75.6348 182.568 78.2727C182.376 78.4083 182.194 78.5544 182.014 78.7016C180.527 77.0581 178.896 75.5351 177.131 74.1454C177.255 73.9414 177.377 73.7363 177.486 73.5195C179.606 69.3436 182.374 64.7816 178.488 62.8843C169.496 58.4962 165.639 62.2549 163.519 66.4309C163.409 66.6476 163.315 66.8667 163.224 67.0869C161.06 66.4831 158.868 66.0658 156.664 65.8363C156.678 65.6045 156.688 65.3716 156.683 65.1363C156.591 60.5407 157.954 58.0534 153.537 57.9688C143.905 57.7834 140.658 61.964 140.75 66.5596C140.755 66.7995 140.776 67.0348 140.799 67.2677C138.592 67.8971 136.425 68.7015 134.315 69.675C134.214 69.4699 134.111 69.2659 133.992 69.0689C131.711 65.2858 126.812 64.3574 123.047 66.9954C119.284 69.6333 118.081 74.8385 120.362 78.6216C120.479 78.8151 120.606 78.9971 120.736 79.1756C119.069 80.8434 117.508 82.6539 116.066 84.5964C115.88 84.4793 115.691 84.3646 115.49 84.2637C111.633 82.3061 106.788 84.105 104.67 88.2809C102.55 92.4569 103.959 97.4292 107.815 99.3868C108.015 99.4888 108.219 99.5734 108.424 99.6545C107.707 101.966 107.167 104.294 106.806 106.624C106.584 106.624 106.363 106.628 106.138 106.648C101.738 107.041 98.2463 111.085 98.3402 115.68C98.4329 120.276 102.076 123.682 106.475 123.289C106.705 123.269 106.931 123.233 107.156 123.193C107.616 125.471 108.246 127.695 109.04 129.848C108.837 129.967 108.637 130.089 108.44 130.227C104.677 132.865 103.474 138.071 105.754 141.854C108.035 145.637 115.583 147.394 119.346 144.756C119.539 144.62 117.072 143.647 117.252 143.498C118.739 145.142 120.37 146.665 122.135 148.054C122.011 148.257 121.889 148.464 121.78 148.68C119.661 152.856 121.07 157.829 124.926 159.786C128.783 161.744 133.628 159.945 135.747 155.769C135.857 155.552 135.951 155.333 136.042 155.113C138.206 155.717 140.398 156.134 142.602 156.363C142.588 156.595 142.578 156.828 142.583 157.064C142.675 161.659 146.318 165.066 150.718 164.673C155.118 164.28 158.61 160.236 158.516 155.64C158.511 155.4 158.49 155.165 158.467 154.932C160.674 154.303 162.841 153.498 164.951 152.525C165.052 152.73 165.155 152.934 165.274 153.131C167.555 156.914 172.454 157.842 176.219 155.204C179.982 152.567 181.185 147.361 178.905 143.578C178.788 143.385 178.661 143.204 178.531 143.024C180.198 141.356 181.759 139.546 183.201 137.603C183.387 137.721 183.576 137.835 183.777 137.936L183.776 137.935ZM135.7 138.554C121.697 131.447 116.583 113.394 124.278 98.2312C131.973 83.0688 149.563 76.5376 163.567 83.6437C177.57 90.7508 182.684 108.803 174.989 123.966C167.294 139.129 149.704 145.66 135.7 138.554Z" fill="#274F43"/>
<path d="M193.128 115.549C197.528 115.156 201.019 111.113 200.926 106.517C200.833 101.921 197.19 98.5151 192.791 98.908C192.561 98.9289 192.335 98.9648 192.11 99.0054C191.65 96.7279 191.021 94.5037 190.226 92.3502C190.429 92.232 190.629 92.1091 190.826 91.9712C194.589 89.3333 199.245 82.9597 196.59 79.4305C191.548 72.7325 186.333 75.6335 182.568 78.2703C182.376 78.4059 182.194 78.552 182.014 78.6992C180.527 77.0556 178.896 75.5327 177.131 74.143C177.255 73.9402 177.377 73.7339 177.486 73.5171C178.639 71.2443 178.741 68.7385 177.978 66.6082C174.344 73.0083 170.758 79.4351 167.236 85.8967C178.408 94.0806 181.968 110.211 174.988 123.964C169.073 135.619 157.313 142.164 145.828 141.347C145.316 142.675 144.813 144.012 144.264 145.327C142.776 148.898 141.086 152.395 139.393 155.888C140.458 156.089 141.528 156.246 142.6 156.359C142.586 156.591 142.576 156.824 142.58 157.059C142.673 161.654 145.464 165.558 153.438 165.134C157.849 164.899 158.606 160.231 158.514 155.636C158.509 155.396 158.489 155.16 158.465 154.927C160.672 154.298 162.839 153.493 164.948 152.52C165.049 152.725 165.152 152.929 165.272 153.126C167.553 156.909 175.461 158.516 179.225 155.878C182.99 153.24 181.183 147.357 178.902 143.574C178.785 143.38 178.657 143.198 178.528 143.019C180.194 141.352 181.756 139.541 183.197 137.599C183.384 137.716 183.573 137.831 183.773 137.931C187.631 139.889 192.475 138.09 194.594 133.914C196.714 129.738 195.305 124.766 191.449 122.808C191.249 122.706 191.045 122.622 190.84 122.541C191.556 120.23 192.095 117.901 192.458 115.571C192.679 115.571 192.901 115.567 193.127 115.547L193.128 115.549Z" fill="#274F43"/>
<path d="M187.924 138.406C191.781 140.363 196.626 138.564 198.745 134.388C200.864 130.212 199.455 125.24 195.599 123.283C195.4 123.182 195.196 123.096 194.99 123.015C195.707 120.704 196.247 118.375 196.608 116.046C196.83 116.046 197.051 116.041 197.277 116.021C201.677 115.628 205.168 111.584 205.075 106.989C204.982 102.393 201.34 98.987 196.94 99.3799C196.71 99.4007 196.484 99.4367 196.26 99.4772C195.799 97.1997 195.169 94.9756 194.375 92.8221C194.578 92.7039 194.778 92.581 194.975 92.4431C198.739 89.8051 199.942 84.5999 197.661 80.8169C195.38 77.0338 190.481 76.1054 186.716 78.7434C186.524 78.879 186.342 79.025 186.162 79.1722C184.675 77.5287 183.044 76.0057 181.279 74.6161C181.403 74.4132 181.525 74.2069 181.635 73.9902C183.755 69.8142 182.345 64.842 178.489 62.8844C174.632 60.9268 169.787 62.7256 167.669 66.9015C167.559 67.1183 167.465 67.3373 167.373 67.5576C165.209 66.9537 163.017 66.5365 160.813 66.307C160.827 66.0752 160.837 65.8422 160.833 65.6069C160.74 61.0114 157.097 57.605 152.697 57.9979C148.298 58.3908 144.807 62.4347 144.9 67.0302C144.904 67.2701 144.925 67.5054 144.948 67.7384C142.741 68.3677 140.574 69.1733 138.465 70.1457C138.364 69.9405 138.261 69.7365 138.141 69.5395C135.861 65.7564 130.961 64.8281 127.197 67.466C123.433 70.104 122.23 75.3092 124.511 79.0922C124.628 79.2858 124.756 79.4678 124.885 79.6462C123.219 81.3141 121.658 83.1245 120.216 85.067C120.029 84.95 119.84 84.8352 119.64 84.7344C115.782 82.7768 110.938 84.5756 108.819 88.7516C106.699 92.9276 108.108 97.8998 111.965 99.8574C112.164 99.9594 112.368 100.044 112.573 100.125C111.857 102.436 111.317 104.765 110.955 107.094C110.734 107.094 110.512 107.099 110.286 107.119C105.887 107.512 102.396 111.555 102.488 116.151C102.581 120.747 106.224 124.153 110.624 123.76C110.853 123.739 111.079 123.703 111.304 123.664C111.764 125.941 112.395 128.166 113.188 130.319C112.986 130.437 112.785 130.56 112.588 130.698C108.825 133.336 107.622 138.541 109.903 142.324C112.184 146.107 117.083 147.036 120.846 144.398C121.039 144.262 121.221 144.116 121.4 143.969C122.887 145.612 124.518 147.135 126.283 148.525C126.159 148.729 126.037 148.934 125.929 149.151C123.809 153.327 125.218 158.299 129.074 160.257C132.931 162.214 137.776 160.416 139.895 156.24C140.005 156.023 140.099 155.804 140.19 155.584C142.354 156.187 144.546 156.605 146.75 156.834C146.737 157.066 146.726 157.299 146.731 157.534C146.824 162.13 150.466 165.536 154.866 165.143C159.266 164.75 162.757 160.706 162.664 156.111C162.659 155.871 162.64 155.636 162.615 155.403C164.822 154.773 166.989 153.969 169.099 152.995C169.2 153.201 169.304 153.405 169.422 153.602C171.703 157.385 176.602 158.313 180.366 155.675C184.13 153.037 185.332 147.832 183.052 144.049C182.935 143.855 182.808 143.673 182.678 143.495C184.345 141.827 185.906 140.017 187.348 138.074C187.534 138.191 187.723 138.306 187.924 138.407V138.406ZM139.848 139.024C125.845 131.917 120.731 113.865 128.426 98.7018C136.121 83.5394 153.712 77.0083 167.715 84.1143C181.718 91.2215 186.832 109.273 179.137 124.437C171.442 139.599 153.852 146.13 139.848 139.024Z" fill="url(#paint13_linear_230_11)"/>
<path d="M106.771 205.265C109.604 206.704 113.163 205.381 114.72 202.314C116.276 199.246 115.242 195.594 112.408 194.156C112.261 194.082 112.112 194.019 111.962 193.959C112.488 192.261 112.885 190.55 113.15 188.839C113.313 188.839 113.476 188.836 113.642 188.821C116.874 188.532 119.438 185.562 119.371 182.185C119.302 178.809 116.627 176.307 113.395 176.595C113.226 176.611 113.06 176.637 112.895 176.666C112.558 174.994 112.094 173.359 111.51 171.777C111.659 171.69 111.807 171.6 111.952 171.499C114.716 169.561 115.6 165.738 113.925 162.958C112.25 160.179 108.65 159.497 105.885 161.435C105.744 161.535 105.611 161.642 105.479 161.751C104.386 160.543 103.188 159.424 101.891 158.403C101.983 158.254 102.072 158.102 102.152 157.943C103.709 154.875 105.744 151.524 102.888 150.131C96.2829 146.908 93.4491 149.669 91.8925 152.737C91.8114 152.896 91.7418 153.057 91.6758 153.219C90.0867 152.775 88.4757 152.469 86.8565 152.3C86.867 152.129 86.8739 151.958 86.8716 151.785C86.8032 148.41 87.8046 146.582 84.5605 146.52C77.4858 146.383 75.0993 149.454 75.1677 152.831C75.1712 153.007 75.1863 153.18 75.2036 153.351C73.5822 153.814 71.9908 154.405 70.44 155.12C70.3659 154.969 70.2894 154.82 70.2024 154.675C68.5276 151.895 64.9277 151.214 62.1622 153.152C59.3968 155.09 58.5136 158.913 60.1896 161.693C60.2753 161.835 60.3692 161.968 60.4643 162.099C59.2403 163.325 58.0929 164.654 57.0335 166.081C56.8968 165.995 56.7577 165.91 56.6105 165.836C53.7778 164.398 50.2184 165.719 48.6619 168.787C47.1053 171.855 48.1391 175.507 50.973 176.945C51.1202 177.02 51.2697 177.082 51.4204 177.142C50.8942 178.84 50.4978 180.551 50.2323 182.262C50.0701 182.262 49.9067 182.265 49.7421 182.279C46.5095 182.568 43.9446 185.539 44.013 188.915C44.0814 192.291 46.7564 194.793 49.989 194.505C50.1582 194.49 50.3239 194.463 50.4885 194.434C50.8269 196.107 51.2894 197.741 51.8735 199.323C51.7252 199.41 51.5768 199.5 51.4319 199.601C48.6665 201.539 47.7833 205.363 49.4593 208.142C51.1341 210.921 56.6789 212.211 59.4443 210.273C59.5857 210.174 57.7742 209.459 57.9063 209.35C58.9992 210.557 60.1965 211.676 61.4935 212.697C61.4031 212.846 61.3127 212.997 61.2327 213.157C59.6761 216.225 60.71 219.877 63.5438 221.315C66.3765 222.754 69.9359 221.432 71.4924 218.365C71.5736 218.206 71.6431 218.045 71.7092 217.882C73.2982 218.326 74.9093 218.632 76.5284 218.802C76.518 218.972 76.511 219.143 76.5145 219.316C76.5829 222.691 79.2579 225.195 82.4905 224.906C85.723 224.618 88.2879 221.647 88.2195 218.271C88.2161 218.094 88.201 217.922 88.1836 217.75C89.8051 217.288 91.3976 216.697 92.9472 215.982C93.0214 216.132 93.0979 216.282 93.1848 216.427C94.8596 219.206 98.4596 219.888 101.224 217.95C103.989 216.012 104.872 212.188 103.197 209.409C103.111 209.266 103.017 209.133 102.921 209.002C104.145 207.777 105.292 206.447 106.351 205.021C106.488 205.106 106.627 205.191 106.774 205.265H106.771ZM71.4553 205.72C61.169 200.499 57.4114 187.238 63.064 176.098C68.7166 164.96 81.6386 160.162 91.925 165.383C102.213 170.603 105.969 183.865 100.316 195.004C94.6638 206.143 81.7417 210.941 71.4553 205.72Z" fill="#274F43"/>
<path d="M113.642 188.821C116.874 188.532 119.438 185.562 119.371 182.185C119.302 178.809 116.627 176.307 113.395 176.595C113.226 176.61 113.06 176.637 112.895 176.666C112.558 174.994 112.094 173.359 111.51 171.777C111.659 171.69 111.807 171.6 111.952 171.499C114.716 169.561 118.136 164.88 116.186 162.287C112.482 157.367 108.651 159.497 105.885 161.435C105.744 161.535 105.611 161.642 105.479 161.75C104.386 160.543 103.188 159.424 101.891 158.403C101.983 158.254 102.072 158.103 102.152 157.943C103 156.273 103.074 154.432 102.514 152.868C99.8435 157.569 97.2102 162.291 94.6232 167.037C102.83 173.049 105.445 184.897 100.318 195.001C95.9723 203.562 87.3329 208.371 78.8975 207.77C78.5208 208.746 78.1522 209.727 77.7489 210.694C76.6559 213.317 75.4134 215.886 74.171 218.453C74.9533 218.6 75.7391 218.716 76.5273 218.798C76.5168 218.968 76.5099 219.14 76.5134 219.313C76.5817 222.689 78.6321 225.556 84.4898 225.244C87.7304 225.072 88.2868 221.643 88.2184 218.267C88.2149 218.091 88.1999 217.918 88.1825 217.747C89.804 217.284 91.3965 216.693 92.9461 215.978C93.0203 216.129 93.0968 216.278 93.1837 216.423C94.8585 219.202 100.669 220.382 103.434 218.444C106.2 216.507 104.872 212.184 103.197 209.405C103.111 209.263 103.017 209.129 102.921 208.998C104.145 207.773 105.292 206.444 106.351 205.017C106.488 205.103 106.627 205.187 106.774 205.262C109.607 206.7 113.167 205.379 114.723 202.311C116.28 199.243 115.246 195.591 112.412 194.152C112.265 194.078 112.115 194.016 111.965 193.955C112.491 192.257 112.887 190.547 113.153 188.836C113.315 188.836 113.478 188.832 113.644 188.817L113.642 188.821Z" fill="#274F43"/>
<path d="M109.818 205.611C112.651 207.049 116.21 205.728 117.767 202.66C119.323 199.592 118.289 195.94 115.456 194.501C115.308 194.427 115.159 194.365 115.008 194.304C115.534 192.606 115.931 190.896 116.196 189.185C116.358 189.185 116.522 189.181 116.688 189.166C119.92 188.878 122.484 185.907 122.417 182.531C122.348 179.155 119.673 176.652 116.441 176.941C116.272 176.956 116.106 176.983 115.941 177.012C115.603 175.339 115.14 173.705 114.556 172.123C114.705 172.036 114.853 171.945 114.998 171.845C117.762 169.907 118.646 166.083 116.97 163.304C115.296 160.524 111.696 159.843 108.93 161.781C108.789 161.88 108.656 161.987 108.523 162.096C107.43 160.888 106.233 159.77 104.936 158.749C105.028 158.599 105.117 158.447 105.197 158.289C106.754 155.221 105.72 151.569 102.886 150.13C100.052 148.692 96.4938 150.013 94.9373 153.081C94.8561 153.24 94.7866 153.401 94.7205 153.563C93.1315 153.119 91.5204 152.813 89.9013 152.644C89.9117 152.474 89.9187 152.302 89.9152 152.13C89.8468 148.753 87.1718 146.251 83.9392 146.539C80.7067 146.828 78.1429 149.799 78.2101 153.175C78.2136 153.351 78.2287 153.524 78.2461 153.695C76.6246 154.158 75.0332 154.749 73.4825 155.464C73.4083 155.313 73.3318 155.164 73.2449 155.019C71.5701 152.24 67.9701 151.558 65.2047 153.496C62.4392 155.434 61.5561 159.258 63.232 162.037C63.3178 162.179 63.4117 162.313 63.5079 162.444C62.2839 163.669 61.1365 164.998 60.0771 166.425C59.9404 166.339 59.8013 166.255 59.6541 166.18C56.8203 164.742 53.262 166.063 51.7055 169.131C50.1489 172.199 51.1827 175.851 54.0166 177.29C54.1638 177.364 54.3133 177.426 54.4639 177.487C53.9378 179.185 53.5414 180.895 53.2759 182.606C53.1137 182.606 52.9503 182.61 52.7845 182.624C49.552 182.912 46.9882 185.883 47.0554 189.259C47.1238 192.635 49.7989 195.138 53.0314 194.849C53.2006 194.834 53.3663 194.807 53.5309 194.778C53.8694 196.451 54.3318 198.085 54.916 199.667C54.7676 199.754 54.6193 199.844 54.4744 199.945C51.7089 201.883 50.8258 205.707 52.5017 208.486C54.1765 211.266 57.7765 211.947 60.5407 210.009C60.6821 209.909 60.8154 209.803 60.9476 209.694C62.0405 210.902 63.2378 212.02 64.5348 213.041C64.4432 213.191 64.3539 213.342 64.274 213.501C62.7174 216.569 63.7513 220.221 66.5851 221.66C69.4189 223.098 72.9771 221.777 74.5337 218.709C74.6148 218.55 74.6844 218.389 74.7504 218.227C76.3395 218.671 77.9505 218.977 79.5697 219.146C79.5593 219.316 79.5523 219.488 79.5546 219.66C79.623 223.035 82.298 225.539 85.5306 225.25C88.7631 224.962 91.328 221.991 91.2597 218.615C91.2562 218.439 91.2411 218.266 91.2237 218.095C92.8452 217.632 94.4377 217.041 95.9873 216.326C96.0615 216.477 96.138 216.626 96.2249 216.771C97.8997 219.55 101.5 220.232 104.264 218.294C107.029 216.356 107.913 212.532 106.237 209.753C106.151 209.61 106.057 209.477 105.961 209.346C107.185 208.121 108.332 206.792 109.392 205.365C109.528 205.451 109.667 205.535 109.815 205.609L109.818 205.611ZM74.5024 206.065C64.216 200.845 60.4585 187.583 66.111 176.444C71.7636 165.305 84.6856 160.507 94.972 165.728C105.26 170.949 109.016 184.21 103.363 195.35C97.7108 206.488 84.7888 211.286 74.5024 206.065Z" fill="url(#paint14_linear_230_11)"/>
<path d="M356.054 259.921L365.849 369.837C365.997 371.501 364.842 372.982 363.278 373.125L310.28 378.584C307.109 378.754 305.432 377.034 305.29 375.304L295.889 261.183C295.75 259.497 297.325 257.91 300.458 257.795L352.969 257.023C354.523 256.993 355.91 258.297 356.054 259.921Z" fill="url(#paint15_linear_230_11)"/>
<path d="M358.461 259.648L368.345 370.223C368.495 371.898 367.334 373.386 365.761 373.531L310.769 378.606C309.083 378.762 307.583 377.466 307.44 375.726L297.955 260.916C297.815 259.222 299.073 257.809 300.746 257.776L355.357 256.733C356.92 256.703 358.315 258.015 358.461 259.648Z" fill="url(#paint16_linear_230_11)"/>
<path d="M357.238 265.749L366.38 368.239C366.519 369.801 365.433 371.19 363.963 371.323L312.261 376.018C310.692 376.161 309.296 374.952 309.162 373.333L300.368 267.156C300.237 265.575 301.408 264.253 302.966 264.217L354.336 263.035C355.797 263.001 357.102 264.223 357.237 265.749H357.238Z" fill="white"/>
<path d="M357.238 265.749C357.102 264.223 355.798 263.001 354.336 263.035L302.966 264.217C301.408 264.253 300.237 265.575 300.368 267.156L301.627 282.352L358.597 280.975L357.238 265.749Z" fill="#B3E5E0"/>
<path d="M329.81 260.582C329.86 261.158 329.446 261.636 328.885 261.649C328.324 261.661 327.829 261.202 327.779 260.625C327.73 260.048 328.144 259.57 328.705 259.56C329.265 259.548 329.76 260.006 329.81 260.582Z" fill="url(#paint17_linear_230_11)"/>
<path d="M336.916 323.061L311.211 324.33L307.662 288.001L333.51 287.342L336.916 323.061Z" fill="url(#paint18_linear_230_11)"/>
<path d="M355.98 322.12L340.879 322.865L337.495 287.24L352.678 286.853L355.98 322.12Z" fill="url(#paint19_linear_230_11)"/>
<path d="M358.641 350.543L314.07 353.605L311.672 329.056L356.409 326.708L358.641 350.543Z" fill="url(#paint20_linear_230_11)"/>
<path d="M360.029 365.381L315.563 368.884L314.489 357.887L359.029 354.702L360.029 365.381Z" fill="url(#paint21_linear_230_11)"/>
<g style="mix-blend-mode:soft-light" opacity="0.48">
<path d="M345.248 335.555C339.917 316.93 324.374 318.792 319.725 301.961C315.907 288.138 324.71 280.85 319.371 269.278C316.859 263.836 312.459 260.156 307.897 257.641L300.746 257.777C299.073 257.81 297.815 259.222 297.955 260.917L307.44 375.728C307.583 377.468 309.083 378.764 310.769 378.609L355.857 374.448C352.974 370.79 350.238 366.315 348.339 360.938C344.321 349.557 348.196 345.858 345.247 335.558L345.248 335.555Z" fill="white"/>
</g>
<defs>
<linearGradient id="paint0_linear_230_11" x1="364.085" y1="160.145" x2="-54.9928" y2="150.047" gradientUnits="userSpaceOnUse">
<stop stop-color="#FFC444"/>
<stop offset="1" stop-color="#FFD700"/>
</linearGradient>
<linearGradient id="paint1_linear_230_11" x1="282.814" y1="70.2153" x2="113.304" y2="318.101" gradientUnits="userSpaceOnUse">
<stop stop-color="#90E0EF"/>
<stop offset="1" stop-color="#2E9BAF"/>
</linearGradient>
<linearGradient id="paint2_linear_230_11" x1="87.727" y1="232.86" x2="141.307" y2="227.261" gradientUnits="userSpaceOnUse">
<stop stop-color="#26264F"/>
<stop offset="1" stop-color="#444B8C"/>
</linearGradient>
<linearGradient id="paint3_linear_230_11" x1="201.941" y1="396.546" x2="213.293" y2="380.285" gradientUnits="userSpaceOnUse">
<stop stop-color="#444B8C"/>
<stop offset="1" stop-color="#26264F"/>
</linearGradient>
<linearGradient id="paint4_linear_230_11" x1="236.304" y1="392.377" x2="218.931" y2="298.063" gradientUnits="userSpaceOnUse">
<stop stop-color="#444B8C"/>
<stop offset="1" stop-color="#26264F"/>
</linearGradient>
<linearGradient id="paint5_linear_230_11" x1="279.163" y1="132.018" x2="366.106" y2="7.93016" gradientUnits="userSpaceOnUse">
<stop stop-color="#444B8C"/>
<stop offset="1" stop-color="#26264F"/>
</linearGradient>
<linearGradient id="paint6_linear_230_11" x1="241.4" y1="146.752" x2="132.646" y2="492.169" gradientUnits="userSpaceOnUse">
<stop stop-color="#444B8C"/>
<stop offset="1" stop-color="#26264F"/>
</linearGradient>
<linearGradient id="paint7_linear_230_11" x1="247.296" y1="167.896" x2="145.341" y2="378.124" gradientUnits="userSpaceOnUse">
<stop stop-color="#00A896"/>
<stop offset="1" stop-color="#036D5E"/>
</linearGradient>
<linearGradient id="paint8_linear_230_11" x1="72.3362" y1="317.684" x2="180.071" y2="317.684" gradientUnits="userSpaceOnUse">
<stop stop-color="#FFD700"/>
<stop offset="1" stop-color="#C0A200"/>
</linearGradient>
<linearGradient id="paint9_linear_230_11" x1="148.166" y1="229.626" x2="285.091" y2="229.626" gradientUnits="userSpaceOnUse">
<stop stop-color="#FFC444"/>
<stop offset="1" stop-color="#AC9209"/>
</linearGradient>
<linearGradient id="paint10_linear_230_11" x1="72.3362" y1="317.684" x2="180.071" y2="317.684" gradientUnits="userSpaceOnUse">
<stop stop-color="#FFC444"/>
<stop offset="1" stop-color="#B89B00"/>
</linearGradient>
<linearGradient id="paint11_linear_230_11" x1="265.668" y1="291.505" x2="203.299" y2="209.245" gradientUnits="userSpaceOnUse">
<stop stop-color="#FFC444"/>
<stop offset="1" stop-color="#BEA000"/>
</linearGradient>
<linearGradient id="paint12_linear_230_11" x1="155.793" y1="231.58" x2="284.952" y2="231.58" gradientUnits="userSpaceOnUse">
<stop stop-color="#FFC444"/>
<stop offset="1" stop-color="#FFD700"/>
</linearGradient>
<linearGradient id="paint13_linear_230_11" x1="102.487" y1="111.571" x2="205.076" y2="111.571" gradientUnits="userSpaceOnUse">
<stop stop-color="#80D2F9"/>
<stop offset="1" stop-color="#61D7AC"/>
</linearGradient>
<linearGradient id="paint14_linear_230_11" x1="47.0554" y1="185.898" x2="122.418" y2="185.898" gradientUnits="userSpaceOnUse">
<stop stop-color="#80D2F9"/>
<stop offset="1" stop-color="#61D7AC"/>
</linearGradient>
<linearGradient id="paint15_linear_230_11" x1="293.827" y1="316.403" x2="367.775" y2="319.153" gradientUnits="userSpaceOnUse">
<stop stop-color="#444B8C"/>
<stop offset="1" stop-color="#26264F"/>
</linearGradient>
<linearGradient id="paint16_linear_230_11" x1="325.22" y1="335.32" x2="336.49" y2="307.341" gradientUnits="userSpaceOnUse">
<stop stop-color="#444B8C"/>
<stop offset="1" stop-color="#26264F"/>
</linearGradient>
<linearGradient id="paint17_linear_230_11" x1="330.525" y1="256.426" x2="261.425" y2="424.109" gradientUnits="userSpaceOnUse">
<stop stop-color="#FFC444"/>
<stop offset="1" stop-color="#F36F56"/>
</linearGradient>
<linearGradient id="paint18_linear_230_11" x1="287.202" y1="296.438" x2="316.567" y2="360.089" gradientUnits="userSpaceOnUse">
<stop stop-color="#00A896"/>
<stop offset="1" stop-color="#036D5E"/>
</linearGradient>
<linearGradient id="paint19_linear_230_11" x1="302.165" y1="274.755" x2="335.967" y2="348.023" gradientUnits="userSpaceOnUse">
<stop stop-color="#00A896"/>
<stop offset="1" stop-color="#036D5E"/>
</linearGradient>
<linearGradient id="paint20_linear_230_11" x1="288.896" y1="313.954" x2="312.292" y2="364.666" gradientUnits="userSpaceOnUse">
<stop stop-color="#00A896"/>
<stop offset="1" stop-color="#036D5E"/>
</linearGradient>
<linearGradient id="paint21_linear_230_11" x1="293.164" y1="345.073" x2="308.764" y2="378.888" gradientUnits="userSpaceOnUse">
<stop stop-color="#00A896"/>
<stop offset="1" stop-color="#036D5E"/>
</linearGradient>
</defs>
</svg>
