<svg width="430" height="430" viewBox="0 0 430 430" fill="none" xmlns="http://www.w3.org/2000/svg">
<path d="M207.53 52.8088C292.815 50.325 366.689 111.353 377.851 191.428C390.054 278.978 322.889 357.754 240.246 370.37C137.452 386.063 37.7473 295.275 46.6996 196.783C53.444 122.579 120.836 55.3332 207.53 52.8088Z" fill="#F4F7FA"/>
<path d="M177.473 142.371L186.918 142.387C187.568 136.148 189.069 130.159 191.3 124.532L183.314 119.901C181.132 118.635 180.386 115.78 181.643 113.518L184.999 107.483C186.264 105.206 189.075 104.371 191.28 105.622L199.166 110.099C202.837 104.955 207.218 100.318 212.18 96.3282L207.644 88.536C206.342 86.3003 207.114 83.3575 209.372 81.9574L215.409 78.2114C217.691 76.7951 220.62 77.465 221.946 79.7135L226.493 87.4257C232.334 84.7043 238.647 82.742 245.305 81.6885V72.5426C245.305 69.8444 247.525 67.5564 250.272 67.4313L257.622 67.0963C260.404 66.9688 262.666 69.0771 262.666 71.8054V81.0522C269.53 81.6236 276.146 83.1674 282.366 85.5539L287.272 77.1949C288.714 74.739 291.917 73.7862 294.431 75.0751L301.153 78.522C303.695 79.8259 304.567 82.8939 303.098 85.3673L298.014 93.9197C303.579 97.8535 308.553 102.563 312.766 107.902L321.962 102.699C324.569 101.224 327.915 101.989 329.43 104.416L333.473 110.89C334.998 113.333 334.093 116.503 331.455 117.963L321.939 123.228C324.577 129.304 326.36 135.817 327.135 142.628L338.549 142.648C341.621 142.653 344.119 144.981 344.119 147.848V155.472C344.119 158.339 341.621 160.632 338.549 160.594L326.832 160.448C325.844 167.099 323.89 173.43 321.113 179.309L331.455 185.178C334.091 186.675 334.997 189.857 333.473 192.278L329.43 198.696C327.915 201.101 324.569 201.818 321.962 200.306L311.502 194.24C307.323 199.183 302.462 203.526 297.067 207.141L303.098 217.37C304.567 219.865 303.695 222.92 301.153 224.188L294.431 227.54C291.918 228.793 288.714 227.796 287.272 225.319L281.292 215.045C275.387 217.128 269.136 218.451 262.666 218.907V230.361C262.666 233.088 260.404 235.165 257.622 234.998L250.272 234.559C247.525 234.394 245.305 232.075 245.305 229.377V218.048C239.026 216.975 233.054 215.096 227.496 212.542L221.946 221.877C220.62 224.107 217.692 224.735 215.409 223.286L209.372 219.454C207.114 218.022 206.342 215.068 207.644 212.851L213.031 203.674C208.209 199.859 203.916 195.444 200.265 190.562L191.28 195.534C189.075 196.755 186.264 195.878 184.999 193.585L181.643 187.502C180.386 185.222 181.131 182.378 183.314 181.143L192.003 176.227C189.65 170.708 188.003 164.831 187.172 158.711L177.473 158.59C174.973 158.559 172.952 156.447 172.952 153.873V147.026C172.952 144.452 174.972 142.368 177.473 142.373V142.371ZM253.939 198.733C281.886 199.77 305.275 178.079 305.275 150.252C305.275 122.425 281.886 100.435 253.939 101.115C226.94 101.772 205.718 123.477 205.718 149.616C205.718 175.754 226.94 197.731 253.939 198.733Z" fill="#97A6B7"/>
<path d="M285.212 74.7169L291.939 74.4851L294.258 80.5155L285.212 74.7169Z" fill="#97A6B7"/>
<path d="M218.507 77.501L210.75 77.5775V83.2996L218.507 77.501Z" fill="#97A6B7"/>
<path d="M188.945 105.102L181.212 105.414L183.145 109.744L188.945 105.102Z" fill="#97A6B7"/>
<path d="M176.805 142.452L168.996 143.071L171.547 146.86L176.805 142.452Z" fill="#97A6B7"/>
<path d="M189.796 196.036L182.218 197.119L181.29 190.933L189.796 196.036Z" fill="#97A6B7"/>
<path d="M218.791 223.95L211.987 225.187L211.445 220.161L218.791 223.95Z" fill="#97A6B7"/>
<path d="M252.813 236.012L258.921 234.93L253.664 227.12L252.813 236.012Z" fill="#97A6B7"/>
<path d="M285.907 229.441L293.021 227.971L287.531 221.322L285.907 229.441Z" fill="#97A6B7"/>
<path d="M325.883 102.012L318.461 102.244L321.399 107.656L325.883 102.012Z" fill="#97A6B7"/>
<path d="M340.652 160.236L333.848 161.241L334.389 155.674L340.652 160.236Z" fill="#97A6B7"/>
<path d="M326.039 200.985L319.388 202.068L318.847 197.66L326.039 200.985Z" fill="#97A6B7"/>
<path d="M169.842 142.984L179.366 143C180.022 136.71 181.534 130.673 183.784 125L175.732 120.332C173.531 119.056 172.779 116.178 174.048 113.897L177.431 107.813C178.707 105.518 181.541 104.676 183.765 105.938L191.717 110.45C195.418 105.264 199.835 100.589 204.839 96.5681L200.265 88.7122C198.953 86.4579 199.731 83.492 202.008 82.0791L208.096 78.303C210.398 76.8751 213.35 77.5496 214.686 79.8178L219.27 87.5926C225.16 84.8492 231.524 82.8707 238.239 81.8091V72.589C238.239 69.8687 240.477 67.5623 243.246 67.4359L250.658 67.0975C253.462 66.97 255.743 69.0945 255.743 71.8449V81.167C262.664 81.743 269.335 83.2984 275.606 85.7057L280.554 77.2784C282.007 74.8016 285.236 73.8419 287.771 75.1412L294.549 78.6171C297.111 79.9314 297.992 83.0237 296.51 85.518L291.384 94.14C296.994 98.1062 302.01 102.854 306.257 108.237L315.53 102.993C318.158 101.506 321.532 102.276 323.06 104.723L327.136 111.251C328.674 113.714 327.761 116.909 325.102 118.38L315.508 123.688C318.168 129.814 319.965 136.381 320.746 143.246L332.254 143.265C335.351 143.271 337.871 145.618 337.871 148.508V156.193C337.871 159.084 335.351 161.395 332.254 161.357L320.44 161.21C319.442 167.915 317.473 174.297 314.673 180.225L325.101 186.141C327.76 187.65 328.673 190.859 327.135 193.3L323.059 199.769C321.531 202.194 318.157 202.917 315.528 201.393L304.981 195.278C300.767 200.262 295.867 204.641 290.427 208.285L296.508 218.598C297.99 221.112 297.11 224.192 294.547 225.471L287.769 228.851C285.235 230.114 282.006 229.108 280.551 226.611L274.521 216.254C268.566 218.354 262.264 219.687 255.741 220.147V231.694C255.741 234.444 253.46 236.536 250.655 236.369L243.243 235.926C240.474 235.761 238.236 233.422 238.236 230.701V219.28C231.906 218.198 225.884 216.304 220.279 213.729L214.685 223.139C213.348 225.387 210.395 226.02 208.095 224.56L202.007 220.698C199.731 219.254 198.952 216.276 200.264 214.04L205.695 204.789C200.833 200.942 196.505 196.492 192.823 191.569L183.764 196.582C181.54 197.813 178.706 196.93 177.43 194.616L174.047 188.484C172.779 186.185 173.531 183.318 175.731 182.073L184.491 177.118C182.118 171.554 180.459 165.63 179.621 159.459L169.841 159.338C167.32 159.306 165.282 157.177 165.282 154.581V147.679C165.282 145.084 167.32 142.983 169.841 142.987L169.842 142.984ZM246.942 199.805C275.121 200.851 298.704 178.983 298.704 150.929C298.704 122.875 275.122 100.706 246.942 101.392C219.72 102.054 198.322 123.936 198.322 150.288C198.322 176.64 219.72 198.796 246.942 199.805Z" fill="#D8DEE8"/>
<path d="M81.1494 143.046L86.2306 142.102C85.9501 138.68 86.153 135.309 86.7846 132.058L82.0222 130.373C80.7206 129.913 80.031 128.453 80.4795 127.11L81.6745 123.525C82.1253 122.173 83.5521 121.44 84.8653 121.891L89.5582 123.502C91.0128 120.365 92.9009 117.428 95.1668 114.782L91.94 111.05C91.0139 109.979 91.1322 108.318 92.2054 107.338L95.074 104.714C96.1589 103.722 97.8012 103.786 98.7412 104.862L101.964 108.551C104.832 106.499 108.029 104.805 111.502 103.566L110.578 98.6474C110.306 97.1963 111.268 95.7417 112.733 95.3963L116.652 94.4737C118.135 94.1248 119.564 95.03 119.84 96.4974L120.773 101.47C124.521 101.084 128.236 101.246 131.822 101.902L133.618 96.9111C134.145 95.445 135.771 94.6093 137.253 95.0486L141.216 96.2238C142.715 96.6689 143.494 98.2301 142.954 99.709L141.083 104.822C144.473 106.376 147.623 108.405 150.428 110.852L154.849 107.126C156.102 106.069 157.978 106.143 159.039 107.295L161.867 110.369C162.933 111.529 162.766 113.324 161.496 114.375L156.911 118.168C158.944 121.17 160.559 124.491 161.664 128.076L167.804 126.935C169.457 126.628 171.036 127.628 171.325 129.169L172.095 133.27C172.385 134.811 171.272 136.297 169.616 136.587L163.3 137.692C163.439 141.368 163.028 144.97 162.129 148.413L168.283 150.526C169.852 151.064 170.66 152.685 170.085 154.141L168.559 158C167.987 159.447 166.26 160.17 164.705 159.62L158.467 157.414C156.718 160.494 154.543 163.321 152.007 165.81L156.282 170.702C157.324 171.895 157.164 173.626 155.925 174.565L152.649 177.046C151.424 177.975 149.601 177.762 148.575 176.575L144.321 171.653C141.355 173.37 138.127 174.712 134.694 175.61L135.851 181.77C136.127 183.237 135.12 184.581 133.607 184.773L129.61 185.278C128.116 185.467 126.688 184.443 126.415 182.992L125.271 176.899C121.786 176.956 118.386 176.548 115.137 175.736L113.095 181.316C112.607 182.649 111.095 183.283 109.722 182.734L106.088 181.283C104.729 180.74 104.016 179.23 104.492 177.906L106.463 172.428C103.484 170.862 100.73 168.922 98.2729 166.665L93.9428 170.246C92.88 171.125 91.2794 170.938 90.3672 169.833L87.9483 166.9C87.042 165.802 87.1555 164.196 88.2045 163.312L92.3804 159.791C90.5573 157.06 89.0795 154.066 88.0144 150.858L82.786 151.773C81.438 152.008 80.1388 151.076 79.878 149.692L79.1872 146.01C78.9276 144.625 79.8038 143.301 81.1483 143.051L81.1494 143.046ZM127.963 165.637C143.097 163.373 153.486 149.347 150.676 134.381C147.867 119.416 133.068 109.951 118.106 113.139C103.653 116.218 94.4308 130.034 97.0699 144.091C99.709 158.147 113.342 167.824 127.962 165.637H127.963Z" fill="#97A6B7"/>
<path d="M132.259 95.7846L135.854 94.9802L137.71 97.9891L132.259 95.7846Z" fill="#97A6B7"/>
<path d="M96.6677 104.016L92.5033 104.841L93.0805 107.918L96.6677 104.016Z" fill="#97A6B7"/>
<path d="M83.5556 121.844L79.4283 122.793L80.906 124.927L83.5556 121.844Z" fill="#97A6B7"/>
<path d="M80.7983 143.156L76.6605 144.278L78.4153 146.058L80.7983 143.156Z" fill="#97A6B7"/>
<path d="M93.1941 170.663L89.2279 172.011L88.1048 168.777L93.1941 170.663Z" fill="#97A6B7"/>
<path d="M111.606 182.746L108.073 184.099L107.274 181.451L111.606 182.746Z" fill="#97A6B7"/>
<path d="M131.121 185.8L134.297 184.6L130.681 180.932L131.121 185.8Z" fill="#97A6B7"/>
<path d="M148.256 178.923L151.933 177.415L148.309 174.393L148.256 178.923Z" fill="#97A6B7"/>
<path d="M156.889 106.357L152.92 107.231L155.047 109.845L156.889 106.357Z" fill="#97A6B7"/>
<path d="M170.71 136.178L167.152 137.407L166.881 134.357L170.71 136.178Z" fill="#97A6B7"/>
<path d="M166.965 159.568L163.497 160.822L162.761 158.507L166.965 159.568Z" fill="#97A6B7"/>
<path d="M77.1068 144.146L82.2297 143.194C81.9469 139.744 82.1509 136.345 82.7883 133.067L77.9865 131.369C76.6745 130.906 75.979 129.434 76.431 128.079L77.6365 124.465C78.0908 123.102 79.5303 122.362 80.8539 122.817L85.5862 124.441C87.0536 121.279 88.9567 118.317 91.2411 115.65L87.9877 111.887C87.0547 110.807 87.1741 109.133 88.2555 108.145L91.1484 105.5C92.2414 104.499 93.8976 104.564 94.8457 105.649L98.0956 109.367C100.986 107.297 104.21 105.59 107.713 104.342L106.783 99.3834C106.508 97.9207 107.478 96.4534 108.955 96.1069L112.906 95.1762C114.401 94.8238 115.843 95.7371 116.12 97.2161L117.061 102.229C120.84 101.841 124.585 102.003 128.201 102.665L130.011 97.6333C130.543 96.1544 132.183 95.3118 133.677 95.7557L137.673 96.9402C139.184 97.3887 139.969 98.9627 139.424 100.453L137.539 105.607C140.957 107.173 144.133 109.22 146.961 111.687L151.418 107.93C152.681 106.865 154.574 106.939 155.643 108.1L158.494 111.2C159.569 112.369 159.401 114.18 158.119 115.239L153.496 119.063C155.545 122.089 157.175 125.438 158.289 129.052L164.48 127.901C166.147 127.592 167.738 128.599 168.03 130.153L168.807 134.286C169.099 135.841 167.977 137.338 166.308 137.63L159.939 138.744C160.079 142.451 159.664 146.083 158.758 149.552L164.964 151.681C166.546 152.225 167.36 153.858 166.78 155.325L165.241 159.216C164.663 160.674 162.922 161.404 161.355 160.849L155.065 158.625C153.303 161.73 151.108 164.58 148.552 167.089L152.863 172.022C153.914 173.224 153.752 174.97 152.503 175.916L149.2 178.419C147.964 179.354 146.126 179.14 145.092 177.944L140.804 172.982C137.813 174.712 134.559 176.065 131.097 176.971L132.263 183.181C132.541 184.66 131.526 186.016 130 186.209L125.969 186.719C124.464 186.909 123.024 185.877 122.749 184.414L121.596 178.273C118.082 178.33 114.652 177.919 111.378 177.1L109.32 182.726C108.828 184.07 107.304 184.709 105.919 184.156L102.255 182.693C100.885 182.146 100.166 180.623 100.646 179.289L102.632 173.765C99.629 172.188 96.852 170.231 94.3752 167.955L90.0091 171.565C88.937 172.452 87.3236 172.263 86.4045 171.148L83.9659 168.192C83.0514 167.084 83.1673 165.466 84.2244 164.574L88.4351 161.025C86.5969 158.273 85.1064 155.254 84.0331 152.02L78.7619 152.941C77.4035 153.179 76.0926 152.239 75.8307 150.843L75.1341 147.131C74.8722 145.735 75.7553 144.4 77.1114 144.147L77.1068 144.146ZM124.307 166.92C139.568 164.637 150.042 150.497 147.21 135.408C144.377 120.321 129.457 110.78 114.371 113.994C99.7983 117.099 90.4994 131.027 93.1593 145.199C95.8193 159.37 109.564 169.126 124.307 166.92Z" fill="#D8DEE8"/>
<path d="M348.461 326.881C354.249 327.219 358.982 323.173 358.982 317.859V126.346C358.982 121.033 354.249 116.881 348.461 117.091L75.2176 127.006C70.7901 127.167 67.204 131.054 67.204 135.67V302.075C67.204 306.692 70.7912 310.658 75.2176 310.917L348.461 326.881Z" fill="url(#paint0_linear_117_3292)"/>
<path d="M170.317 348.079C174.684 346.559 177.949 342.669 178.87 337.89L185.226 304.882L239.602 306.908L246.294 341.295C247.231 346.111 243.48 350.943 239.159 352.716L216.409 362.055C212.178 363.793 207.63 364.485 203.11 364.078L155.031 359.763C153.625 359.636 152.498 358.477 152.335 356.99C152.171 355.503 151.186 353.833 152.527 353.367L170.318 348.079H170.317Z" fill="url(#paint1_linear_117_3292)"/>
<path d="M169.779 346.071C174.142 344.57 177.403 340.73 178.323 336.011L184.673 303.418L237.724 305.421L244.409 339.375C245.346 344.131 242.868 348.899 238.551 350.65L215.824 359.872C211.597 361.587 207.054 362.27 202.537 361.87L154.507 357.609C153.103 357.485 151.977 356.34 151.813 354.872C151.65 353.403 152.495 352.017 153.833 351.557L169.778 346.072L169.779 346.071Z" fill="url(#paint2_linear_117_3292)"/>
<path d="M346.297 326.881C352.085 327.219 356.818 323.173 356.818 317.859V126.346C356.818 121.033 352.085 116.881 346.297 117.091L73.0537 127.006C68.6262 127.167 65.0401 131.054 65.0401 135.67V302.075C65.0401 306.692 68.6274 310.658 73.0537 310.917L346.297 326.881Z" fill="url(#paint3_linear_117_3292)"/>
<path d="M73.0537 130.92L346.297 121.555C349.393 121.45 351.908 123.664 351.908 126.502V317.593C351.908 320.431 349.393 322.59 346.297 322.415L73.0537 307.001C70.6811 306.868 68.7618 304.752 68.7618 302.275V135.549C68.7618 133.073 70.6811 130.999 73.0537 130.918V130.92Z" fill="url(#paint4_linear_117_3292)"/>
<path d="M346.297 306.135C347.503 306.194 348.484 305.343 348.484 304.238V126.612C348.484 125.508 347.503 124.642 346.297 124.681L73.0537 133.66C72.1288 133.691 71.3766 134.502 71.3766 135.469V290.894C71.3766 291.861 72.1288 292.684 73.0537 292.729L346.297 306.135Z" fill="white"/>
<path d="M82.3584 283.152L334.312 294.216V151.228L82.3584 156.516V283.152Z" fill="url(#paint5_linear_117_3292)"/>
<path d="M82.3584 152.19L334.312 146.344V134.132L82.3584 141.375V152.19Z" fill="#B3E5E0"/>
<path d="M101.495 146.286C101.495 147.058 102.104 147.668 102.853 147.65C103.605 147.631 104.214 146.989 104.214 146.215C104.214 145.441 103.605 144.831 102.853 144.851C102.102 144.871 101.495 145.513 101.495 146.286Z" fill="white"/>
<path d="M95.919 146.431C95.919 147.2 96.524 147.81 97.2704 147.791C98.0169 147.773 98.623 147.132 98.623 146.361C98.623 145.59 98.0169 144.981 97.2704 145.001C96.524 145.021 95.919 145.662 95.919 146.432V146.431Z" fill="white"/>
<path d="M90.3742 146.574C90.3742 147.341 90.9758 147.949 91.7175 147.93C92.4605 147.912 93.0632 147.273 93.0632 146.504C93.0632 145.734 92.4605 145.128 91.7175 145.147C90.9758 145.167 90.3742 145.806 90.3742 146.574Z" fill="white"/>
<g opacity="0.68">
<path d="M133.352 260.331L328.817 266.468V154.942L133.352 158.724V260.331Z" fill="white"/>
</g>
<path opacity="0.68" d="M85.0497 188.263L129.934 188.051V158.791L85.0497 159.66V188.263Z" fill="white"/>
<path d="M85.0497 193.502L129.934 193.412V191.22L85.0497 191.36V193.502Z" fill="white"/>
<path d="M101.75 197.2L129.934 197.196V195.006L101.75 195.04V197.2Z" fill="white"/>
<path opacity="0.68" d="M85.0497 230.223L129.934 230.975V201.715L85.0497 201.62V230.223Z" fill="white"/>
<path d="M85.0497 235.463L129.934 236.335V234.145L85.0497 233.321V235.463Z" fill="white"/>
<path d="M101.75 239.518L129.934 240.12V237.929L101.75 237.359V239.518Z" fill="white"/>
<path opacity="0.68" d="M85.0497 272.183L129.934 273.9V244.639L85.0497 243.579V272.183Z" fill="white"/>
<path d="M85.0497 277.423L129.934 279.259V277.068L85.0497 275.281V277.423Z" fill="white"/>
<path d="M101.75 281.838L129.934 283.044V280.852L101.75 279.677V281.838Z" fill="white"/>
<path d="M193.55 274.012L328.817 279.033V271.702L193.55 267.132V274.012Z" fill="white"/>
<path d="M133.352 271.778L152.651 272.495V265.75L133.352 265.099V271.778Z" fill="white"/>
<path d="M155.633 272.605L175.366 273.337V266.518L155.633 265.851V272.605Z" fill="white"/>
<path d="M266.932 285.347L328.817 287.893V284.227L266.932 281.784V285.347Z" fill="white"/>
<path d="M91.0974 124.67L91.5877 175.877C91.6665 183.904 98.2104 190.302 106.242 190.302H214.896C223.537 190.302 230.449 183.617 230.297 175.23L230.202 170.046L230.181 169.013L229.312 121.747C229.168 113.802 222.652 107.465 214.57 107.112C214.199 107.096 213.82 107.094 213.441 107.104L213.297 107.11L105.398 109.878C97.4072 110.08 91.0221 116.7 91.0963 124.67H91.0974Z" fill="url(#paint6_linear_117_3292)"/>
<path d="M204.441 190.301H258.395C259.536 190.301 259.96 189.003 259.005 188.39L231.865 171.113L230.201 170.076L221.999 164.851L220.817 163.985L204.44 190.301H204.441Z" fill="url(#paint7_linear_117_3292)"/>
<path d="M92.749 124.67L93.2393 175.996C93.3169 183.954 99.7426 190.306 107.676 190.417C107.747 190.422 107.82 190.302 107.891 190.302H216.544C225.186 190.302 232.101 183.617 231.945 175.23L231.866 171.113L231.85 170.076L230.96 121.747C230.808 113.431 223.686 106.881 215.094 107.099L214.571 107.115L212.96 107.158L107.046 109.877C99.0588 110.079 92.6702 116.699 92.749 124.669V124.67Z" fill="url(#paint8_linear_117_3292)"/>
<path d="M206.093 190.301H260.042C261.187 190.301 261.612 189.003 260.652 188.39L231.848 170.046L230.18 169.013L222.465 164.098L221.999 164.74L206.092 190.301H206.093Z" fill="url(#paint9_linear_117_3292)"/>
<path d="M108.054 190.535V190.301H260.043C261.188 190.301 261.613 189.003 260.653 188.39L231.849 170.046L230.959 121.732C230.807 113.416 223.685 106.873 215.093 107.092L214.57 107.112C214.199 107.095 213.82 107.094 213.441 107.104L213.297 107.109C213.183 107.126 213.071 107.143 212.96 107.159C204.891 108.448 195.525 112.63 192.633 124.681C190.706 132.709 189.025 139.354 186.038 144.576C185.333 145.816 184.551 146.978 183.67 148.057C180.317 152.192 175.581 155.15 168.298 156.896C166.733 157.275 165.045 157.596 163.232 157.86C159.788 158.363 155.876 158.663 151.419 158.758C150.377 158.779 149.306 158.791 148.202 158.791C147.097 158.791 146.257 158.828 145.252 158.897C122.511 160.475 121.126 179.384 108.053 190.535H108.054Z" fill="url(#paint10_linear_117_3292)"/>
<path d="M149.723 143.592V138.365L139.181 144.576L131.34 149.218V152.287L149.723 161.827V156.621L136.829 150.521L141.406 148.058L149.723 143.593V143.592Z" fill="white"/>
<path d="M164.365 134.205L156.885 156.897L153.792 166.288L159.146 166.342L161.951 157.861L169.802 134.132L164.365 134.206V134.205Z" fill="white"/>
<path d="M173.826 138.113V143.434L187.521 150.441L173.826 156.694V161.99L180.204 158.897L193.843 152.274V149.058L173.826 138.114V138.113Z" fill="white"/>
<defs>
<linearGradient id="paint0_linear_117_3292" x1="328.495" y1="226.139" x2="280.038" y2="221.077" gradientUnits="userSpaceOnUse">
<stop stop-color="#26264F"/>
<stop offset="1" stop-color="#444B8C"/>
</linearGradient>
<linearGradient id="paint1_linear_117_3292" x1="225.201" y1="374.175" x2="214.934" y2="359.47" gradientUnits="userSpaceOnUse">
<stop stop-color="#444B8C"/>
<stop offset="1" stop-color="#26264F"/>
</linearGradient>
<linearGradient id="paint2_linear_117_3292" x1="194.122" y1="370.405" x2="209.835" y2="285.109" gradientUnits="userSpaceOnUse">
<stop stop-color="#444B8C"/>
<stop offset="1" stop-color="#26264F"/>
</linearGradient>
<linearGradient id="paint3_linear_117_3292" x1="155.362" y1="134.939" x2="76.7324" y2="22.7157" gradientUnits="userSpaceOnUse">
<stop stop-color="#444B8C"/>
<stop offset="1" stop-color="#26264F"/>
</linearGradient>
<linearGradient id="paint4_linear_117_3292" x1="189.514" y1="148.264" x2="287.869" y2="460.656" gradientUnits="userSpaceOnUse">
<stop stop-color="#444B8C"/>
<stop offset="1" stop-color="#26264F"/>
</linearGradient>
<linearGradient id="paint5_linear_117_3292" x1="184.183" y1="167.386" x2="276.389" y2="357.515" gradientUnits="userSpaceOnUse">
<stop stop-color="#00A896"/>
<stop offset="1" stop-color="#036D5E"/>
</linearGradient>
<linearGradient id="paint6_linear_117_3292" x1="110.482" y1="82.8139" x2="207.509" y2="211.087" gradientUnits="userSpaceOnUse">
<stop stop-color="#311944"/>
<stop offset="1" stop-color="#893976"/>
</linearGradient>
<linearGradient id="paint7_linear_117_3292" x1="136.435" y1="63.3039" x2="233.411" y2="191.511" gradientUnits="userSpaceOnUse">
<stop stop-color="#311944"/>
<stop offset="1" stop-color="#893976"/>
</linearGradient>
<linearGradient id="paint8_linear_117_3292" x1="112.104" y1="82.8359" x2="209.13" y2="211.108" gradientUnits="userSpaceOnUse">
<stop stop-color="#00A896"/>
<stop offset="1" stop-color="#036D5E"/>
</linearGradient>
<linearGradient id="paint9_linear_117_3292" x1="138.297" y1="63.5833" x2="235.079" y2="191.533" gradientUnits="userSpaceOnUse">
<stop stop-color="#00A896"/>
<stop offset="1" stop-color="#036D5E"/>
</linearGradient>
<linearGradient id="paint10_linear_117_3292" x1="160.054" y1="141.329" x2="220.162" y2="220.794" gradientUnits="userSpaceOnUse">
<stop stop-color="#00A896"/>
<stop offset="1" stop-color="#036D5E"/>
</linearGradient>
</defs>
</svg>
