<?xml version="1.0" encoding="UTF-8"?>
<svg id="OBJECTS" xmlns="http://www.w3.org/2000/svg" viewBox="0 0 500 500">
  <defs>
    <style>
      .cls-1, .cls-2, .cls-3, .cls-4, .cls-5, .cls-6 {
        fill: #fff;
      }

      .cls-7 {
        fill: #3d405b;
      }

      .cls-2 {
        font-size: 18.75px;
      }

      .cls-2, .cls-3, .cls-4, .cls-5, .cls-6 {
        font-family: Montserrat-Bold, 'Montserrat Bold';
        font-weight: 700;
      }

      .cls-8 {
        fill: #00a896;
      }

      .cls-9 {
        fill: #8f97a2;
      }

      .cls-10 {
        letter-spacing: -.06em;
      }

      .cls-11 {
        fill: #cbcfd7;
      }

      .cls-12 {
        fill: #202135;
      }

      .cls-13 {
        fill: gold;
      }

      .cls-14 {
        fill: #aaafba;
      }

      .cls-3 {
        font-size: 24.99px;
      }

      .cls-15 {
        fill: #7dbfe6;
      }

      .cls-4 {
        font-size: 18.48px;
      }

      .cls-5 {
        font-size: 25.67px;
      }

      .cls-16 {
        fill: none;
        stroke: #62edd9;
        stroke-miterlimit: 10;
        stroke-width: .5px;
      }

      .cls-17 {
        letter-spacing: -.05em;
      }

      .cls-18 {
        fill: #62edd9;
      }

      .cls-6 {
        font-size: 19.81px;
      }

      .cls-19 {
        fill: #676d77;
      }

      .cls-20 {
        fill: #e63946;
      }
    </style>
  </defs>
  <g>
    <g>
      <g>
        <path class="cls-11" d="m327.75,403.42c0,2.35-1.9,4.25-4.25,4.25h-146.09c-2.35,0-4.25-1.9-4.25-4.25,0-1.17.48-2.24,1.24-3.01s1.83-1.24,3.01-1.24h13.93c13.08,0,23.68-10.6,23.68-23.68v-12.07h70.89v12.07c0,13.08,10.6,23.68,23.68,23.68h13.93c2.35,0,4.25,1.9,4.25,4.25Z"/>
        <path class="cls-14" d="m309.58,399.17h-118.24c13.08,0,23.68-10.6,23.68-23.68v-12.07h70.89v12.07c0,13.08,10.6,23.68,23.68,23.68Z"/>
        <polygon class="cls-9" points="285.9 366.55 215.01 373.57 215.01 363.42 285.9 363.42 285.9 366.55"/>
      </g>
      <g>
        <path class="cls-12" d="m396.75,174.31v179.43H101.83v-179.43c0-4.52,3.66-8.18,8.17-8.18h278.58c4.52,0,8.17,3.66,8.17,8.18Z"/>
        <rect class="cls-1" x="109.07" y="176.41" width="280.44" height="169.14"/>
        <path class="cls-19" d="m397.31,353.73h-1.12v-179.43c0-4.2-3.42-7.62-7.61-7.62H110c-4.2,0-7.61,3.42-7.61,7.62v179.43h-1.12v-179.43c0-4.82,3.92-8.74,8.73-8.74h278.58c4.82,0,8.73,3.92,8.73,8.74v179.43Z"/>
        <path class="cls-15" d="m221.35,171.16c0,1.29-1.05,2.34-2.34,2.34s-2.34-1.05-2.34-2.34,1.05-2.34,2.34-2.34,2.34,1.05,2.34,2.34Z"/>
        <path class="cls-11" d="m397.31,348.61v1.56c0,7.56-6.13,13.69-13.69,13.69H114.96c-7.56,0-13.69-6.13-13.69-13.69v-1.56h296.04Z"/>
        <path class="cls-14" d="m133.99,356.24c0,2.41-1.95,4.37-4.36,4.37s-4.36-1.95-4.36-4.37,1.95-4.36,4.36-4.36,4.36,1.95,4.36,4.36Z"/>
        <path class="cls-19" d="m397.31,334.77l.13,10.36.04,5.18c.05,5.31-3.25,10.41-8.09,12.61-2.38,1.16-5.11,1.37-7.73,1.32,0,0-2.59.02-2.59.02l-41.45.23c-67.46.29-150.6.22-218.11-.23,0,0-2.59-.02-2.59-.02h-1.3c-2.19,0-4.44-.38-6.43-1.32-4.84-2.19-8.15-7.3-8.09-12.61,0,0,.04-5.18.04-5.18l.13-10.36.13,10.36c.13,3.43-.35,7,1.11,10.14,2.14,5.2,7.56,8.5,13.13,8.2.76,0,3.08-.03,3.89-.04,81.47-.54,178.08-.54,259.56,0l2.59.02h1.3s.65.02.65.02l.63-.03c5.1-.13,9.9-3.45,11.85-8.19,1.45-3.15.98-6.71,1.11-10.15l.13-10.36h0Z"/>
        <path class="cls-19" d="m129.62,361.91c-3.13,0-5.67-2.55-5.67-5.67s2.55-5.67,5.67-5.67,5.67,2.55,5.67,5.67-2.55,5.67-5.67,5.67Zm0-10.68c-2.76,0-5,2.24-5,5s2.24,5,5,5,5-2.25,5-5-2.24-5-5-5Z"/>
        <rect class="cls-14" x="141.1" y="354.25" width="39.79" height="3.98" rx="1.67" ry="1.67"/>
      </g>
    </g>
    <rect class="cls-1" x="109.09" y="176.41" width="280.44" height="166.63"/>
  </g>
  <g>
    <path class="cls-18" d="m149.09,154.04c0-9.09-6.85-16.57-15.67-17.58.07-.59.11-1.2.11-1.81,0-8.71-7.06-15.78-15.78-15.78-2.33,0-4.54.52-6.54,1.43-4.2-6.55-11.54-10.89-19.9-10.89-13.05,0-23.63,10.58-23.63,23.63,0,1.15.09,2.28.24,3.38-8.93.9-15.9,8.44-15.9,17.61,0,9.78,7.93,17.7,17.7,17.7h62.52v-.04c9.37-.46,16.83-8.18,16.83-17.66Z"/>
    <polygon class="cls-13" points="111.9 185.25 111.9 157.74 89.22 157.74 89.22 185.25 82.13 185.25 100.56 202.51 118.99 185.25 111.9 185.25"/>
  </g>
  <rect class="cls-8" x="297.42" y="129.88" width="74.33" height="37.16" rx="9.08" ry="9.08"/>
  <rect class="cls-8" x="65.26" y="299.94" width="74.33" height="37.16" rx="9.08" ry="9.08"/>
  <rect class="cls-8" x="116.35" y="240.09" width="74.33" height="37.16" rx="9.08" ry="9.08"/>
  <rect class="cls-8" x="313.25" y="373.45" width="74.33" height="37.16" rx="9.08" ry="9.08"/>
  <rect class="cls-8" x="373.64" y="260.94" width="74.33" height="37.16" rx="9.08" ry="9.08"/>
  <g>
    <g>
      <rect class="cls-7" x="269.3" y="304.91" width="23.39" height="2.12"/>
      <rect class="cls-7" x="298.69" y="304.91" width="54.16" height="2.12"/>
      <path class="cls-7" d="m325.09,323.17c-9.3,0-18.61-.01-27.89-.03v-2.12c18.55.04,37.27.04,55.65,0v2.12c-9.18.02-18.46.03-27.76.03Z"/>
      <rect class="cls-7" x="288.68" y="312.96" width="64.17" height="2.12"/>
      <rect class="cls-7" x="285.19" y="329.1" width="67.66" height="2.12"/>
      <rect class="cls-7" x="275.8" y="337.15" width="77.04" height="2.12"/>
    </g>
    <g>
      <rect class="cls-18" x="142.9" y="183.58" width="36.22" height="2.12"/>
      <rect class="cls-18" x="225.93" y="183.58" width="37.38" height="2.12"/>
      <rect class="cls-13" x="237.39" y="191.63" width="25.93" height="2.12"/>
      <rect class="cls-13" x="226.72" y="207.77" width="36.6" height="2.12"/>
      <rect class="cls-13" x="219.55" y="215.82" width="43.76" height="2.12"/>
      <rect class="cls-13" x="207.02" y="225.23" width="56.29" height="2.12"/>
      <rect class="cls-13" x="185" y="183.58" width="36.22" height="2.12"/>
      <path class="cls-13" d="m234.07,201.84c-5.53,0-11.09,0-22.19-.02h-7.22s0-2.13,0-2.13h7.22q22.21.04,44.26,0h7.17s0,2.11,0,2.11h-7.17c-11.03.03-16.54.03-22.07.03Z"/>
      <path class="cls-18" d="m170.66,201.84c-9.3,0-18.57-.01-27.76-.03v-2.12c18.38.04,37.1.04,55.65,0v2.12c-9.27.02-18.59.03-27.89.03Z"/>
      <rect class="cls-18" x="142.9" y="191.63" width="89.34" height="2.12"/>
      <rect class="cls-18" x="142.9" y="225.23" width="59.16" height="2.12"/>
      <rect class="cls-18" x="142.9" y="207.77" width="79.2" height="2.12"/>
      <rect class="cls-18" x="142.9" y="215.82" width="71.78" height="2.12"/>
      <g>
        <circle class="cls-20" cx="135.32" cy="184.64" r="1.46"/>
        <path class="cls-20" d="m136.78,192.69c0,.81-.66,1.46-1.46,1.46s-1.46-.65-1.46-1.46.66-1.46,1.46-1.46,1.46.65,1.46,1.46Z"/>
        <circle class="cls-20" cx="135.32" cy="200.74" r="1.46"/>
        <path class="cls-20" d="m136.78,208.8c0,.81-.66,1.46-1.46,1.46s-1.46-.65-1.46-1.46.66-1.46,1.46-1.46,1.46.66,1.46,1.46Z"/>
        <circle class="cls-20" cx="135.32" cy="216.88" r="1.46"/>
        <path class="cls-20" d="m136.78,226.29c0,.81-.66,1.46-1.46,1.46s-1.46-.66-1.46-1.46.66-1.46,1.46-1.46,1.46.65,1.46,1.46Z"/>
      </g>
      <path class="cls-20" d="m272.97,231.09c-.29,0-.53-.24-.53-.53v-47.11c0-.29.24-.53.53-.53s.53.24.53.53v47.11c0,.29-.24.53-.53.53Z"/>
    </g>
    <g>
      <path class="cls-7" d="m182.67,332.71h-3.26c-.3,0-.54-.24-.54-.54s.24-.54.54-.54h3.26c.3,0,.54.24.54.54s-.24.54-.54.54Zm-6.52,0h-3.26c-.3,0-.54-.24-.54-.54s.24-.54.54-.54h3.26c.3,0,.54.24.54.54s-.24.54-.54.54Zm-6.52,0h-1.32c-.74,0-1.48-.19-2.12-.55-.26-.15-.36-.48-.21-.74.15-.26.48-.36.74-.21.49.27,1.04.41,1.6.41h1.32c.3,0,.54.24.54.54s-.24.54-.54.54Zm-5.07-3.02c-.25,0-.47-.17-.53-.43-.07-.31-.1-.62-.1-.94v-2.43c0-.3.24-.54.54-.54s.54.24.54.54v2.43c0,.24.03.47.08.7.06.29-.12.58-.42.65-.04,0-.08.01-.12.01Zm-.09-6.52c-.3,0-.54-.24-.54-.54v-3.26c0-.3.24-.54.54-.54s.54.24.54.54v3.26c0,.3-.24.54-.54.54Zm0-6.52c-.3,0-.54-.24-.54-.54v-3.26c0-.3.24-.54.54-.54s.54.24.54.54v3.26c0,.3-.24.54-.54.54Zm0-6.52c-.3,0-.54-.24-.54-.54v-3.26c0-.3.24-.54.54-.54s.54.24.54.54v3.26c0,.3-.24.54-.54.54Zm0-6.52c-.3,0-.54-.24-.54-.54v-.4c0-1.11.41-2.16,1.16-2.97.2-.22.55-.23.77-.03.22.2.23.55.03.77-.56.61-.87,1.4-.87,2.24v.4c0,.3-.24.54-.54.54Zm20.24-4.23h-3.26c-.3,0-.54-.24-.54-.54s.24-.54.54-.54h3.26c.3,0,.54.24.54.54s-.24.54-.54.54Zm-6.52,0h-3.26c-.3,0-.54-.24-.54-.54s.24-.54.54-.54h3.26c.3,0,.54.24.54.54s-.24.54-.54.54Zm-6.52,0h-3.26c-.3,0-.54-.24-.54-.54s.24-.54.54-.54h3.26c.3,0,.54.24.54.54s-.24.54-.54.54Z"/>
      <rect class="cls-7" x="177.04" y="318.6" width="17.46" height="2.17"/>
      <rect class="cls-7" x="199.06" y="318.6" width="28.2" height="2.17"/>
      <rect class="cls-7" x="209.81" y="337.1" width="17.46" height="2.17"/>
      <rect class="cls-7" x="177.04" y="337.1" width="28.2" height="2.17"/>
      <rect class="cls-7" x="177.04" y="324.9" width="30.71" height="2.17"/>
      <rect class="cls-7" x="212.31" y="324.9" width="14.96" height="2.17"/>
      <rect class="cls-7" x="177.04" y="331.08" width="25.27" height="2.17"/>
      <rect class="cls-7" x="210.12" y="331.08" width="17.15" height="2.17"/>
      <g>
        <rect class="cls-13" x="177.04" y="292.34" width="9.14" height="17.02"/>
        <rect class="cls-20" x="191.38" y="285.87" width="9.14" height="23.48"/>
        <rect class="cls-8" x="205.24" y="272.48" width="9.14" height="36.87"/>
      </g>
      <rect class="cls-7" x="204.72" y="331.08" width="3.28" height="2.17"/>
    </g>
    <g>
      <rect class="cls-18" x="283.61" y="214.72" width="68.41" height="76.33"/>
      <g>
        <rect class="cls-1" x="289.14" y="228.29" width="47.7" height="1.59"/>
        <path class="cls-1" d="m312.94,241.46c-8.19,0-16.37,0-23.8-.03v-1.59c14.87.04,32.7.04,47.7,0v1.59c-7.5.02-15.71.03-23.9.03Z"/>
        <rect class="cls-1" x="289.14" y="234.06" width="47.7" height="1.59"/>
        <rect class="cls-1" x="289.14" y="245.65" width="34.78" height="1.59"/>
        <rect class="cls-1" x="289.14" y="284.54" width="47.7" height="1.59"/>
        <path class="cls-1" d="m336.84,274.58c-15-.04-32.84-.04-47.7,0v-1.59c14.86-.04,32.7-.04,47.7,0v1.59Z"/>
        <rect class="cls-1" x="289.14" y="278.76" width="47.7" height="1.59"/>
        <rect class="cls-1" x="289.14" y="267.18" width="34.78" height="1.59"/>
      </g>
      <path class="cls-8" d="m353.09,292.11h-70.53v-78.47h70.53v78.47Zm-69.47-1.06h68.41v-76.35h-68.41v76.35Z"/>
      <rect class="cls-8" x="283.08" y="214.17" width="69.47" height="9.14"/>
      <g>
        <path class="cls-1" d="m332.72,263.12c-.19,0-.38-.07-.53-.2l-5.35-4.72c-.17-.15-.27-.37-.27-.6s.1-.45.27-.6l5.35-4.72c.33-.29.83-.26,1.12.07.29.33.26.83-.07,1.12l-4.67,4.13,4.67,4.13c.33.29.36.79.07,1.12-.16.18-.38.27-.6.27Z"/>
        <path class="cls-1" d="m340.96,263.12c-.22,0-.44-.09-.6-.27-.29-.33-.26-.83.07-1.12l4.67-4.13-4.67-4.13c-.33-.29-.36-.79-.07-1.12.29-.33.79-.36,1.12-.07l5.35,4.72c.17.15.27.37.27.6s-.1.44-.27.6l-5.35,4.72c-.15.13-.34.2-.53.2Z"/>
      </g>
      <g>
        <path class="cls-1" d="m289.66,218.74l1.85-1.85c.18-.18.18-.46,0-.63s-.46-.18-.63,0l-1.85,1.85-1.85-1.85c-.18-.18-.46-.18-.63,0-.18.18-.18.46,0,.63l1.85,1.85-1.85,1.85c-.18.18-.18.46,0,.63.09.09.2.13.32.13s.23-.04.32-.13l1.85-1.85,1.85,1.85c.09.09.2.13.32.13s.23-.04.32-.13c.18-.18.18-.46,0-.63l-1.85-1.85Z"/>
        <path class="cls-1" d="m297.61,221.36c-1.44,0-2.62-1.18-2.62-2.62s1.18-2.62,2.62-2.62,2.62,1.18,2.62,2.62-1.18,2.62-2.62,2.62Zm0-4.4c-.98,0-1.78.8-1.78,1.78s.8,1.78,1.78,1.78,1.78-.8,1.78-1.78-.8-1.78-1.78-1.78Z"/>
        <path class="cls-1" d="m307.74,221.36h-4.27c-.25,0-.45-.2-.45-.45s.2-.45.45-.45h4.27c.25,0,.45.2.45.45s-.2.45-.45.45Z"/>
      </g>
    </g>
  </g>
  <path class="cls-7" d="m261.75,111.96l-6.18,1.95c-.21.06-.4.15-.58.25-1.86-3.2-4.25-5.98-7.01-8.28.13-.17.25-.35.35-.54l2.96-5.76c.92-1.79.21-4-1.58-4.92l-5.76-2.96c-1.79-.92-4-.21-4.92,1.58l-2.96,5.76c-.1.19-.17.4-.24.6-3.38-.88-6.93-1.21-10.52-.9-.03-.21-.07-.41-.13-.62l-1.95-6.18c-.61-1.92-2.67-2.99-4.59-2.38l-6.18,1.95c-1.92.61-2.99,2.67-2.38,4.59l1.95,6.18c.06.21.15.4.25.58-3.2,1.86-5.98,4.25-8.28,7.01-.17-.13-.35-.25-.54-.35l-5.76-2.96c-.86-.44-1.85-.53-2.77-.23,0,0-.01,0-.02,0-.93.3-1.69.94-2.13,1.81l-2.96,5.76h0c-.92,1.79-.21,4,1.58,4.92l5.76,2.96c.2.1.4.17.6.24-.88,3.38-1.21,6.94-.9,10.52-.21.03-.41.07-.62.13l-6.18,1.95c-1.92.61-2.99,2.67-2.38,4.59l1.95,6.18c.61,1.92,2.67,2.99,4.59,2.38l6.18-1.95c.21-.06.4-.15.58-.25,1.86,3.2,4.25,5.99,7.01,8.28-.13.17-.25.35-.35.54l-2.96,5.76c-.45.87-.53,1.86-.23,2.79.3.93.94,1.69,1.81,2.13l5.76,2.96h0c.89.46,1.88.51,2.77.23.9-.28,1.69-.91,2.15-1.81l2.96-5.76c.1-.2.17-.4.23-.6,3.38.88,6.94,1.21,10.52.9.03.21.07.41.13.62l1.95,6.18c.61,1.92,2.67,2.99,4.59,2.38l6.18-1.95c1.92-.61,2.99-2.67,2.38-4.59l-1.95-6.18c-.06-.21-.15-.4-.25-.58,3.2-1.86,5.99-4.25,8.28-7.01.17.13.35.25.54.35l5.76,2.96c.89.46,1.89.51,2.77.23.9-.28,1.69-.91,2.15-1.81l2.96-5.76c.92-1.79.21-4-1.58-4.92l-5.76-2.96c-.19-.1-.4-.17-.6-.24.88-3.38,1.21-6.93.9-10.52.21-.03.41-.07.62-.13l6.18-1.95c1.92-.61,2.99-2.67,2.38-4.59l-1.95-6.18c-.61-1.92-2.67-2.99-4.59-2.38Zm-28.6,34.29c-9.03,2.86-18.7-2.17-21.55-11.2-2.86-9.03,2.17-18.7,11.2-21.55,9.03-2.86,18.7,2.17,21.55,11.2,2.86,9.03-2.17,18.7-11.2,21.55Z"/>
  <g>
    <path class="cls-18" d="m253.95,255.4l-1.5,3.68c-.05.12-.09.25-.11.37-2.24-.38-4.48-.35-6.65.06-.03-.13-.07-.25-.12-.38l-1.56-3.66c-.48-1.14-1.8-1.67-2.94-1.18l-3.66,1.56c-1.14.48-1.67,1.8-1.18,2.94l1.56,3.65c.05.12.12.24.19.35-1.74,1.25-3.29,2.8-4.55,4.61-.11-.07-.22-.13-.34-.18l-3.68-1.5c-1.14-.47-2.46.08-2.92,1.23l-1.5,3.68c-.47,1.14.08,2.46,1.23,2.92l3.68,1.5c.12.05.25.09.37.11-.38,2.24-.35,4.49.06,6.65-.13.03-.25.07-.38.12l-3.65,1.56c-.55.23-.97.66-1.2,1.21,0,0,0,0,0,.01-.22.56-.22,1.16.02,1.72l1.56,3.65h0c.48,1.14,1.8,1.67,2.94,1.18l3.66-1.56c.12-.05.24-.12.35-.19,1.25,1.74,2.8,3.29,4.61,4.55-.07.11-.13.22-.18.34l-1.5,3.68c-.47,1.14.08,2.46,1.23,2.92l3.68,1.5c1.14.47,2.46-.08,2.92-1.23l1.5-3.68c.05-.12.09-.25.11-.37,2.24.38,4.49.35,6.65-.06.03.13.06.25.12.38l1.56,3.65c.23.55.67.98,1.23,1.2.56.22,1.16.22,1.72-.02l3.66-1.56h0c.57-.24.98-.69,1.2-1.22.22-.53.23-1.15-.01-1.73l-1.56-3.66c-.05-.12-.12-.24-.19-.35,1.74-1.25,3.29-2.8,4.55-4.61.11.07.22.13.34.18l3.68,1.5c1.14.47,2.46-.08,2.92-1.23l1.5-3.68c.47-1.14-.08-2.46-1.23-2.92l-3.68-1.5c-.12-.05-.25-.09-.37-.11.38-2.24.35-4.49-.06-6.65.13-.03.25-.06.38-.12l3.66-1.56c.57-.24.98-.69,1.2-1.22.22-.53.23-1.15-.01-1.72l-1.56-3.66c-.48-1.14-1.8-1.67-2.94-1.18l-3.65,1.56c-.12.05-.24.12-.35.19-1.25-1.74-2.8-3.29-4.61-4.55.07-.11.13-.22.18-.34l1.5-3.68c.47-1.14-.08-2.46-1.23-2.92l-3.68-1.5c-1.14-.47-2.46.08-2.92,1.23Zm4.95,26.92c-2.19,5.37-8.35,7.96-13.73,5.77-5.37-2.19-7.96-8.35-5.77-13.73,2.19-5.37,8.35-7.96,13.73-5.77,5.37,2.19,7.96,8.35,5.77,13.73Z"/>
    <path class="cls-16" d="m229.59,236.73l-1.95,1.98c-.07.07-.12.14-.17.21-1.35-.84-2.81-1.42-4.32-1.74.01-.09.02-.18.02-.28l-.03-2.78c0-.87-.72-1.56-1.59-1.55l-2.78.03c-.87,0-1.56.72-1.55,1.59l.03,2.78c0,.09.01.18.03.28-1.46.34-2.88.93-4.18,1.77-.05-.07-.11-.14-.18-.21l-1.98-1.95c-.62-.61-1.61-.6-2.22.01l-1.95,1.98c-.61.62-.6,1.61.01,2.22l1.98,1.95c.07.07.14.12.21.17-.84,1.35-1.42,2.81-1.74,4.32-.09-.01-.18-.02-.28-.02l-2.78.03c-.42,0-.81.17-1.1.47,0,0,0,0,0,0-.29.3-.45.7-.45,1.12l.03,2.78h0c0,.87.72,1.56,1.59,1.55l2.78-.03c.09,0,.19-.01.27-.03.34,1.46.93,2.88,1.77,4.18-.07.05-.14.11-.21.18l-1.95,1.98c-.61.62-.6,1.61.01,2.22l1.98,1.95c.62.61,1.61.6,2.22-.01l1.95-1.98c.06-.07.12-.14.17-.21,1.35.84,2.81,1.42,4.32,1.74-.01.09-.03.18-.02.28l.03,2.78c0,.42.17.81.47,1.11.3.29.7.45,1.12.45l2.78-.03h0c.43,0,.82-.18,1.1-.47.28-.29.46-.68.45-1.12l-.03-2.78c0-.09-.01-.19-.03-.27,1.46-.34,2.88-.93,4.18-1.77.05.07.11.14.18.21l1.98,1.95c.62.61,1.61.6,2.22-.01l1.95-1.98c.61-.62.6-1.61-.01-2.22l-1.98-1.95c-.07-.06-.14-.12-.21-.17.84-1.35,1.42-2.81,1.74-4.32.09.01.18.03.28.02l2.78-.03c.43,0,.82-.18,1.1-.47.28-.29.46-.68.45-1.12l-.03-2.78c0-.87-.72-1.56-1.59-1.55l-2.78.03c-.09,0-.19.01-.28.03-.34-1.46-.93-2.88-1.77-4.18.07-.05.14-.11.21-.18l1.95-1.98c.61-.62.6-1.61-.01-2.22l-1.98-1.95c-.62-.61-1.61-.6-2.22.01Zm-3.99,18.76c-2.86,2.89-7.54,2.93-10.43.07-2.89-2.86-2.93-7.54-.07-10.43,2.86-2.89,7.54-2.93,10.43-.07,2.89,2.86,2.93,7.54.07,10.43Z"/>
  </g>
  <g>
    <rect class="cls-7" x="60.61" y="210.86" width="12.68" height="2.12"/>
    <rect class="cls-7" x="78.54" y="210.86" width="32.35" height="2.12"/>
    <rect class="cls-7" x="90.86" y="233.64" width="20.03" height="2.12"/>
    <rect class="cls-7" x="60.61" y="233.64" width="25.01" height="2.12"/>
    <rect class="cls-7" x="60.61" y="218.62" width="27.88" height="2.12"/>
    <rect class="cls-7" x="93.73" y="218.62" width="17.16" height="2.12"/>
    <rect class="cls-7" x="60.61" y="226.23" width="21.64" height="2.12"/>
    <rect class="cls-7" x="91.22" y="226.23" width="19.67" height="2.12"/>
    <rect class="cls-7" x="85.03" y="226.23" width="3.76" height="2.12"/>
  </g>
  <path class="cls-7" d="m437.06,147.72l-4.98,1.07c-.17.04-.32.09-.48.15-1.22-2.64-2.88-5-4.87-7,.11-.12.22-.25.31-.4l2.75-4.29c.85-1.33.46-3.12-.87-3.97l-4.29-2.75c-1.33-.85-3.12-.46-3.97.87l-2.75,4.29c-.09.14-.17.3-.23.45-2.58-.94-5.34-1.46-8.17-1.49,0-.16-.02-.33-.06-.49l-1.07-4.98c-.33-1.55-1.86-2.54-3.41-2.21l-4.98,1.07c-1.55.33-2.54,1.86-2.21,3.41l1.07,4.98c.04.17.09.32.15.48-2.64,1.22-5,2.88-7,4.87-.12-.11-.25-.22-.4-.31l-4.29-2.75c-.64-.41-1.41-.55-2.15-.39,0,0,0,0-.01,0-.75.16-1.39.61-1.81,1.26l-2.75,4.29h0c-.85,1.33-.46,3.12.87,3.97l4.29,2.75c.15.09.3.17.45.23-.94,2.58-1.46,5.34-1.49,8.17-.16,0-.33.02-.49.06l-4.98,1.07c-1.55.33-2.54,1.86-2.21,3.41l1.07,4.98c.33,1.55,1.86,2.54,3.41,2.21l4.98-1.07c.17-.04.32-.09.48-.15,1.22,2.64,2.88,5,4.87,7.01-.11.12-.22.25-.32.4l-2.75,4.29c-.41.65-.55,1.42-.39,2.17.16.75.61,1.39,1.26,1.81l4.29,2.75h0c.66.43,1.44.54,2.15.39.72-.16,1.39-.59,1.82-1.26l2.75-4.29c.09-.15.16-.3.23-.45,2.58.94,5.34,1.46,8.17,1.49,0,.16.02.33.06.49l1.07,4.98c.33,1.55,1.86,2.54,3.41,2.21l4.98-1.07c1.55-.33,2.54-1.86,2.21-3.41l-1.07-4.98c-.04-.17-.09-.32-.15-.48,2.64-1.22,5-2.88,7.01-4.87.12.11.25.22.4.32l4.29,2.75c.66.42,1.44.54,2.15.39.72-.16,1.39-.59,1.82-1.26l2.75-4.29c.85-1.33.46-3.12-.87-3.97l-4.29-2.75c-.14-.09-.3-.17-.45-.23.94-2.58,1.46-5.34,1.49-8.17.16,0,.33-.02.49-.06l4.98-1.07c1.55-.33,2.54-1.86,2.21-3.41l-1.07-4.98c-.33-1.55-1.86-2.54-3.41-2.21Zm-24.95,24.69c-7.28,1.56-14.47-3.1-16.03-10.38-1.56-7.28,3.1-14.47,10.38-16.03,7.28-1.56,14.47,3.1,16.03,10.38,1.56,7.28-3.1,14.47-10.38,16.03Z"/>
  <text class="cls-5" transform="translate(313.14 156.73)"><tspan x="0" y="0">&lt;/&gt;</tspan></text>
  <text class="cls-4" transform="translate(75.19 323.9)"><tspan x="0" y="0">HTML</tspan></text>
  <text class="cls-6" transform="translate(142.91 264.91)"><tspan x="0" y="0">JS</tspan></text>
  <text class="cls-3" transform="translate(328.54 399.27)"><tspan x="0" y="0">C++</tspan></text>
  <text class="cls-2" transform="translate(385.8 285.76)"><tspan x="0" y="0">J</tspan><tspan class="cls-17" x="6.94" y="0">A</tspan><tspan class="cls-10" x="17.42" y="0">V</tspan><tspan x="26.81" y="0">A</tspan></text>
</svg>