<svg width="430" height="430" viewBox="0 0 430 430" fill="none" xmlns="http://www.w3.org/2000/svg">
<path d="M222.47 52.8088C137.185 50.325 63.3109 111.353 52.1494 191.428C39.946 278.978 107.111 357.754 189.754 370.37C292.548 386.063 392.253 295.275 383.3 196.783C376.556 122.579 309.164 55.3332 222.47 52.8088Z" fill="#F4F7FA"/>
<path d="M252.527 142.371L243.082 142.387C242.432 136.148 240.931 130.159 238.7 124.532L246.686 119.901C248.868 118.635 249.614 115.78 248.357 113.518L245.001 107.483C243.736 105.206 240.925 104.371 238.72 105.622L230.834 110.099C227.163 104.955 222.782 100.318 217.82 96.3282L222.356 88.536C223.658 86.3003 222.886 83.3575 220.628 81.9574L214.591 78.2114C212.309 76.7951 209.38 77.465 208.054 79.7135L203.507 87.4257C197.666 84.7043 191.353 82.742 184.695 81.6885V72.5426C184.695 69.8444 182.475 67.5564 179.728 67.4313L172.378 67.0963C169.596 66.9688 167.334 69.0771 167.334 71.8054V81.0522C160.47 81.6236 153.854 83.1674 147.634 85.5539L142.728 77.1949C141.286 74.739 138.083 73.7862 135.569 75.0751L128.847 78.522C126.305 79.8259 125.433 82.8939 126.902 85.3673L131.986 93.9197C126.421 97.8535 121.447 102.563 117.234 107.902L108.038 102.699C105.431 101.224 102.085 101.989 100.57 104.416L96.5275 110.89C95.0022 113.333 95.9074 116.503 98.5453 117.963L108.061 123.228C105.423 129.304 103.64 135.817 102.865 142.628L91.4509 142.648C88.3795 142.653 85.8806 144.981 85.8806 147.848V155.472C85.8806 158.339 88.3795 160.632 91.4509 160.594L103.168 160.448C104.156 167.099 106.11 173.43 108.887 179.309L98.5453 185.178C95.9085 186.675 95.0033 189.857 96.5275 192.278L100.57 198.696C102.085 201.101 105.431 201.818 108.038 200.306L118.498 194.24C122.677 199.183 127.538 203.526 132.933 207.141L126.902 217.37C125.433 219.865 126.305 222.92 128.847 224.188L135.569 227.54C138.082 228.793 141.286 227.796 142.728 225.319L148.708 215.045C154.613 217.128 160.864 218.451 167.334 218.907V230.361C167.334 233.088 169.596 235.165 172.378 234.998L179.728 234.559C182.475 234.394 184.695 232.075 184.695 229.377V218.048C190.974 216.975 196.946 215.096 202.504 212.542L208.054 221.877C209.38 224.107 212.308 224.735 214.591 223.286L220.628 219.454C222.886 218.022 223.658 215.068 222.356 212.851L216.969 203.674C221.791 199.859 226.084 195.444 229.735 190.562L238.72 195.534C240.925 196.755 243.736 195.878 245.001 193.585L248.357 187.502C249.614 185.222 248.869 182.378 246.686 181.143L237.997 176.227C240.35 170.708 241.997 164.831 242.828 158.711L252.527 158.59C255.027 158.559 257.048 156.447 257.048 153.873V147.026C257.048 144.452 255.028 142.368 252.527 142.373V142.371ZM176.061 198.733C148.114 199.77 124.725 178.079 124.725 150.252C124.725 122.425 148.114 100.435 176.061 101.115C203.06 101.772 224.282 123.477 224.282 149.616C224.282 175.754 203.06 197.731 176.061 198.733Z" fill="#97A6B7"/>
<path d="M144.788 74.7169L138.061 74.4851L135.742 80.5155L144.788 74.7169Z" fill="#97A6B7"/>
<path d="M211.493 77.501L219.25 77.5775V83.2996L211.493 77.501Z" fill="#97A6B7"/>
<path d="M241.055 105.102L248.788 105.414L246.855 109.744L241.055 105.102Z" fill="#97A6B7"/>
<path d="M253.195 142.452L261.004 143.071L258.453 146.86L253.195 142.452Z" fill="#97A6B7"/>
<path d="M240.204 196.036L247.782 197.119L248.71 190.933L240.204 196.036Z" fill="#97A6B7"/>
<path d="M211.209 223.95L218.013 225.187L218.555 220.161L211.209 223.95Z" fill="#97A6B7"/>
<path d="M177.187 236.012L171.079 234.93L176.336 227.12L177.187 236.012Z" fill="#97A6B7"/>
<path d="M144.093 229.441L136.979 227.971L142.469 221.322L144.093 229.441Z" fill="#97A6B7"/>
<path d="M104.117 102.012L111.539 102.244L108.601 107.656L104.117 102.012Z" fill="#97A6B7"/>
<path d="M89.3484 160.236L96.152 161.241L95.6107 155.674L89.3484 160.236Z" fill="#97A6B7"/>
<path d="M103.961 200.985L110.612 202.068L111.153 197.66L103.961 200.985Z" fill="#97A6B7"/>
<path d="M260.158 142.984L250.634 143C249.978 136.71 248.466 130.673 246.216 125L254.268 120.332C256.469 119.056 257.221 116.178 255.952 113.897L252.569 107.813C251.293 105.518 248.459 104.676 246.235 105.938L238.283 110.45C234.582 105.264 230.165 100.589 225.161 96.5681L229.735 88.7122C231.047 86.4579 230.269 83.492 227.992 82.0791L221.904 78.303C219.602 76.8751 216.65 77.5496 215.314 79.8178L210.73 87.5926C204.84 84.8492 198.476 82.8707 191.761 81.8091V72.589C191.761 69.8687 189.523 67.5623 186.754 67.4359L179.342 67.0975C176.538 66.97 174.257 69.0945 174.257 71.8449V81.167C167.336 81.743 160.665 83.2984 154.394 85.7057L149.446 77.2784C147.993 74.8016 144.764 73.8419 142.229 75.1412L135.451 78.6171C132.889 79.9314 132.008 83.0237 133.49 85.518L138.616 94.14C133.006 98.1062 127.99 102.854 123.743 108.237L114.47 102.993C111.842 101.506 108.468 102.276 106.94 104.723L102.864 111.251C101.326 113.714 102.239 116.909 104.898 118.38L114.492 123.688C111.832 129.814 110.035 136.381 109.254 143.246L97.7456 143.265C94.6487 143.271 92.1289 145.618 92.1289 148.508V156.193C92.1289 159.084 94.6487 161.395 97.7456 161.357L109.56 161.21C110.558 167.915 112.527 174.297 115.327 180.225L104.899 186.141C102.24 187.65 101.327 190.859 102.865 193.3L106.941 199.769C108.469 202.194 111.843 202.917 114.472 201.393L125.019 195.278C129.233 200.262 134.133 204.641 139.573 208.285L133.492 218.598C132.01 221.112 132.89 224.192 135.453 225.471L142.231 228.85C144.765 230.114 147.994 229.108 149.449 226.611L155.479 216.254C161.434 218.354 167.736 219.687 174.259 220.147V231.694C174.259 234.444 176.54 236.536 179.345 236.369L186.757 235.926C189.526 235.761 191.764 233.422 191.764 230.701V219.28C198.094 218.198 204.116 216.304 209.721 213.729L215.315 223.139C216.652 225.387 219.605 226.02 221.905 224.56L227.993 220.698C230.269 219.254 231.048 216.276 229.736 214.04L224.305 204.789C229.167 200.942 233.495 196.492 237.177 191.569L246.236 196.582C248.46 197.813 251.294 196.93 252.57 194.616L255.953 188.484C257.221 186.185 256.469 183.318 254.269 182.073L245.509 177.118C247.882 171.554 249.541 165.63 250.379 159.459L260.159 159.338C262.68 159.306 264.718 157.177 264.718 154.581V147.679C264.718 145.084 262.68 142.983 260.159 142.987L260.158 142.984ZM183.058 199.805C154.879 200.851 131.296 178.983 131.296 150.929C131.296 122.875 154.878 100.706 183.058 101.392C210.28 102.054 231.678 123.936 231.678 150.288C231.678 176.64 210.28 198.796 183.058 199.805Z" fill="#D8DEE8"/>
<path d="M348.851 143.046L343.769 142.102C344.05 138.68 343.847 135.309 343.215 132.058L347.978 130.373C349.279 129.913 349.969 128.453 349.52 127.11L348.326 123.525C347.875 122.173 346.448 121.44 345.135 121.891L340.442 123.502C338.987 120.365 337.099 117.428 334.833 114.782L338.06 111.05C338.986 109.979 338.868 108.318 337.795 107.338L334.926 104.714C333.841 103.722 332.199 103.786 331.259 104.862L328.036 108.551C325.168 106.499 321.971 104.805 318.498 103.566L319.422 98.6474C319.694 97.1963 318.732 95.7417 317.267 95.3963L313.348 94.4737C311.865 94.1248 310.436 95.03 310.16 96.4974L309.227 101.47C305.479 101.084 301.764 101.246 298.178 101.902L296.382 96.9111C295.855 95.445 294.229 94.6093 292.747 95.0486L288.784 96.2238C287.285 96.6689 286.506 98.2301 287.046 99.709L288.917 104.822C285.527 106.376 282.377 108.405 279.572 110.852L275.151 107.126C273.898 106.069 272.022 106.143 270.961 107.295L268.133 110.369C267.067 111.529 267.234 113.324 268.504 114.375L273.089 118.168C271.056 121.17 269.441 124.491 268.336 128.076L262.196 126.935C260.543 126.628 258.964 127.628 258.675 129.169L257.905 133.27C257.615 134.811 258.728 136.297 260.384 136.587L266.7 137.692C266.561 141.368 266.972 144.97 267.871 148.413L261.717 150.526C260.148 151.064 259.34 152.685 259.915 154.141L261.441 158C262.013 159.447 263.74 160.17 265.295 159.62L271.533 157.414C273.282 160.494 275.457 163.321 277.993 165.81L273.718 170.702C272.676 171.895 272.836 173.626 274.075 174.565L277.351 177.046C278.576 177.975 280.399 177.762 281.425 176.575L285.679 171.653C288.645 173.37 291.873 174.712 295.306 175.61L294.149 181.77C293.873 183.237 294.88 184.581 296.393 184.773L300.39 185.278C301.884 185.467 303.312 184.443 303.585 182.992L304.729 176.899C308.214 176.956 311.614 176.548 314.863 175.736L316.905 181.316C317.393 182.649 318.905 183.283 320.278 182.734L323.912 181.283C325.271 180.74 325.984 179.23 325.508 177.906L323.537 172.428C326.516 170.862 329.27 168.922 331.727 166.665L336.057 170.246C337.12 171.125 338.721 170.938 339.633 169.833L342.052 166.9C342.958 165.802 342.844 164.196 341.796 163.312L337.62 159.791C339.443 157.06 340.92 154.066 341.986 150.858L347.214 151.773C348.562 152.008 349.861 151.076 350.122 149.692L350.813 146.01C351.072 144.625 350.196 143.301 348.852 143.051L348.851 143.046ZM302.037 165.637C286.903 163.373 276.514 149.347 279.324 134.381C282.133 119.416 296.932 109.951 311.894 113.139C326.347 116.218 335.569 130.034 332.93 144.091C330.291 158.147 316.659 167.824 302.038 165.637H302.037Z" fill="#97A6B7"/>
<path d="M297.741 95.7846L294.146 94.9802L292.29 97.9891L297.741 95.7846Z" fill="#97A6B7"/>
<path d="M333.332 104.016L337.497 104.841L336.919 107.918L333.332 104.016Z" fill="#97A6B7"/>
<path d="M346.444 121.844L350.572 122.793L349.094 124.927L346.444 121.844Z" fill="#97A6B7"/>
<path d="M349.202 143.156L353.339 144.278L351.585 146.058L349.202 143.156Z" fill="#97A6B7"/>
<path d="M336.806 170.663L340.772 172.011L341.895 168.777L336.806 170.663Z" fill="#97A6B7"/>
<path d="M318.394 182.746L321.927 184.099L322.726 181.451L318.394 182.746Z" fill="#97A6B7"/>
<path d="M298.879 185.8L295.703 184.6L299.319 180.932L298.879 185.8Z" fill="#97A6B7"/>
<path d="M281.744 178.923L278.067 177.415L281.691 174.393L281.744 178.923Z" fill="#97A6B7"/>
<path d="M273.111 106.357L277.08 107.231L274.953 109.845L273.111 106.357Z" fill="#97A6B7"/>
<path d="M259.29 136.178L262.848 137.407L263.119 134.357L259.29 136.178Z" fill="#97A6B7"/>
<path d="M263.035 159.568L266.503 160.822L267.239 158.507L263.035 159.568Z" fill="#97A6B7"/>
<path d="M352.893 144.146L347.77 143.194C348.053 139.744 347.849 136.345 347.212 133.067L352.014 131.369C353.326 130.906 354.021 129.434 353.569 128.079L352.364 124.465C351.909 123.102 350.47 122.362 349.146 122.817L344.414 124.441C342.946 121.279 341.043 118.317 338.759 115.65L342.012 111.887C342.945 110.807 342.826 109.133 341.745 108.145L338.852 105.5C337.759 104.499 336.102 104.564 335.154 105.649L331.904 109.367C329.014 107.297 325.79 105.59 322.287 104.342L323.217 99.3834C323.492 97.9207 322.522 96.4534 321.045 96.1069L317.094 95.1762C315.599 94.8238 314.157 95.7371 313.88 97.2161L312.939 102.229C309.16 101.841 305.415 102.003 301.799 102.665L299.989 97.6333C299.457 96.1544 297.817 95.3118 296.323 95.7557L292.327 96.9402C290.816 97.3887 290.031 98.9627 290.576 100.453L292.461 105.607C289.043 107.173 285.867 109.22 283.039 111.687L278.582 107.93C277.319 106.865 275.426 106.939 274.357 108.1L271.506 111.2C270.431 112.369 270.599 114.18 271.881 115.239L276.504 119.063C274.455 122.089 272.825 125.438 271.711 129.052L265.52 127.901C263.853 127.592 262.262 128.599 261.97 130.153L261.193 134.286C260.901 135.841 262.023 137.338 263.692 137.63L270.061 138.744C269.921 142.451 270.336 146.083 271.242 149.552L265.036 151.681C263.454 152.225 262.64 153.858 263.22 155.325L264.759 159.216C265.337 160.674 267.078 161.404 268.645 160.849L274.935 158.625C276.697 161.73 278.892 164.58 281.448 167.089L277.137 172.022C276.086 173.224 276.248 174.97 277.497 175.916L280.8 178.419C282.036 179.354 283.874 179.14 284.908 177.944L289.196 172.982C292.187 174.712 295.441 176.065 298.903 176.971L297.737 183.181C297.459 184.66 298.474 186.016 300 186.209L304.031 186.719C305.536 186.909 306.976 185.877 307.251 184.414L308.404 178.273C311.918 178.33 315.348 177.919 318.622 177.1L320.68 182.726C321.172 184.07 322.696 184.709 324.081 184.156L327.745 182.693C329.115 182.146 329.834 180.623 329.354 179.289L327.368 173.765C330.371 172.188 333.148 170.231 335.625 167.955L339.991 171.565C341.063 172.452 342.676 172.263 343.595 171.148L346.034 168.192C346.949 167.084 346.833 165.466 345.776 164.574L341.565 161.025C343.403 158.273 344.894 155.254 345.967 152.02L351.238 152.941C352.597 153.179 353.907 152.239 354.169 150.843L354.866 147.131C355.128 145.735 354.245 144.4 352.889 144.147L352.893 144.146ZM305.693 166.92C290.432 164.637 279.958 150.497 282.79 135.408C285.623 120.321 300.543 110.78 315.629 113.994C330.202 117.099 339.501 131.027 336.841 145.199C334.181 159.37 320.436 169.126 305.693 166.92Z" fill="#D8DEE8"/>
<path d="M81.5389 326.881C75.7507 327.219 71.0184 323.173 71.0184 317.859V126.346C71.0184 121.033 75.7507 116.881 81.5389 117.091L354.782 127.006C359.21 127.167 362.796 131.054 362.796 135.67V302.075C362.796 306.692 359.209 310.658 354.782 310.917L81.5389 326.881Z" fill="url(#paint0_linear_117_3292)"/>
<path d="M259.683 348.079C255.316 346.559 252.051 342.669 251.13 337.89L244.774 304.882L190.398 306.908L183.706 341.295C182.769 346.111 186.52 350.943 190.841 352.716L213.591 362.055C217.822 363.793 222.37 364.485 226.89 364.078L274.969 359.763C276.375 359.636 277.502 358.477 277.665 356.99C277.829 355.503 278.814 353.833 277.473 353.367L259.682 348.079H259.683Z" fill="url(#paint1_linear_117_3292)"/>
<path d="M260.221 346.071C255.858 344.57 252.597 340.73 251.677 336.011L245.327 303.418L192.276 305.421L185.591 339.375C184.654 344.131 187.132 348.899 191.449 350.65L214.176 359.872C218.403 361.587 222.946 362.27 227.463 361.87L275.493 357.609C276.897 357.485 278.023 356.34 278.187 354.872C278.35 353.403 277.505 352.017 276.167 351.557L260.222 346.072L260.221 346.071Z" fill="url(#paint2_linear_117_3292)"/>
<path d="M83.7028 326.881C77.9146 327.219 73.1823 323.173 73.1823 317.859V126.346C73.1823 121.033 77.9146 116.881 83.7028 117.091L356.946 127.006C361.374 127.167 364.96 131.054 364.96 135.67V302.075C364.96 306.692 361.373 310.658 356.946 310.917L83.7028 326.881Z" fill="url(#paint3_linear_117_3292)"/>
<path d="M356.946 130.92L83.7028 121.555C80.607 121.45 78.0919 123.664 78.0919 126.502V317.592C78.0919 320.431 80.607 322.59 83.7028 322.415L356.946 307.001C359.319 306.868 361.238 304.752 361.238 302.275V135.549C361.238 133.073 359.319 130.999 356.946 130.918V130.92Z" fill="url(#paint4_linear_117_3292)"/>
<path d="M83.7028 306.135C82.4974 306.194 81.5157 305.343 81.5157 304.238V126.612C81.5157 125.508 82.4974 124.642 83.7028 124.681L356.946 133.66C357.871 133.691 358.623 134.502 358.623 135.469V290.894C358.623 291.861 357.871 292.684 356.946 292.729L83.7028 306.135Z" fill="white"/>
<path d="M347.642 283.152L95.6883 294.216V151.228L347.642 156.516V283.152Z" fill="url(#paint5_linear_117_3292)"/>
<path d="M347.642 152.19L95.6883 146.344V134.132L347.642 141.375V152.19Z" fill="#B3E5E0"/>
<path d="M328.505 146.286C328.505 147.058 327.896 147.668 327.147 147.65C326.395 147.631 325.786 146.989 325.786 146.215C325.786 145.441 326.395 144.831 327.147 144.851C327.898 144.871 328.505 145.513 328.505 146.286Z" fill="white"/>
<path d="M334.081 146.431C334.081 147.2 333.476 147.81 332.73 147.791C331.983 147.773 331.377 147.132 331.377 146.361C331.377 145.59 331.983 144.981 332.73 145.001C333.476 145.021 334.081 145.662 334.081 146.432V146.431Z" fill="white"/>
<path d="M339.626 146.574C339.626 147.341 339.024 147.949 338.282 147.93C337.54 147.912 336.937 147.273 336.937 146.504C336.937 145.734 337.54 145.128 338.282 145.147C339.024 145.167 339.626 145.806 339.626 146.574Z" fill="white"/>
<g opacity="0.68">
<path d="M296.648 260.331L101.183 266.468V154.942L296.648 158.724V260.331Z" fill="white"/>
</g>
<path opacity="0.68" d="M344.95 188.263L300.066 188.051V158.791L344.95 159.66V188.263Z" fill="white"/>
<path d="M344.95 193.502L300.066 193.412V191.22L344.95 191.36V193.502Z" fill="white"/>
<path d="M328.25 197.2L300.066 197.196V195.006L328.25 195.04V197.2Z" fill="white"/>
<path opacity="0.68" d="M344.95 230.223L300.066 230.975V201.715L344.95 201.62V230.223Z" fill="white"/>
<path d="M344.95 235.463L300.066 236.335V234.145L344.95 233.321V235.463Z" fill="white"/>
<path d="M328.25 239.518L300.066 240.12V237.929L328.25 237.359V239.518Z" fill="white"/>
<path opacity="0.68" d="M344.95 272.183L300.066 273.9V244.639L344.95 243.579V272.183Z" fill="white"/>
<path d="M344.95 277.423L300.066 279.259V277.068L344.95 275.281V277.423Z" fill="white"/>
<path d="M328.25 281.838L300.066 283.044V280.852L328.25 279.677V281.838Z" fill="white"/>
<path d="M236.45 274.012L101.183 279.033V271.702L236.45 267.132V274.012Z" fill="white"/>
<path d="M296.648 271.778L277.349 272.495V265.75L296.648 265.099V271.778Z" fill="white"/>
<path d="M274.367 272.605L254.634 273.337V266.518L274.367 265.851V272.605Z" fill="white"/>
<path d="M163.068 285.347L101.183 287.893V284.227L163.068 281.784V285.347Z" fill="white"/>
<path d="M338.903 124.67L338.412 175.877C338.333 183.904 331.79 190.302 323.758 190.302H215.104C206.463 190.302 199.551 183.617 199.703 175.23L199.798 170.046L199.819 169.013L200.688 121.747C200.832 113.802 207.348 107.465 215.43 107.112C215.801 107.096 216.18 107.094 216.559 107.104L216.703 107.11L324.602 109.878C332.593 110.08 338.978 116.7 338.904 124.67H338.903Z" fill="url(#paint6_linear_117_3292)"/>
<path d="M225.559 190.301H171.605C170.464 190.301 170.04 189.003 170.995 188.39L198.135 171.113L199.799 170.076L208.001 164.851L209.183 163.985L225.56 190.301H225.559Z" fill="url(#paint7_linear_117_3292)"/>
<path d="M337.251 124.67L336.761 175.996C336.683 183.954 330.257 190.306 322.324 190.417C322.253 190.422 322.18 190.302 322.109 190.302H213.456C204.814 190.302 197.899 183.617 198.055 175.23L198.134 171.113L198.15 170.076L199.04 121.747C199.192 113.431 206.314 106.881 214.906 107.099L215.429 107.115L217.04 107.158L322.954 109.877C330.941 110.079 337.33 116.699 337.251 124.669V124.67Z" fill="url(#paint8_linear_117_3292)"/>
<path d="M223.907 190.301H169.958C168.813 190.301 168.388 189.003 169.348 188.39L198.152 170.046L199.82 169.013L207.535 164.098L208.001 164.74L223.908 190.301H223.907Z" fill="url(#paint9_linear_117_3292)"/>
<path d="M321.946 190.535V190.301H169.957C168.812 190.301 168.387 189.003 169.347 188.39L198.151 170.046L199.041 121.732C199.193 113.416 206.315 106.873 214.907 107.092L215.43 107.112C215.801 107.095 216.18 107.094 216.559 107.104L216.703 107.109C216.817 107.126 216.929 107.143 217.04 107.159C225.109 108.448 234.475 112.63 237.367 124.681C239.294 132.709 240.975 139.354 243.962 144.576C244.667 145.816 245.449 146.978 246.33 148.057C249.683 152.192 254.419 155.15 261.702 156.896C263.267 157.275 264.955 157.596 266.768 157.86C270.212 158.363 274.124 158.663 278.581 158.758C279.623 158.779 280.694 158.791 281.798 158.791C282.903 158.791 283.743 158.828 284.748 158.897C307.489 160.475 308.874 179.384 321.947 190.535H321.946Z" fill="url(#paint10_linear_117_3292)"/>
<path d="M254.54 143.592V138.365L243.998 144.576L236.157 149.218V152.287L254.54 161.827V156.621L241.646 150.521L246.223 148.058L254.54 143.593V143.592Z" fill="white"/>
<path d="M269.182 134.205L261.702 156.897L258.608 166.288L263.963 166.342L266.768 157.861L274.619 134.132L269.182 134.206V134.205Z" fill="white"/>
<path d="M278.642 138.113V143.434L292.337 150.441L278.642 156.694V161.99L285.02 158.897L298.66 152.274V149.058L278.642 138.114V138.113Z" fill="white"/>
<defs>
<linearGradient id="paint0_linear_117_3292" x1="101.505" y1="226.139" x2="149.962" y2="221.077" gradientUnits="userSpaceOnUse">
<stop stop-color="#26264F"/>
<stop offset="1" stop-color="#444B8C"/>
</linearGradient>
<linearGradient id="paint1_linear_117_3292" x1="204.799" y1="374.175" x2="215.066" y2="359.47" gradientUnits="userSpaceOnUse">
<stop stop-color="#444B8C"/>
<stop offset="1" stop-color="#26264F"/>
</linearGradient>
<linearGradient id="paint2_linear_117_3292" x1="235.878" y1="370.405" x2="220.165" y2="285.109" gradientUnits="userSpaceOnUse">
<stop stop-color="#444B8C"/>
<stop offset="1" stop-color="#26264F"/>
</linearGradient>
<linearGradient id="paint3_linear_117_3292" x1="274.638" y1="134.939" x2="353.268" y2="22.7157" gradientUnits="userSpaceOnUse">
<stop stop-color="#444B8C"/>
<stop offset="1" stop-color="#26264F"/>
</linearGradient>
<linearGradient id="paint4_linear_117_3292" x1="240.486" y1="148.264" x2="142.131" y2="460.656" gradientUnits="userSpaceOnUse">
<stop stop-color="#444B8C"/>
<stop offset="1" stop-color="#26264F"/>
</linearGradient>
<linearGradient id="paint5_linear_117_3292" x1="245.817" y1="167.386" x2="153.611" y2="357.515" gradientUnits="userSpaceOnUse">
<stop stop-color="#00A896"/>
<stop offset="1" stop-color="#036D5E"/>
</linearGradient>
<linearGradient id="paint6_linear_117_3292" x1="319.518" y1="82.8139" x2="222.491" y2="211.087" gradientUnits="userSpaceOnUse">
<stop stop-color="#311944"/>
<stop offset="1" stop-color="#893976"/>
</linearGradient>
<linearGradient id="paint7_linear_117_3292" x1="293.565" y1="63.3039" x2="196.589" y2="191.511" gradientUnits="userSpaceOnUse">
<stop stop-color="#311944"/>
<stop offset="1" stop-color="#893976"/>
</linearGradient>
<linearGradient id="paint8_linear_117_3292" x1="317.896" y1="82.8359" x2="220.87" y2="211.108" gradientUnits="userSpaceOnUse">
<stop stop-color="#00A896"/>
<stop offset="1" stop-color="#036D5E"/>
</linearGradient>
<linearGradient id="paint9_linear_117_3292" x1="291.703" y1="63.5833" x2="194.921" y2="191.533" gradientUnits="userSpaceOnUse">
<stop stop-color="#00A896"/>
<stop offset="1" stop-color="#036D5E"/>
</linearGradient>
<linearGradient id="paint10_linear_117_3292" x1="269.946" y1="141.329" x2="209.838" y2="220.794" gradientUnits="userSpaceOnUse">
<stop stop-color="#00A896"/>
<stop offset="1" stop-color="#036D5E"/>
</linearGradient>
</defs>
</svg>
