<svg width="600" height="600" viewBox="0 0 600 600" fill="none" xmlns="http://www.w3.org/2000/svg">
<path d="M473.741 460.781C461.654 473.24 450.839 480.563 442.559 486.092C361.803 540.014 269.489 524.473 240.948 519.16C194.9 510.59 156.029 504.543 122.633 474.37C46.745 405.809 50.4372 262.785 108.424 174.189C115.299 163.684 173.198 77.8593 265.713 65.7655C267.975 65.4695 269.664 65.3013 271.142 65.1445C285.453 63.6291 374.14 55.6318 446.455 116.217C456.807 124.889 473.465 140.533 488.913 164.39C545.397 251.626 545.576 386.735 473.741 460.779V460.781Z" fill="white" fill-opacity="0.2"/>
<path d="M403.697 429.141C386.004 429.796 371.565 416.297 371.565 398.984V195.606L418.73 195.951C421.38 195.97 423.922 194.901 425.762 192.995L427.703 190.983L308.089 63.9962V245.85C308.089 247.761 306.469 249.304 304.467 249.298C303.024 249.293 301.739 248.463 301.143 247.203C297.773 240.063 290.093 235.134 281.232 235.462C270.406 235.861 261.619 244.274 261.28 254.592C260.909 265.881 270.445 275.127 282.209 275.106C290.652 275.091 297.894 270.304 301.14 263.444C301.735 262.185 303.021 261.359 304.465 261.361C306.466 261.362 308.088 262.915 308.088 264.826V417.28C308.088 453.215 338.363 491.803 375.186 489.975L523.695 432.238L522.082 429.776C520.092 426.736 516.653 424.958 513.021 425.094L403.698 429.142L403.697 429.141Z" fill="#007060"/>
<path d="M208.729 436.362C227.769 435.657 243.095 420.674 243.095 402.893V194.667L194.419 194.311C191.897 194.293 190.616 191.267 192.359 189.443L236.677 143.056L308.288 283.342C308.288 321.786 309.909 323.313 311.905 323.284C313.341 323.263 314.622 322.422 315.212 321.16C318.556 314.017 326.148 309.074 334.845 309.356C345.387 309.699 353.872 317.908 354.199 328.025C354.555 339.092 345.348 348.356 333.89 348.581C325.596 348.744 318.438 344.13 315.215 337.352C314.623 336.108 313.342 335.303 311.905 335.327C309.907 335.361 308.288 336.938 308.288 338.85V417.27C308.288 453.204 120.464 510.215 82.103 512.119L79.3051 507.847C77.9854 505.832 77.2819 503.474 77.2819 501.065V448.669C77.2819 444.516 80.5682 441.105 84.7181 440.951L208.73 436.358L208.729 436.362Z" fill="#191919"/>
<path d="M301.14 263.442C301.735 262.184 303.021 261.357 304.465 261.359C306.466 261.361 308.088 262.913 308.088 264.825V298.837C310.852 296.474 313.31 293.777 315.404 290.821C324.474 278.022 327.218 261.23 323.863 246.243C322.221 238.912 319.022 231.801 314.015 225.951C312.238 223.876 310.248 222.005 308.088 220.349V245.846C308.088 247.758 306.467 249.301 304.465 249.294C303.023 249.29 301.737 248.46 301.142 247.2C297.773 240.06 290.091 235.13 281.23 235.459C270.404 235.858 261.618 244.271 261.278 254.589C260.908 265.878 270.443 275.123 282.207 275.104C290.651 275.09 297.893 270.302 301.139 263.442H301.14Z" fill="url(#paint0_linear_29_7765)"/>
<path d="M407.872 435.007C390.179 435.661 375.739 422.162 375.739 404.85V189.11L427.054 189.485L312.262 56.3483V239.352C312.262 241.263 310.641 242.806 308.639 242.799C307.197 242.795 305.911 241.965 305.316 240.705C301.946 233.565 294.265 228.636 285.404 228.964C274.578 229.363 265.792 237.776 265.452 248.094C265.082 259.383 274.617 268.629 286.381 268.608C294.825 268.593 302.067 263.806 305.313 256.946C305.908 255.687 307.194 254.861 308.638 254.863C310.638 254.864 312.26 256.417 312.26 258.328V423.142C312.26 459.078 342.535 497.665 379.358 495.838L523.046 488.707V430.74L407.871 435.005L407.872 435.007Z" fill="#00A896"/>
<path d="M212.905 442.226C231.944 441.521 247.271 426.539 247.271 408.757V188.169L191.929 187.765L312.463 56.3533V325.739C312.463 327.65 314.083 329.177 316.079 329.148C317.515 329.127 318.796 328.286 319.386 327.024C322.73 319.881 330.322 314.939 339.019 315.22C349.561 315.563 358.046 323.772 358.373 333.89C358.729 344.957 349.522 354.22 338.064 354.445C329.77 354.608 322.612 349.994 319.389 343.216C318.797 341.973 317.516 341.167 316.079 341.192C314.081 341.226 312.463 342.802 312.463 344.714V423.134C312.463 459.068 281.804 500.678 243.445 502.582L81.4561 510.621V447.091L212.905 442.223V442.226Z" fill="#3D405B"/>
<path d="M313.562 196.976C312.867 197.732 311.848 198.209 310.709 198.205C309.199 198.201 307.85 197.33 307.228 196.011C303.697 188.528 295.646 183.362 286.362 183.707C275.017 184.126 265.81 192.941 265.454 203.754C265.066 215.583 275.059 225.272 287.385 225.251C296.233 225.236 303.823 220.218 307.224 213.031C307.849 211.713 309.196 210.847 310.709 210.849C311.848 210.849 312.867 211.333 313.562 212.091V196.978V196.976Z" fill="#00A896"/>
<defs>
<linearGradient id="paint0_linear_29_7765" x1="296.888" y1="262.883" x2="404.426" y2="540.922" gradientUnits="userSpaceOnUse">
<stop stop-color="#311944"/>
<stop offset="1" stop-color="#893976"/>
</linearGradient>
</defs>
</svg>
